<svg width="20" height="22" viewBox="0 0 20 22" fill="none" xmlns="http://www.w3.org/2000/svg">
<path fill-rule="evenodd" clip-rule="evenodd" d="M4.99856 2.07166C6.32502 0.7452 8.1241 0 10 0C11.8759 0 13.675 0.7452 15.0014 2.07166C16.3279 3.39813 17.0731 5.1972 17.0731 7.0731C17.0731 10.308 17.7646 12.2982 18.3876 13.4403C18.7008 14.0144 19.0033 14.3867 19.2084 14.6032C19.3113 14.7118 19.3905 14.7821 19.4353 14.8195C19.4562 14.8369 19.4697 14.8472 19.4748 14.851C19.9093 15.1518 20.1012 15.6995 19.9476 16.2069C19.7918 16.7212 19.3178 17.073 18.7804 17.073H1.2196C0.682201 17.073 0.208149 16.7212 0.0524212 16.2069C-0.101213 15.6995 0.0907044 15.1518 0.525237 14.851C0.530147 14.8476 0.535086 14.8442 0.540057 14.8409L0.537259 14.8428L0.532417 14.8461L0.525779 14.8507C0.524034 14.8519 0.523129 14.8526 0.523033 14.8526C0.52296 14.8527 0.523369 14.8524 0.524247 14.8517C0.524529 14.8515 0.524859 14.8513 0.525237 14.851C0.530265 14.8472 0.543761 14.8369 0.564651 14.8195C0.609541 14.7821 0.688743 14.7118 0.791608 14.6032C0.996702 14.3867 1.29924 14.0144 1.6124 13.4403C2.23536 12.2982 2.9269 10.308 2.9269 7.0731C2.9269 5.1972 3.6721 3.39813 4.99856 2.07166ZM0.540057 14.8409C0.540072 14.8409 0.540086 14.8409 0.540101 14.8409L0.540068 14.8409L0.540057 14.8409ZM16.2605 14.634C16.2558 14.6254 16.2511 14.6168 16.2464 14.6082C15.406 13.0674 14.6341 10.6674 14.6341 7.0731C14.6341 5.84406 14.1459 4.66536 13.2768 3.7963C12.4077 2.92724 11.229 2.439 10 2.439C8.77096 2.439 7.59226 2.92724 6.72319 3.7963C5.85413 4.66536 5.3659 5.84406 5.3659 7.0731C5.3659 10.6674 4.59404 13.0674 3.75359 14.6082C3.74889 14.6168 3.74418 14.6254 3.73947 14.634H16.2605ZM0.541584 14.8399C0.541579 14.8399 0.541575 14.8399 0.54157 14.8399L0.541319 14.84C0.541407 14.84 0.541495 14.8399 0.541584 14.8399ZM7.7003 18.701C8.28289 18.3631 9.02913 18.5614 9.36708 19.144C9.4314 19.2549 9.52372 19.3469 9.6348 19.4109C9.74588 19.4749 9.87181 19.5086 10 19.5086C10.1282 19.5086 10.2541 19.4749 10.3652 19.4109C10.4763 19.3469 10.5686 19.2549 10.6329 19.144C10.9709 18.5614 11.7171 18.3631 12.2997 18.701C12.8823 19.039 13.0806 19.7852 12.7427 20.3678C12.4639 20.8483 12.0639 21.2471 11.5825 21.5244C11.1012 21.8016 10.5555 21.9476 10 21.9476C9.44453 21.9476 8.8988 21.8016 8.41746 21.5244C7.93612 21.2471 7.53606 20.8483 7.25734 20.3678C6.91939 19.7852 7.11771 19.039 7.7003 18.701Z" fill="#002561"/>
</svg>
