<svg width="23" height="23" viewBox="0 0 23 23" fill="none" xmlns="http://www.w3.org/2000/svg">
<path fill-rule="evenodd" clip-rule="evenodd" d="M12.8365 2.24723L3.12027 15.3135L0.786522 16.9797C0.564763 17.138 0.380154 17.3427 0.245541 17.5795C0.110928 17.8164 0.0295447 18.0797 0.00705814 18.3512C-0.0154284 18.6227 0.0215209 18.8959 0.115334 19.1516C0.209146 19.4074 0.35757 19.6397 0.550273 19.8322L3.04277 22.3235C3.23534 22.516 3.46752 22.6642 3.72316 22.7579C3.97881 22.8516 4.25179 22.8884 4.52313 22.866C4.79448 22.8435 5.05766 22.7622 5.29441 22.6277C5.53115 22.4932 5.73576 22.3088 5.89402 22.0872L7.56152 19.7535L20.6278 10.0385C21.2698 9.56136 21.8016 8.95152 22.1868 8.25046C22.572 7.5494 22.8016 6.77357 22.8601 5.97579C22.9186 5.17801 22.8045 4.37699 22.5256 3.62726C22.2467 2.87753 21.8096 2.19668 21.244 1.63105C20.6783 1.06542 19.9975 0.628287 19.2477 0.349402C18.498 0.0705174 17.697 -0.0435727 16.8992 0.0148966C16.1014 0.0733659 15.3256 0.303022 14.6245 0.688235C13.9235 1.07345 13.3136 1.60518 12.8365 2.24723ZM6.40777 15.0822L7.79277 16.466L5.91152 17.8635C5.84231 17.9151 5.77863 17.9737 5.72152 18.0385L5.64152 18.1397L4.28902 20.0335L2.83902 18.5835L4.73277 17.2322C4.80312 17.182 4.86805 17.1246 4.92652 17.061L5.00902 16.961L6.40777 15.0822ZM6.73277 1.99848C6.38555 1.64564 5.97192 1.36505 5.51571 1.17287C5.05951 0.980699 4.56977 0.880751 4.07475 0.878794C3.57973 0.876836 3.08922 0.972909 2.63151 1.16147C2.17381 1.35003 1.75796 1.62735 1.40797 1.97743C1.05797 2.3275 0.78075 2.74341 0.592297 3.20117C0.403844 3.65892 0.307888 4.14945 0.309962 4.64447C0.312036 5.1395 0.412098 5.62921 0.60438 6.08537C0.796662 6.54152 1.07736 6.9551 1.43027 7.30223C2.13359 8.00555 3.0875 8.40067 4.08215 8.40067C5.07679 8.40067 6.0307 8.00555 6.73402 7.30223C7.43734 6.59891 7.83246 5.645 7.83246 4.65035C7.83246 3.65571 7.43734 2.7018 6.73402 1.99848" fill="#002561"/>
</svg>
