<svg width="17" height="15" viewBox="0 0 17 15" fill="none" xmlns="http://www.w3.org/2000/svg">
<path d="M10.6608 0C10.9495 0.000192437 11.2292 0.100304 11.4525 0.283333L11.5442 0.366667L12.8458 1.66667H15C15.4205 1.66653 15.8255 1.82534 16.1338 2.11125C16.4421 2.39716 16.631 2.78904 16.6625 3.20833L16.6667 3.33333V13.3333C16.6668 13.7538 16.508 14.1588 16.2221 14.4671C15.9362 14.7754 15.5443 14.9643 15.125 14.9958L15 15H1.66667C1.24619 15.0001 0.841195 14.8413 0.532877 14.5554C0.224559 14.2695 0.0357028 13.8776 0.00416685 13.4583L8.35567e-08 13.3333V3.33333C-0.000132983 2.91285 0.158672 2.50786 0.444581 2.19954C0.73049 1.89123 1.12237 1.70237 1.54167 1.67083L1.66667 1.66667H3.82167L5.12167 0.366667C5.32591 0.162015 5.59479 0.0344979 5.8825 0.00583331L6.00583 0H10.6608ZM8.33333 3.75C7.22826 3.75 6.16846 4.18899 5.38705 4.97039C4.60565 5.75179 4.16667 6.8116 4.16667 7.91667C4.16667 9.02174 4.60565 10.0815 5.38705 10.8629C6.16846 11.6443 7.22826 12.0833 8.33333 12.0833C9.4384 12.0833 10.4982 11.6443 11.2796 10.8629C12.061 10.0815 12.5 9.02174 12.5 7.91667C12.5 6.8116 12.061 5.75179 11.2796 4.97039C10.4982 4.18899 9.4384 3.75 8.33333 3.75ZM8.33333 5.41667C8.66164 5.41667 8.98673 5.48133 9.29004 5.60697C9.59336 5.7326 9.86895 5.91675 10.1011 6.1489C10.3332 6.38105 10.5174 6.65664 10.643 6.95996C10.7687 7.26327 10.8333 7.58836 10.8333 7.91667C10.8333 8.24497 10.7687 8.57006 10.643 8.87338C10.5174 9.17669 10.3332 9.45229 10.1011 9.68443C9.86895 9.91658 9.59336 10.1007 9.29004 10.2264C8.98673 10.352 8.66164 10.4167 8.33333 10.4167C7.67029 10.4167 7.03441 10.1533 6.56557 9.68443C6.09672 9.21559 5.83333 8.57971 5.83333 7.91667C5.83333 7.25363 6.09672 6.61774 6.56557 6.1489C7.03441 5.68006 7.67029 5.41667 8.33333 5.41667Z" fill="#7D7D7D"/>
</svg>
