<svg width="20" height="20" viewBox="0 0 20 20" fill="none" xmlns="http://www.w3.org/2000/svg">
<g clip-path="url(#clip0_462_17097)">
<path d="M10 0C15.523 0 20 4.477 20 10C20 15.523 15.523 20 10 20C8.17818 20.0028 6.39054 19.5054 4.83201 18.562L1.80001 19.454C1.62593 19.5052 1.44126 19.5086 1.26543 19.4638C1.08959 19.4189 0.92908 19.3276 0.800768 19.1992C0.672456 19.0709 0.581083 18.9104 0.536253 18.7346C0.491423 18.5587 0.494793 18.3741 0.546009 18.2L1.43801 15.168C0.494968 13.6093 -0.00241404 11.8218 8.80954e-06 10C8.80954e-06 4.477 4.47701 0 10 0ZM10 2C8.56764 1.99974 7.16147 2.38406 5.92834 3.11282C4.69521 3.84157 3.68036 4.88804 2.98977 6.14294C2.29918 7.39784 1.95817 8.81514 2.00237 10.2468C2.04656 11.6785 2.47433 13.0721 3.24101 14.282C3.46801 14.639 3.54601 15.089 3.41801 15.522L2.97701 17.023L4.47801 16.582C4.91101 16.454 5.36101 16.532 5.71801 16.759C6.76634 17.4228 7.9547 17.8336 9.18915 17.959C10.4236 18.0844 11.6703 17.921 12.8307 17.4816C13.9911 17.0422 15.0334 16.3389 15.8752 15.4273C16.717 14.5157 17.3352 13.4208 17.6809 12.2291C18.0266 11.0374 18.0904 9.78168 17.8673 8.56111C17.6441 7.34053 17.14 6.1886 16.395 5.19638C15.65 4.20415 14.6843 3.39883 13.5744 2.84408C12.4645 2.28933 11.2408 2.00036 10 2ZM6.50001 8.5C6.89783 8.5 7.27936 8.65804 7.56067 8.93934C7.84197 9.22065 8.00001 9.60218 8.00001 10C8.00001 10.3978 7.84197 10.7794 7.56067 11.0607C7.27936 11.342 6.89783 11.5 6.50001 11.5C6.10218 11.5 5.72065 11.342 5.43935 11.0607C5.15804 10.7794 5.00001 10.3978 5.00001 10C5.00001 9.60218 5.15804 9.22065 5.43935 8.93934C5.72065 8.65804 6.10218 8.5 6.50001 8.5ZM13.5 8.5C13.8978 8.5 14.2794 8.65804 14.5607 8.93934C14.842 9.22065 15 9.60218 15 10C15 10.3978 14.842 10.7794 14.5607 11.0607C14.2794 11.342 13.8978 11.5 13.5 11.5C13.1022 11.5 12.7207 11.342 12.4393 11.0607C12.158 10.7794 12 10.3978 12 10C12 9.60218 12.158 9.22065 12.4393 8.93934C12.7207 8.65804 13.1022 8.5 13.5 8.5Z" fill="#2B2E33"/>
</g>
<defs>
<clipPath id="clip0_462_17097">
<rect width="20" height="20" fill="white"/>
</clipPath>
</defs>
</svg>
