<svg width="16" height="17" viewBox="0 0 16 17" fill="none" xmlns="http://www.w3.org/2000/svg">
<path fill-rule="evenodd" clip-rule="evenodd" d="M8.00911 10.1652L13.3973 15.5535C13.6833 15.8394 14.0711 16 14.4754 16C14.8797 16 15.2675 15.8394 15.5535 15.5535C15.8394 15.2676 16 14.8798 16 14.4754C16 14.0711 15.8394 13.6833 15.5535 13.3974L10.1632 8.00913L15.5524 2.62089C15.6939 2.47932 15.8062 2.31126 15.8827 2.12632C15.9593 1.94137 15.9987 1.74316 15.9986 1.54299C15.9986 1.34282 15.9591 1.14463 15.8825 0.959715C15.8058 0.774804 15.6935 0.6068 15.5519 0.465295C15.4104 0.323789 15.2423 0.211555 15.0574 0.134998C14.8724 0.0584415 14.6742 0.0190625 14.474 0.0191097C14.2739 0.0191568 14.0757 0.058629 13.8908 0.135273C13.7058 0.211917 13.5378 0.324231 13.3963 0.465803L8.00911 5.85404L2.62088 0.465803C2.48035 0.32017 2.31223 0.203982 2.12632 0.124019C1.94041 0.0440552 1.74044 0.00191722 1.53807 6.39148e-05C1.3357 -0.00178939 1.13499 0.0366788 0.947644 0.113224C0.760301 0.189769 0.590079 0.302859 0.446909 0.445893C0.30374 0.588928 0.19049 0.759044 0.113768 0.946315C0.0370464 1.13359 -0.00161105 1.33426 5.14303e-05 1.53663C0.00171391 1.739 0.0436629 1.93901 0.123451 2.125C0.203239 2.31098 0.319268 2.47921 0.464769 2.61988L5.85504 8.00913L0.465785 13.3984C0.320285 13.539 0.204256 13.7073 0.124468 13.8933C0.0446794 14.0792 0.00272991 14.2793 0.00106743 14.4816C-0.000595046 14.684 0.0380624 14.8847 0.114784 15.0719C0.191506 15.2592 0.304756 15.4293 0.447925 15.5724C0.591095 15.7154 0.761317 15.8285 0.94866 15.905C1.136 15.9816 1.33671 16.02 1.53908 16.0182C1.74145 16.0163 1.94142 15.9742 2.12733 15.8942C2.31324 15.8143 2.48137 15.6981 2.62189 15.5525L8.00911 10.1652Z" fill="#002561"/>
</svg>
