<svg width="16" height="18" viewBox="0 0 16 18" fill="none" xmlns="http://www.w3.org/2000/svg">
<path d="M15 2C15.2652 2 15.5196 1.89464 15.7071 1.70711C15.8946 1.51957 16 1.26522 16 1C16 0.734784 15.8946 0.48043 15.7071 0.292893C15.5196 0.105357 15.2652 0 15 0H1C0.734784 0 0.48043 0.105357 0.292893 0.292893C0.105357 0.48043 0 0.734784 0 1C0 1.26522 0.105357 1.51957 0.292893 1.70711C0.48043 1.89464 0.734784 2 1 2H15ZM3.05 9.703C3.14287 9.79598 3.25316 9.86974 3.37456 9.92006C3.49596 9.97038 3.62608 9.99629 3.7575 9.99629C3.88892 9.99629 4.01904 9.97038 4.14044 9.92006C4.26184 9.86974 4.37213 9.79598 4.465 9.703L7 7.167V17C7 17.2652 7.10536 17.5196 7.29289 17.7071C7.48043 17.8946 7.73478 18 8 18C8.26522 18 8.51957 17.8946 8.70711 17.7071C8.89464 17.5196 9 17.2652 9 17V7.167L11.536 9.703C11.7236 9.89051 11.9781 9.9958 12.2434 9.9957C12.5086 9.99561 12.763 9.89014 12.9505 9.7025C13.138 9.51486 13.2433 9.26042 13.2432 8.99515C13.2431 8.72988 13.1376 8.47551 12.95 8.288L8.707 4.046C8.51947 3.85853 8.26516 3.75321 8 3.75321C7.73484 3.75321 7.48053 3.85853 7.293 4.046L3.05 8.288C2.95702 8.38087 2.88326 8.49116 2.83294 8.61256C2.78262 8.73396 2.75671 8.86408 2.75671 8.9955C2.75671 9.12692 2.78262 9.25704 2.83294 9.37844C2.88326 9.49984 2.95702 9.61013 3.05 9.703Z" fill="#002561"/>
</svg>
