<svg width="20" height="20" viewBox="0 0 20 20" fill="none" xmlns="http://www.w3.org/2000/svg">
<path fill-rule="evenodd" clip-rule="evenodd" d="M16.3415 0C16.7456 0 17.0732 0.327597 17.0732 0.731707V2.92683H19.2683C19.6724 2.92683 20 3.25443 20 3.65854C20 4.06265 19.6724 4.39024 19.2683 4.39024H17.0732V6.58537C17.0732 6.98948 16.7456 7.31707 16.3415 7.31707C15.9374 7.31707 15.6098 6.98948 15.6098 6.58537V4.39024H13.4146C13.0105 4.39024 12.6829 4.06265 12.6829 3.65854C12.6829 3.25443 13.0105 2.92683 13.4146 2.92683H15.6098V0.731707C15.6098 0.327597 15.9374 0 16.3415 0ZM5.38331 0.97561L10 0.97561C10.4041 0.97561 10.7317 1.30321 10.7317 1.70732C10.7317 2.11143 10.4041 2.43902 10 2.43902H5.41463C4.58297 2.43902 4.00323 2.43959 3.55188 2.47647C3.10908 2.51265 2.85467 2.58009 2.66197 2.67828C2.24893 2.88873 1.91312 3.22454 1.70267 3.63758C1.60448 3.83028 1.53704 4.08469 1.50086 4.52749C1.46398 4.97884 1.46341 5.55858 1.46341 6.39024V14.5854C1.46341 15.417 1.46398 15.9968 1.50086 16.4481C1.53704 16.8909 1.60448 17.1453 1.70267 17.338C1.91312 17.7511 2.24893 18.0869 2.66197 18.2973C2.70676 18.3202 2.75487 18.3413 2.80791 18.3608C2.89312 18.1585 3.02668 18.0064 3.11459 17.9112C3.25515 17.7592 3.44932 17.5827 3.66199 17.3894L11.9541 9.85106C12.1144 9.70534 12.2634 9.56985 12.398 9.46492C12.5447 9.35064 12.715 9.2392 12.9277 9.17012C13.2355 9.07012 13.5655 9.05971 13.8791 9.14011C14.0957 9.19564 14.2727 9.29612 14.4262 9.40093C14.5672 9.49717 14.7245 9.62301 14.8936 9.75835L17.6406 11.9559C17.6591 11.9708 17.6775 11.9854 17.6956 11.9999C18.011 12.2519 18.2589 12.45 18.4519 12.6959C18.693 13.0031 18.8641 13.3591 18.9534 13.7393C19.0248 14.0436 19.0246 14.3609 19.0244 14.7647C19.0244 14.7879 19.0244 14.8113 19.0244 14.8351V14.8619C19.0244 15.0289 19.0244 15.188 19.0239 15.3396C19.0242 15.3483 19.0244 15.3571 19.0244 15.3659C19.0244 15.4041 19.0244 15.4417 19.0244 15.4788C19.0247 16.2768 19.0249 16.8214 18.8997 17.2884C18.7517 17.8407 18.4797 18.3402 18.1148 18.7556C17.9928 18.8945 17.8605 19.024 17.7189 19.1429C17.3159 19.4814 16.8383 19.7345 16.3128 19.8753C15.8458 20.0005 15.3012 20.0003 14.5032 20C14.4661 20 14.4285 20 14.3902 20H13.9331C13.9175 20 13.9019 20 13.8863 20H5.38329C5.36566 20 5.3481 20 5.33061 20L4.67131 20C4.41404 20 4.17682 20 3.98191 19.9871C3.78505 19.9809 3.60236 19.9716 3.43271 19.9577C2.89941 19.9141 2.43098 19.8221 1.9976 19.6012C1.3092 19.2505 0.749513 18.6908 0.398757 18.0024C0.177937 17.569 0.0858788 17.1006 0.0423061 16.5673C-1.29804e-05 16.0493 -7.13497e-06 15.4097 1.92042e-07 14.6167V6.35892C-7.13497e-06 5.56591 -1.29804e-05 4.92628 0.0423061 4.40832C0.0858788 3.87502 0.177937 3.40659 0.398757 2.97321C0.749513 2.28481 1.3092 1.72512 1.9976 1.37437C2.43098 1.15355 2.89941 1.06149 3.43271 1.01792C3.95067 0.975596 4.5903 0.975602 5.38331 0.97561ZM17.0838 17.708C17.2049 17.5557 17.3063 17.3867 17.3841 17.2048C17.4564 17.0357 17.5065 16.8139 17.5333 16.4324C17.5606 16.044 17.561 15.5474 17.561 14.8351C17.561 14.328 17.5564 14.1919 17.5287 14.0737C17.4881 13.9009 17.4103 13.7391 17.3008 13.5995C17.2258 13.504 17.1224 13.4154 16.7264 13.0986L13.9974 10.9154C13.8041 10.7608 13.6906 10.6707 13.6012 10.6096C13.5464 10.5722 13.5207 10.5601 13.5137 10.5572C13.4701 10.5464 13.4245 10.5478 13.3817 10.5613C13.3748 10.5647 13.3499 10.5784 13.2977 10.6192C13.2122 10.6858 13.1046 10.7829 12.9215 10.9494L4.66893 18.4517C4.63696 18.4808 4.60668 18.5083 4.578 18.5345C4.82573 18.5365 5.10243 18.5366 5.41463 18.5366H13.8595C14.5718 18.5366 15.0684 18.5362 15.4567 18.5089C15.8383 18.4821 16.0601 18.432 16.2292 18.3597C16.4444 18.2676 16.6415 18.1426 16.8143 17.9908C16.9123 17.9048 17.0025 17.8101 17.0838 17.708ZM6.09756 5.85366C5.42404 5.85366 4.87805 6.39965 4.87805 7.07317C4.87805 7.74669 5.42404 8.29268 6.09756 8.29268C6.77108 8.29268 7.31707 7.74669 7.31707 7.07317C7.31707 6.39965 6.77108 5.85366 6.09756 5.85366ZM3.41463 7.07317C3.41463 5.59143 4.61582 4.39024 6.09756 4.39024C7.5793 4.39024 8.78049 5.59143 8.78049 7.07317C8.78049 8.55491 7.5793 9.7561 6.09756 9.7561C4.61582 9.7561 3.41463 8.55491 3.41463 7.07317Z" fill="#002561"/>
</svg>
