<svg width="20" height="20" viewBox="0 0 20 20" fill="none" xmlns="http://www.w3.org/2000/svg">
<path d="M10 0C15.523 0 20 4.477 20 10C20 15.523 15.523 20 10 20H2C1.46957 20 0.960859 19.7893 0.585786 19.4142C0.210714 19.0391 0 18.5304 0 18V10C0 4.477 4.477 0 10 0ZM10 12H7C6.73478 12 6.48043 12.1054 6.29289 12.2929C6.10536 12.4804 6 12.7348 6 13C6 13.2652 6.10536 13.5196 6.29289 13.7071C6.48043 13.8946 6.73478 14 7 14H10C10.2652 14 10.5196 13.8946 10.7071 13.7071C10.8946 13.5196 11 13.2652 11 13C11 12.7348 10.8946 12.4804 10.7071 12.2929C10.5196 12.1054 10.2652 12 10 12ZM13 8H7C6.74512 8.00028 6.49997 8.09788 6.31463 8.27285C6.1293 8.44782 6.01776 8.68695 6.00283 8.94139C5.98789 9.19584 6.07067 9.44638 6.23426 9.64183C6.39785 9.83729 6.6299 9.9629 6.883 9.993L7 10H13C13.2549 9.99972 13.5 9.90212 13.6854 9.72715C13.8707 9.55218 13.9822 9.31305 13.9972 9.05861C14.0121 8.80416 13.9293 8.55362 13.7657 8.35817C13.6021 8.16271 13.3701 8.0371 13.117 8.007L13 8Z" fill="#2B2E33"/>
</svg>
