<svg width="22" height="20" viewBox="0 0 22 20" fill="none" xmlns="http://www.w3.org/2000/svg">
<g clip-path="url(#clip0_462_17060)">
<path d="M10.8733 18C10.9399 18 11.0066 17.9833 11.0733 17.95C11.1399 17.9167 11.1899 17.8833 11.2233 17.85L19.4233 9.65C19.6233 9.45 19.7691 9.225 19.8608 8.975C19.9524 8.725 19.9983 8.475 19.9983 8.225C19.9983 7.95833 19.9524 7.70417 19.8608 7.4625C19.7691 7.22083 19.6233 7.00833 19.4233 6.825L15.1733 2.575C14.9899 2.375 14.7774 2.22917 14.5358 2.1375C14.2941 2.04583 14.0399 2 13.7733 2C13.5233 2 13.2733 2.04583 13.0233 2.1375C12.7733 2.22917 12.5483 2.375 12.3483 2.575L12.0733 2.85L13.9233 4.725C14.1733 4.95833 14.3566 5.225 14.4733 5.525C14.5899 5.825 14.6483 6.14167 14.6483 6.475C14.6483 7.175 14.4108 7.7625 13.9358 8.2375C13.4608 8.7125 12.8733 8.95 12.1733 8.95C11.8399 8.95 11.5191 8.89167 11.2108 8.775C10.9024 8.65833 10.6316 8.48333 10.3983 8.25L8.52328 6.4L4.14828 10.775C4.09828 10.825 4.06078 10.8792 4.03578 10.9375C4.01078 10.9958 3.99828 11.0583 3.99828 11.125C3.99828 11.2583 4.04828 11.3792 4.14828 11.4875C4.24828 11.5958 4.36495 11.65 4.49828 11.65C4.56495 11.65 4.63161 11.6333 4.69828 11.6C4.76495 11.5667 4.81495 11.5333 4.84828 11.5L8.24828 8.1L9.64828 9.5L6.27328 12.9C6.22328 12.95 6.18578 13.0042 6.16078 13.0625C6.13578 13.1208 6.12328 13.1833 6.12328 13.25C6.12328 13.3833 6.17328 13.5 6.27328 13.6C6.37328 13.7 6.48995 13.75 6.62328 13.75C6.68995 13.75 6.75661 13.7333 6.82328 13.7C6.88995 13.6667 6.93995 13.6333 6.97328 13.6L10.3733 10.225L11.7733 11.625L8.39828 15.025C8.34828 15.0583 8.31078 15.1083 8.28578 15.175C8.26078 15.2417 8.24828 15.3083 8.24828 15.375C8.24828 15.5083 8.29828 15.625 8.39828 15.725C8.49828 15.825 8.61495 15.875 8.74828 15.875C8.81495 15.875 8.87745 15.8625 8.93578 15.8375C8.99411 15.8125 9.04828 15.775 9.09828 15.725L12.4983 12.35L13.8983 13.75L10.4983 17.15C10.4483 17.2 10.4108 17.2542 10.3858 17.3125C10.3608 17.3708 10.3483 17.4333 10.3483 17.5C10.3483 17.6333 10.4024 17.75 10.5108 17.85C10.6191 17.95 10.7399 18 10.8733 18ZM10.8483 20C10.2316 20 9.68578 19.7958 9.21078 19.3875C8.73578 18.9792 8.45661 18.4667 8.37328 17.85C7.80661 17.7667 7.33161 17.5333 6.94828 17.15C6.56495 16.7667 6.33161 16.2917 6.24828 15.725C5.68161 15.6417 5.21078 15.4042 4.83578 15.0125C4.46078 14.6208 4.23161 14.15 4.14828 13.6C3.51495 13.5167 2.99828 13.2417 2.59828 12.775C2.19828 12.3083 1.99828 11.7583 1.99828 11.125C1.99828 10.7917 2.06078 10.4708 2.18578 10.1625C2.31078 9.85417 2.48995 9.58333 2.72328 9.35L8.52328 3.575L11.7983 6.85C11.8316 6.9 11.8816 6.9375 11.9483 6.9625C12.0149 6.9875 12.0816 7 12.1483 7C12.2983 7 12.4233 6.95417 12.5233 6.8625C12.6233 6.77083 12.6733 6.65 12.6733 6.5C12.6733 6.43333 12.6608 6.36667 12.6358 6.3C12.6108 6.23333 12.5733 6.18333 12.5233 6.15L8.94828 2.575C8.76495 2.375 8.55245 2.22917 8.31078 2.1375C8.06911 2.04583 7.81495 2 7.54828 2C7.29828 2 7.04828 2.04583 6.79828 2.1375C6.54828 2.22917 6.32328 2.375 6.12328 2.575L2.59828 6.125C2.44828 6.275 2.32328 6.45 2.22328 6.65C2.12328 6.85 2.05661 7.05 2.02328 7.25C1.98995 7.45 1.98995 7.65417 2.02328 7.8625C2.05661 8.07083 2.12328 8.26667 2.22328 8.45L0.773281 9.9C0.489948 9.51667 0.281615 9.09583 0.148281 8.6375C0.0149479 8.17917 -0.0350521 7.71667 -0.00171875 7.25C0.0316146 6.78333 0.148281 6.32917 0.348281 5.8875C0.548281 5.44583 0.823281 5.05 1.17328 4.7L4.69828 1.175C5.09828 0.791667 5.54411 0.5 6.03578 0.3C6.52745 0.1 7.03161 0 7.54828 0C8.06495 0 8.56911 0.1 9.06078 0.3C9.55245 0.5 9.98995 0.791667 10.3733 1.175L10.6483 1.45L10.9233 1.175C11.3233 0.791667 11.7691 0.5 12.2608 0.3C12.7524 0.1 13.2566 0 13.7733 0C14.2899 0 14.7941 0.1 15.2858 0.3C15.7774 0.5 16.2149 0.791667 16.5983 1.175L20.8233 5.4C21.2066 5.78333 21.4983 6.225 21.6983 6.725C21.8983 7.225 21.9983 7.73333 21.9983 8.25C21.9983 8.76667 21.8983 9.27083 21.6983 9.7625C21.4983 10.2542 21.2066 10.6917 20.8233 11.075L12.6233 19.25C12.3899 19.4833 12.1191 19.6667 11.8108 19.8C11.5024 19.9333 11.1816 20 10.8483 20Z" fill="#2B2E33"/>
</g>
<defs>
<clipPath id="clip0_462_17060">
<rect width="22" height="20" fill="white"/>
</clipPath>
</defs>
</svg>
