<svg width="19" height="19" viewBox="0 0 19 19" fill="none" xmlns="http://www.w3.org/2000/svg">
<path fill-rule="evenodd" clip-rule="evenodd" d="M2.99921 7.5C2.99921 6.90905 3.11561 6.32389 3.34175 5.77792C3.5679 5.23196 3.89936 4.73588 4.31723 4.31802C4.73509 3.90016 5.23117 3.56869 5.77713 3.34254C6.3231 3.1164 6.90826 3 7.49921 3C8.09016 3 8.67532 3.1164 9.22128 3.34254C9.76725 3.56869 10.2633 3.90016 10.6812 4.31802C11.0991 4.73588 11.4305 5.23196 11.6567 5.77792C11.8828 6.32389 11.9992 6.90905 11.9992 7.5C11.9992 8.69347 11.5251 9.83807 10.6812 10.682C9.83728 11.5259 8.69268 12 7.49921 12C6.30573 12 5.16114 11.5259 4.31723 10.682C3.47331 9.83807 2.99921 8.69347 2.99921 7.5ZM7.49921 1.82446e-08C6.32971 0.000123418 5.17644 0.273742 4.13153 0.799C3.08662 1.32426 2.17902 2.0866 1.48124 3.02512C0.783456 3.96365 0.314824 5.05236 0.112776 6.20427C-0.0892716 7.35619 -0.019135 8.53939 0.317584 9.65937C0.654302 10.7794 1.24827 11.8051 2.05204 12.6546C2.85582 13.5041 3.84712 14.1539 4.94677 14.552C6.04641 14.9502 7.22393 15.0856 8.38525 14.9476C9.54658 14.8095 10.6595 14.4018 11.6352 13.757L16.4382 18.561C16.7196 18.8424 17.1013 19.0005 17.4992 19.0005C17.8972 19.0005 18.2788 18.8424 18.5602 18.561C18.8416 18.2796 18.9997 17.898 18.9997 17.5C18.9997 17.102 18.8416 16.7204 18.5602 16.439L13.7562 11.636C14.5035 10.5056 14.9305 9.19387 14.992 7.84019C15.0535 6.48652 14.747 5.14148 14.1053 3.94801C13.4635 2.75454 12.5104 1.75724 11.3472 1.06209C10.1841 0.366937 8.85428 -9.44841e-05 7.49921 1.82446e-08Z" fill="#2B2E33"/>
</svg>
