<svg width="20" height="20" viewBox="0 0 20 20" fill="none" xmlns="http://www.w3.org/2000/svg">
<path d="M10 0C15.523 0 20 4.477 20 10C20 15.523 15.523 20 10 20H2C1.46957 20 0.960859 19.7893 0.585786 19.4142C0.210714 19.0391 0 18.5304 0 18V10C0 4.477 4.477 0 10 0ZM10 2C7.87827 2 5.84344 2.84285 4.34315 4.34315C2.84285 5.84344 2 7.87827 2 10V18H10C12.1217 18 14.1566 17.1571 15.6569 15.6569C17.1571 14.1566 18 12.1217 18 10C18 7.87827 17.1571 5.84344 15.6569 4.34315C14.1566 2.84285 12.1217 2 10 2ZM10 12C10.2549 12.0003 10.5 12.0979 10.6854 12.2728C10.8707 12.4478 10.9822 12.687 10.9972 12.9414C11.0121 13.1958 10.9293 13.4464 10.7657 13.6418C10.6021 13.8373 10.3701 13.9629 10.117 13.993L10 14H7C6.74512 13.9997 6.49997 13.9021 6.31463 13.7272C6.1293 13.5522 6.01776 13.313 6.00283 13.0586C5.98789 12.8042 6.07067 12.5536 6.23426 12.3582C6.39785 12.1627 6.6299 12.0371 6.883 12.007L7 12H10ZM13 8C13.2652 8 13.5196 8.10536 13.7071 8.29289C13.8946 8.48043 14 8.73478 14 9C14 9.26522 13.8946 9.51957 13.7071 9.70711C13.5196 9.89464 13.2652 10 13 10H7C6.73478 10 6.48043 9.89464 6.29289 9.70711C6.10536 9.51957 6 9.26522 6 9C6 8.73478 6.10536 8.48043 6.29289 8.29289C6.48043 8.10536 6.73478 8 7 8H13Z" fill="#2B2E33"/>
</svg>
