<svg width="20" height="19" viewBox="0 0 20 19" fill="none" xmlns="http://www.w3.org/2000/svg">
<path d="M11.2281 0.421388C10.877 0.148279 10.4449 0 10.0001 0C9.5553 0 9.12319 0.148279 8.7721 0.421388L0.388104 6.94139C-0.363896 7.52839 0.0501037 8.73339 1.0031 8.73339H2.0001V16.7334C2.0001 17.2638 2.21082 17.7725 2.58589 18.1476C2.96096 18.5227 3.46967 18.7334 4.0001 18.7334H8.0001V12.7334C8.0001 12.203 8.21082 11.6942 8.58589 11.3192C8.96096 10.9441 9.46967 10.7334 10.0001 10.7334C10.5305 10.7334 11.0392 10.9441 11.4143 11.3192C11.7894 11.6942 12.0001 12.203 12.0001 12.7334V18.7334H16.0001C16.5305 18.7334 17.0392 18.5227 17.4143 18.1476C17.7894 17.7725 18.0001 17.2638 18.0001 16.7334V8.73339H18.9971C19.9491 8.73339 20.3651 7.52839 19.6121 6.94239L11.2281 0.421388Z" fill="#2B2E33"/>
</svg>
