<svg width="20" height="20" viewBox="0 0 20 20" fill="none" xmlns="http://www.w3.org/2000/svg">
<path fill-rule="evenodd" clip-rule="evenodd" d="M10 0C15.523 0 20 4.477 20 10C20.0035 12.3079 19.2054 14.5454 17.742 16.33L17.762 16.352L17.63 16.464C16.6922 17.5732 15.5236 18.4643 14.2057 19.0751C12.8878 19.6858 11.4525 20.0015 10 20C7.05 20 4.40001 18.723 2.57001 16.693L2.37001 16.463L2.23801 16.353L2.25801 16.329C0.794768 14.5447 -0.00336742 12.3076 1.06794e-05 10C1.06794e-05 4.477 4.47701 0 10 0ZM10 15C8.14 15 6.459 15.592 5.207 16.406C6.58942 17.4433 8.27171 18.0027 10 18C11.7283 18.0027 13.4106 17.4433 14.793 16.406C13.3624 15.4893 11.6991 15.0014 10 15ZM10 2C8.49452 1.99996 7.01959 2.42471 5.74473 3.22545C4.46986 4.02619 3.44681 5.1704 2.79317 6.52657C2.13952 7.88274 1.88181 9.39584 2.04966 10.8919C2.21751 12.388 2.8041 13.8064 3.74201 14.984C5.363 13.821 7.575 13 10 13C12.425 13 14.637 13.821 16.258 14.984C17.1959 13.8064 17.7825 12.388 17.9503 10.8919C18.1182 9.39584 17.8605 7.88274 17.2068 6.52657C16.5532 5.1704 15.5301 4.02619 14.2553 3.22545C12.9804 2.42471 11.5055 1.99996 10 2ZM10 4C11.0609 4 12.0783 4.42143 12.8284 5.17157C13.5786 5.92172 14 6.93913 14 8C14 9.06087 13.5786 10.0783 12.8284 10.8284C12.0783 11.5786 11.0609 12 10 12C8.93913 12 7.92172 11.5786 7.17158 10.8284C6.42143 10.0783 6 9.06087 6 8C6 6.93913 6.42143 5.92172 7.17158 5.17157C7.92172 4.42143 8.93913 4 10 4ZM10 6C9.46957 6 8.96086 6.21071 8.58579 6.58579C8.21072 6.96086 8 7.46957 8 8C8 8.53043 8.21072 9.03914 8.58579 9.41421C8.96086 9.78929 9.46957 10 10 10C10.5304 10 11.0391 9.78929 11.4142 9.41421C11.7893 9.03914 12 8.53043 12 8C12 7.46957 11.7893 6.96086 11.4142 6.58579C11.0391 6.21071 10.5304 6 10 6Z" fill="#2B2E33"/>
</svg>
