<svg width="20" height="19" viewBox="0 0 20 19" fill="none" xmlns="http://www.w3.org/2000/svg">
<g clip-path="url(#clip0_462_17056)">
<path d="M8.77224 0.688039C9.10029 0.432835 9.49969 0.286168 9.91493 0.268425C10.3302 0.250683 10.7406 0.362747 11.0892 0.589039L11.2282 0.689039L19.6122 7.20904C20.3332 7.77004 19.9822 8.90104 19.1132 8.99404L18.9972 9.00004H18.0002V17C18.0004 17.5046 17.8098 17.9906 17.4667 18.3606C17.1237 18.7306 16.6534 18.9572 16.1502 18.995L16.0002 19H4.00024C3.49584 18.9999 3.0101 18.8093 2.64033 18.4662C2.27056 18.1231 2.04407 17.653 2.00624 17.15L2.00024 17V9.00004H1.00324C0.0902424 9.00004 -0.328758 7.89204 0.300242 7.28504L0.388242 7.20904L8.77224 0.688039ZM10.0002 2.26704L3.62524 7.22504C3.85424 7.41004 4.00024 7.69304 4.00024 8.01004V17H7.00024V12C7.00024 11.2044 7.31631 10.4413 7.87892 9.87872C8.44153 9.31611 9.20459 9.00004 10.0002 9.00004C10.7959 9.00004 11.559 9.31611 12.1216 9.87872C12.6842 10.4413 13.0002 11.2044 13.0002 12V17H16.0002V8.01004C16.0002 7.69304 16.1462 7.41004 16.3752 7.22504L10.0002 2.26704ZM10.0002 11C9.73503 11 9.48067 11.1054 9.29314 11.2929C9.1056 11.4805 9.00024 11.7348 9.00024 12V17H11.0002V12C11.0002 11.7348 10.8949 11.4805 10.7073 11.2929C10.5198 11.1054 10.2655 11 10.0002 11Z" fill="#2B2E33"/>
</g>
<defs>
<clipPath id="clip0_462_17056">
<rect width="20" height="19" fill="white"/>
</clipPath>
</defs>
</svg>
