<svg width="20" height="18" viewBox="0 0 20 18" fill="none" xmlns="http://www.w3.org/2000/svg">
<path d="M10.1 18C9.81667 18 9.57917 17.9042 9.3875 17.7125C9.19583 17.5208 9.1 17.2833 9.1 17C9.1 16.8833 9.125 16.7625 9.175 16.6375C9.225 16.5125 9.3 16.4 9.4 16.3L14.025 11.675L13.3 10.95L8.7 15.575C8.6 15.675 8.49167 15.75 8.375 15.8C8.25833 15.85 8.13333 15.875 8 15.875C7.71667 15.875 7.47917 15.7792 7.2875 15.5875C7.09583 15.3958 7 15.1583 7 14.875C7 14.7083 7.025 14.5708 7.075 14.4625C7.125 14.3542 7.19167 14.2583 7.275 14.175L11.9 9.55L11.2 8.85L6.575 13.45C6.475 13.55 6.36667 13.625 6.25 13.675C6.13333 13.725 6 13.75 5.85 13.75C5.58333 13.75 5.35 13.65 5.15 13.45C4.95 13.25 4.85 13.0167 4.85 12.75C4.85 12.6167 4.875 12.4917 4.925 12.375C4.975 12.2583 5.05 12.15 5.15 12.05L9.775 7.425L9.05 6.725L4.45 11.35C4.36667 11.4333 4.26667 11.5 4.15 11.55C4.03333 11.6 3.89167 11.625 3.725 11.625C3.44167 11.625 3.20417 11.5292 3.0125 11.3375C2.82083 11.1458 2.725 10.9083 2.725 10.625C2.725 10.4917 2.75 10.3667 2.8 10.25C2.85 10.1333 2.925 10.025 3.025 9.925L8.6 4.35L12.35 8.125C12.5333 8.30833 12.75 8.45417 13 8.5625C13.25 8.67083 13.5 8.725 13.75 8.725C14.2833 8.725 14.75 8.5375 15.15 8.1625C15.55 7.7875 15.75 7.30833 15.75 6.725C15.75 6.49167 15.7083 6.25 15.625 6C15.5417 5.75 15.3917 5.51667 15.175 5.3L10.7 0.825C10.9833 0.558333 11.3 0.354167 11.65 0.2125C12 0.0708333 12.35 0 12.7 0C13.1333 0 13.5333 0.0708333 13.9 0.2125C14.2667 0.354167 14.6 0.575 14.9 0.875L19.125 5.125C19.425 5.425 19.6458 5.75833 19.7875 6.125C19.9292 6.49167 20 6.91667 20 7.4C20 7.73333 19.925 8.07083 19.775 8.4125C19.625 8.75417 19.4083 9.06667 19.125 9.35L10.8 17.7C10.6667 17.8333 10.55 17.9167 10.45 17.95C10.35 17.9833 10.2333 18 10.1 18ZM1.525 10L0.875 9.35C0.591667 9.08333 0.375 8.76667 0.225 8.4C0.075 8.03333 0 7.65 0 7.25C0 6.81667 0.0833333 6.41667 0.25 6.05C0.416667 5.68333 0.625 5.375 0.875 5.125L5.1 0.875C5.36667 0.608333 5.68333 0.395833 6.05 0.2375C6.41667 0.0791667 6.775 0 7.125 0C7.575 0 7.975 0.0625 8.325 0.1875C8.675 0.3125 9.01667 0.541667 9.35 0.875L14.475 6C14.575 6.1 14.65 6.20833 14.7 6.325C14.75 6.44167 14.775 6.56667 14.775 6.7C14.775 6.96667 14.675 7.2 14.475 7.4C14.275 7.6 14.0417 7.7 13.775 7.7C13.625 7.7 13.5 7.67917 13.4 7.6375C13.3 7.59583 13.1917 7.51667 13.075 7.4L8.575 2.95L1.525 10Z" fill="#2B2E33"/>
</svg>
