<svg width="17" height="10" viewBox="0 0 17 10" fill="none" xmlns="http://www.w3.org/2000/svg">
<path fill-rule="evenodd" clip-rule="evenodd" d="M7.42214 0.365983C7.65655 0.131644 7.97443 0 8.30589 0C8.63734 0 8.95523 0.131644 9.18964 0.365983L16.2609 7.43723C16.4886 7.67299 16.6146 7.98874 16.6117 8.31648C16.6089 8.64423 16.4774 8.95775 16.2457 9.18951C16.0139 9.42127 15.7004 9.55273 15.3726 9.55558C15.0449 9.55842 14.7291 9.43243 14.4934 9.20473L8.30589 3.01723L2.11839 9.20473C1.88264 9.43243 1.56688 9.55842 1.23914 9.55558C0.911392 9.55273 0.597876 9.42127 0.366116 9.18951C0.134356 8.95775 0.00289528 8.64423 4.72533e-05 8.31648C-0.00280077 7.98874 0.123192 7.67299 0.35089 7.43723L7.42214 0.365983Z" fill="#2B2E33"/>
</svg>
