<svg width="19" height="19" viewBox="0 0 19 19" fill="none" xmlns="http://www.w3.org/2000/svg">
<path fill-rule="evenodd" clip-rule="evenodd" d="M2 0C1.46957 0 0.960859 0.210714 0.585786 0.585786C0.210714 0.960859 0 1.46957 0 2V17C0 17.5304 0.210714 18.0391 0.585786 18.4142C0.960859 18.7893 1.46957 19 2 19H5V17H2V2H14V6H16V2C16 1.46957 15.7893 0.960859 15.4142 0.585786C15.0391 0.210714 14.5304 0 14 0H2ZM5 5C4.73478 5 4.48043 5.10536 4.29289 5.29289C4.10536 5.48043 4 5.73478 4 6C4 6.26522 4.10536 6.51957 4.29289 6.70711C4.48043 6.89464 4.73478 7 5 7H9C9.26522 7 9.51957 6.89464 9.70711 6.70711C9.89464 6.51957 10 6.26522 10 6C10 5.73478 9.89464 5.48043 9.70711 5.29289C9.51957 5.10536 9.26522 5 9 5H5ZM12.949 8.811C13.5132 8.25602 14.2739 7.94648 15.0653 7.9498C15.8567 7.95311 16.6147 8.26902 17.1743 8.8287C17.7338 9.38838 18.0496 10.1465 18.0527 10.9379C18.0558 11.7293 17.7461 12.4899 17.191 13.054L11.535 18.711C11.3475 18.8985 11.0932 19.0039 10.828 19.004H7.999C7.73378 19.004 7.47943 18.8986 7.29189 18.7111C7.10436 18.5236 6.999 18.2692 6.999 18.004V15.175C6.99906 14.9098 7.10445 14.6555 7.292 14.468L12.949 8.811ZM15.777 10.225C15.5895 10.0375 15.3352 9.93221 15.07 9.93221C14.8048 9.93221 14.5505 10.0375 14.363 10.225L15.777 11.64C15.87 11.5471 15.9437 11.4368 15.9941 11.3154C16.0444 11.194 16.0703 11.0639 16.0703 10.9325C16.0703 10.8011 16.0444 10.671 15.9941 10.5496C15.9437 10.4282 15.87 10.3179 15.777 10.225ZM14.363 13.054L12.949 11.64L8.999 15.59V17.004H10.413L14.363 13.054Z" fill="#002561"/>
</svg>
