<svg width="155" height="16" viewBox="0 0 155 16" fill="none" xmlns="http://www.w3.org/2000/svg">
<path d="M144.59 15V0.859375H154.688V3.86719H148.301V6.42578H154.16V9.43359H148.301V11.9922H154.668V15H144.59Z" fill="#002561"/>
<path d="M130.898 3.86719V0.859375H143.086V3.86719H138.828V15H135.156V3.86719H130.898Z" fill="#002561"/>
<path d="M121.27 15H117.246L121.953 0.859375H127.012L131.699 15H127.695L126.846 12.2266H122.109L121.27 15ZM122.969 9.41406H125.986L124.531 4.66797H124.414L122.969 9.41406Z" fill="#002561"/>
<path d="M99.707 0.859375H104.336L107.695 9.08203H107.871L111.23 0.859375H115.859V15H112.227V6.67969H112.109L108.887 14.9023H106.66L103.457 6.62109H103.34V15H99.707V0.859375Z" fill="#002561"/>
<path d="M89.5703 5.50781C89.3164 4.49219 88.4668 3.90625 87.2266 3.90625C85.2539 3.90625 84.1016 5.38086 84.1016 7.91016C84.1016 10.4492 85.1758 11.9434 87.207 11.9531C88.9648 11.9434 89.8828 11.1133 89.9023 9.80469H87.2852V7.14844H93.4961V9.08203C93.4961 12.9297 90.8594 15.1953 87.168 15.1953C83.0664 15.1953 80.2832 12.4316 80.2734 7.94922C80.2832 3.30078 83.3398 0.664062 87.1484 0.664062C90.4688 0.664062 93.0273 2.67578 93.3398 5.50781H89.5703Z" fill="#002561"/>
<path d="M78.457 0.859375V15H75.3516L70.0977 7.36328H70V15H66.2891V0.859375H69.4531L74.6289 8.45703H74.7461V0.859375H78.457Z" fill="#002561"/>
<path d="M64.375 0.859375V15H60.6641V0.859375H64.375Z" fill="#002561"/>
<path d="M46.1133 15V0.859375H49.8242V6.42578H55.0391V0.859375H58.7695V15H55.0391V9.43359H49.8242V15H46.1133Z" fill="#002561"/>
<path d="M40.5469 6.11328C40.4199 4.78516 39.5312 3.90625 38.0273 3.90625C36.0645 3.90625 34.9609 5.40039 34.9609 7.92969C34.9609 10.5859 36.0938 11.9434 38.0078 11.9531C39.4434 11.9434 40.3418 11.1816 40.5469 9.92188L44.3164 9.96094C44.1113 12.3828 42.002 15.1953 37.9297 15.1953C34.0527 15.1953 31.1426 12.6172 31.1328 7.92969C31.1426 3.22266 34.1309 0.664062 37.9297 0.664062C41.4551 0.664062 44.0039 2.63672 44.3164 6.11328H40.5469Z" fill="#002561"/>
<path d="M18.2031 3.86719V0.859375H30.3906V3.86719H26.1328V15H22.4609V3.86719H18.2031Z" fill="#002561"/>
<path d="M16.6992 0.859375V15H12.9883V0.859375H16.6992Z" fill="#002561"/>
<path d="M0.273438 15V0.859375H6.28906C9.45312 0.859375 11.5234 2.8418 11.5234 5.82031C11.5234 8.84766 9.39453 10.752 6.17188 10.7422H3.98438V15H0.273438ZM3.98438 7.85156H5.42969C6.82617 7.8418 7.64648 7.06055 7.63672 5.82031C7.64648 4.58984 6.82617 3.83789 5.42969 3.82812H3.98438V7.85156Z" fill="#002561"/>
</svg>
