<svg width="200" height="200" viewBox="0 0 200 200" fill="none" xmlns="http://www.w3.org/2000/svg">
<g clip-path="url(#clip0_463_17550)">
<path d="M184.311 99.6016C184.311 146.325 146.432 184.205 99.7071 184.205C52.9841 184.205 15.1055 146.327 15.1055 99.6016C15.1055 52.8765 52.9819 15 99.7049 15C146.43 15 184.311 52.8765 184.311 99.6016Z" fill="white"/>
<path d="M181.972 99.531C181.972 144.966 145.141 181.795 99.7058 181.795C54.2727 181.795 17.4414 144.966 17.4414 99.531C17.4414 54.0979 54.2727 17.2666 99.7058 17.2666C145.141 17.2666 181.972 54.0979 181.972 99.531Z" fill="#131230"/>
<path d="M164.009 99.4607C164.009 134.923 135.264 163.672 99.7994 163.672C64.3367 163.672 35.5898 134.923 35.5898 99.4607C35.5898 63.998 64.3388 35.249 99.7994 35.249C135.262 35.249 164.009 63.998 164.009 99.4607Z" fill="white"/>
<path d="M83.6652 98.9436C83.6652 98.8052 83.6567 98.669 83.6567 98.5306L88.263 101.104L89.0144 99.7567L83.6184 96.7426C83.5672 94.7329 83.443 92.7257 83.2458 90.725L88.1076 93.1005L88.7845 91.7169L83.0436 88.9072C82.8031 86.9276 82.4881 84.9714 82.107 83.0365L87.3477 84.7436L87.8266 83.2791L81.7601 81.2995C81.3782 79.5708 80.9402 77.8549 80.4467 76.1547L85.5596 77.1977L85.8662 75.6864L79.9571 74.4795C79.4951 73.0023 78.9912 71.5387 78.4458 70.0903L83.7759 71.178L84.0845 69.6667L77.7838 68.3789C77.1042 66.6903 76.3687 65.0248 75.5786 63.3851L81.0108 63.9599L81.1704 62.4273L74.7804 61.7504C73.9048 60.0356 72.9691 58.3522 71.9749 56.7034L77.2453 56.7013V55.1581H71.0425C70.0238 53.5497 68.9497 51.9771 67.8219 50.4432L72.8157 50.026L72.6879 48.4913L66.73 48.9872C66.2148 48.3146 65.7018 47.6441 65.1654 46.9863L63.1773 48.0762C63.752 48.7722 64.3033 49.4811 64.8525 50.1963L62.675 56.1053L64.1224 56.6374L65.9551 51.6693C67.0931 53.2126 68.1758 54.7958 69.2013 56.4161L66.6342 61.9164L68.0327 62.5678L70.1613 58.0061C71.1362 59.6452 72.0579 61.3161 72.92 63.0254L69.908 68.0276L71.2277 68.8216L73.731 64.6708C74.476 66.2417 75.1678 67.8467 75.8127 69.473L72.3325 74.1644L73.5734 75.0797L76.4747 71.1673C76.9643 72.4871 77.4156 73.8238 77.837 75.1734L74.1162 80.182L75.3572 81.1016L78.3798 77.0253C78.8566 78.7047 79.2845 80.4034 79.6527 82.1254L75.6424 86.4103L76.7706 87.4661L80.0274 83.9837C80.3658 85.7781 80.6404 87.5938 80.8575 89.4287L76.2832 93.1282L77.2538 94.3266L81.0619 91.2486C81.2407 93.1218 81.345 95.0141 81.3918 96.9193L76.4534 100.478L77.3581 101.732L81.4344 98.7946L81.4365 98.9436C81.4365 100.485 81.3769 102.013 81.2918 103.535L76.1129 106.549L76.8877 107.884L81.1662 105.393C81.0508 106.885 80.8933 108.372 80.6936 109.855L75.2082 112.658L75.9128 114.033L80.3999 111.739C80.1487 113.293 79.8677 114.836 79.5314 116.358L74.08 118.814L74.7122 120.219L79.0674 118.261C78.7115 119.705 78.3154 121.139 77.8796 122.56L72.3005 124.757L72.8646 126.192L77.2602 124.461C76.7429 125.994 76.1895 127.505 75.585 128.995L69.8973 130.59L70.3145 132.073L74.8144 130.813C74.2312 132.152 73.6139 133.472 72.9625 134.772L67.1514 135.822L67.426 137.344L72.0685 136.503C71.412 137.731 70.7236 138.942 70.0038 140.134L64.0437 140.566L64.1543 142.105L69.0203 141.754C68.3015 142.879 67.5548 143.987 66.781 145.075L61.0977 145.173L61.1253 146.716L65.6486 146.635C64.8513 147.713 64.0273 148.77 63.1773 149.807L64.4162 151.801C65.6402 150.336 66.813 148.829 67.9326 147.282L70.4401 152.423L71.8259 151.742L68.9544 145.862C69.7049 144.781 70.4296 143.683 71.1277 142.567L73.7671 147.293L75.1145 146.541L72.0536 141.058C72.854 139.719 73.6245 138.359 74.3504 136.973L77.5327 141.48L78.7928 140.59L75.1316 135.411C75.8447 133.974 76.528 132.522 77.158 131.039L80.7681 135.241L81.9389 134.232L77.8094 129.423C78.4543 127.805 79.061 126.171 79.6059 124.504L83.5864 128.282L84.6486 127.163L80.1147 122.858C80.5766 121.328 81.0002 119.783 81.3769 118.218L85.5213 121.79L86.5282 120.623L81.7686 116.519C82.1049 114.974 82.3901 113.412 82.6413 111.837L86.7878 115.064L87.7351 113.846L82.9138 110.095C83.1309 108.503 83.2842 106.89 83.4076 105.27L87.8011 108.322L88.6802 107.056L83.5289 103.475C83.6098 101.973 83.6652 100.468 83.6652 98.9436ZM138.509 145.173L132.828 145.073C132.054 143.985 131.308 142.877 130.59 141.752L135.456 142.105L135.563 140.566L129.607 140.134C128.887 138.942 128.198 137.731 127.542 136.503L132.183 137.342L132.457 135.822L126.648 134.772C125.994 133.47 125.377 132.15 124.796 130.813L129.292 132.073L129.709 130.59L124.024 128.995C123.419 127.502 122.861 125.991 122.348 124.463L126.74 126.192L127.306 124.757L121.729 122.56C121.29 121.143 120.899 119.708 120.537 118.259L124.892 120.219L125.526 118.814L120.077 116.358C119.739 114.836 119.46 113.293 119.209 111.739L123.692 114.033L124.396 112.658L118.915 109.857C118.715 108.374 118.557 106.885 118.44 105.393L122.719 107.884L123.494 106.549L118.317 103.535C118.225 102.005 118.177 100.474 118.172 98.9414L118.174 98.7924L122.248 101.73L123.151 100.478L118.217 96.9235C118.264 95.0141 118.368 93.1218 118.547 91.2486L122.353 94.3266L123.321 93.1282L118.747 89.4308C118.966 87.5959 119.243 85.7781 119.581 83.9837L122.838 87.4661L123.964 86.4124L119.956 82.1254C120.323 80.4126 120.747 78.7123 121.227 77.0274L124.249 81.1016L125.488 80.182L121.772 75.1734C122.189 73.8277 122.642 72.4933 123.13 71.1716L126.031 75.0797L127.272 74.1644L123.794 69.473C124.441 67.8467 125.128 66.2439 125.876 64.6708L128.377 68.8216L129.698 68.0255L126.687 63.0275C127.546 61.3183 128.47 59.643 129.447 58.0083L131.572 62.5678L132.97 61.9164L130.405 56.4182C131.427 54.7941 132.517 53.2146 133.651 51.6714L135.482 56.6396L136.932 56.1074L134.752 50.1984C135.303 49.4832 135.859 48.7722 136.431 48.0762L134.441 46.9863C133.905 47.6419 133.392 48.3146 132.877 48.9872L126.919 48.4913L126.791 50.0281L131.785 50.4453C130.656 51.9789 129.582 53.5515 128.564 55.1602H122.361V56.7013H127.632C126.637 58.3508 125.702 60.0349 124.826 61.7504L118.434 62.4273L118.596 63.9599L124.026 63.3851C123.238 65.022 122.504 66.6845 121.825 68.3789L115.522 69.6667L115.831 71.178L121.161 70.0924C120.615 71.5401 120.111 73.003 119.649 74.4795L113.738 75.6885L114.045 77.1998L119.16 76.1547C118.67 77.849 118.223 79.5604 117.844 81.2995L111.778 83.2791L112.257 84.7436L117.497 83.0365C117.118 84.9714 116.803 86.9276 116.561 88.9093L110.822 91.7169L111.497 93.1005L116.361 90.7229C116.165 92.711 116.041 94.7183 115.988 96.7447L110.592 99.7567L111.341 101.102L115.95 98.5327C115.95 98.669 115.939 98.8052 115.939 98.9414C115.939 100.466 115.995 101.975 116.078 103.475L110.926 107.056L111.805 108.322L116.199 105.27C116.322 106.89 116.476 108.503 116.691 110.095L111.874 113.846L112.819 115.064L116.965 111.834C117.216 113.41 117.502 114.974 117.838 116.519L113.078 120.623L114.085 121.79L118.23 118.216C118.606 119.781 119.03 121.328 119.494 122.856L114.96 127.165L116.022 128.282L120.001 124.504C120.545 126.171 121.152 127.808 121.799 129.423L117.67 134.234L118.838 135.241L122.448 131.039C123.076 132.522 123.762 133.976 124.473 135.411L120.814 140.588L122.074 141.477L125.258 136.971C125.982 138.359 126.755 139.717 127.557 141.058L124.496 146.539L125.844 147.291L128.479 142.565C129.181 143.681 129.903 144.781 130.654 145.86L127.781 151.742L129.166 152.421L131.678 147.282C132.797 148.828 133.969 150.335 135.192 151.799L136.433 149.807C135.582 148.772 134.76 147.71 133.96 146.635L138.481 146.714L138.509 145.173Z" fill="#C7C6C6"/>
<path d="M65.5414 63.8002H66.3928C68.0489 63.7938 68.415 63.3893 69.3409 60.7137C70.2903 58.0614 70.2328 57.64 68.5746 57.6442H67.7211L65.5414 63.8002ZM64.1003 55.7923L70.3094 55.7966C75.2606 55.803 74.6774 58.1402 73.7621 60.7116C72.8382 63.3021 71.7548 65.6414 66.827 65.6414H60.6094L64.1003 55.7923ZM79.0431 64.1067C80.3544 64.1024 80.7439 63.3872 81.689 60.7137C82.6277 58.0636 82.749 57.3335 81.4421 57.3398C80.1287 57.342 79.7307 58.0636 78.8026 60.7137C77.8447 63.3851 77.7298 64.1003 79.0431 64.1067ZM82.0572 55.5986C86.4209 55.6008 87.4064 57.0333 86.1122 60.7137C84.801 64.4089 82.798 65.8436 78.4258 65.8436C74.0537 65.8394 73.0766 64.4047 74.3751 60.7137C75.6735 57.0376 77.6808 55.605 82.0572 55.5986ZM91.4082 64.1024C92.7109 64.1109 93.1111 63.3915 94.052 60.7137C94.9885 58.0657 95.1099 57.3441 93.7859 57.3377C92.4874 57.3398 92.1022 58.0593 91.1507 60.7222C90.2162 63.3936 90.1013 64.1024 91.4082 64.1024ZM94.416 55.6008C98.7839 55.6008 99.7758 57.0376 98.471 60.7137C97.1597 64.4068 95.1652 65.8394 90.7909 65.8372C86.4166 65.8372 85.4332 64.4068 86.7338 60.7137C88.0472 57.0397 90.0438 55.6071 94.416 55.6008ZM106.411 58.6425L106.506 58.4105C106.698 57.8252 106.481 57.3462 105.655 57.3441C104.74 57.3441 104.171 57.7741 104.007 58.2062C103.331 60.1581 110.649 59.2088 109.374 62.8082C108.635 64.9028 106.257 65.8415 102.49 65.8436C98.9456 65.8436 97.2278 65.1135 97.9494 63.0679L98.0708 62.7273L102.2 62.7316L102.126 62.9615C101.824 63.8002 102.292 64.1024 103.128 64.0982C103.995 64.1109 104.642 63.6873 104.831 63.1467C105.534 61.2033 98.4667 62.1718 99.7034 58.6723C100.412 56.6991 102.56 55.6029 106.177 55.6008C109.906 55.6071 111.166 56.5267 110.41 58.6383L106.411 58.6425ZM117.599 57.8124H117.554L114.897 61.9994H117.292L117.599 57.8124ZM115.598 55.8008L120.968 55.8051L121.475 65.6478L116.924 65.6435L117.107 63.9215L113.701 63.913L112.662 65.6457L108.105 65.6414L115.598 55.8008ZM125.511 55.803H130.279L130.892 61.8716H130.943L133.093 55.7987H137.095L133.604 65.6499L128.91 65.6435L128.216 59.5706L128.171 59.5642L126.009 65.6521L122.02 65.6414L125.511 55.803ZM85.7078 139.383V143.463L83.5366 145.596H79.1283L77.1061 143.536V141.313H80.6247V142.405H82.0998V140.675H78.6366L77.0146 139V135.519L79.1283 133.442H83.6473L85.5609 135.394V137.395H82.1871V136.614H80.6226V137.778H84.1561L85.7078 139.383Z" fill="black"/>
<path d="M84.6485 139.82L83.5735 138.745H79.9655L79.5483 138.325V136.267L80.2401 135.592H82.5348L83.1733 136.267V136.448H84.6485V135.995L83.1712 134.483H79.6377L78.1094 135.995V138.581L79.2205 139.709H82.7902L83.1733 140.13V142.753L82.4454 143.464H80.2401L79.5483 142.753V142.242H78.1094V142.989L79.6398 144.539H83.0265L84.6485 142.989V139.82ZM95.2724 133.442V137.342H92.0135V136.614H90.4447V137.908H93.3247V141.003H90.4447V142.408H92.0135V141.533H95.2724V145.599H85.9639V142.406H86.8026V136.614H85.9639V133.442H95.2724Z" fill="black"/>
<path d="M94.1791 134.483H87.0547V135.594H87.8934V143.464H87.0547V144.539H94.1791V142.606H93.0872V143.464H89.3323V139.93H92.2485V138.947H89.3323V135.594H93.0872V136.303H94.1791V134.483ZM104.382 135.594V143.464L102.232 145.597H97.6232L95.5266 143.464V135.537L97.6765 133.442H102.232L104.382 135.594Z" fill="black"/>
<path d="M103.289 136.031L101.74 134.483H98.1849L96.582 136.031V142.97L98.0593 144.539H101.74L103.289 143.026V136.031Z" fill="black"/>
<path d="M101.832 136.304V142.736L101.121 143.464H98.716L98.0625 142.736V136.304L98.7884 135.595H101.121L101.832 136.304Z" fill="black"/>
<path d="M100.756 136.614H99.1172V142.406H100.756V136.614Z" fill="white"/>
<path d="M115.169 133.443V136.614H114.202V143.464L112.072 145.597H107.608L105.494 143.464V136.614H104.547V133.443H109.611V136.508H109.138V142.406H110.594V136.506H110.122V133.44L115.169 133.443Z" fill="black"/>
<path d="M114.092 134.483H111.086V135.594H111.669V142.772L110.975 143.464H108.717L108.061 142.772V135.594H108.644V134.483H105.637V135.594H106.586V143.008L108.061 144.539H111.595L113.125 143.081V135.594H114.092V134.483ZM121.105 133.442V136.614H120.105V142.406H121.45V140.458H124.694V145.597H115.656V142.406H116.497V136.614H115.656V133.442H121.105Z" fill="black"/>
<path d="M120.034 134.483H116.754V135.595H117.593V143.464H116.754V144.539H123.621V141.495H122.529V143.464H119.034V135.595H120.034V134.483Z" fill="black"/>
<path d="M99.8029 38.8193C122.947 38.8193 143.056 51.7889 153.276 70.8549H157.288C146.768 49.754 124.982 35.2539 99.8029 35.2539C74.6214 35.2539 52.8351 49.754 42.3155 70.8549H46.3279C56.5453 51.7889 76.6542 38.8193 99.8029 38.8193ZM99.8029 160.105C76.4925 160.105 56.2685 146.951 46.1193 127.665H42.1133C52.5562 148.988 74.4596 163.673 99.8029 163.673C125.142 163.673 147.047 148.986 157.49 127.665H153.484C143.333 146.951 123.109 160.105 99.8007 160.105" fill="#ED1C24"/>
<path d="M38.332 81.1229V94.3437L36.1289 96.7831L38.332 99.133V113.069L29.3386 121.801H0V107.75H3.3334V87.0787L0.0149003 87.0532V73.0107H30.2539L38.332 81.1229Z" fill="white"/>
<path d="M75.7421 73.0068V88.9586H61.5017V86.2148H56.94V89.7377H68.0642V103.199H56.94V107.092H61.5017V104.363H75.6654L75.7421 121.107H38.0273V107.314H41.0351V86.1786H38.2849V72.9834L75.7421 73.0068Z" fill="white"/>
<path d="M105.464 73.0068L116.099 107.765H120.454V121.801H99.1592V108.516H102.124L101.68 107.041H93.7462L93.4482 108.516H96.0451V121.801H75.5977L75.6658 104.363L79.4568 108.386L91.1535 73.0068H105.464Z" fill="white"/>
<path d="M162.211 107.764V121.801H141.67V108.673H142.364L140.482 104.225H138.481V108.673H141.3V121.801H120.016V107.756H123.726V87.0552H120.405V73H150.259L158.49 81.3952L158.356 95.7697L154.425 99.7758L157.986 107.764H162.211Z" fill="white"/>
<path d="M196.575 96.3381L196.414 113.192L187.486 121.801H169.946L161.694 113.656L161.692 103.526H176.673V107.854H180.973V102.809H168.124L161.375 96.0656L161.321 81.6166L170.036 73.0085L188.329 73L195.832 80.6587V90.1715H181.196V86.9403H176.598V89.8735L190.749 90.2226L196.575 96.3381ZM42.1511 85.6695V98.2283L42.0787 100.804L42.1511 103.018L41.3507 116.952L32.9832 125.181L3.29759 125.166L0.0195312 121.771L7.24829 111.664V90.974H3.82974V76.8911H33.6622L42.1511 85.6695Z" fill="white"/>
<path d="M79.318 76.8081V93.1941H65.0776V90.544H60.5181V92.5534H71.7486V107.526H60.5181V111.421H65.0776V108.194L79.318 108.311L79.3009 125.179H41.914L37.5078 120.581L44.611 111.641V90.5035H41.6054L75.661 73.0596L79.318 76.8081Z" fill="white"/>
<path d="M109.108 76.7681L119.864 111.89H124.219V125.166L94.5885 125.181V112.399H105.889L105.442 110.926H97.511L97.213 112.399H99.8099V125.181H79.3008V111.89H83.3537L105.466 73.0068L109.108 76.7681Z" fill="white"/>
<path d="M165.797 112.082V125.166H141.084L145.49 112.75H146.184L144.305 108.299H142.302V112.75H145.122V125.166H123.836V112.082H127.469V91.019H124.057V77.1191H154.288L161.938 84.8886L161.974 99.0183L157.9 103.071L161.774 111.505L165.797 112.082Z" fill="white"/>
<path d="M200.002 99.8523V116.396L191.1 125.202L173.377 125.223L165.693 117.554L165.367 107.656H180.497V111.738H184.797V106.694L171.919 106.723L165.405 99.9779L164.941 85.282L173.59 76.7782L191.815 76.5547L199.436 84.322L199.423 93.3899H185.021V90.8249H180.423V93.7581H194.069L200.002 99.8523Z" fill="white"/>
<path d="M199.142 100.204V116.028L190.734 124.295H173.634L165.795 116.309V107.688H179.431V111.928H185.152V105.219H171.729L165.441 98.72V85.2246L173.637 77.1699H191.155L198.575 84.7307V92.5023H185.506V89.4626H179.431V93.9859H193.139L199.142 100.204Z" fill="white"/>
<path d="M41.1668 85.5106V97.7331L38.8743 100.202L41.1647 102.491V115.958L32.6162 124.298H4.07152L0.929688 121.035L7.3964 111.931V89.4656L7.79232 89.2634L4.07577 77.1729H33.1121L41.1668 85.5106Z" fill="#131230"/>
<path d="M1.78125 120.728L7.7371 112.275V88.6899H4.35474V77.4189L32.4609 77.4913L40.7497 85.6524V97.4939L38.1762 100.231L40.7412 102.766V108.961L40.2729 108.884L40.0792 116.409L32.6078 123.631L4.6123 123.635L1.78125 120.728Z" fill="#131230"/>
<path d="M38.015 82.2448V94.4694L35.8268 96.8003L38.015 99.1289V112.697L29.4665 121.034H0.921875V108.667H4.24251V86.2019H0.921875V73.9092H29.9604L38.015 82.2448Z" fill="#ED1C24"/>
<path d="M34.8089 84.4357L27.4184 77.1133H4.13139V82.9882H7.44563V111.871H4.125V117.827H27.0608L34.8068 110.366V100.688L30.0302 96.9434L34.8068 93.1992L34.8089 84.4357Z" fill="white"/>
<path d="M24.4837 82.9834L27.0977 84.9332V92.4195L24.6264 94.0713H15.0923V82.9834H24.4837ZM24.3347 99.8718L27.0892 101.888V109.8L24.124 111.862H15.0859V99.8718H24.3347Z" fill="#ED1C24"/>
<path d="M23.8838 86.2023H18.3047V90.8639H23.888L23.8838 86.2023ZM23.8838 103.091H18.3047V108.668H23.888L23.8838 103.091ZM78.4251 77.1727L78.4102 92.305H65.6961L65.7791 89.4654H59.7061L64.6509 87.8988L70.8664 94.5123V106.492H59.7061V111.931H65.7791L75.2727 105.279L78.423 108.54V124.298H42.326L39.1736 121.035L46.9026 117.959L45.5743 89.4654L47.4964 90.0763L75.2791 73.9053L78.4251 77.1727Z" fill="#131230"/>
<path d="M67.4396 91.8233L70.1962 94.7756V105.834H59.0742V112.581H66.3413L75.2389 106.193L77.7613 108.79V123.633H42.586L39.7188 120.662L46.1684 112.509V88.9241H42.9585L74.8344 74.4219L77.7613 77.4615V91.6381H67.429L67.4396 91.8233Z" fill="#131230"/>
<path d="M75.2731 73.9092V89.0287H62.6292V86.2019H56.552V91.2212H67.7144V103.227H56.552V108.667H62.6292V105.278H75.2731V121.034H39.1719V108.667H42.4223V86.2019H39.1719V73.9092H75.2731Z" fill="#ED1C24"/>
<path d="M72.0631 77.1025H42.3711V82.9839H45.6257V111.869H42.3711V117.816H72.0631V108.48H65.8305V111.869H53.3419V100.013H64.5022V94.423H53.3334V82.9839H65.8284V85.8128H72.0631V77.1025ZM107.119 100.903H93.1853V116.773H107.119V100.903ZM149.983 100.903H136.049V116.773H149.983V100.903ZM187.508 102.533H173.574V118.404H187.508V102.533Z" fill="white"/>
<path d="M149.946 100.902H136.012V116.773H149.946V100.902ZM187.473 102.533H173.537V118.404H187.473V102.533Z" fill="white"/>
<path d="M108.298 77.1792L118.431 110.194L120.053 108.674L123.205 111.937V124.304H103.422L100.45 121.08L106.461 112.431L105.614 109.749H96.638L95.7929 112.431H98.6878L104.158 124.302H79.541L76.3906 121.039L83.4257 111.937L105.148 73.916L108.298 77.1792Z" fill="#131230"/>
<path d="M107.709 77.5344L118.437 112.52L119.772 109.344L122.543 112.227V123.632H101.187L98.0792 117.52L107.581 112.997L106.238 109.029H96.0123L94.816 112.997H97.9408L103.407 123.632H79.8157L76.9336 120.63L84.2709 112.663L104.967 74.6885L107.709 77.5344Z" fill="#131230"/>
<path d="M107.123 100.906H93.1914V116.779H107.123V100.906Z" fill="#131230"/>
<path d="M105.15 73.916L115.815 108.674H120.055V121.041H100.274V109.168H103.311L102.464 106.486H93.4876L92.6404 109.168H95.5353V121.039H76.3906V108.672H80.2775L91.7932 73.916H105.15Z" fill="#ED1C24"/>
<path d="M102.759 77.1279H94.1066L82.6079 111.867H79.5938V117.829H92.3314V111.869H88.2508L91.2458 103.28H104.745L107.598 111.858H103.472V117.827H116.849V111.867H113.43L102.759 77.1279Z" fill="white"/>
<path d="M98.5047 82.251L103.943 99.7801H92.0039L97.7299 82.251H98.5047Z" fill="#ED1C24"/>
<path d="M98.0812 91.7148L96.457 96.5915H99.635L98.0812 91.7148Z" fill="#131230"/>
<path d="M161.264 109.361L164.461 112.567V123.67H146.664L140.795 117.224L148.22 113.257L144.885 106.064H140.804V113.259H143.326L147.809 123.668H125.04L121.859 120.419L128.494 112.59V89.0054H125.04V77.6982L152.792 77.8558L160.455 85.6231V98.2755L156.009 102.822L159.781 110.4L161.264 109.361Z" fill="white"/>
<path d="M149.991 100.906H136.055V116.779H149.991V100.906ZM187.516 102.539H173.58V118.41H187.516V102.539Z" fill="white"/>
<path d="M161.739 108.672L164.906 111.881L164.927 124.293L146.11 124.285L139.878 117.631L147.173 112.754L144.416 106.749H141.383V112.752H143.852L148.337 124.285L124.614 124.293L121.34 121.043L127.815 112.047V89.5821L126.383 89.3012L124.494 77.2894L153.094 77.1191L161.077 85.2419L161.081 98.682L156.837 102.89L160.259 110.287L161.739 108.672ZM199.111 100.208V116.034L190.703 124.302L173.661 124.313L165.819 116.326L165.764 107.699H179.4V111.937H185.124V105.223H171.694L165.406 98.7267V85.2313L173.601 77.1787H191.122L198.54 84.7374V92.5069H185.473V89.4715H179.4V93.9905H193.106L199.111 100.208Z" fill="#131230"/>
<path d="M199.112 100.209V116.035L190.704 124.302L173.662 124.313L165.82 116.327L165.765 107.699H179.401V111.937H185.125V105.224H171.695L165.407 98.7272V85.2318L173.602 77.1793L191.129 77.1367L198.545 84.672L198.541 92.5095H185.472V89.472H179.401L177.723 92.318H191.432L199.112 100.209ZM161.205 109.2L164.207 112.314L164.256 123.632L146.539 123.634L140.649 117.246L148.076 113.278L144.738 106.086H140.658V113.281H143.182L147.684 123.634L124.8 123.643L121.543 120.413L128.348 112.612V89.0271H124.896V77.72L152.631 77.7689L160.296 85.5383L160.311 98.3675L155.941 102.763L159.513 110.526C159.626 110.643 161.205 109.2 161.205 109.2Z" fill="#131230"/>
<path d="M198.447 100.468L198.443 115.771L190.448 123.634L173.941 123.642L166.329 115.924L166.386 108.357H178.89V112.512H185.789V104.572H171.921L166.041 98.4929V85.5552L174.045 77.6943L190.714 77.6475L197.892 84.9784L197.881 91.8432H186.159V88.8525H178.745V94.5614L192.606 94.4252L198.447 100.468ZM149.953 100.907H136.02V116.78H149.951L149.953 100.907Z" fill="#131230"/>
<path d="M187.479 102.539H173.543V118.41H187.479V102.539ZM189.999 79.4014H176.067V95.2744H189.999V79.4014Z" fill="#131230"/>
<path d="M161.744 108.674V121.041H142.948V109.383H144.012L141.254 103.376H138.216V109.383H140.692V121.039H121.332V108.672H124.653V86.2107H121.332V73.918H149.943L157.929 82.0407V95.2488L153.549 99.6294L157.714 108.672L161.744 108.674Z" fill="#ED1C24"/>
<path d="M158.53 111.851H155.686L149.694 98.967L154.726 93.8434L154.711 83.2834L148.566 77.0742H124.527V82.9747H127.848V111.854H124.534V117.814H137.486V111.854H135.017V100.157L143.395 100.178L148.845 111.854H146.137V117.814H158.532L158.53 111.851Z" fill="white"/>
<path d="M147.484 85.5758V91.2848L144.516 94.2521H135.48V82.9619H144.797L147.484 85.5758Z" fill="#ED1C24"/>
<path d="M144.283 86.1807H138.699V91.0552H144.28L144.283 86.1807Z" fill="#131230"/>
<path d="M195.958 96.9476V112.772L187.55 121.039H170.451L162.611 113.055V104.434H176.245V108.674H181.967V101.963H168.546L162.258 95.4618V81.9685L170.453 73.916H187.971L195.392 81.4768V89.2463H182.322V86.2087H176.245V90.7278H189.953L195.958 96.9476Z" fill="#ED1C24"/>
<path d="M192.75 98.2544L188.566 93.9333L174.666 93.9226L173.042 92.2921V85.6083L175.724 82.9986H183.05L185.524 85.6104V86.034H192.77L192.767 83.3626L186.601 77.1045H171.743L165.453 83.3626L165.462 94.1589L169.876 98.7482H183.691L185.173 100.372V109.121L182.346 111.875H175.717L173.033 109.121V107.631H165.813V111.752L171.847 117.846L186.199 117.81L192.748 111.494L192.75 98.2544Z" fill="white"/>
</g>
<defs>
<clipPath id="clip0_463_17550">
<rect width="200" height="169.205" fill="white" transform="translate(0 15)"/>
</clipPath>
</defs>
</svg>
