<svg width="200" height="200" viewBox="0 0 200 200" fill="none" xmlns="http://www.w3.org/2000/svg">
<g clip-path="url(#clip0_463_17562)">
<path d="M168.281 100.004C168.281 134.248 140.523 162.011 106.277 162.011C72.0324 162.011 44.2734 134.248 44.2734 100.004C44.274 65.7607 72.0325 38 106.278 38C140.523 38 168.281 65.7607 168.281 100.004Z" fill="#F15A28"/>
<path d="M164.455 100.004C164.455 132.131 138.409 158.178 106.28 158.178C74.1514 158.178 48.1055 132.131 48.1055 100.004C48.1055 67.8741 74.152 41.8281 106.28 41.8281C138.41 41.8281 164.455 67.8741 164.455 100.004Z" fill="black"/>
<path d="M144.023 102.409C142.696 123.243 124.73 139.059 103.895 137.734C83.0583 136.405 67.2429 118.44 68.57 97.6054C69.897 76.7686 87.8603 60.9539 108.698 62.2809C129.535 63.6062 145.349 81.5718 144.023 102.409Z" fill="white"/>
<path d="M76.6088 121.27C76.6088 121.27 76.5211 121.953 76.4883 122.418C76.6621 122.644 76.8299 122.862 77.0026 123.075C76.951 122.816 76.7766 121.824 76.9016 121.606L76.6088 121.27ZM77.9608 122.462C77.9608 122.462 77.837 123.221 77.8764 124.168C78.0964 124.427 78.3202 124.673 78.5502 124.927C78.3663 124.307 78.383 123.631 78.3202 122.944L77.9608 122.462ZM80.4443 124.794L79.6406 124.104C79.6406 124.104 79.7761 125.546 80.0144 125.957C80.0411 126.225 80.0266 126.38 80.0972 126.556C80.4316 126.883 80.7621 127.2 81.0998 127.513C80.9948 127.243 80.7787 126.67 80.8798 126.351C80.4349 125.842 80.4743 125.268 80.4443 124.794ZM82.779 126.389L81.9524 125.718C81.848 125.909 82.0557 127.31 82.419 127.943C82.3779 128.277 82.4712 128.551 82.5479 128.776C82.8678 129.043 83.1795 129.292 83.5 129.553C83.4594 129.424 83.2356 128.733 83.3039 128.291C82.8301 127.756 82.7756 126.981 82.779 126.389ZM85.1158 130.73C84.9747 130.417 84.517 130.058 84.7076 129.641C84.3654 129.144 84.1715 128.021 84.3087 127.26L85.1125 128.035C85.0947 128.607 85.133 129.538 85.5769 130.141C85.3741 130.431 86.2384 131.403 86.3267 131.547L85.1158 130.73ZM87.6799 131.998C87.5338 131.676 87.636 131.663 87.5654 131.348C87.2377 130.851 86.8156 129.759 86.77 128.921L87.8787 129.348C87.8754 129.91 88.0781 130.74 88.522 131.349C88.3237 131.642 88.8758 132.587 88.9513 132.729L87.6799 131.998ZM92.2075 134.081C92.0947 133.658 92.3303 133.34 92.5047 132.919C91.9142 132.255 90.9416 131.348 90.5255 130.129L89.3202 129.762C89.8429 131.099 90.6916 132.347 91.2577 132.89C91.1143 133.198 91.0882 133.718 91.0882 133.718L92.2075 134.081ZM95.8292 134.827C95.7242 134.396 96.0613 134.022 96.2369 133.603C95.542 133.173 94.4966 131.942 93.8434 130.451L92.4947 130.295C93.6195 132.477 94.4116 133.172 95.122 133.627C94.8843 134.083 94.8599 134.549 94.8599 134.549L95.8292 134.827ZM99.5808 135.044C99.558 134.42 99.878 134.285 100.057 133.875C99.3642 133.442 97.9955 132.531 97.3389 131.032L95.9975 130.884C97.3606 133.02 98.276 134.097 98.8742 133.948C98.6293 134.391 98.4893 135.017 98.4893 135.017L99.5808 135.044ZM103.024 135.116C103.072 134.629 103.564 134.051 103.734 133.629C103.03 133.199 101.938 132.774 101.3 131.273L99.8302 131.276C100.902 133.032 101.951 133.942 102.561 133.792C102.173 134.325 101.893 135.292 101.893 135.292L103.024 135.116ZM106.488 134.901C106.469 134.285 107.025 133.829 107.192 133.42C106.51 132.986 105.358 132.407 104.697 130.909L103.294 130.976C104.322 132.666 105.402 133.608 105.998 133.452C105.478 134.151 105.261 135.138 105.261 135.138L106.488 134.901ZM110.416 134.294C110.381 133.681 110.871 133.094 111.052 132.669C110.35 132.246 109.377 131.798 108.722 130.301L107.446 130.462C108.867 132.484 109.371 132.927 109.965 132.774C109.535 133.464 109.19 134.617 109.19 134.617L110.416 134.294ZM114.05 133.679C114.02 133.045 114.509 132.465 114.685 132.043C113.993 131.619 112.785 130.93 112.132 129.439L110.883 129.722C112.249 131.678 112.988 132.444 113.596 132.292C113.355 132.746 112.884 134.102 112.884 134.102L114.05 133.679ZM117.751 132.686C117.901 131.967 118.478 131.144 118.664 130.726C117.961 130.299 116.508 129.85 115.871 128.365L114.818 128.709C116.185 130.626 116.602 130.804 117.499 130.93C117.254 131.389 116.515 133.153 116.515 133.153L117.751 132.686ZM121.663 131.455C121.87 130.203 122.336 129.462 122.476 129.05C121.781 129.098 120.661 128.392 119.924 126.948L118.818 127.384C119.911 128.969 120.642 129.546 121.246 129.469C121.007 129.947 120.49 131.948 120.49 131.948L121.663 131.455ZM125.534 129.717C125.465 129.203 126.264 127.684 126.439 127.262C126.343 127.248 126.117 127.299 125.866 127.263C125.418 127.201 124.566 126.746 123.695 125.182L122.696 125.676C123.797 127.417 124.571 127.719 124.83 127.765C125.043 127.83 125.308 127.742 125.466 127.699C124.906 128.411 124.465 130.274 124.465 130.274L125.534 129.717ZM132.189 125.806C131.978 125.184 131.911 124.326 132.082 123.906C131.381 123.488 130.881 122.585 130.794 121.136L129.801 121.779C130.022 123.475 130.548 124.083 131.128 124.397C130.882 124.855 131.205 126.486 131.205 126.486L132.189 125.806ZM128.971 127.829C128.957 127.205 129.238 126.058 129.432 125.654C128.782 125.654 128.334 125.486 127.506 123.165L126.513 123.754C127.888 126.259 128.085 126.081 128.441 125.965C128.181 126.42 127.846 128.538 127.846 128.538L128.971 127.829ZM134.743 123.644C134.528 122.953 134.574 122.384 134.756 121.959C134.364 122.04 134.295 121.551 134.216 120.912C134.153 120.333 134.183 119.862 134.145 119.179L133.154 119.821C133.116 121.384 133.241 122.813 133.832 122.659C133.584 123.115 133.769 124.601 133.769 124.601L134.743 123.644ZM136.993 121.723C136.891 121.115 136.937 120.57 137.149 120.129C136.761 119.636 136.677 119.056 136.796 117.423L135.89 118.092C135.629 119.839 136.019 120.375 136.272 120.788C135.999 121.26 136.062 122.488 136.062 122.488L136.993 121.723ZM139.24 118.612C139.554 117.064 139.283 116.314 139.192 115.365L138.29 116.216C138.478 116.984 138.732 118.645 138.318 120.156L139.24 118.612ZM140.964 113.422C140.964 113.422 140.913 114.583 140.789 115.565C140.993 115.116 141.185 114.666 141.374 114.207C141.367 113.761 141.344 113.224 141.259 112.845L140.964 113.422Z" fill="#F9A983"/>
<path d="M104.195 79.3131C104.451 79.7674 104.055 83.0119 103.776 84.104L102.436 83.3391C102.436 83.3391 103.244 80.9234 103.343 80.2851C103.446 79.6469 103.269 79.0987 102.922 78.8087L104.195 79.3131ZM99.8764 81.7388L98.8499 81.2061C99.3976 79.2942 99.3804 78.461 99.4076 77.9394C99.4215 77.6106 98.5166 77.41 98.5738 77.4217C99.337 77.1862 102.195 75.4925 102.849 75.0576L104.001 75.6225C102.763 76.4663 100.18 77.7005 99.5387 77.6939C98.9071 77.6855 99.5009 77.7166 99.5009 77.7166L100.076 77.6083C100.871 78.231 99.9297 81.1856 99.8764 81.7388ZM96.0675 80.1468L95.2266 79.7985C95.2616 79.0914 95.476 78.1544 96.2314 76.5024L97.1313 76.8073C96.2581 78.7098 95.9859 79.8335 96.0675 80.1468Z" fill="#F9A983"/>
<path d="M100.209 74.0718L99.2128 73.6885C97.9213 74.2856 96.5493 75.1705 95.3867 76.1214L96.246 76.5419C97.8463 75.4471 99.3344 74.3478 100.209 74.0718Z" fill="#F9A983"/>
<path d="M142.716 96.855L141.897 97.0439C141.649 96.1096 141.508 94.7148 140.503 93.7394C140.925 92.8184 141.215 92.0696 140.69 90.9337L141.434 90.9598C141.669 92.1913 141.546 92.7901 141.178 93.6322C141.847 94.3487 142.609 95.3752 142.716 96.855ZM140.705 97.3399L139.734 97.4788C139.485 96.5273 139.153 95.0386 138.147 94.0582C138.99 93.1672 138.962 92.1219 138.794 91.0815L139.684 91.0459C139.918 92.2763 139.536 93.1334 139.102 93.9749C139.774 94.6959 140.383 95.8713 140.705 97.3399ZM142.582 93.5666C143.592 94.5504 143.448 95.4997 143.697 96.4484L144.005 96.3745C143.948 95.6827 143.871 94.9927 143.774 94.3054C143.613 93.9853 143.401 93.6939 143.146 93.4428C143.344 92.7656 143.366 92.2952 143.332 91.7819C143.261 91.422 143.167 91.0626 143.092 90.7049L142.567 90.6865C142.812 91.4925 142.77 92.7434 142.582 93.5666ZM136.222 94.2015C137.127 95.3636 137.674 96.3745 138.01 97.7038L137.033 97.7343C136.774 96.7917 136.164 95.2347 135.16 94.2515L136.222 94.2015Z" fill="#F9A983"/>
<path d="M134.898 94.2412C135.541 93.6052 136.173 91.9888 136.023 91.0645L137.023 91.2328C137.056 92.8342 136.621 93.2463 136.066 94.2262L134.898 94.2412ZM133.859 94.0695C134.459 95.0533 135.086 96.1787 135.182 97.6595L134.215 97.6218C133.955 96.6758 133.734 94.9877 132.824 94.0023L133.859 94.0695Z" fill="#F9A983"/>
<path d="M132.691 94.0079C133.344 93.3713 134.013 91.6505 133.857 90.7334L134.857 90.9006C135.089 92.1276 134.383 93.0986 133.723 94.0684L132.691 94.0079ZM130.751 93.7857C131.277 93.7607 131.717 96.0326 131.862 97.4279L130.78 97.2096C130.465 95.1666 131.058 95.351 129.797 93.4035L130.751 93.7857Z" fill="#F9A983"/>
<path d="M129.465 93.2834C130.957 91.8559 131.497 91.0466 131.288 90.3272L132.287 90.5572C132.54 91.4737 131.098 92.8302 130.411 93.6689L129.465 93.2834ZM126.066 92.723C126.953 92.0459 128.183 90.1906 128.287 89.2285L129.238 89.6657C129.168 90.9749 127.615 92.5719 127.185 93.0929L126.066 92.723Z" fill="#F9A983"/>
<path d="M124.206 91.325C124.741 92.1216 124.743 93.9568 124.603 95.4727L123.477 94.9172C123.71 93.8735 123.771 92.0249 123.082 90.9551L124.206 91.325ZM127.407 93.1381C127.942 93.9313 127.955 95.7766 127.809 97.2802L126.679 96.7214C126.921 95.6855 126.978 93.838 126.3 92.7626L127.407 93.1381Z" fill="#F9A983"/>
<path d="M122.762 90.8709C123.648 90.1938 125.227 88.8618 125.314 87.9014L126.442 88.4568C125.896 89.7577 125.122 90.1394 123.87 91.242L122.762 90.8709Z" fill="#F9A983"/>
<path d="M120.665 89.4506C121.152 90.3305 120.971 92.2802 120.672 93.8599L119.542 93.1567C119.895 92.0847 120.137 90.1361 119.527 88.9385L120.665 89.4506Z" fill="#F9A983"/>
<path d="M119.199 88.8143C120.195 88.186 121.998 86.9351 122.183 85.9336L123.311 86.6357C122.618 87.9505 121.756 88.2805 120.335 89.3058L119.199 88.8143Z" fill="#F9A983"/>
<path d="M116.802 87.2301C117.227 88.1455 116.902 90.0658 116.506 91.6216L115.414 90.8429C115.845 89.798 116.229 87.8778 115.703 86.6357L116.802 87.2301Z" fill="#F9A983"/>
<path d="M115.379 86.4851C116.427 85.933 118.302 84.8243 118.57 83.835L119.644 84.6115C118.846 85.873 117.966 86.1435 116.478 87.0783L115.379 86.4851Z" fill="#F9A983"/>
<path d="M112.974 84.9225C113.402 85.8401 113.079 87.7615 112.67 89.3196L111.594 88.5397C112.019 87.4971 112.4 85.5679 111.878 84.3281L112.974 84.9225Z" fill="#F9A983"/>
<path d="M111.555 84.1854C112.603 83.6311 114.472 82.5151 114.742 81.5303L115.813 82.3024C115.017 83.5683 114.147 83.8299 112.648 84.7692L111.555 84.1854Z" fill="#F9A983"/>
<path d="M108.724 82.2244C109.145 83.1337 108.829 85.0628 108.42 86.622L107.34 85.8377C107.769 84.7984 108.151 82.8726 107.628 81.6328L108.724 82.2244Z" fill="#F9A983"/>
<path d="M107.305 81.4871C108.355 80.9311 110.234 79.814 110.487 78.8203L111.567 79.6057C110.768 80.8694 109.902 81.1405 108.396 82.0659L107.305 81.4871Z" fill="#F9A983"/>
<path d="M102.949 78.7354C103.994 78.1783 105.878 77.0635 106.143 76.0719L107.215 76.8607C106.422 78.1166 105.543 78.3833 104.05 79.3159L102.949 78.7354ZM97.4863 73.0335L96.4436 72.6564C95.0855 73.3229 93.6524 74.3106 92.7009 75.2021L93.4013 75.4859C94.8078 74.4361 96.5847 73.3479 97.4863 73.0335ZM94.6639 71.9293L93.5796 71.6221C91.4078 72.9263 90.8795 73.4068 89.9341 74.3061L90.824 74.5222C91.195 74.0478 91.6877 73.5485 94.6639 71.9293ZM91.7288 71.0827L90.4746 70.9577C89.1803 71.5893 87.8978 72.9041 86.9457 73.7967L87.9128 73.8934C88.8021 72.903 90.5379 71.5643 91.7288 71.0827ZM88.3171 70.6595L87.2417 70.6289C85.8314 71.5115 84.5499 73.5929 85.0849 73.7445L85.6781 73.7306C86.148 72.4725 87.0007 71.5776 88.3171 70.6595ZM85.6403 70.7183L84.6771 70.8911C82.783 72.5042 82.5814 73.9645 83.0996 73.7662L83.4984 73.8151C83.574 73.3229 83.6312 72.4703 85.6403 70.7183ZM83.2501 71.0572L82.1959 71.3882C81.0794 72.1898 80.4556 74.0617 80.9561 73.9706L81.4443 73.8728C81.5404 73.2079 81.8237 72.3453 83.2501 71.0572ZM90.589 78.4132L89.6869 78.1427C89.7475 77.1135 90.2879 75.417 90.8112 74.5838L91.6438 74.7572C90.9634 75.6698 90.5735 77.6062 90.589 78.4132Z" fill="#F9A983"/>
<path d="M93.2944 79.0837L92.4051 78.8132C92.4629 77.7828 92.9961 76.0881 93.5172 75.2549L94.3426 75.4176C93.6771 76.3403 93.2866 78.2722 93.2944 79.0837ZM87.682 77.6701L86.8693 77.3873C86.9193 76.3219 87.2987 74.7783 87.8403 73.934L88.7018 74.0001C88.0258 74.9238 87.6958 77.0935 87.682 77.6701ZM85.1096 77.0202L84.2808 76.8496C84.3408 75.8181 84.9257 74.5911 85.4601 73.7568L86.2144 73.7873C85.5428 74.715 85.1162 76.2058 85.1096 77.0202ZM82.7511 76.6924L81.9962 76.6219C82.0545 75.5943 82.5944 74.6344 83.1171 73.7934L83.9375 73.7957C83.2699 74.7133 82.7566 75.8787 82.7511 76.6924ZM80.6747 76.6302L80.0337 76.6247C80.2953 75.3021 80.6542 74.7466 81.1846 73.9056L81.8767 73.834C81.0719 74.8272 80.9013 75.4126 80.6747 76.6302ZM78.8444 76.7085L78.2845 76.8341C78.6189 75.4765 78.7022 75.151 79.2405 74.3045L79.836 74.2506C79.1666 75.166 78.9961 75.8103 78.8444 76.7085ZM79.5027 74.2295C79.5299 73.8501 79.6399 73.4302 79.9032 72.8975C79.6138 73.1874 79.326 73.4729 79.0427 73.7784L78.8789 74.3134L79.5027 74.2295ZM77.2158 76.9352C77.4302 76.1986 77.668 75.4693 78.229 74.6577C77.7905 75.1547 77.3651 75.6629 76.9531 76.1819C76.8736 76.3947 76.8003 76.6735 76.6992 77.0718L77.2158 76.9352Z" fill="#F9A983"/>
<path d="M86.4122 71.343C81.8068 73.2777 75.5011 74.7664 65.7848 74.4114C65.7848 74.4114 50.7305 73.3132 42.6212 74.0015V74.0093C39.4512 74.0876 26.0138 75.4501 13.7013 80.0217C12.3332 80.5294 11.6794 80.9871 11.0606 81.6197C10.7928 81.9713 10.2157 82.9584 9.92575 83.5622C9.92575 83.5622 6.16467 84.0094 3.87336 84.9542C0.613314 86.2985 -0.608163 88.0526 0.282254 91.1249C2.3686 98.2994 10.8945 99.7075 10.8945 99.7075C10.8945 99.7075 8.84426 94.6499 10.7467 94.6127C11.6049 94.5966 14.084 95.201 15.9009 96.048C16.9041 96.4808 21.4751 98.6776 26.011 102.543L20.6613 119.452H82.3295C84.307 119.425 86.2638 119.045 88.1075 118.33C87.7464 118.761 87.4837 119.018 87.1982 119.517L82.6472 127.49H107.724C114.001 127.4 119.389 124.223 121.607 119.453H178.397C185.46 119.453 190.874 116.336 192.911 111.6C195.351 106.111 192.543 103.15 192.543 103.15C195.329 101.438 196.661 99.1326 197.16 97.52L199.999 88.7292H144.919L147.904 79.2168H140.573C133.706 79.2795 128.526 83.2878 126.78 88.712H78.449C83.0499 86.7145 90.4627 82.0141 94.1976 67.377C94.1976 67.377 90.9504 69.6422 86.4122 71.343Z" fill="black"/>
<path d="M57.7884 105.678C61.3423 105.609 64.0046 104.112 65.1872 103.103C65.1872 103.103 63.3703 113.885 50.6334 113.946H25.0429L29.41 100.026C29.41 100.026 24.2803 94.0338 14.8162 91.7187C11.4767 90.7616 6.61635 90.47 6.26474 92.0714C6.12587 92.5596 6.39916 94.1488 6.71634 95.4225C6.71634 95.4225 5.21268 94.726 4.29616 93.6061C3.9962 93.3056 2.55365 91.5254 2.43533 89.5723C2.37034 88.5114 2.87138 87.7593 3.67514 87.2105C5.71149 85.8901 11.4312 85.288 11.4312 85.288L11.9539 84.1293C12.4788 82.9572 12.9604 82.4245 13.693 82.134C26.7327 76.9448 42.1453 76.05 42.2791 76.05L42.1892 76.0522C43.2923 75.9833 44.7321 75.935 46.3552 75.9078C53.3241 75.454 62.7993 76.3527 63.4892 76.4199C70.3303 76.8526 74.7824 76.6499 77.7381 76.2016C82.2385 75.7173 86.3123 72.9482 86.3123 72.9482C86.3123 72.9482 82.4568 81.6374 73.2615 84.0743C69.4077 85.158 65.4505 85.2091 61.7861 85.218H54.8327C51.3616 85.218 50.4518 86.5328 50.059 87.6709L49.1453 90.7077H60.7657C65.0673 90.8566 68.0196 89.0891 69.3421 87.9642C69.3421 87.9642 67.5502 98.6192 54.8322 98.8048L46.6696 98.807L44.501 105.678H57.7884Z" fill="white"/>
<path d="M54.3628 83.129C50.5101 83.129 48.8831 84.6388 48.1938 86.6329L46.6818 91.5832H60.278C62.6032 91.5594 64.9651 91.5444 66.6998 90.0685C65.3589 93.3146 61.5262 96.908 54.3645 96.748L45.1115 96.7513L42.0731 106.561H56.2675C58.5905 106.538 60.7968 106.424 62.6438 105.141C61.3645 108.365 57.2396 111.966 50.2252 111.792H26.7244L30.7632 98.8493C30.7632 98.8493 22.2567 89.9791 9.98419 89.3553C7.71399 89.3203 6.22589 89.5258 5.31269 90.0085C4.23564 90.5801 4.87998 92.4248 4.87998 92.4248C4.87998 92.4248 3.59852 91.1566 3.35244 89.5769C3.10748 88.0116 5.09162 87.1112 7.99672 86.5535C10.1503 86.1696 11.9556 86.013 11.9556 86.013L12.7443 84.3066C12.9665 83.85 13.2154 83.4823 13.517 83.214C14.0069 82.7691 14.8329 82.4869 14.8329 82.4869C27.2182 78.1031 41.8081 76.925 41.8081 76.925H41.8104C42.8802 76.8594 44.3133 76.81 45.9242 76.7833C52.972 76.3167 62.9182 77.2927 62.9182 77.2927C79.4184 78.4881 82.5568 75.7352 84.1354 74.6131C84.1593 74.5892 84.1321 74.6392 84.1571 74.6131C78.2519 82.2419 71.018 83.1734 61.3168 83.129H54.3628Z" fill="#F15A28"/>
<path d="M32.2674 94.007L33.6717 89.5255C34.6082 86.3815 35.4186 85.3811 38.3137 84.1497C41.2083 82.9182 46.7835 82.2805 46.7835 82.2805C38.6759 81.1096 21.9013 81.8395 15.7972 83.8741C14.4924 84.3102 14.0269 85.4872 14.0269 85.4872L22.5823 84.7668L19.3528 86.7565C16.1794 85.6566 13.7709 86.1621 13.7709 86.1621C11.7317 87.0614 11.4023 88.8028 11.4023 88.8028C22.0857 88.8634 32.2674 94.007 32.2674 94.007Z" fill="white"/>
<path d="M140.609 81.2637C135.356 81.2864 130.757 84.3493 129.595 88.1076L121.594 113.939H132.55L142.717 81.2637H140.609ZM162.951 102.947C164.421 101.858 165.5 100.462 166.008 98.8276C166.011 98.8198 168.455 90.8755 168.455 90.8755H150.995C144.462 91.0088 141.567 94.1367 140.624 96.7913L140.613 96.8185L135.255 113.936H153.058C157.884 113.928 162.009 111.655 163.437 107.085L164.708 102.947H162.951ZM150.897 98.9915L151.479 97.1668H155.592L155.009 98.9915H150.897ZM152.467 107.531H148.243C148.562 106.509 148.743 105.979 148.964 105.271H154.138C153.326 105.944 152.882 106.519 152.467 107.531ZM107.439 115.608H100.282C95.0108 115.608 91.7907 116.91 90.1993 119.692L88.8962 121.978H107.557C112.835 121.901 117.234 119.158 118.526 115.15L126.072 90.8755H108.741C108.741 90.8755 100.362 90.7072 98.1514 97.6367L93.0872 113.936H104.672C106.101 113.925 107.215 113.72 108.136 113.335L107.439 115.608ZM113.16 97.0784C112.351 99.6769 110.352 105.998 109.881 107.52H106.075C106.883 104.919 108.883 98.6004 109.355 97.0784H113.16ZM64.1328 113.939H82.1595C87.0459 113.869 91.2247 111.167 92.3845 107.369C92.3856 107.368 97.5187 90.8755 97.5187 90.8755H79.7682C74.7262 90.8461 70.479 93.5173 69.2437 97.5073C69.2359 97.5389 67.8706 101.932 67.8706 101.932H69.6103C68.1544 102.949 67.0335 104.549 66.5258 106.217L64.1328 113.939ZM77.1302 107.52L77.7129 105.631H81.9906L81.4079 107.52H77.1302ZM84.6407 97.1668L83.9575 99.3809H78.4484C79.4954 98.7471 79.967 97.89 80.2914 97.1668H84.6407ZM162.929 113.929H178.326C184.402 113.929 187.659 110.398 188.683 107.092C188.683 107.092 189.256 105.256 188.565 103.671C188.162 102.691 187.54 101.94 186.385 101.341C185.776 101.047 184.582 100.475 183.524 99.9663C189.708 99.5203 191.853 96.8885 192.541 94.671L193.112 92.8341L193.733 90.8522H178.182C173.053 90.9055 169.25 93.4579 167.992 97.685C166.999 101.561 169.961 102.926 169.961 102.926L173.441 104.616C167.116 104.856 164.892 107.703 164.196 109.953L162.929 113.929ZM178.974 97.7861L179.184 97.1668H180.857L180.43 98.4849L178.974 97.7861ZM175.94 107.518C176.074 107.092 176.246 106.552 176.246 106.552L176.403 106.053C176.929 106.308 177.657 106.661 177.847 106.752L177.609 107.519L175.94 107.518Z" fill="white"/>
<path d="M123.246 111.808L130.561 88.243C131.723 84.8763 135.843 82.2867 140.143 82.2256L130.937 111.808H123.246V111.808ZM155.167 103.238C159.677 103.041 163.12 100.812 164.06 97.7932L165.898 91.7536H150.508C146.209 91.8608 142.698 93.8127 141.477 97.2505L136.915 111.803H152.572C157.174 111.788 160.205 109.737 161.465 106.071L162.147 103.912C157.989 103.9 154.076 105.031 153.072 108.198L153 108.478H145.676L147.308 103.248L155.167 103.238ZM157.136 95.1464L155.647 99.9395H148.334L149.82 95.1464H157.136ZM110.517 108.467H103.51L107.65 95.1464H114.659L110.517 108.467ZM91.1318 119.867H107.068C111.371 119.806 115.441 117.646 116.584 114.1L123.515 91.7536H108.254C103.949 91.8608 100.455 94.1998 99.1744 97.5543L94.7407 111.804H104.181C108.361 111.804 110.025 110.055 110.025 110.055L108.105 116.505H99.8093C96.0949 116.506 92.6499 117.212 91.1318 119.867ZM82.0443 108.467H74.5649L76.0752 103.611H83.5546L82.0443 108.467ZM79.2797 91.7558C75.0126 91.7491 71.2599 94.1676 70.2645 97.3732L69.5118 99.8045C73.5217 99.9306 77.6222 98.6286 78.5804 95.488L78.6887 95.1464H86.1909L84.5778 100.328H76.5851C72.0164 100.363 68.5264 102.941 67.5671 106.082L65.7852 111.808H81.651C85.9526 111.747 89.4387 109.478 90.3963 106.34L94.9117 91.7558H79.2797ZM186.734 106.059C185.762 109.2 182.725 111.797 177.859 111.797H164.621L165.234 109.824C166.208 106.685 170 105.573 174.299 105.511L173.365 108.464H178.245L178.961 106.162C179.1 105.712 178.961 105.343 178.629 105.089L170.262 101.019C169.315 100.546 168.595 98.9735 169.036 97.5493V97.5404C170.052 94.1254 173.088 91.8458 177.762 91.7524H191.167L190.594 93.6371C189.619 96.7767 186.046 97.8965 181.534 97.9237L182.405 95.1452H177.525L176.883 97.2166C176.742 97.6682 176.883 98.0381 177.215 98.2909L185.43 102.23C187.496 103.472 186.734 106.059 186.734 106.059Z" fill="#F15A28"/>
<path d="M104.841 148.348L106.578 148.307C106.951 148.298 107.227 148.249 107.407 148.163C107.704 148.016 107.85 147.748 107.84 147.356C107.828 146.985 107.678 146.746 107.394 146.633C107.231 146.566 106.948 146.536 106.55 146.549L105.108 146.581C104.612 146.594 104.253 146.681 104.046 146.846C103.852 147.002 103.758 147.247 103.766 147.577C103.804 148.113 104.162 148.369 104.841 148.348ZM108.365 151.248L105.115 151.326C104.199 151.348 103.541 151.086 103.139 150.543C102.914 150.244 102.809 149.895 102.76 149.525C102.691 149.033 102.714 147.826 102.706 147.55C102.69 146.842 102.924 146.405 103.165 146.13C103.417 145.843 103.86 145.586 104.248 145.576C104.587 145.564 104.589 145.566 104.925 145.56L106.586 145.52C107.35 145.504 107.883 145.59 108.198 145.789C108.628 146.056 108.851 146.591 108.872 147.399C108.878 148.157 108.653 148.678 108.229 148.962C107.92 149.169 107.401 149.279 106.671 149.296C106.671 149.296 103.837 149.343 103.839 149.361C103.845 149.649 103.929 149.985 104.224 150.14C104.509 150.294 104.859 150.314 105.175 150.307L108.368 150.232L108.365 151.248ZM100.756 147.959C100.472 147.723 100.035 147.578 99.5701 147.492L97.5193 147.111C97.2455 147.061 96.6389 146.895 96.7322 146.386L96.8144 145.934C96.8805 145.58 97.0522 145.425 97.7521 145.555C97.7521 145.555 101.217 146.195 101.347 146.22C101.369 146.091 101.479 145.496 101.503 145.368L98.0215 144.726C97.441 144.616 96.9911 144.606 96.6839 144.695C96.1968 144.83 95.9013 145.2 95.7846 145.833L95.7002 146.289C95.613 146.764 95.7307 147.151 96.0551 147.471C96.3167 147.724 96.6495 147.891 97.0477 147.963L99.4213 148.402C100.088 148.527 100.172 148.732 100.104 149.095L100.033 149.484C99.9717 149.82 99.8468 150.038 99.2557 149.927L95.3108 149.198C95.288 149.326 95.1725 149.949 95.148 150.079C95.3052 150.107 98.9524 150.783 98.9524 150.783C99.9023 150.958 100.522 150.828 100.797 150.401C100.907 150.23 100.995 149.958 101.061 149.596L101.135 149.198C101.234 148.667 101.142 148.284 100.756 147.959ZM92.008 146.33L90.351 145.793C89.9922 145.678 89.7161 145.63 89.5156 145.654C89.1845 145.694 88.959 145.901 88.8374 146.276C88.7268 146.632 88.7874 146.908 89.0218 147.107C89.1551 147.226 89.4112 147.347 89.7889 147.469L91.1675 147.915C91.6436 148.07 92.0113 148.104 92.2646 148.017C92.4996 147.937 92.6668 147.737 92.7706 147.42C92.9134 146.9 92.6584 146.537 92.008 146.33ZM89.6361 142.413L92.7356 143.419C93.6144 143.703 94.1493 144.17 94.3487 144.82C94.6126 145.653 94.1726 146.549 93.9204 147.327C93.8344 147.593 93.7488 147.856 93.6616 148.122C93.5305 148.529 93.2911 148.874 92.9895 149.089C92.6973 149.295 92.3418 149.379 91.9735 149.26C91.6491 149.157 91.3264 149.052 91.0031 148.947L89.4128 148.43C88.6835 148.196 88.2086 147.934 87.9786 147.644C87.6598 147.248 87.6259 146.664 87.8764 145.893C88.1197 145.174 88.5052 144.754 89.0046 144.627C89.3634 144.534 89.8922 144.602 90.5899 144.828C90.5899 144.828 93.2872 145.72 93.2933 145.705C93.3811 145.431 93.4172 145.087 93.1889 144.839C92.97 144.599 92.6445 144.464 92.3401 144.366L89.2934 143.378L89.6361 142.413ZM121.851 145.925L120.188 146.451C119.831 146.565 119.577 146.686 119.429 146.822C119.184 147.048 119.118 147.348 119.238 147.723C119.353 148.077 119.565 148.266 119.871 148.293C120.049 148.312 120.327 148.26 120.708 148.14L122.088 147.705C122.565 147.555 122.883 147.368 123.038 147.151C123.184 146.948 123.203 146.689 123.103 146.371C122.918 145.863 122.499 145.715 121.851 145.925ZM117.643 144.115L120.751 143.131C121.63 142.854 122.337 142.921 122.878 143.334C123.575 143.86 123.739 144.844 123.984 145.625L124.236 146.422C124.366 146.829 124.371 147.252 124.25 147.598C124.134 147.938 123.894 148.213 123.524 148.331C123.199 148.434 122.874 148.537 122.552 148.637L120.958 149.143C120.229 149.374 119.689 149.438 119.333 149.336C118.843 149.196 118.476 148.744 118.228 147.97C118.011 147.243 118.081 146.675 118.414 146.283C118.653 145.996 119.122 145.747 119.823 145.526C119.823 145.526 122.537 144.685 122.531 144.67C122.444 144.396 122.273 144.093 121.944 144.026C121.625 143.956 121.283 144.037 120.978 144.134L117.922 145.098L117.643 144.115Z" fill="white"/>
<path d="M123.656 140.041L124.612 139.675L127.346 146.822L126.39 147.188L123.656 140.041ZM129.916 145.623L128.968 146.016L126.037 138.946L126.981 138.555L129.916 145.623Z" fill="white"/>
<path d="M86.2964 143.187L86.2508 143.14C86.6763 143.163 87.0013 143.157 87.3107 142.825C87.4657 142.66 87.6601 142.367 87.8895 141.952C88.1133 141.543 88.2028 141.126 88.1539 140.71C88.1103 140.325 87.9406 139.964 87.6712 139.686C87.4812 139.487 87.1774 139.272 86.7685 139.045L83.0291 136.975L79.348 143.631L83.2008 145.762C83.729 146.056 84.245 146.18 84.7255 146.128C85.3399 146.057 85.8115 145.707 86.1681 145.062C86.3408 144.753 86.4625 144.443 86.5325 144.134C86.6252 143.736 86.5719 143.483 86.2964 143.187ZM85.1516 144.751C84.8827 145.114 84.3767 145.093 83.6807 144.708L80.7806 143.104L81.7704 141.315L81.886 141.378L84.76 142.968C85.4293 143.337 85.6754 143.726 85.4899 144.134L85.1516 144.751ZM86.6924 141.962C86.4819 142.344 86.0442 142.356 85.396 141.997L82.3487 140.312L83.3652 138.475L83.4802 138.539L86.3047 140.101C87.0246 140.499 87.2729 140.915 87.0407 141.334L86.6924 141.962ZM116.659 148.005L116.502 146.904C116.401 146.18 116.103 145.644 115.61 145.302C115.114 144.957 114.648 144.818 113.814 144.935L113.098 145.038L111.043 145.326L110.789 143.543L109.763 143.687L110.017 145.472L110.154 146.461L110.389 148.124L110.496 148.876C110.598 149.602 110.898 150.137 111.391 150.482C111.887 150.826 112.352 150.967 113.184 150.848L114.047 150.725L114.621 150.644C115.453 150.525 115.865 150.262 116.244 149.796C116.626 149.328 116.761 148.731 116.659 148.005ZM115.618 148.053C115.678 148.481 115.591 148.84 115.357 149.136C115.125 149.432 114.964 149.585 114.485 149.651L113.908 149.733L113.762 149.754L113.042 149.856C112.562 149.925 112.362 149.821 112.058 149.6C111.752 149.38 111.568 149.057 111.507 148.633L111.416 147.978L111.181 146.315L113.38 146.005L113.959 145.924C114.439 145.856 114.636 145.96 114.94 146.181C115.245 146.399 115.43 146.722 115.489 147.146L115.618 148.053ZM135.817 132.225L140.891 137.902C140.967 137.835 141.53 137.33 141.658 137.218C141.521 137.067 136.723 131.697 136.583 131.541C136.427 131.68 135.855 132.19 135.817 132.225ZM131.613 137.743C131.682 137.219 131.769 136.865 132.354 136.396C132.354 136.396 135.138 134.173 135.39 133.969C135.176 133.7 134.961 133.431 134.745 133.163C134.492 133.367 131.714 135.587 131.714 135.587C130.796 136.321 130.554 136.893 130.441 137.631C130.326 138.395 130.572 139.166 131.169 139.911L132.13 141.115C132.731 141.864 133.427 142.271 134.201 142.329C134.944 142.38 135.553 142.269 136.47 141.534C136.47 141.534 139.248 139.315 139.502 139.11C139.359 138.932 139.002 138.484 138.86 138.307C138.605 138.509 135.823 140.735 135.823 140.735C135.237 141.203 134.875 141.207 134.347 141.161C133.785 141.111 133.294 140.832 132.894 140.331L132.103 139.342C131.703 138.842 131.538 138.302 131.613 137.743ZM149.907 122.785L148.976 122.174C148.362 121.772 147.638 121.838 147.054 121.983C146.471 122.127 146.056 122.388 145.596 123.09L145.2 123.697L144.061 125.435L142.554 124.448L141.986 125.315L143.494 126.303L144.33 126.85L145.735 127.769L146.37 128.185C146.983 128.587 147.583 128.713 148.167 128.57C148.751 128.423 149.163 128.165 149.625 127.461L150.101 126.732L150.418 126.249C150.88 125.546 150.952 125.062 150.852 124.47C150.751 123.875 150.521 123.184 149.907 122.785ZM149.132 123.79C149.492 124.026 149.704 124.327 149.772 124.701C149.843 125.071 149.852 125.292 149.584 125.699L149.267 126.183L149.186 126.307L148.788 126.914C148.52 127.322 148.312 127.404 147.946 127.488C147.58 127.571 147.215 127.498 146.858 127.264L146.302 126.901L144.9 125.983L146.115 124.121L146.434 123.635C146.7 123.228 146.909 123.149 147.275 123.065C147.641 122.98 148.006 123.054 148.363 123.29L149.132 123.79ZM144.806 133.928C144.332 134.465 143.795 134.745 143.204 134.76C142.613 134.772 142.155 134.636 141.536 134.087L139.058 131.903L139.763 131.105L142.24 133.292C142.599 133.608 142.816 133.63 143.185 133.615C143.556 133.6 143.877 133.433 144.159 133.116L144.647 132.562C144.927 132.246 145.053 131.902 145.021 131.533C144.991 131.165 144.94 130.951 144.584 130.635L142.105 128.45L142.807 127.654L145.284 129.837C145.902 130.384 146.095 130.823 146.157 131.411C146.218 131.998 146.008 132.564 145.532 133.105L144.806 133.928ZM70.7171 126.074C70.6883 125.595 70.5205 125.103 70.2178 124.611C70.2178 124.611 68.0787 121.131 67.9465 120.918C67.7271 121.041 61.528 124.517 61.3125 124.639C61.4108 124.803 61.7574 125.367 61.858 125.531C62.0652 125.413 64.2232 124.202 64.2232 124.202L65.9223 126.972C66.2684 127.534 66.6644 127.931 67.1027 128.156C67.6854 128.457 68.2947 128.421 68.9646 128.046L69.9734 127.48C70.5122 127.179 70.756 126.718 70.7171 126.074ZM68.4625 127.153C68.1231 127.341 67.5971 127.371 67.0183 126.427L65.2847 123.607L67.4304 122.405L67.4999 122.515L69.1652 125.222C69.2924 125.429 69.3818 125.671 69.4329 125.932C69.5123 126.335 69.4307 126.609 69.1846 126.745L68.4625 127.153ZM66.2017 131.893L69.2318 129.293C70.1495 128.504 71.0327 128.641 71.9247 129.721L73.3317 131.426C73.2057 131.535 72.6818 131.985 72.558 132.09C72.4519 131.96 71.1543 130.389 71.1543 130.389C70.6294 129.752 70.1322 129.947 69.9134 130.136L66.8927 132.729C66.6634 132.45 66.433 132.171 66.2017 131.893ZM77.8166 136.205C77.7494 135.6 77.5466 135.152 76.9101 134.597L76.3596 134.118L75.3636 133.252C74.7276 132.697 74.2549 132.558 73.6478 132.578C73.0429 132.598 72.4985 132.886 72.0158 133.442L71.2793 134.286C70.7955 134.842 70.5883 135.42 70.651 136.023C70.716 136.627 70.9188 137.075 71.557 137.628L72.443 138.4L72.4424 138.401L73.1018 138.976C73.7395 139.53 74.2127 139.667 74.8198 139.649C75.4242 139.628 75.9674 139.342 76.4513 138.786L77.1873 137.943C77.6716 137.384 77.8799 136.806 77.8166 136.205ZM75.7297 138.025C75.4453 138.352 75.1126 138.522 74.7349 138.542C74.3571 138.56 74.1327 138.537 73.765 138.217L73.2123 137.736L73.1023 137.64L72.2152 136.869C71.8453 136.548 71.7936 136.329 71.7592 135.953C71.7253 135.576 71.8503 135.225 72.1347 134.898L72.7396 134.204C73.0235 133.877 73.354 133.706 73.7328 133.686C74.1105 133.67 74.3344 133.69 74.7015 134.01L75.5892 134.782L75.6997 134.879L76.253 135.359C76.6207 135.68 76.674 135.898 76.7051 136.274C76.7412 136.653 76.6196 137.004 76.3329 137.33L75.7297 138.025Z" fill="white"/>
<path d="M76.2218 65.9774L75.5253 66.6945L72.6746 63.9227L69.349 67.3433L72.198 70.1151L71.5003 70.8305L66.0195 65.5008L66.7161 64.7837L68.5214 66.5379L71.8453 63.1162L70.0434 61.3637L70.7405 60.646L76.2218 65.9774ZM111.218 52.1712L109.482 52.0318C109.108 52.0018 108.827 52.0207 108.639 52.0901C108.326 52.2062 108.154 52.4589 108.122 52.8522C108.097 53.2233 108.221 53.4766 108.493 53.6171C108.651 53.7021 108.93 53.7598 109.327 53.7904L110.769 53.9065C111.267 53.947 111.631 53.8937 111.858 53.7515C112.066 53.6204 112.185 53.386 112.212 53.0527C112.23 52.5145 111.898 52.2212 111.218 52.1712ZM108.004 48.9117L111.25 49.1717C112.169 49.2444 112.798 49.5727 113.142 50.1593C113.59 50.9069 113.372 51.8801 113.306 52.6956C113.284 52.9744 113.262 53.251 113.238 53.5288C113.205 53.9526 113.054 54.3447 112.809 54.623C112.574 54.8913 112.248 55.0541 111.864 55.0252C111.523 54.9991 111.185 54.9719 110.845 54.9441L109.181 54.8119C108.419 54.7519 107.896 54.6092 107.604 54.3803C107.201 54.0687 107.034 53.5093 107.1 52.7022C107.17 51.9473 107.448 51.4491 107.902 51.2091C108.231 51.0353 108.76 50.9797 109.491 51.0386C109.491 51.0386 112.321 51.2808 112.321 51.2647C112.346 50.978 112.298 50.6331 112.02 50.4481C111.752 50.2648 111.405 50.2082 111.086 50.1832L107.894 49.9277L108.004 48.9117ZM83.5474 54.2909C84.1978 53.9504 84.8049 53.8798 85.371 54.0781C85.9414 54.2798 86.328 54.5775 86.7208 55.3246L88.2839 58.2991L87.3984 58.7657L85.8303 55.7834C85.6065 55.3557 85.4054 55.2541 85.0488 55.1346C84.6933 55.0152 84.3228 55.0552 83.9434 55.2541L83.1308 55.6818C82.7497 55.8823 82.5081 56.1645 82.4059 56.525C82.2998 56.8855 82.2703 57.1088 82.4959 57.5376L84.0623 60.5171L83.1758 60.9837L81.6127 58.0081C81.2222 57.2604 81.195 56.7744 81.3521 56.19C81.5093 55.6107 81.9132 55.1496 82.5631 54.8091L83.5474 54.2909ZM96.3309 49.8232L97.243 52.9594C97.3808 53.426 97.3058 53.636 97.1314 53.9693C96.9575 54.3036 96.667 54.5292 96.2526 54.6503L95.6538 54.8241C95.2417 54.9435 94.8728 54.9102 94.5484 54.7208C94.2224 54.5319 94.0452 54.3942 93.9107 53.9287L92.9981 50.7925L91.991 51.0853L92.9026 54.2214C93.0398 54.6875 92.9665 54.898 92.7909 55.2329C92.6165 55.5662 92.3232 55.7917 91.91 55.9134L91.3139 56.0873C90.9023 56.2061 90.5313 56.1717 90.2058 55.9845C89.8792 55.7962 89.7047 55.6568 89.5675 55.1907L88.6555 52.0545L87.6951 52.3334L88.6327 55.5618C88.8682 56.3694 89.1876 56.7388 89.7053 57.0488C90.2219 57.3593 90.8312 57.412 91.5378 57.206L92.3232 56.9771C93.0276 56.7733 93.5147 56.4 93.7847 55.864C93.8163 55.8001 93.8452 55.7362 93.8708 55.6718C93.9269 55.7118 93.9874 55.749 94.0474 55.7867C94.564 56.095 95.175 56.1478 95.8782 55.9434L96.667 55.7129C97.3691 55.5101 97.8551 55.138 98.1262 54.5997C98.3962 54.0603 98.4673 53.5765 98.2323 52.7683L97.2941 49.5405L96.3309 49.8232ZM104.786 49.606C104.342 49.2011 103.755 49.0267 103.025 49.085L101.915 49.175C101.383 49.2183 100.95 49.3716 100.605 49.6316L100.42 47.3447L99.4182 47.4258L100.037 55.0963L101.055 55.0141L100.784 51.6579C100.745 51.1747 100.861 50.983 101.097 50.6898C101.335 50.4009 101.668 50.2365 102.097 50.2021L103.011 50.1287C103.438 50.0932 103.795 50.2021 104.076 50.4498C104.356 50.7003 104.501 50.8725 104.54 51.3558L104.809 54.7125L105.809 54.6314L105.538 51.2802C105.471 50.4415 105.229 50.0149 104.786 49.606ZM78.7431 60.5721L77.3456 61.6153C77.045 61.8386 76.8462 62.0391 76.749 62.2169C76.5929 62.5085 76.6295 62.8123 76.8651 63.1289C77.0917 63.4233 77.3528 63.5322 77.6494 63.4583C77.8233 63.4194 78.0688 63.2784 78.3915 63.0406L79.5497 62.1746C79.9507 61.8752 80.1879 61.5975 80.2662 61.3403C80.3345 61.1026 80.2695 60.8498 80.0696 60.5816C79.7318 60.1661 79.2864 60.1633 78.7431 60.5721ZM74.1749 60.2472L76.7895 58.298C77.5261 57.747 78.2171 57.5776 78.8609 57.7925C79.6919 58.0592 80.1684 58.934 80.6567 59.5906C80.8233 59.815 80.9922 60.0383 81.1555 60.2605C81.4105 60.6021 81.5571 60.9954 81.5543 61.3664C81.556 61.7247 81.4194 62.0624 81.1111 62.2957L80.2929 62.9045L78.9531 63.9016C78.3421 64.3604 77.8521 64.597 77.4833 64.6176C76.9745 64.6481 76.479 64.3399 75.9941 63.69C75.5492 63.0762 75.4308 62.5185 75.613 62.0386C75.7475 61.6914 76.1069 61.2998 76.6945 60.8615C76.6945 60.8615 78.9836 59.1773 78.9714 59.1634C78.8014 58.9335 78.5393 58.7052 78.206 58.7491C77.8816 58.7891 77.5877 58.9757 77.3317 59.1668L74.7621 61.0826L74.1749 60.2472ZM143.152 61.5553L137.777 67.4971C137.858 67.5688 138.443 68.1015 138.58 68.222C138.723 68.0626 143.804 62.4452 143.952 62.2813C143.685 62.0397 143.418 61.7977 143.152 61.5553ZM143.2 68.7197L144.413 70.0851C144.673 70.3789 144.902 70.5661 145.094 70.6522C145.413 70.7922 145.726 70.7239 146.035 70.4484C146.325 70.1901 146.415 69.9057 146.311 69.6002C146.253 69.4246 146.085 69.178 145.805 68.8647L144.798 67.731C144.453 67.3422 144.137 67.1144 143.865 67.06C143.607 67.0106 143.346 67.0983 143.087 67.3327C142.681 67.726 142.72 68.1882 143.2 68.7197ZM143.267 73.5184L140.997 70.9644C140.357 70.2451 140.117 69.5391 140.281 68.8475C140.369 68.4642 140.578 68.1404 140.84 67.8499C141.19 67.4588 142.171 66.6551 142.388 66.4618C142.946 65.9663 143.454 65.8596 143.837 65.8663C144.24 65.8741 144.747 66.0529 145.02 66.3573C145.26 66.6228 145.258 66.6245 145.493 66.8906L146.655 68.197C147.189 68.7981 147.483 69.2852 147.536 69.6713C147.615 70.1962 147.337 70.7439 146.704 71.3066C146.098 71.827 145.529 72.0014 145.013 71.8537C144.635 71.7465 144.195 71.4043 143.684 70.8316C143.684 70.8316 141.721 68.5903 141.706 68.6031C141.479 68.8036 141.265 69.1008 141.342 69.4418C141.413 69.774 141.634 70.0701 141.858 70.3189L144.09 72.8302L143.267 73.5184ZM149.61 77.6095C149.589 77.2217 149.39 76.7807 149.123 76.3597L147.952 74.5033C147.797 74.255 147.493 73.6667 147.952 73.3773L148.362 73.1191C148.681 72.9185 148.925 72.938 149.323 73.5712C149.323 73.5712 151.301 76.7074 151.373 76.8235L152.143 76.3374L150.159 73.1896C149.827 72.6636 149.514 72.3086 149.227 72.1342C148.772 71.8526 148.277 71.8904 147.705 72.2497L147.292 72.5114C146.86 72.7835 146.645 73.1479 146.632 73.629C146.621 74.0117 146.731 74.3889 146.957 74.7477L148.313 76.8979C148.693 77.5 148.593 77.71 148.267 77.9177L147.915 78.1377C147.609 78.3321 147.353 78.3882 147.016 77.8544C147.016 77.8544 144.854 74.4283 144.768 74.2872L143.969 74.7899C144.059 74.9304 146.14 78.2294 146.14 78.2294C146.683 79.0887 147.224 79.477 147.75 79.3836C147.959 79.3459 148.232 79.2187 148.562 79.0137L148.921 78.7859C149.403 78.4838 149.633 78.1388 149.61 77.6095ZM130.193 58.0747L128.575 57.2076C128.227 57.0221 127.948 56.9221 127.738 56.9099C127.386 56.8888 127.115 57.0604 126.92 57.427C126.737 57.7742 126.75 58.0697 126.955 58.3208C127.07 58.4702 127.315 58.6413 127.683 58.8396L129.026 59.5589C129.49 59.8072 129.864 59.9117 130.143 59.87C130.399 59.8306 130.611 59.6534 130.778 59.3445C131.022 58.8318 130.825 58.4102 130.193 58.0747ZM128.464 53.576L131.488 55.1957C132.341 55.6545 132.811 56.2361 132.896 56.9466C133.012 57.8575 132.39 58.7018 131.984 59.4606C131.843 59.7217 131.707 59.9783 131.569 60.2377C131.356 60.631 131.045 60.9448 130.691 61.1109C130.352 61.2714 129.967 61.2909 129.609 61.0998C129.292 60.9315 128.976 60.7626 128.663 60.5943L127.112 59.7634C126.404 59.3834 125.958 59.0246 125.775 58.6807C125.52 58.2108 125.591 57.6015 125.995 56.8482C126.381 56.1495 126.858 55.7873 127.399 55.7484C127.788 55.719 128.323 55.889 129.002 56.2528C129.002 56.2528 131.629 57.6798 131.637 57.6653C131.782 57.3987 131.881 57.0482 131.69 56.7499C131.51 56.4605 131.198 56.26 130.903 56.1011L127.931 54.5097L128.464 53.576ZM139.775 61.7464L139.785 61.7347L139.77 61.7214C139.744 61.6081 139.722 61.4909 139.674 61.3737C139.493 60.9037 139.178 60.4927 138.737 60.1488L137.245 58.9807C136.045 58.0436 135.123 58.0208 134.424 58.9135L132.865 60.9082C132.096 61.8914 132.305 62.8223 133.496 63.755L135.244 65.1203C135.486 65.2619 135.824 65.478 136.216 65.4103L135.894 65.8169C135.719 66.0118 135.495 66.1912 135.178 66.1824C134.84 66.1724 134.453 65.9718 134.192 65.768L131.518 63.6761L130.954 64.3976L133.765 66.5945C134.183 66.92 134.56 67.1133 134.925 67.1889C135.223 67.2525 135.531 67.238 135.821 67.1466C136.173 67.0406 136.441 66.8111 136.689 66.5479L136.936 66.2312L139.435 63.0328C139.749 62.6312 139.855 62.2052 139.775 61.7464ZM137.293 64.0188C136.617 64.8837 135.804 64.126 135.804 64.126L135.798 64.1349L134.206 62.8906C134.183 62.8723 134.164 62.8545 134.141 62.8373L134.146 62.8307C134.146 62.8307 133.2 62.2169 133.901 61.3453L133.896 61.3403L134.983 59.9511L134.988 59.9555C135.665 59.0607 136.492 59.8339 136.492 59.8339L136.502 59.8183C136.833 60.08 137.909 60.9209 137.909 60.9209C137.969 60.9682 138.056 61.0382 138.15 61.1237L138.147 61.1287C138.147 61.1287 138.177 61.1498 138.219 61.1848C138.297 61.2537 138.372 61.3314 138.442 61.4175C138.641 61.6747 138.8 62.0919 138.403 62.6007L137.293 64.0188ZM120.446 50.8125C120.587 50.4026 120.969 50.1271 121.745 50.2732C122.011 50.3104 125.796 51.6368 126.382 51.8346L126.778 50.6825C126.599 50.622 122.466 49.2017 122.466 49.2017C122.191 49.1064 121.904 49.0486 121.613 49.03C120.727 48.9811 119.848 49.31 119.542 50.2021L119.309 50.8808C119.032 51.6824 118.606 52.9283 118.556 53.0705C118.43 53.4418 118.302 53.8127 118.174 54.1831C118.069 54.4892 118.038 54.8158 118.12 55.1324C118.325 55.9312 119.126 56.5144 119.865 56.7688C119.865 56.7688 123.997 58.1886 124.179 58.2497C124.237 58.0786 124.516 57.2665 124.575 57.0982C123.99 56.8955 120.189 55.6118 119.957 55.484C119.255 55.1196 119.122 54.6664 119.261 54.2587L119.565 53.371C119.636 53.1677 119.616 53.226 119.616 53.226C119.616 53.226 124.467 54.8913 124.676 54.9641C124.734 54.7925 125.01 53.9887 125.071 53.8154C124.861 53.7426 120.012 52.0768 120.012 52.0768L120.305 51.2219L120.446 50.8125Z" fill="white"/>
<path d="M79.8251 139.5L79.2419 140.339L77.8477 139.414L78.432 138.574L79.8251 139.5Z" fill="white"/>
</g>
<defs>
<clipPath id="clip0_463_17562">
<rect width="200" height="124.011" fill="white" transform="translate(0 38)"/>
</clipPath>
</defs>
</svg>
