<svg width="200" height="71" viewBox="0 0 200 71" fill="none" xmlns="http://www.w3.org/2000/svg">
<path d="M3.37753 1.48792C5.23044 4.57857 9.0383 5.19374 8.40538 10.1373L0 68.7295H15.5213L25.1703 1.48792H3.37753Z" fill="#263968"/>
<path d="M127.986 17.6061C129.498 7.09051 126.929 1.48889 113.515 1.48889H69.1295C71.0061 4.57806 74.8066 5.19619 74.1781 10.1353L65.7461 68.7305H104.144C115.059 68.7305 122.564 64.1004 124.508 50.5977C126.009 40.0924 123.575 33.3329 117.327 33.3329C123.111 33.3329 126.644 26.9594 127.986 17.6061ZM107.983 48.0882C107.245 53.3038 105.278 55.5176 101.992 55.5176H83.1735L85.3932 40.0924H103.828C107.291 40.0924 108.774 42.5871 107.983 48.0882ZM110.802 21.0827C110.141 25.7069 108.533 27.443 105.542 27.443H87.2091L89.0369 14.7018H107.377C110.348 14.7018 111.449 16.4527 110.802 21.0827Z" fill="#263968"/>
<path d="M199.172 34.5313C195.2 62.2184 182.868 70.2305 161.351 70.2305C139.732 70.2305 129.796 62.2184 133.767 34.5313C137.695 7.2108 149.822 0.000274958 171.429 0.000274958C192.954 0.000274958 203.089 7.2108 199.172 34.5313ZM182.556 34.7279C185.197 16.3985 182.984 14.2616 169.383 14.2616C155.783 14.2616 152.969 16.3985 150.34 34.7279C147.654 53.3458 149.778 56.046 163.377 56.046C176.989 56.046 179.881 53.3458 182.556 34.7279Z" fill="#263968"/>
<path d="M67.4294 1.48792H48.9165C35.8116 18.8517 24.811 30.2428 20.7266 33.2314C24.0701 34.7708 31.9505 46.4487 40.8942 68.7295H59.6199C50.7547 46.4487 42.821 34.586 40.2361 32.3648C43.621 29.5581 53.7536 18.8517 67.4294 1.48792Z" fill="#263968"/>
</svg>
