<svg width="200" height="200" viewBox="0 0 200 200" fill="none" xmlns="http://www.w3.org/2000/svg">
<g clip-path="url(#clip0_463_17737)">
<path d="M195.707 100.564C191.266 83.9101 174.01 68.5296 160.793 60.8088C159.139 59.8392 157.594 59.0258 156.124 58.3349C147.415 54.2411 139.869 51.8034 133.288 50.6888C129.615 50.0681 124.31 49.4836 120.97 50.8791C115.674 53.0835 117.608 60.1971 118.902 64.8663C119.554 67.2451 120.184 68.9963 122.062 72.1748C123.943 75.3624 128.77 79.1707 137.28 82.7841C135.519 83.7651 131.392 84.9703 128.528 85.7179C131.79 90.6477 135.594 95.1787 139.86 98.91C148.539 106.499 151.786 106.715 151.786 106.715C151.786 106.715 152.875 101.61 152.409 96.4791C152.207 94.2272 151.199 92.4465 149.989 91.4429C146.022 88.1534 143.127 84.7257 140.327 80.4325C134.738 71.8644 127.964 57.4559 139.772 55.7477C152.232 65.7521 159.497 83.3709 159.805 96.2865C160.399 120.881 145.148 142.405 130.73 152.958C85.6897 185.946 41.918 168.393 41.918 168.393C41.918 168.393 56.5486 189.399 83.4332 196.374C114.267 204.38 155.499 194.562 165.24 160.257C167.701 164.684 165.834 176.639 165.834 176.639C165.834 176.639 183.779 163.146 192.386 143.565C197.99 130.779 199.957 116.517 195.707 100.564Z" fill="white"/>
<path d="M45.2152 60.5732C44.2932 68.26 43.8265 78.0968 46.7512 91.0781C47.5917 83.858 50.5641 75.2514 55.0656 68.3325C65.2513 52.6485 83.8306 41.7061 102.048 39.3817C125.958 36.3346 150.411 42.0278 169.954 56.1509C183.322 65.8156 192.991 80.0814 192.991 80.0814C192.991 80.0814 195.474 65.7363 188.676 50.5008C179.369 29.6718 159.528 12.2841 138.982 11.4844C132.473 11.2284 124.922 12.8052 121.411 13.5346C121.563 10.1794 134.87 4.16228 134.87 4.16228C134.87 4.16228 100.795 -9.11581 73.8466 9.26418C63.9441 16.0176 49.7122 29.5948 45.5301 58.5274C45.41 59.1776 45.3036 59.846 45.2152 60.5732Z" fill="white"/>
<path d="M112.405 141.606C120.225 128.491 120.443 113.688 115.928 98.8177C112.722 89.0715 107.163 87.1685 96.508 83.0271C98.6307 81.7471 103.236 80.2746 106.202 79.4137C97.797 69.8736 85.2575 62.9254 73.4135 64.8646C68.8077 65.6236 64.4353 66.9806 60.9532 72.846C68.051 71.7223 78.674 75.2112 84.3241 79.7354C105.776 96.9169 104.188 127.995 84.1066 142.589C78.6944 146.522 69.655 150.032 62.9287 150.22C53.0285 150.5 44.7844 148.989 37.8746 146.352C39.0481 146.554 53.2256 148.865 68.3342 144.166C60.9963 138.575 55.1853 130.487 52.7974 126.953C45.7721 116.525 22.3673 77.4925 49.2338 24.9126C39.9271 27.0285 30.9376 30.9637 22.7932 40.4539C12.0978 52.9277 9.21604 68.102 10.086 78.0929C11.0171 88.7543 14.8435 96.1761 15.6138 97.9704C10.8268 97.0257 4.27273 86.3234 4.27273 86.3234C4.27273 86.3234 3.07655 94.1168 3.07655 97.6011C3.07655 97.6011 -0.946979 148.887 49.3471 163.183C72.8901 169.873 100.278 161.919 112.405 141.606Z" fill="white"/>
</g>
<defs>
<clipPath id="clip0_463_17737">
<rect width="200" height="200" fill="white"/>
</clipPath>
</defs>
</svg>
