<svg width="200" height="200" viewBox="0 0 200 200" fill="none" xmlns="http://www.w3.org/2000/svg">
<g clip-path="url(#clip0_463_17328)">
<path d="M44.7652 25V57.6496L0 57.6138L11.9715 73.5722L21.5743 73.0793L21.565 107.361L44.7652 101.783V134.807L99.971 174.152L155.211 134.79V101.846L179.246 108.378C186.536 108.558 188.413 104.487 188.894 101.765C189.127 100.418 189.271 98.9738 189.322 97.8018C189.373 96.971 189.384 96.1456 189.385 95.3334C189.385 94.2207 189.383 92.756 189.38 91.2959C189.374 88.3758 189.364 85.476 189.364 85.4744V85.4729C189.36 83.8244 189.2 81.9376 188.189 80.0781C187.484 78.7855 186.405 77.6985 185.126 76.8466L200 57.6737L155.212 57.6714V25H44.7652Z" fill="white"/>
<path d="M99.9777 157.955L48.7969 128.892V132.738L99.9777 169.189L151.157 132.738V128.892L99.9777 157.955Z" fill="#06141F"/>
<path d="M91.0126 135.114H108.953L113.261 144.119L151.158 124.599V102.481C117.436 95.1091 82.5185 95.1104 48.7969 102.485V124.6L86.6917 144.119L91.0126 135.114Z" fill="#06141F"/>
<path d="M86.4732 61.7598H61.2188C61.6135 61.9357 64.8264 63.0454 64.8264 66.2762L64.8062 88.2165C64.7571 91.3491 67.0667 92.8551 71.5278 92.398C78.7597 91.6804 86.0169 91.2448 93.2828 91.0921V75.2607C88.5156 75.3066 84.4182 75.4086 79.655 75.5721V80.8906C81.1975 80.8189 82.0206 80.7597 83.5671 80.6998V86.2051C80.8674 86.3266 78.5928 86.4854 75.8853 86.6715C75.1775 86.7183 74.8528 86.4847 74.8528 85.924V67.832C74.8528 67.3593 75.1923 67.1226 75.8884 67.114C78.1085 67.0774 80.1136 67.0494 82.3329 67.0253C83.0259 67.0198 83.3086 67.2698 83.3086 67.8016V70.9693C86.6515 70.9093 90.0076 70.8657 93.3474 70.8432L93.3638 66.4046C93.3692 63.5017 90.8797 61.7598 86.4747 61.7598" fill="#EA0029"/>
<path d="M144.796 68.6044V76.3422C144.796 76.9154 144.474 77.2479 143.782 77.1949C141.26 77.0065 139.244 76.8328 136.713 76.667V67.4029C139.241 67.4652 141.229 67.5368 143.752 67.5999C144.45 67.6264 144.796 67.934 144.796 68.6044ZM154.841 78.8084V67.2853C154.774 63.8241 151.923 61.7629 147.517 61.7598H123.066C123.494 61.9389 126.8 63.0057 126.8 66.1586L126.81 92.3918C130.054 92.7048 133.484 93.0856 136.713 93.5115V82.0804C138.337 82.2159 140.057 82.3638 141.682 82.5219C143.405 86.5789 144.688 90.593 146.408 94.8672C149.665 95.4201 153.213 96.1692 156.453 96.8389C154.694 92.3332 152.885 87.8472 151.028 83.3816C153.501 82.9237 154.88 81.276 154.841 78.8084Z" fill="#EA0029"/>
<path d="M14.0817 69.3543C18.0102 69.1378 21.7487 68.9299 25.6888 68.7446V100.889C28.9227 100.012 32.4665 99.1913 35.7261 98.4243V68.2968C38.0832 68.198 40.832 68.1045 43.1844 68.0212V61.7605H8.28906C10.1713 64.3283 12.1025 66.8605 14.0817 69.3543ZM181.665 79.5902C178.651 78.2391 171.736 75.0948 169.603 74.1043C168.821 73.7368 168.531 73.1099 168.531 72.6809V69.5178C168.52 68.8466 168.867 68.518 169.554 68.5523C174.684 68.7843 180.682 69.0428 185.791 69.3271L191.659 61.7605H154.939C155.445 62.0331 158.743 63.1661 158.743 66.8898C158.743 66.8898 158.77 70.8844 158.77 73.0141C158.77 75.1501 159.873 76.8671 162.541 78.0873C165.201 79.3067 173.859 83.0211 174.52 83.38C175.385 83.8379 175.529 84.2872 175.529 85.5596V93.4126C175.533 94.4794 174.764 94.3074 174.513 94.2505C172.753 93.8518 171.293 93.5536 169.523 93.1798C169.273 93.1269 168.643 92.9563 168.632 91.9433V86.7478C165.423 86.2133 162.208 85.7183 158.988 85.2629V91.2463C159.05 95.0884 161.828 97.9423 166.225 99.0379C170.357 100.049 174.328 101.15 178.413 102.351C182.761 103.667 185.293 101.872 185.284 97.2119C185.315 97.0951 185.276 85.4864 185.276 85.4864C185.268 82.7765 184.677 80.9521 181.664 79.5902M48.4008 66.6445V95.7425C51.7227 95.1343 55.0999 94.5744 58.4443 94.0792V61.7598H44.8118C45.7167 62.0245 48.4016 63.5243 48.4016 66.6453M94.4049 61.7598C94.9048 61.9887 98.222 63.0415 98.222 65.9662C98.2135 74.3254 98.2135 82.68 98.208 91.0338C106.038 90.9948 113.734 91.2923 121.54 91.9035V86.5571C117.021 86.2585 112.496 86.0555 107.969 85.9481V79.2374C112.002 79.3176 116.023 79.4072 120.05 79.5816V74.0809C116.024 73.9558 111.997 73.8699 107.969 73.8232C107.98 67.1522 107.969 67.1522 107.969 66.984C112.474 67.0159 116.7 67.0572 121.2 67.1195V61.7605L94.4049 61.7598Z" fill="#EA0029"/>
<path d="M66.3829 113.082C66.7061 113.04 66.9358 112.931 67.0705 112.755C67.2029 112.584 67.2691 112.36 67.2691 112.092C67.2691 111.785 67.1936 111.567 67.0285 111.453C66.8727 111.343 66.6578 111.301 66.3822 111.334C65.9212 111.399 65.4579 111.462 64.993 111.525V113.265C65.4579 113.203 65.9212 113.142 66.3829 113.082ZM66.2038 110.327C66.5254 110.283 66.7551 110.176 66.8875 110.008C67.0238 109.842 67.0915 109.629 67.0915 109.366C67.0869 109.059 67.0144 108.85 66.8618 108.741C66.7084 108.632 66.4896 108.598 66.2038 108.636C65.7998 108.687 65.3962 108.742 64.993 108.799V110.492C65.4026 110.437 65.7989 110.378 66.2038 110.327ZM66.2295 107.599C66.6111 107.548 66.9265 107.542 67.1935 107.582C67.4614 107.624 67.6701 107.709 67.8438 107.84C68.0073 107.977 68.1358 108.154 68.2051 108.378C68.2767 108.602 68.3172 108.877 68.3172 109.204C68.3172 109.49 68.2713 109.746 68.1895 109.964C68.1038 110.176 67.9715 110.364 67.7986 110.535C68.0158 110.623 68.1895 110.774 68.3125 110.989C68.434 111.204 68.4955 111.52 68.4955 111.938C68.4955 112.289 68.4504 112.585 68.3476 112.839C68.2566 113.083 68.1109 113.302 67.9216 113.48C67.7222 113.663 67.4889 113.806 67.2348 113.899C66.9426 114.01 66.638 114.086 66.3276 114.124C65.4882 114.233 64.6488 114.35 63.8086 114.464V107.931C64.6122 107.818 65.4228 107.707 66.2295 107.599ZM71.5495 110.88C72.0736 110.822 72.607 110.762 73.1318 110.705C72.871 109.895 72.6124 109.084 72.3469 108.275C72.0837 109.14 71.8065 110.009 71.5495 110.88ZM73.4705 111.706C72.7183 111.784 71.9638 111.867 71.217 111.952C71.0496 112.493 70.8861 113.033 70.7241 113.577C70.3013 113.627 69.8847 113.677 69.4665 113.725C70.1689 111.462 70.8806 109.204 71.5799 106.944C72.0884 106.888 72.6031 106.834 73.11 106.779L75.2187 113.102C74.8005 113.142 74.3839 113.183 73.9674 113.23C73.7945 112.719 73.6356 112.212 73.4705 111.706ZM80.3175 107.336C79.9898 107.276 79.6578 107.242 79.3247 107.234C79.0132 107.221 78.7251 107.234 78.4526 107.25C78.3061 107.263 78.1605 107.285 78.0165 107.315C77.8748 107.339 77.758 107.386 77.6498 107.453C77.547 107.51 77.4611 107.594 77.4006 107.694C77.3328 107.797 77.3048 107.928 77.3048 108.091C77.2955 108.216 77.3197 108.342 77.3749 108.454C77.4224 108.551 77.4997 108.629 77.5953 108.678C77.7012 108.741 77.8328 108.788 78.0017 108.824C78.1637 108.863 78.3677 108.898 78.6052 108.938C78.9377 108.997 79.2282 109.064 79.4812 109.139C79.7405 109.211 79.9516 109.316 80.1237 109.447C80.2918 109.578 80.4235 109.739 80.5146 109.931C80.6002 110.128 80.6524 110.368 80.6524 110.653C80.6524 111.343 80.4398 111.867 80.017 112.239C79.5996 112.611 79.0125 112.817 78.2735 112.87C77.9503 112.888 77.6077 112.888 77.2441 112.863C76.8864 112.842 76.5307 112.795 76.1796 112.723V111.761C76.5798 111.805 76.9482 111.831 77.2846 111.842C77.6139 111.862 77.9387 111.855 78.2657 111.829C78.6628 111.794 78.9587 111.692 79.1363 111.53C79.3247 111.366 79.4112 111.111 79.4112 110.771C79.4139 110.663 79.3855 110.557 79.3295 110.465C79.2734 110.373 79.192 110.299 79.095 110.252C78.9698 110.19 78.8363 110.147 78.6987 110.124C78.5429 110.091 78.342 110.057 78.1325 110.024C77.8332 109.98 77.5379 109.912 77.2495 109.82C77.0138 109.748 76.7928 109.634 76.597 109.484C76.4229 109.347 76.2848 109.17 76.1944 108.968C76.0982 108.728 76.0506 108.47 76.0542 108.211C76.0542 107.65 76.2364 107.194 76.6079 106.844C76.9739 106.494 77.5532 106.29 78.3677 106.218C79.0214 106.163 79.6797 106.213 80.3175 106.366V107.336ZM82.0252 105.998C83.4969 105.896 84.9733 105.807 86.4482 105.724C86.4443 106.072 86.4443 106.42 86.4482 106.766C85.3899 106.825 84.3262 106.885 83.2688 106.955V108.627C84.2912 108.563 85.3136 108.502 86.3376 108.447C86.2052 108.801 86.0658 109.158 85.9303 109.511C85.0457 109.563 84.1549 109.611 83.2688 109.672V111.405C84.3262 111.335 85.3899 111.275 86.4482 111.22C86.4443 111.565 86.4443 111.915 86.4482 112.263C84.9733 112.337 83.4969 112.43 82.0252 112.534V105.998ZM90.5098 111.045C90.8361 111.037 91.0642 110.946 91.195 110.788C91.3305 110.623 91.4006 110.414 91.4006 110.141C91.4006 109.83 91.3243 109.608 91.1592 109.478C91.0035 109.354 90.7792 109.292 90.5098 109.304C90.041 109.322 89.5785 109.339 89.1089 109.355V111.099C89.5785 111.082 90.0402 111.062 90.5098 111.045ZM90.3252 108.275C90.6515 108.263 90.8804 108.178 91.0183 108.019C91.1491 107.87 91.2168 107.656 91.2168 107.398C91.2168 107.094 91.1468 106.876 90.9871 106.755C90.8361 106.628 90.6173 106.573 90.3252 106.583C89.9195 106.598 89.5177 106.613 89.1089 106.632V108.321C89.5177 108.305 89.9188 108.287 90.3252 108.275ZM90.3579 105.545C90.7333 105.533 91.0541 105.562 91.3243 105.625C91.5883 105.688 91.8125 105.8 91.98 105.947C92.1435 106.093 92.2696 106.282 92.3428 106.514C92.4184 106.748 92.4518 107.023 92.4518 107.347C92.4518 107.64 92.4129 107.892 92.3265 108.099C92.2408 108.305 92.1069 108.482 91.9348 108.631C92.1583 108.741 92.3265 108.915 92.4487 109.139C92.5733 109.362 92.6356 109.684 92.6356 110.101C92.6356 110.453 92.5858 110.742 92.4884 110.988C92.396 111.221 92.2475 111.427 92.0563 111.588C91.8522 111.754 91.616 111.877 91.3625 111.948C91.0676 112.029 90.764 112.073 90.4584 112.081C89.6088 112.114 88.7585 112.15 87.9144 112.188V105.652C88.7289 105.609 89.5388 105.579 90.3579 105.545ZM95.7044 109.334L97.2984 109.307C97.029 108.472 96.7704 107.638 96.4995 106.8C96.2339 107.645 95.9645 108.487 95.7044 109.334ZM97.6278 110.338C96.8763 110.347 96.1234 110.361 95.3641 110.368C95.2006 110.897 95.0347 111.428 94.8704 111.955C94.4484 111.962 94.0256 111.972 93.609 111.98C94.3152 109.788 95.0293 107.596 95.7356 105.4C96.2456 105.393 96.7595 105.388 97.2665 105.381C97.9751 107.554 98.6759 109.726 99.3884 111.906C98.9679 111.906 98.5451 111.906 98.1222 111.91C97.9595 111.385 97.7975 110.863 97.6278 110.338ZM100.412 111.906V105.362C100.826 105.362 101.242 105.372 101.66 105.372V110.865C102.652 110.872 103.644 110.885 104.636 110.904C104.497 111.245 104.362 111.593 104.229 111.938C102.956 111.918 101.684 111.907 100.412 111.906ZM105.735 111.962V105.425C106.148 105.439 106.557 105.449 106.974 105.463V110.952C107.97 110.979 108.96 111.014 109.948 111.05C109.816 111.396 109.683 111.735 109.546 112.078C108.276 112.036 107 111.994 105.735 111.962ZM118.405 112.272C118.072 112.349 117.736 112.406 117.396 112.443C117.061 112.483 116.736 112.49 116.426 112.472C115.953 112.439 115.558 112.336 115.225 112.15C114.904 111.969 114.628 111.716 114.422 111.41C114.208 111.081 114.056 110.716 113.972 110.333C113.874 109.892 113.826 109.442 113.829 108.99C113.829 108.482 113.877 108.019 113.972 107.617C114.066 107.209 114.214 106.873 114.422 106.593C114.63 106.32 114.894 106.112 115.225 105.981C115.558 105.847 115.964 105.794 116.426 105.824C116.773 105.847 117.104 105.896 117.415 105.967C117.719 106.037 118.057 106.143 118.404 106.282V107.221C118.212 107.172 118.04 107.123 117.883 107.08C117.723 107.043 117.573 107.006 117.43 106.977C117.29 106.952 117.149 106.932 117.011 106.915C116.872 106.902 116.723 106.884 116.569 106.876C116.043 106.845 115.658 107.019 115.436 107.398C115.206 107.786 115.093 108.338 115.093 109.062C115.093 109.409 115.115 109.727 115.175 110.009C115.225 110.294 115.311 110.543 115.436 110.742C115.558 110.952 115.714 111.112 115.903 111.234C116.086 111.353 116.309 111.422 116.577 111.436C116.723 111.447 116.865 111.447 116.995 111.447C117.135 111.447 117.272 111.447 117.42 111.436C117.56 111.422 117.709 111.408 117.872 111.389C118.029 111.372 118.212 111.349 118.405 111.31V112.272ZM119.706 112.657V106.119C120.112 106.15 120.522 106.183 120.946 106.218V111.711C121.931 111.794 122.922 111.88 123.914 111.968C123.773 112.303 123.641 112.641 123.507 112.974C122.241 112.858 120.974 112.753 119.706 112.657ZM126.294 111.107C126.294 111.52 126.405 111.822 126.626 112.009C126.847 112.206 127.129 112.32 127.49 112.352C127.867 112.395 128.161 112.346 128.38 112.202C128.599 112.057 128.708 111.779 128.708 111.364V106.969C129.124 107.013 129.539 107.063 129.965 107.115V111.518C129.965 111.91 129.9 112.242 129.802 112.507C129.689 112.77 129.529 112.975 129.321 113.126C129.109 113.278 128.845 113.37 128.542 113.414C128.194 113.463 127.84 113.463 127.49 113.416C127.133 113.383 126.782 113.308 126.442 113.193C126.161 113.094 125.903 112.939 125.683 112.736C125.472 112.535 125.312 112.286 125.216 112.01C125.105 111.681 125.051 111.336 125.057 110.989V106.587C125.47 106.628 125.886 106.667 126.294 106.708V111.107ZM134.166 113.142C134.485 113.183 134.717 113.137 134.847 113C134.983 112.863 135.053 112.657 135.053 112.39C135.053 112.078 134.973 111.843 134.813 111.688C134.648 111.532 134.435 111.436 134.167 111.399C133.703 111.334 133.235 111.274 132.771 111.215V112.958C133.235 113.016 133.703 113.083 134.166 113.142ZM133.984 110.339C134.303 110.383 134.537 110.339 134.666 110.204C134.802 110.076 134.869 109.881 134.869 109.611C134.874 109.307 134.797 109.081 134.645 108.929C134.491 108.783 134.274 108.687 133.984 108.651C133.58 108.595 133.176 108.543 132.771 108.493V110.183C133.176 110.235 133.577 110.288 133.984 110.339ZM134.012 107.617C134.39 107.672 134.705 107.751 134.976 107.863C135.24 107.972 135.46 108.12 135.622 108.291C135.784 108.466 135.911 108.678 135.984 108.922C136.06 109.169 136.095 109.454 136.1 109.774C136.1 110.069 136.049 110.312 135.97 110.504C135.878 110.696 135.753 110.854 135.578 110.967C135.801 111.124 135.97 111.319 136.095 111.565C136.212 111.811 136.271 112.141 136.271 112.563C136.271 112.909 136.224 113.194 136.13 113.421C136.039 113.634 135.89 113.817 135.7 113.95C135.509 114.08 135.28 114.16 135.01 114.187C134.711 114.22 134.408 114.213 134.111 114.167C133.27 114.056 132.428 113.946 131.58 113.843V107.307C132.392 107.407 133.204 107.512 134.012 107.617Z" fill="white"/>
<path d="M54.9797 54.9378V35.2074H67.4496L76.2588 54.9378H123.328L132.532 35.2074H144.976V54.9378H151.158V29.0254H48.7969V54.9378H54.9797Z" fill="#06141F"/>
<path d="M103.579 47.9661C103.579 48.044 103.602 48.0884 103.648 48.0884C103.684 48.0835 103.718 48.0696 103.746 48.0479L116.473 39.786C116.688 39.6357 116.944 39.5587 117.207 39.5657H120.004C120.432 39.5657 120.723 39.8514 120.723 40.2805V45.6223C120.723 46.267 120.579 46.6424 120.008 46.9858L116.615 49.0275C116.581 49.0512 116.542 49.0654 116.501 49.0688C116.46 49.0688 116.419 49.0361 116.419 48.9177V42.6859C116.419 42.6119 116.399 42.5628 116.35 42.5628C116.314 42.5671 116.28 42.5814 116.251 42.6041L106.952 48.6483C106.741 48.7918 106.492 48.8673 106.237 48.8648H100.072C99.6389 48.8648 99.3531 48.579 99.3531 48.146V40.4479C99.3531 40.3903 99.329 40.3373 99.2799 40.3373C99.2442 40.3416 99.2102 40.3556 99.1818 40.3778L93.0458 44.0618C92.9835 44.1023 92.9679 44.1319 92.9679 44.1599C92.9679 44.1841 92.9804 44.209 93.0209 44.2534L97.4056 48.6358C97.4633 48.6927 97.5038 48.7378 97.5038 48.7869C97.5038 48.8274 97.4383 48.8601 97.3613 48.8601H93.4009C93.0902 48.8601 92.8495 48.8157 92.6821 48.6483L90.0245 45.993C90.0143 45.981 90.0019 45.9712 89.9878 45.9642C89.9737 45.9572 89.9584 45.9532 89.9427 45.9525C89.9139 45.9541 89.8858 45.9627 89.8609 45.9774L85.4185 48.6483C85.1491 48.8118 84.9653 48.8562 84.6998 48.8562H80.6132C80.1772 48.8609 79.8906 48.5704 79.8906 48.1414V42.9023C79.8906 42.2529 80.0339 41.8807 80.6094 41.5381L84.0223 39.4878C84.0493 39.4701 84.0805 39.4602 84.1127 39.459C84.1656 39.459 84.1937 39.5127 84.1937 39.6303V46.6463C84.1937 46.7202 84.21 46.753 84.2637 46.753C84.3001 46.7472 84.3347 46.7333 84.365 46.7125L95.895 39.7744C96.1154 39.6225 96.3856 39.5485 96.6542 39.5618H102.86C103.289 39.5618 103.579 39.8475 103.579 40.2758L103.575 47.9661H103.579Z" fill="white"/>
</g>
<defs>
<clipPath id="clip0_463_17328">
<rect width="200" height="149.152" fill="white" transform="translate(0 25)"/>
</clipPath>
</defs>
</svg>
