<svg width="200" height="200" viewBox="0 0 200 200" fill="none" xmlns="http://www.w3.org/2000/svg">
<g clip-path="url(#clip0_463_17431)">
<path d="M100.467 26C59.8619 26 26.9414 58.9184 26.9414 99.5281C26.9414 140.134 59.8619 173.054 100.467 173.054C141.075 173.054 173.995 140.136 173.995 99.5281C173.995 58.9184 141.075 26 100.467 26Z" fill="#570514"/>
<path d="M100.469 170.362C61.3474 170.362 29.6328 138.651 29.6328 99.5255C29.6328 60.4061 61.3474 28.6895 100.469 28.6895C139.595 28.6895 171.309 60.4061 171.309 99.5255C171.309 138.653 139.595 170.362 100.469 170.362Z" fill="#7D0521"/>
<path d="M53.2547 67.3065L46.1065 61.8903L47.3788 60.2139L50.2376 62.38L50.2526 62.3586L48.3303 58.9566L49.6304 57.2417L51.6275 61.1569L56.8491 62.5596L55.5063 64.3343L52.3181 63.3721L52.7587 64.2916L54.5205 65.628L53.2547 67.3065ZM59.0921 60.1776L52.7095 53.8825L54.1849 52.3815L60.5675 58.6786L59.0921 60.1776ZM66.3023 50.4442L66.3237 50.4314L63.0949 44.9917L64.6965 43.805L68.8512 51.8876L66.9545 53.2988L62.6652 48.6224L62.6481 48.6374L65.8619 54.1113L63.9887 55.5055L57.4307 49.2126L59.0601 48.0002L63.3302 52.6744V52.6381L60.2639 47.1022L61.8975 45.8833L66.3023 50.4442ZM73.0934 42.2676C73.032 42.1427 72.965 42.0207 72.8924 41.9019C72.8267 41.7849 72.7414 41.68 72.6401 41.5919C72.5502 41.5077 72.4369 41.4526 72.3151 41.4336C72.1714 41.413 72.0249 41.44 71.8981 41.5106C71.7741 41.5623 71.6698 41.6521 71.6002 41.7671C71.5306 41.882 71.4994 42.0161 71.5111 42.15C71.5156 42.2846 71.5423 42.4175 71.5902 42.5434C71.6415 42.6717 71.6929 42.8064 71.7549 42.9283L73.3842 46.2297C73.4377 46.3409 73.5082 46.4628 73.5916 46.5932C73.6707 46.7215 73.7627 46.8306 73.8654 46.9225C73.9639 47.013 74.0851 47.0751 74.216 47.1022C74.3589 47.1307 74.5073 47.108 74.6351 47.038C74.7679 46.9795 74.8755 46.8756 74.9387 46.7451C74.9902 46.626 75.0101 46.4956 74.9965 46.3666C74.9818 46.2235 74.9473 46.0832 74.8938 45.9496C74.8406 45.8197 74.7835 45.6914 74.7228 45.5647L73.0934 42.2676ZM76.5296 44.4742C76.7541 44.9233 76.9059 45.3466 76.9914 45.7315C77.077 46.1207 77.0748 46.4799 76.9914 46.8071C76.8946 47.1488 76.7121 47.4602 76.4612 47.7116C76.2003 47.9917 75.8283 48.2483 75.3493 48.4835C74.8703 48.7187 74.4405 48.8577 74.0578 48.9004C73.6729 48.9432 73.3243 48.9004 73.01 48.7764C72.6725 48.6338 72.3747 48.4115 72.1419 48.1285C71.855 47.7833 71.6115 47.4041 71.417 46.9995L69.8048 43.7323C69.4199 42.9497 69.3494 42.2462 69.5867 41.6154C69.8283 40.9889 70.365 40.4693 71.1904 40.0609C72.0179 39.6503 72.7513 39.5477 73.3885 39.7401C74.0257 39.9411 74.5325 40.4287 74.9152 41.207L76.5296 44.4742ZM82.4868 38.6582C82.444 38.5299 82.4012 38.3952 82.3456 38.2626C82.2987 38.1388 82.2323 38.0233 82.1489 37.9205C82.0696 37.8242 81.9663 37.7505 81.8495 37.7067C81.7092 37.6639 81.5585 37.67 81.4219 37.7238C81.2851 37.7591 81.1631 37.837 81.0734 37.9461C81.0034 38.048 80.9592 38.1655 80.9451 38.2883C80.9281 38.4221 80.9324 38.5578 80.9579 38.6903C80.9857 38.8335 81.0221 38.9682 81.0584 39.0965L82.1425 42.614C82.181 42.738 82.2323 42.8684 82.2922 43.0095C82.3464 43.1404 82.4191 43.2628 82.5082 43.373C82.5958 43.4842 82.7027 43.5633 82.8267 43.6125C82.9634 43.6626 83.1134 43.6626 83.2501 43.6125C83.3911 43.5779 83.5149 43.4937 83.5987 43.3752C83.6679 43.2651 83.7083 43.1393 83.7163 43.0095C83.7219 42.8652 83.709 42.7208 83.6778 42.5797C83.6482 42.4428 83.6126 42.3072 83.5709 42.1735L82.4868 38.6582ZM85.5273 41.3866C85.677 41.8634 85.7625 42.306 85.7839 42.6995C85.8053 43.1015 85.7455 43.4522 85.6107 43.7601C85.4626 44.083 85.2345 44.3627 84.9479 44.5726C84.5765 44.835 84.1628 45.0317 83.7248 45.1542C83.2933 45.3002 82.8396 45.3704 82.3841 45.3616C82.0267 45.3487 81.6778 45.2481 81.3684 45.0687C81.0578 44.8745 80.7994 44.6073 80.6158 44.2903C80.3868 43.906 80.2072 43.4944 80.0812 43.0651L79.0079 39.5798C78.7513 38.748 78.794 38.0445 79.1276 37.4629C79.4676 36.877 80.077 36.4472 80.9579 36.1757C81.841 35.9041 82.583 35.9169 83.1774 36.212C83.7761 36.5092 84.1995 37.0716 84.4561 37.9012L85.5273 41.3866ZM89.7205 43.2982L88.677 34.3945L91.6214 34.0481L93.3192 39.1842L93.3406 39.1778L93.843 33.7894L96.7639 33.4473L97.8074 42.3488L95.8123 42.584L95.2072 35.577L95.1858 35.5812L94.5294 42.7358L92.9749 42.9176L90.719 36.1051H90.6976L91.7026 43.0651L89.7205 43.2982ZM106.788 42.7123L108.208 33.86L110.286 34.1935L109.741 37.5912L111.182 37.8243L111.725 34.4244L113.804 34.7559L112.384 43.6082L110.305 43.2747L110.896 39.5905L109.457 39.3617L108.864 43.0437L106.788 42.7123ZM115.758 44.4464L118.516 35.9234L123.101 37.4052L122.545 39.1115L119.964 38.2733L119.457 39.8449L121.959 40.6553L121.405 42.3574L118.903 41.547L118.309 43.3901L121.025 44.2711L120.477 45.9774L115.758 44.4464ZM127.835 43.6018L128.472 43.9226C128.588 43.9883 128.722 44.0181 128.855 44.0081C128.97 43.9963 129.079 43.9551 129.173 43.8884C129.277 43.8154 129.367 43.7241 129.439 43.6189C129.516 43.509 129.585 43.3932 129.644 43.2725C129.747 43.0887 129.817 42.8883 129.851 42.6802C129.875 42.5348 129.845 42.3855 129.766 42.2611C129.676 42.127 129.554 42.0174 129.411 41.9425C129.219 41.833 129.024 41.731 128.825 41.6368L127.835 43.6018ZM125.511 48.2012L123.633 47.2518L127.674 39.2505L130.414 40.6318C131.192 41.0231 131.684 41.4828 131.893 42.0131C132.105 42.5477 132.007 43.2105 131.607 44.006C131.389 44.4336 131.136 44.765 130.85 45.0002C130.557 45.2397 130.174 45.3466 129.691 45.3274L129.682 45.3509C129.905 45.5244 130.07 45.7604 130.157 46.0287C130.235 46.3029 130.211 46.5958 130.091 46.8541L129.823 47.4699L129.494 48.2012L129.182 48.9133C129.102 49.0937 129.035 49.2795 128.981 49.4692C128.97 49.5943 128.985 49.7202 129.026 49.8391L128.97 49.946L126.917 48.9111C126.935 48.8192 126.945 48.7315 126.967 48.646C126.987 48.5613 127.015 48.4784 127.048 48.3979C127.21 48.0344 127.379 47.6966 127.544 47.3844C127.709 47.0722 127.843 46.7857 127.94 46.5184C128.029 46.3015 128.072 46.0686 128.068 45.8342C128.053 45.6417 127.94 45.4792 127.726 45.3552L127.106 45.043L125.511 48.2012ZM138.222 48.5198C138.302 48.4065 138.379 48.2932 138.451 48.1691C138.522 48.0564 138.575 47.9329 138.607 47.8035C138.635 47.6835 138.632 47.5582 138.597 47.44C138.546 47.302 138.453 47.1842 138.329 47.1043C138.218 47.0167 138.082 46.9665 137.94 46.961C137.815 46.9661 137.693 47.0006 137.583 47.0615C137.47 47.1324 137.367 47.2187 137.277 47.3181C137.179 47.425 137.091 47.5319 137.012 47.641L134.855 50.626C134.782 50.7286 134.705 50.8484 134.628 50.9809C134.554 51.1046 134.499 51.2387 134.466 51.3787C134.434 51.5081 134.436 51.6437 134.472 51.7721C134.515 51.9122 134.606 52.0326 134.729 52.1121C134.84 52.2024 134.981 52.2495 135.124 52.2446C135.254 52.2334 135.379 52.1893 135.488 52.1163C135.608 52.0383 135.716 51.9424 135.808 51.832C135.905 51.7144 135.992 51.6074 136.065 51.5005L138.222 48.5198ZM137.874 52.5889C137.579 52.9952 137.279 53.3287 136.976 53.5875C136.704 53.8267 136.378 53.9975 136.026 54.0857C135.679 54.1625 135.318 54.1477 134.979 54.0429C134.546 53.9066 134.14 53.6961 133.779 53.4207C133.404 53.1605 133.074 52.8397 132.804 52.4713C132.598 52.1781 132.469 51.8375 132.43 51.4813C132.394 51.1456 132.451 50.7885 132.59 50.4164C132.74 50.0422 132.962 49.6531 133.253 49.2468L135.391 46.2917C135.9 45.5861 136.486 45.1948 137.156 45.1157C137.827 45.0345 138.535 45.2654 139.283 45.8064C140.034 46.3473 140.468 46.9461 140.592 47.5982C140.716 48.2504 140.521 48.9325 140.01 49.636L137.874 52.5889ZM138.821 57.1669L145.116 50.7821L148.546 54.1648L147.289 55.4413L145.356 53.534L144.197 54.7101L146.072 56.5554L144.81 57.834L142.939 55.9866L141.577 57.3658L143.611 59.3714L142.356 60.6501L138.821 57.1669ZM147.988 62.7306L147.483 63.1112C147.385 63.1846 147.296 63.2685 147.216 63.3614C147.139 63.4441 147.08 63.5426 147.045 63.6501C147.009 63.7585 147.004 63.8746 147.03 63.9858C147.061 64.1245 147.124 64.254 147.214 64.3643C147.363 64.5567 147.541 64.6465 147.757 64.6251C147.971 64.6037 148.17 64.5246 148.351 64.3835C148.492 64.2871 148.604 64.1559 148.679 64.0029C148.744 63.8672 148.786 63.721 148.803 63.571C148.818 63.4157 148.815 63.2592 148.792 63.1048C148.775 62.944 148.761 62.7829 148.749 62.6216C148.701 62.2768 148.668 61.9301 148.651 61.5824C148.635 61.2696 148.661 60.9561 148.728 60.6501C148.798 60.355 148.914 60.0813 149.072 59.8247C149.234 59.5682 149.472 59.3223 149.795 59.0828C150.468 58.576 151.114 58.3772 151.74 58.499C152.363 58.6166 152.923 59.0058 153.415 59.6601C153.688 60.0236 153.872 60.3871 153.966 60.7506C154.061 61.1141 154.069 61.4605 153.996 61.7941C153.926 62.1298 153.783 62.4441 153.56 62.7435C153.319 63.0551 153.027 63.324 152.696 63.5389L151.535 61.9908L151.847 61.7235C151.957 61.6366 152.054 61.5344 152.134 61.4199C152.209 61.317 152.256 61.196 152.269 61.0692C152.273 60.9245 152.231 60.782 152.149 60.6629C152.031 60.4791 151.892 60.37 151.732 60.3379C151.558 60.3061 151.379 60.3421 151.232 60.4384C150.996 60.5731 150.851 60.7421 150.8 60.9366C150.745 61.1539 150.724 61.378 150.736 61.6016C150.77 62.0763 150.821 62.4997 150.872 62.8718C150.928 63.246 150.937 63.5988 150.902 63.9323C150.865 64.2719 150.756 64.5997 150.584 64.8946C150.406 65.1939 150.098 65.5104 149.662 65.8418C148.967 66.3635 148.298 66.5795 147.654 66.4875C147.011 66.3913 146.423 65.9936 145.899 65.2901C145.639 64.9618 145.436 64.5916 145.3 64.1953C145.192 63.8779 145.154 63.5411 145.187 63.2075C145.218 62.9153 145.314 62.6339 145.469 62.3842C145.625 62.1383 145.82 61.9267 146.055 61.7492L146.818 61.1718L147.988 62.7306ZM47.9711 130.045C48.4778 129.763 48.9461 129.44 48.6168 128.869C48.418 128.516 48.1464 128.373 47.7679 128.585C47.3403 128.828 47.3275 129.192 47.3082 129.639C47.2868 130.109 47.2313 130.984 47.1094 131.435C46.964 131.993 46.6882 132.301 46.2049 132.577C45.1422 133.182 44.1907 132.79 43.6069 131.764C42.8928 130.509 43.3418 129.66 44.3425 129.091L44.753 128.856L45.3475 129.904L45.0181 130.09C44.4622 130.379 44.1586 130.768 44.4515 131.287C44.7038 131.726 45.0545 131.8 45.4779 131.565C45.8115 131.373 45.9483 131.097 45.9825 130.721C46.0959 129.93 46.0168 129.076 46.3354 128.334C46.4881 128.015 46.7341 127.75 47.0409 127.573C48.001 127.032 48.8285 127.27 49.4572 128.377C50.4066 130.045 49.0958 130.733 48.5463 131.054L47.9711 130.045ZM45.8221 135.145L51.1357 131.488L53.0558 134.274L52.2797 134.815L51.0395 133.015L49.7009 133.934L50.8406 135.594L50.0623 136.13L48.9226 134.469L47.2847 135.6L48.5249 137.396L47.7465 137.931L45.8221 135.145ZM51.435 139.062C51.0224 139.406 50.383 139.994 50.909 140.627C51.4586 141.29 52.1471 140.734 52.6239 140.339L53.8962 139.28C54.2918 138.953 55.1898 138.243 54.6189 137.555C54.0138 136.828 53.197 137.606 52.8121 137.922L51.435 139.062ZM51.8157 137.142C53.1136 136.13 54.1378 135.45 55.3652 136.932C56.599 138.414 55.7372 139.295 54.5056 140.386L53.8 140.971C52.4743 142.068 51.4244 142.772 50.1649 141.249C48.8991 139.729 49.7822 138.825 51.1058 137.728L51.8157 137.142ZM59.7208 141.85L60.5782 142.701L57.4136 145.896C56.4087 146.912 55.6004 147.068 54.4799 145.958C53.3467 144.842 53.4964 144.036 54.5013 143.018L57.6659 139.819L58.5255 140.666L55.4315 143.788C54.9953 144.23 54.589 144.696 55.1727 145.276C55.7266 145.827 56.1948 145.415 56.631 144.976L59.7208 141.85ZM57.7301 148.791L61.8441 143.822L62.7678 144.592L59.2611 148.83L60.9823 150.256L60.3836 150.983L57.7301 148.791ZM64.5126 153.961L67.9018 148.475L68.9238 149.105L67.5831 151.28L69.0179 152.163L70.3586 149.991L71.385 150.621L67.9958 156.115L66.9695 155.477L68.5197 152.971L67.0871 152.086L65.5347 154.594L64.5126 153.961ZM69.9481 157.175L72.8304 151.406L75.8625 152.92L75.4413 153.769L73.489 152.79L72.7577 154.244L74.5603 155.146L74.1369 155.993L72.3365 155.092L71.4491 156.871L73.4035 157.847L72.978 158.693L69.9481 157.175ZM77.2972 156.491L78.1825 156.837C78.5588 156.957 78.9416 156.827 79.1746 156.226C79.4377 155.552 79.2024 155.33 78.7812 155.159L77.9473 154.836L77.2972 156.491ZM76.9551 157.372L75.9459 159.963L74.8233 159.521L77.1689 153.514L79.2922 154.348C80.263 154.72 80.8703 155.345 80.4362 156.452C80.1796 157.107 79.7412 157.731 78.948 157.543L78.9416 157.558C79.5702 157.906 79.6087 158.409 79.3799 158.984C79.2836 159.234 78.6764 160.695 78.8796 160.979L78.8368 161.088L77.6008 160.607C77.6158 160.169 77.928 159.442 78.0756 159.04C78.2146 158.665 78.4177 158.165 78.0756 157.9C77.804 157.697 77.4747 157.575 77.154 157.451L76.9551 157.372ZM82.5638 159.933C82.4162 160.447 82.2216 161.296 83.0171 161.516C83.8489 161.749 84.0926 160.9 84.2615 160.303L84.7106 158.713C84.8495 158.219 85.1831 157.122 84.3235 156.884C83.4126 156.623 83.1817 157.729 83.047 158.21L82.5638 159.933ZM81.7833 158.133C82.2772 156.561 82.7327 155.422 84.5887 155.95C86.4404 156.467 86.2352 157.68 85.8374 159.273L85.5894 160.158C85.1254 161.813 84.6592 162.989 82.7562 162.452C80.8489 161.918 81.067 160.673 81.5331 159.016L81.7833 158.133ZM86.9429 163.342L88.1147 156.998L91.4503 157.613L91.2771 158.541L89.1282 158.144L88.831 159.745L90.811 160.113L90.64 161.041L88.6642 160.678L88.3007 162.63L90.4496 163.028L90.2786 163.956L86.9429 163.342ZM95.1687 160.01C95.2329 159.442 95.2371 158.869 94.5764 158.804C94.1766 158.77 93.9029 158.905 93.8601 159.339C93.8131 159.827 94.1017 160.049 94.4567 160.323C94.8266 160.607 95.5045 161.159 95.8081 161.516C96.1802 161.958 96.2742 162.352 96.2186 162.914C96.101 164.129 95.235 164.683 94.0633 164.571C92.6242 164.43 92.1881 163.577 92.2992 162.429L92.3462 161.958L93.5436 162.072L93.5073 162.452C93.4218 163.072 93.5672 163.549 94.1552 163.603C94.6598 163.652 94.9271 163.41 94.9741 162.921C95.0105 162.546 94.8629 162.271 94.5764 162.029C93.9991 161.477 93.255 161.054 92.8273 160.363C92.6586 160.054 92.5842 159.701 92.6135 159.35C92.7204 158.251 93.3961 157.714 94.662 157.836C96.5714 158.024 96.3769 159.491 96.3234 160.122L95.1687 160.01ZM102.676 163.744C102.928 163.735 103.185 163.748 103.397 163.645C103.717 163.489 103.743 163.066 103.728 162.735C103.702 162.04 103.557 161.751 102.809 161.783L102.34 161.802L102.417 163.755L102.676 163.744ZM102.526 160.846C102.819 160.838 103.196 160.838 103.378 160.59C103.484 160.423 103.491 160.194 103.478 159.884C103.461 159.403 103.35 159.17 102.798 159.177L102.242 159.198L102.302 160.855L102.526 160.846ZM101.252 164.745L100.998 158.298L102.939 158.221C103.459 158.199 103.966 158.214 104.329 158.64C104.616 158.984 104.671 159.35 104.69 159.788C104.712 160.344 104.616 160.902 103.97 161.167V161.186C104.652 161.253 104.934 161.811 104.966 162.645C104.975 162.914 104.973 163.179 104.911 163.436C104.686 164.266 104.233 164.627 103.375 164.663L101.252 164.745ZM108.101 161.687L109.125 161.554L108.569 159.78C108.471 159.489 108.405 159.202 108.332 158.907C108.304 158.765 108.27 158.625 108.231 158.486L108.216 158.49C108.216 158.627 108.216 158.775 108.229 158.922C108.231 159.221 108.244 159.517 108.223 159.824L108.101 161.687ZM106.649 164.479L107.348 157.883L108.958 157.673L111.24 163.885L109.957 164.047L109.433 162.469L108.035 162.649L107.932 164.313L106.649 164.479ZM114.394 158.638C114.278 158.073 114.101 157.532 113.455 157.673C113.062 157.761 112.846 157.977 112.942 158.405C113.047 158.884 113.391 159.003 113.812 159.155C114.25 159.311 115.074 159.626 115.471 159.869C115.961 160.175 116.173 160.526 116.293 161.071C116.558 162.264 115.908 163.06 114.757 163.316C113.344 163.631 112.666 162.953 112.416 161.828L112.313 161.362L113.489 161.105L113.571 161.475C113.684 162.091 113.966 162.493 114.546 162.367C115.042 162.256 115.217 161.946 115.112 161.462C115.033 161.099 114.806 160.879 114.458 160.737C113.735 160.395 112.897 160.224 112.275 159.698C112.019 159.456 111.84 159.143 111.759 158.8C111.524 157.727 111.995 157.004 113.235 156.726C115.108 156.309 115.379 157.765 115.527 158.383L114.394 158.638ZM118.638 162.181L116.692 156.029L119.917 155.007L120.206 155.911L118.123 156.572L118.613 158.12L120.533 157.509L120.819 158.415L118.899 159.023L119.498 160.917L121.585 160.256L121.869 161.159L118.638 162.181ZM124.751 159.038C124.98 158.939 125.228 158.866 125.389 158.695C125.635 158.437 125.513 158.026 125.389 157.729C125.121 157.083 124.882 156.869 124.191 157.154L123.759 157.331L124.512 159.134L124.751 159.038ZM123.608 156.371C123.877 156.262 124.232 156.136 124.313 155.837C124.356 155.644 124.287 155.428 124.168 155.142C123.984 154.693 123.796 154.515 123.28 154.71L122.765 154.928L123.4 156.459L123.608 156.371ZM123.759 160.472L121.287 154.515L123.084 153.769C123.56 153.568 124.044 153.405 124.529 153.681C124.914 153.904 125.098 154.226 125.269 154.628C125.483 155.146 125.583 155.704 125.072 156.172L125.079 156.187C125.744 156.016 126.195 156.444 126.52 157.211C126.622 157.457 126.708 157.714 126.742 157.973C126.819 158.83 126.522 159.326 125.727 159.66L123.759 160.472ZM129.114 155.231L130.027 154.748L128.885 153.284C128.692 153.044 128.536 152.792 128.363 152.546C128.288 152.422 128.203 152.298 128.128 152.187L128.111 152.193C128.158 152.321 128.213 152.46 128.271 152.593C128.38 152.875 128.496 153.149 128.583 153.44L129.114 155.231ZM128.724 158.351L127.086 151.924L128.525 151.167L132.817 156.2L131.675 156.795L130.634 155.499L129.385 156.159L129.862 157.75L128.724 158.351ZM134.324 155.281L130.835 149.856L131.848 149.202L134.821 153.837L136.704 152.629L137.217 153.425L134.324 155.281ZM138.8 152.298L134.883 147.175L135.838 146.441L139.18 150.82L140.959 149.458L141.53 150.209L138.8 152.298ZM146.418 142.535C146.495 142.629 146.585 142.723 146.66 142.812C147.453 143.685 147.815 144.609 146.867 145.554C145.467 146.959 144.488 146.163 143.273 144.946L142.619 144.296C141.492 143.099 140.718 142.145 142.076 140.781C142.852 140.028 143.666 139.994 144.507 140.711C144.637 140.811 144.759 140.921 144.872 141.04L144.032 141.88C143.705 141.624 143.188 141.046 142.766 141.47C142.099 142.139 142.952 142.881 143.301 143.232L144.571 144.495C144.945 144.869 145.595 145.453 146.179 144.867C146.647 144.397 145.837 143.704 145.561 143.392L146.418 142.535ZM149.414 142.637L144.473 138.489L145.247 137.563L149.463 141.104L150.9 139.393L151.627 140.003L149.414 142.637ZM149.183 132.382L149.874 131.396L153.564 133.973C154.734 134.79 155.027 135.555 154.127 136.853C153.218 138.155 152.395 138.151 151.223 137.332L147.528 134.758L148.219 133.77L151.826 136.284C152.333 136.637 152.867 136.958 153.336 136.287C153.785 135.645 153.299 135.26 152.79 134.899L149.183 132.382ZM156.248 131.446C156.374 131.227 156.519 131.018 156.549 130.783C156.579 130.426 156.235 130.178 155.951 130.019C155.341 129.675 155.021 129.656 154.653 130.302L154.426 130.708L156.126 131.67L156.248 131.446ZM153.71 130.045C153.857 129.793 154.056 129.474 153.939 129.19C153.851 129.008 153.665 128.888 153.398 128.734C152.979 128.497 152.716 128.463 152.433 128.942L152.155 129.425L153.601 130.244L153.71 130.045ZM156.355 133.184L150.74 130.011L151.698 128.317C151.95 127.868 152.232 127.441 152.782 127.361C153.227 127.293 153.569 127.438 153.947 127.65C154.439 127.928 154.856 128.302 154.74 128.991L154.758 128.999C155.172 128.452 155.795 128.51 156.52 128.92C156.755 129.053 156.979 129.198 157.167 129.386C157.751 130.011 157.826 130.588 157.398 131.336L156.355 133.184Z" fill="white"/>
<path d="M100.467 152.414C71.2589 152.414 47.582 128.735 47.582 99.526C47.582 70.3175 71.2589 46.6406 100.467 46.6406C129.676 46.6406 153.357 70.3196 153.357 99.526C153.357 128.735 129.678 152.414 100.467 152.414Z" fill="#570514"/>
<path d="M119.673 145.858C94.0694 156.459 64.7219 144.306 54.1162 118.702C43.5147 93.1052 55.6707 63.7534 81.2698 53.1498C106.869 42.5505 136.223 54.7021 146.82 80.3013C157.426 105.905 145.272 135.254 119.673 145.858Z" fill="white"/>
<path d="M57.3481 78.1945C57.4635 77.7711 57.8013 77.3755 58.0964 77.3028C58.306 77.2515 58.4386 77.3777 58.4621 77.6022C58.4667 77.7201 58.4551 77.8381 58.4278 77.9529C58.0857 79.1439 57.3887 82.8965 57.3887 82.8965C57.3887 82.8965 55.3915 84.9898 54.4464 85.9392C54.2005 86.183 53.9354 86.106 53.8563 85.7703C53.8258 85.5796 53.8378 85.3845 53.8914 85.199C53.945 85.0134 54.0389 84.842 54.1663 84.6969C54.9126 83.9378 55.6717 83.1595 56.4543 82.3192C56.6681 80.9229 56.9675 79.5437 57.3481 78.1945ZM59.2511 79.0754C59.3259 78.6328 59.6766 78.1795 60.023 78.064C60.301 77.9742 60.4934 78.109 60.5362 78.3784C60.5469 78.471 60.544 78.5646 60.5277 78.6563C60.3031 79.9243 60.0273 83.8202 60.0273 83.8202C60.0273 83.8202 57.8762 86.3241 56.8413 87.4467C56.5676 87.7418 56.2298 87.7118 56.0929 87.374C55.9539 87.0319 56.0587 86.5187 56.3324 86.2193C57.1342 85.3341 57.9575 84.3804 58.8021 83.3904C58.8513 81.9428 58.9988 80.5102 59.2511 79.0754ZM61.941 79.7511C61.9643 79.5151 62.0469 79.2889 62.1811 79.0934C62.3153 78.8978 62.4968 78.7394 62.7087 78.6328C63.0593 78.4917 63.333 78.6243 63.3929 78.9407C63.4062 79.004 63.412 79.0686 63.41 79.1332C63.348 80.3947 63.5832 84.3334 63.5832 84.3334C63.5832 84.3334 61.3444 87.1944 60.2475 88.5393C59.9631 88.8943 59.5526 88.9242 59.3281 88.6078C59.1164 88.2934 59.1699 87.7503 59.4564 87.3932C60.3224 86.3134 61.1798 85.24 62.0436 84.1089C61.9059 82.6606 61.8724 81.2042 61.9432 79.7511M65.2639 79.9778C65.2275 79.533 65.5568 78.9878 66.0058 78.7654C66.4206 78.5601 66.7927 78.6948 66.8825 79.0647L66.9061 79.1717C67.0215 80.4461 67.8554 84.3291 67.8554 84.3291C67.8554 84.3291 65.5931 87.5729 64.4492 89.0932C64.152 89.4994 63.6623 89.5849 63.3672 89.2941C63.0764 89.0055 63.0829 88.4388 63.3758 88.0369C64.2525 86.848 65.1334 85.5928 66.008 84.3206C65.6445 82.8794 65.3922 81.4339 65.2617 79.9778M69.3693 80.352C69.3095 80.1531 69.2546 79.9527 69.2047 79.7511C69.087 79.3235 69.3886 78.7397 69.8804 78.466C70.3722 78.1731 70.8725 78.3014 70.988 78.7333C71.0414 78.9343 71.097 79.1289 71.1569 79.3192C71.4626 80.3456 72.8461 83.7069 72.8461 83.7069C72.8461 83.7069 70.6352 87.2778 69.504 89.0183C69.2047 89.478 68.6487 89.6448 68.2531 89.4011C67.8704 89.153 67.7977 88.5821 68.0906 88.116C68.9776 86.7425 69.8465 85.3575 70.6971 83.9613C70.1626 82.7639 69.7221 81.5515 69.3671 80.352M76.0406 82.9778C75.1426 81.6734 74.3643 80.3434 73.7292 78.9878C73.5303 78.5708 73.7998 77.9742 74.3108 77.6407C74.8432 77.3135 75.4227 77.3691 75.6258 77.7818C76.1924 78.9557 78.4462 82.4795 78.4462 82.4795C78.4462 82.4795 76.4298 86.3391 75.3286 88.225C75.0336 88.7296 74.4092 88.9713 73.9345 88.766C73.4641 88.5607 73.3144 87.9855 73.6052 87.4788C74.4541 86.0098 75.2645 84.4916 76.0428 82.9778M81.9208 81.3762C80.7842 80.2298 79.727 79.0075 78.7563 77.7176C78.4761 77.3392 78.6707 76.7212 79.201 76.3449C79.7356 75.9643 80.4027 75.96 80.6892 76.3406C81.5018 77.4055 84.4953 80.6193 84.4953 80.6193C84.4953 80.6193 82.789 84.6456 81.8203 86.6769C81.5509 87.2265 80.8924 87.5493 80.3343 87.4039C79.7784 87.2607 79.5389 86.7047 79.789 86.1637C80.5524 84.5451 81.2644 82.9585 81.9208 81.3762ZM86.4518 84.1003C87.0719 82.4346 87.6278 80.7989 88.1068 79.1824C86.7245 78.1775 85.3996 77.096 84.1382 75.9429C83.7705 75.5986 83.8881 74.985 84.4077 74.568C84.9208 74.1489 85.6542 74.0848 86.0241 74.4269C87.0762 75.3677 90.7326 77.6899 90.7326 77.6899C90.7326 77.6899 89.501 82.317 88.7098 84.4125C88.496 84.9813 87.8181 85.3662 87.1938 85.2849C86.5779 85.1994 86.2401 84.6691 86.4518 84.1003ZM94.2094 82.5137C93.5529 82.4795 93.1381 81.9899 93.2899 81.4147C93.7122 79.7987 94.0597 78.164 94.3313 76.516C92.7339 75.6577 91.1764 74.7273 89.6634 73.7277C89.2208 73.4283 89.2486 72.8339 89.7404 72.402C90.2301 71.9657 90.9806 71.846 91.4254 72.1432C92.6955 72.9729 96.8822 74.9957 96.8822 74.9957C96.8822 74.9957 96.2429 79.4432 95.6891 81.5366C95.5309 82.1096 94.8765 82.5415 94.2094 82.5137ZM99.9741 78.2736C100.161 76.689 100.271 75.0962 100.303 73.501C98.5513 72.7897 96.82 72.0282 95.1117 71.2174C94.6028 70.9693 94.528 70.4048 94.9492 69.9579C95.3662 69.511 96.1274 69.3464 96.6406 69.588C98.0518 70.2487 102.647 71.9764 102.647 71.9764C102.647 71.9764 102.626 76.1118 102.405 78.1731C102.341 78.7333 101.747 79.208 101.08 79.2358C100.41 79.2679 99.9121 78.8338 99.9741 78.2736ZM106.143 74.7391C106.102 73.1974 105.94 71.6963 105.705 70.2616C103.851 69.7054 102.011 69.1022 100.188 68.4526C99.6256 68.2559 99.4609 67.7341 99.8137 67.2894C100.164 66.8532 100.889 66.6565 101.443 66.8532C102.974 67.3984 107.787 68.8097 107.787 68.8097C107.787 68.8097 108.422 72.5837 108.484 74.5188C108.493 75.0512 107.988 75.5281 107.34 75.588C106.692 75.6542 106.156 75.2715 106.143 74.7391ZM111.521 71.0784C111.229 69.681 110.84 68.3056 110.357 66.9622C108.457 66.526 106.577 66.0749 104.74 65.6045C104.161 65.4505 103.885 64.9844 104.152 64.5567C104.402 64.1355 105.078 63.9088 105.649 64.0628C107.219 64.4605 112.113 65.6066 112.113 65.6066C112.113 65.6066 113.289 68.9316 113.68 70.7256C113.789 71.2174 113.396 71.6942 112.804 71.7947C112.205 71.8888 111.628 71.5744 111.521 71.0784ZM115.908 67.3813C115.407 66.1028 114.805 64.8659 114.108 63.6822C112.273 63.3914 110.43 63.0728 108.578 62.7306C107.988 62.6237 107.646 62.2068 107.811 61.8026C107.978 61.4071 108.574 61.1697 109.149 61.2852C110.732 61.5824 115.521 62.4206 115.521 62.4206C115.521 62.4206 116.424 63.9302 116.828 64.7299C117.196 65.4505 117.533 66.1989 117.835 66.9687C118.017 67.407 117.728 67.8646 117.2 67.9779C116.67 68.0934 116.088 67.8346 115.908 67.3813ZM119.285 63.819C118.583 62.6768 117.804 61.5838 116.954 60.5475C115.19 60.3574 113.427 60.1542 111.666 59.9381C111.097 59.8632 110.685 59.5104 110.755 59.1384C110.819 58.7749 111.332 58.5397 111.893 58.6038C113.413 58.7963 117.982 59.3415 117.982 59.3415C117.982 59.3415 120.044 61.9074 120.933 63.3443C120.948 63.3614 120.955 63.3764 120.963 63.3978C121.16 63.7741 120.985 64.1633 120.557 64.2916C120.322 64.3534 120.074 64.3412 119.847 64.2566C119.62 64.172 119.424 64.0192 119.287 63.819M121.622 60.4213C120.792 59.4163 119.868 58.4691 118.902 57.586C117.298 57.5005 115.648 57.3936 113.945 57.2717C113.407 57.2332 112.951 56.9253 112.94 56.5874C112.919 56.2539 113.347 56.0165 113.881 56.0636C115.335 56.1705 119.59 56.4698 119.59 56.4698C119.59 56.4698 121.964 58.6872 123.007 59.9402C123.039 59.9758 123.067 60.0145 123.091 60.0557C123.272 60.3657 123.176 60.6886 122.843 60.8062C122.454 60.9345 121.915 60.772 121.624 60.4213M123.061 57.2867C122.077 56.3993 121.085 55.5974 120.037 54.8512C118.575 54.8362 117.052 54.8106 115.504 54.7785C114.991 54.7721 114.504 54.5155 114.409 54.2118C114.322 53.9146 114.653 53.688 115.158 53.6965C116.486 53.7286 120.399 53.8141 120.399 53.8141C120.399 53.8141 122.975 55.6958 124.171 56.782C124.228 56.8352 124.28 56.8947 124.325 56.9595C124.487 57.2033 124.459 57.4534 124.213 57.571C123.903 57.7122 123.388 57.5839 123.059 57.2845M143.592 120.814C143.475 121.235 143.139 121.633 142.842 121.708C142.634 121.755 142.502 121.631 142.478 121.406C142.474 121.288 142.487 121.17 142.515 121.056C142.852 119.869 143.552 116.108 143.552 116.108C143.552 116.108 145.549 114.017 146.494 113.072C146.736 112.819 147.005 112.9 147.084 113.243C147.115 113.432 147.103 113.626 147.049 113.81C146.996 113.994 146.902 114.164 146.774 114.307C146.026 115.071 145.269 115.849 144.482 116.689C144.268 118.079 143.969 119.465 143.592 120.814ZM141.689 119.933C141.614 120.372 141.264 120.829 140.913 120.94C140.639 121.032 140.445 120.9 140.4 120.632C140.392 120.537 140.396 120.442 140.413 120.348C140.633 119.082 140.909 115.186 140.909 115.186C140.909 115.186 143.064 112.682 144.097 111.56C144.375 111.26 144.708 111.297 144.845 111.635C144.982 111.975 144.882 112.49 144.604 112.789C143.806 113.672 142.981 114.628 142.138 115.616C142.09 117.064 141.94 118.506 141.689 119.933ZM138.999 119.257C138.976 119.493 138.893 119.719 138.759 119.915C138.625 120.11 138.443 120.269 138.232 120.376C137.881 120.517 137.607 120.384 137.547 120.066C137.53 120.006 137.528 119.942 137.53 119.871C137.595 118.61 137.357 114.671 137.357 114.671C137.357 114.671 139.596 111.812 140.693 110.469C140.979 110.112 141.386 110.084 141.612 110.401C141.822 110.713 141.771 111.256 141.484 111.611C140.607 112.697 139.743 113.793 138.892 114.9C139.036 116.358 139.066 117.829 138.999 119.257ZM135.677 119.029C135.711 119.478 135.384 120.019 134.932 120.243C134.52 120.448 134.146 120.309 134.056 119.948L134.034 119.837C133.917 118.56 133.081 114.677 133.081 114.677C133.081 114.677 135.347 111.431 136.487 109.911C136.786 109.505 137.278 109.419 137.569 109.714C137.864 110.003 137.855 110.565 137.56 110.972C136.688 112.161 135.807 113.411 134.93 114.686C135.294 116.127 135.548 117.573 135.679 119.027M131.571 118.654C131.631 118.855 131.684 119.054 131.736 119.257C131.849 119.685 131.552 120.269 131.06 120.543C130.566 120.829 130.068 120.705 129.952 120.271C129.897 120.079 129.843 119.88 129.783 119.685C129.476 118.663 128.094 115.297 128.094 115.297C128.094 115.297 130.303 111.731 131.436 109.99C131.736 109.533 132.29 109.362 132.687 109.608C133.068 109.853 133.141 110.426 132.845 110.89C131.956 112.28 131.092 113.642 130.241 115.045C130.776 116.238 131.218 117.455 131.573 118.654M124.895 116.031C125.798 117.335 126.576 118.663 127.209 120.021C127.406 120.434 127.138 121.032 126.625 121.368C126.095 121.697 125.513 121.633 125.315 121.225C124.746 120.051 122.498 116.527 122.498 116.527C122.498 116.527 124.508 112.67 125.612 110.781C125.907 110.277 126.529 110.033 127.006 110.243C127.476 110.446 127.626 111.023 127.335 111.526C126.488 113.009 125.674 114.511 124.895 116.031ZM119.024 117.628C120.156 118.778 121.212 120.001 122.184 121.289C122.462 121.669 122.27 122.281 121.737 122.662C121.203 123.046 120.54 123.051 120.251 122.668C119.439 121.601 116.445 118.389 116.445 118.389C116.445 118.389 118.149 114.367 119.12 112.325C119.385 111.78 120.048 111.455 120.606 111.598C121.162 111.744 121.397 112.304 121.147 112.843C120.386 114.461 119.678 116.05 119.024 117.628ZM114.486 114.904C113.866 116.574 113.313 118.21 112.829 119.824C114.27 120.868 115.609 121.973 116.802 123.066C117.166 123.408 117.054 124.017 116.533 124.434C116.02 124.858 115.288 124.922 114.912 124.58C113.862 123.639 110.208 121.321 110.208 121.321C110.208 121.321 111.435 116.692 112.228 114.594C112.442 114.023 113.118 113.638 113.747 113.724C114.358 113.813 114.698 114.337 114.486 114.904ZM106.727 116.499C107.387 116.527 107.802 117.019 107.646 117.59C107.225 119.207 106.879 120.843 106.607 122.493C108.262 123.395 109.81 124.291 111.275 125.279C111.72 125.576 111.692 126.17 111.198 126.607C110.71 127.041 109.958 127.156 109.513 126.863C108.243 126.034 104.058 124.015 104.058 124.015C104.058 124.015 104.693 119.565 105.251 117.47C105.41 116.899 106.064 116.467 106.727 116.499ZM100.964 120.733C100.777 122.317 100.667 123.91 100.637 125.505C102.452 126.237 104.199 127.024 105.829 127.793C106.335 128.037 106.408 128.595 105.991 129.051C105.574 129.495 104.813 129.662 104.296 129.421C102.889 128.756 98.2913 127.032 98.2913 127.032C98.2913 127.032 98.3148 122.897 98.5393 120.831C98.6013 120.277 99.1894 119.801 99.8586 119.775C100.534 119.739 101.028 120.171 100.964 120.733ZM94.7974 124.27C94.8402 125.809 94.9963 127.312 95.2336 128.738C97.1196 129.312 98.9606 129.915 100.75 130.552C101.31 130.751 101.479 131.279 101.129 131.713C100.776 132.158 100.051 132.354 99.4973 132.158C97.9663 131.61 93.1552 130.199 93.1552 130.199C93.1552 130.199 92.5181 126.425 92.4539 124.486C92.4454 123.955 92.9521 123.478 93.5978 123.412C94.2457 123.354 94.7867 123.733 94.7974 124.27ZM89.4154 127.928C89.7276 129.386 90.1082 130.746 90.5829 132.046C92.4796 132.485 94.3612 132.934 96.2001 133.402C96.7796 133.556 97.0554 134.022 96.7881 134.45C96.5358 134.873 95.8665 135.096 95.2892 134.946C93.7176 134.546 88.8232 133.402 88.8232 133.402C88.8232 133.402 87.6514 130.079 87.2601 128.283C87.1467 127.791 87.5423 127.314 88.1368 127.216C88.7355 127.118 89.3128 127.432 89.4154 127.928ZM85.0277 131.627C85.5321 132.903 86.1341 134.139 86.8281 135.322C88.6649 135.617 90.5102 135.934 92.362 136.278C92.95 136.385 93.2899 136.8 93.1296 137.206C92.9628 137.597 92.3662 137.837 91.7889 137.721C89.6671 137.338 87.5446 136.958 85.4212 136.584C85.4212 136.584 84.5167 135.078 84.1126 134.277C83.7448 133.556 83.4069 132.808 83.1011 132.04C82.9237 131.599 83.2102 131.142 83.7384 131.026C84.2729 130.915 84.8502 131.176 85.0277 131.627ZM81.6557 135.187C82.3806 136.361 83.1461 137.437 83.9864 138.461C85.75 138.649 87.512 138.851 89.2722 139.068C89.841 139.139 90.2536 139.496 90.1852 139.866C90.1211 140.236 89.6078 140.473 89.0455 140.407C87.5273 140.212 82.9536 139.667 82.9536 139.667C82.9536 139.667 80.8945 137.101 80.0029 135.662C79.9899 135.647 79.981 135.628 79.9772 135.609C79.7804 135.235 79.9515 134.843 80.3792 134.713C80.615 134.652 80.8638 134.664 81.0922 134.749C81.3205 134.834 81.5172 134.987 81.6557 135.187ZM79.3186 138.585C80.1483 139.59 81.072 140.54 82.0342 141.42C83.64 141.508 85.2907 141.613 86.9949 141.735C87.5359 141.773 87.9892 142.079 88.0042 142.419C88.0191 142.755 87.5915 142.99 87.0633 142.945C85.6029 142.834 81.3478 142.537 81.3478 142.537C81.3478 142.537 78.9743 140.317 77.933 139.066C77.901 139.03 77.8724 138.992 77.8475 138.951C77.6657 138.645 77.7619 138.32 78.0976 138.198C78.4868 138.072 79.0257 138.241 79.3165 138.585M77.8796 141.724C78.8632 142.609 79.8553 143.413 80.9009 144.151C82.3613 144.168 83.888 144.194 85.434 144.23C85.9472 144.237 86.4347 144.493 86.5288 144.797C86.6164 145.092 86.2872 145.321 85.7868 145.31C84.4547 145.276 80.5417 145.192 80.5417 145.192C80.5417 145.192 77.9651 143.311 76.7698 142.224C76.7137 142.171 76.6615 142.114 76.6137 142.053C76.4512 141.803 76.4854 141.553 76.727 141.438C77.0349 141.299 77.5524 141.423 77.8817 141.724" fill="#7D0521"/>
<path d="M179.127 74.545L178.995 74.5556L172.602 81.6482L171.507 75.2399L155.528 76.711L154.668 78.49C153.342 77.6882 151.721 77.267 149.949 77.267C149.596 77.267 149.237 77.2883 148.884 77.3161L138.824 78.2399C135.582 78.5392 131.923 80.2071 128.97 82.7131C127.32 80.6262 124.474 79.557 121.262 79.8542L111.199 80.7758L55.173 85.9226L61.4059 79.016L33.3328 81.5991L31.7035 84.9604L15.6195 86.4358L8.42856 101.22L11.7643 100.916L0.00390625 125.016L18.2303 123.348L21.9252 115.775L26.3771 128.916L43.4938 127.345L41.4219 121.219L47.7511 120.639L55.669 104.414L54.895 119.979L69.5356 118.636L69.6916 118.621L71.9881 115.229L71.832 118.42L86.4662 117.077L86.6223 117.064L90.1526 111.851C90.2595 112.069 90.375 112.279 90.5012 112.482C92.0856 115.016 94.9979 116.288 98.6415 115.957L108.631 115.046C111.907 114.742 115.591 113.068 118.546 110.549C120.02 112.443 122.348 113.478 125.162 113.478C125.517 113.478 125.887 113.461 126.263 113.425L136.253 112.51C138.244 112.326 140.337 111.671 142.358 110.615L141.678 112.014L159.902 110.339L160.907 108.289L161.987 114.624L166.388 109.749L182.617 108.252L200.005 72.627L179.127 74.545Z" fill="#570514"/>
<path d="M30.0968 93.0429L32.2179 92.8462L27.7832 97.7599L30.0968 93.0429ZM36.364 113.051L33.7981 105.473L47.4466 90.3445L36.364 113.051ZM114.427 91.6231L109.06 102.624L105.468 102.956L110.835 91.9524L114.427 91.6231ZM142.049 89.0893L136.678 100.095L133.09 100.422L138.455 89.4186L142.049 89.0893ZM180.256 76.1914L180.127 76.2063L171.089 86.2219L169.545 77.1728L157.068 78.3211L155.304 81.9646C155.222 81.7788 155.125 81.5994 155.016 81.4279C154.043 79.867 152.251 79.0074 149.976 79.0074C149.694 79.0074 149.392 79.0224 149.095 79.0502L139.034 79.9739C135.181 80.3246 130.841 82.8927 128.136 86.3267C128.09 85.4887 127.835 84.6755 127.394 83.9618C126.421 82.4009 124.629 81.5456 122.347 81.5456C122.065 81.5456 121.77 81.5605 121.473 81.584L111.41 82.512C109.464 82.6895 107.292 83.47 105.265 84.7016L106.441 82.9654L93.3313 84.1713L86.9316 93.6224L87.3763 84.7123L76.3964 85.7258L69.9987 95.1705L70.4414 86.269L49.371 88.2105L55.6019 81.3061L34.8737 83.2134L33.2379 86.5705L17.1518 88.0458L12.375 97.8754L15.7213 97.5718L3.96094 121.67L16.6878 120.502L22.3157 108.967L28.0077 125.782L40.2941 124.651L38.2179 118.524L46.2064 117.795L56.3781 96.9581L58.3752 96.7699L57.3831 116.763L68.3587 115.755L74.7521 106.315L74.3158 115.204L85.2894 114.199L94.3556 100.811L92.6706 104.269C91.501 106.668 91.439 108.922 92.4995 110.617C93.4746 112.176 95.2643 113.038 97.533 113.038C97.8217 113.038 98.1189 113.021 98.4204 112.995L108.412 112.078C112.319 111.721 116.692 109.14 119.382 105.684C119.431 106.567 119.681 107.374 120.124 108.083C121.221 109.837 123.348 110.707 126.044 110.461L136.032 109.544C140.843 109.101 146.319 105.255 148.498 100.783L154.774 87.924L155.8 87.8299L145.633 108.663L158.36 107.5L161.995 100.063L163.49 108.813L171.692 99.725L168.348 106.582L181.075 105.413L196.04 74.748L180.256 76.1914Z" fill="#EB008A"/>
<path d="M51.743 83.2389L35.9007 84.6972L32.7318 91.221L36.0803 90.9174L22.8359 105.594L29.1032 124.101L38.1694 123.267L32.0155 105.103L51.743 83.2389ZM180.885 77.7137L170.089 89.6815L168.246 78.8705L158.098 79.8027L154.944 86.3308L158.442 85.9994L148.272 106.845L157.338 106.011L162.731 94.9929L164.497 105.353L178 90.3914L170.987 104.76L180.053 103.927L193.406 76.5654L180.885 77.7137Z" fill="white"/>
<path d="M49.4718 89.7774L36.1184 117.141L45.1824 116.309L58.5379 88.9435L49.4718 89.7774ZM18.1784 89.5336L15.0074 96.0553L18.358 95.7538L6.59766 119.848L15.6617 119.02L30.6081 88.3918L18.1784 89.5336ZM110.085 104.11L102.832 104.775L109.811 90.468L117.062 89.8052L110.085 104.11ZM121.619 83.1509L111.556 84.0725C107.542 84.4424 102.887 87.6156 100.745 91.2998L94.0821 104.959C92.1492 108.921 94.0287 111.823 98.2752 111.429L108.267 110.512C112.52 110.121 117.532 106.595 119.465 102.63L125.812 89.6213C127.747 85.6548 125.869 82.7618 121.619 83.1509ZM137.705 101.574L130.45 102.241L137.433 87.9363L144.684 87.2692L137.705 101.574ZM149.24 80.6128L139.178 81.5387C135.167 81.9065 130.507 85.0775 128.367 88.766L121.704 102.429C119.771 106.387 121.651 109.28 125.899 108.895L135.889 107.978C140.138 107.587 145.152 104.059 147.085 100.097L153.434 87.0853C155.369 83.121 153.491 80.2258 149.24 80.6128ZM94.2147 85.6655L85.0843 99.1515L85.7172 86.446L77.2819 87.22L68.1515 100.704L68.7823 88.0026L59.6947 88.843L56.5216 95.3668L60.0369 95.0396L59.0447 115.03L67.4737 114.258L76.5976 100.783L75.9775 113.48L84.4086 112.702L103.279 84.8337L94.2147 85.6655Z" fill="white"/>
<path d="M18.3585 95.7544L24.4846 92.0744L16.5944 92.795L15.0078 96.058L18.3585 95.7544ZM36.0782 90.9176L44.1202 87.0752L34.3141 87.9604L32.7297 91.2213L36.0782 90.9176Z" fill="#D1D1D1"/>
<path d="M51.7411 83.2389L44.1204 87.0749L27.4805 105.52L33.6386 123.688L29.1013 124.101L38.1675 123.267L32.0136 105.103L51.7411 83.2389ZM161.607 88.437L154.394 103.17L148.27 106.845L157.337 106.011L162.729 94.9929L161.607 88.437ZM166.217 93.9729L170.087 89.6815L168.244 78.8705L164.145 81.8512L166.217 93.9729ZM187.279 80.2454L177.111 101.085L170.987 104.763L180.049 103.929L193.405 76.5654L187.279 80.2454ZM182.893 80.3587L167.22 97.717L164.495 105.353L177.999 90.3914L182.893 80.3587Z" fill="#D1D1D1"/>
<path d="M52.3948 92.6668L42.2381 113.474L36.1205 117.141L45.1845 116.31L58.5401 88.9441L52.3948 92.6668ZM24.4841 92.0745L12.7237 116.164L6.59766 119.848L15.6617 119.021L30.6081 88.3925L24.4841 92.0745ZM80.2134 106.343L85.0843 99.1522L85.7172 86.4467L81.0238 90.0026L80.2134 106.343ZM76.9269 94.0161L65.1858 111.357L59.0447 115.031L67.4737 114.259L76.5976 100.784L76.9269 94.0161ZM96.4919 88.5785L82.1186 109.807L75.9754 113.478L84.4086 112.702L103.279 84.8344L96.4919 88.5785ZM60.0369 95.0403L64.0952 91.5549L58.1103 92.1002L56.5216 95.3675L60.0369 95.0403ZM158.439 85.9998L164.144 81.8516L156.735 82.5337L154.924 86.3312L158.439 85.9998Z" fill="#D1D1D1"/>
<path d="M63.2812 107.897L68.1565 100.704L68.7851 88.003L64.098 91.5546L63.2812 107.897ZM111.403 87.2118L105.279 90.8832L96.7022 108.466L102.835 104.78L109.814 90.4684L117.065 89.8055L123.189 86.1299L111.403 87.2118Z" fill="#D1D1D1"/>
<path d="M125.869 84.5219L123.188 86.1299L114.605 103.719L108.517 107.384L96.7012 108.466L94.0391 110.07C94.8473 111.081 96.3056 111.611 98.2771 111.43L108.269 110.512C108.477 110.495 108.69 110.461 108.902 110.427C113.005 109.768 117.626 106.401 119.465 102.631L125.813 89.6217C126.848 87.5005 126.791 85.6916 125.869 84.5219ZM139.026 84.678L132.902 88.3494L124.325 105.932L130.451 102.242L137.435 87.9367L144.686 87.2696L150.812 83.5918L139.026 84.678Z" fill="#D1D1D1"/>
<path d="M153.492 81.9883L150.811 83.5962L142.225 101.186L136.14 104.85L124.324 105.932L121.664 107.536C122.47 108.548 123.931 109.074 125.9 108.896L135.89 107.979C136.099 107.962 136.311 107.925 136.523 107.893C140.624 107.237 145.247 103.867 147.086 100.097L153.434 87.0859C154.471 84.9669 154.411 83.1536 153.492 81.9883Z" fill="#D1D1D1"/>
</g>
<defs>
<clipPath id="clip0_463_17431">
<rect width="200" height="147.056" fill="white" transform="translate(0 26)"/>
</clipPath>
</defs>
</svg>
