<svg width="200" height="200" viewBox="0 0 200 200" fill="none" xmlns="http://www.w3.org/2000/svg">
<g clip-path="url(#clip0_463_17352)">
<path d="M180.598 113.778L200 81.4773H168.07C170.767 72.1307 174.566 63.3238 179.675 55.6622C151.329 54.7624 121.125 47.9543 100.001 26.7305C78.8747 47.9543 48.6721 54.7624 20.3252 55.6622C25.434 63.3238 29.2335 72.1307 31.9316 81.4773H0L19.4034 113.778L6.36099 139.244H36.2739C35.5658 145.674 34.4932 151.781 33.1155 157.349C33.1155 157.349 71.8618 164.541 100.001 190.071C128.138 164.541 166.886 157.349 166.886 157.349C165.508 151.78 164.434 145.673 163.725 139.244H193.639L180.598 113.778Z" fill="#E2E3E4"/>
<path d="M172.973 113.778L185.721 89.1305H155.011C156.731 79.632 159.439 70.7964 163.362 63.6612C143.536 63.4497 113.215 54.786 99.9998 40.4209C86.7845 54.786 56.4652 63.4497 36.6377 63.6612C40.5594 70.7964 43.2674 79.632 44.9876 89.1305H14.2773L27.0269 113.778L15.8984 134.533H46.6296C46.0096 141.197 45.0383 147.353 43.7993 152.584C43.7993 152.584 71.6077 158.865 99.9998 183.731C128.392 158.865 156.2 152.584 156.2 152.584C154.96 147.353 153.989 141.197 153.37 134.533H184.1L172.973 113.778Z" fill="black"/>
<path d="M99.9989 153.895C89.224 153.901 79.9369 160.249 75.6562 169.404L99.9989 185.724L124.342 169.404C120.06 160.249 110.773 153.901 99.9989 153.895Z" fill="#E2E3E4"/>
<path d="M58.6092 127.905L46.5612 114.076L56.9055 102.648H49.4135L41.2122 111.555V94.7676H31.4219C33.272 96.3292 34.8435 98.3996 34.8435 101.19V127.905H41.2122V117.215L50.67 127.905H58.6092ZM141.126 102.648V127.905H134.758V109.072C134.758 106.283 133.186 104.213 131.334 102.648H141.126ZM167.867 122.581L170.914 127.905H145.869L158.741 107.971H146.721V102.648H170.368L156.409 122.581H167.867ZM70.6527 120.619V107.971H75.125L78.1745 102.648H70.6527V94.7676L64.2862 98.4117V102.649H59.5948V107.972H64.2862V120.967C64.2861 121.878 64.4655 122.781 64.8141 123.622C65.1627 124.464 65.6737 125.229 66.318 125.874C66.9622 126.518 67.7271 127.029 68.569 127.378C69.4108 127.727 70.3131 127.906 71.2243 127.906H76.2737V122.583H72.6152C72.0946 122.582 71.5955 122.375 71.2275 122.007C70.8595 121.639 70.6527 121.14 70.6527 120.619ZM121.635 102.648L115.317 115.952L107.975 101.985L100.628 115.954L94.3126 102.648H84.4044C86.6543 103.913 89.2115 106.042 90.75 109.166C92.2885 112.289 100.32 128.511 100.32 128.511L107.974 113.89L115.627 128.511L128.478 102.648H121.635Z" fill="white"/>
<path d="M144.441 74.527C137.058 70.8366 133.89 67.3225 133.89 67.3225C124.984 14.493 61.5518 1.57829 33.2192 12.6638C51.2329 17.2924 67.3005 23.9431 78.2087 35.8853C63.1157 32.0672 42.3709 31.2115 30.2227 34.9669C45.4225 36.947 68.2851 47.2593 82.1755 66.8654C92.9416 82.0631 98.9205 88.5474 110.811 95.1529C118.373 92.2444 124.847 85.0718 126.963 79.8396C133.154 80.1127 140.743 77.4939 144.441 74.527Z" fill="#E2E3E4"/>
<path d="M140.445 74.6769C111.143 68.7499 109.28 37.9229 61.1758 37.9229C88.1175 52.7218 88.4137 78.3398 111.191 91.4076C111.191 91.4076 113.773 88.6995 116.252 82.768L120.501 83.7746C121.285 78.5182 120.317 73.2343 120.317 73.2343C123.259 74.417 132.044 77.385 140.445 74.6769Z" fill="#ED1B23"/>
<path d="M86.549 38.1677C104.85 43.869 118.901 53.4733 127.377 61.8496C120.486 27.3972 77.6407 5.95199 41.1719 12.4815C41.1719 12.4815 69.5827 16.5298 86.549 38.1677Z" fill="black"/>
<path d="M105.984 73.9455C105.408 69.4875 102.249 64.4139 97.75 60.7246C102.6 62.4316 106.798 61.6101 108.693 58.5771C109.269 63.0362 112.429 68.1087 116.928 71.798C112.079 70.0899 107.88 70.9148 105.984 73.9455Z" fill="white"/>
<path d="M128.519 135.244C127.168 135.244 126.065 135.761 125.357 136.655L125.01 135.476H121.632C122.337 136.07 122.934 136.858 122.934 137.922V145.088H125.357V139.31C125.634 138.414 126.756 137.331 127.88 137.331C129.162 137.331 129.79 138.491 129.79 139.874V145.088H132.212V139.598C132.212 136.553 130.278 135.244 128.519 135.244ZM86.6225 140.66C86.6225 142.25 85.9497 143.272 84.5345 143.272C83.1194 143.272 82.4454 142.25 82.4454 140.66V135.457H78.7187C79.4224 136.055 80.0215 136.842 80.0215 137.905V141.076H80.0358C80.0358 144.417 82.8947 145.318 84.5345 145.318C86.1721 145.318 89.0332 144.418 89.0332 141.076V135.457H86.6225V140.66ZM105.003 135.476L102.6 140.612L99.8049 135.147L97.0098 140.614L94.6057 135.476H90.8349C91.6917 135.958 92.6642 136.767 93.25 137.957C93.8348 139.144 96.892 145.465 96.892 145.465L99.8038 139.678L102.717 145.465L107.607 135.476H105.003ZM114.469 135.197C111.503 135.197 109.149 137.303 109.149 140.281C109.149 143.257 111.503 145.364 114.469 145.364C117.437 145.364 119.789 143.257 119.789 140.281C119.789 137.303 117.437 135.197 114.469 135.197ZM114.469 143.411C112.943 143.411 111.705 142.099 111.705 140.281C111.705 138.467 112.943 137.15 114.469 137.15C115.996 137.15 117.234 138.466 117.234 140.281C117.234 142.098 115.996 143.411 114.469 143.411ZM71.8896 143.414C70.3974 143.414 69.0902 142.369 69.0065 141.633L67.7852 144.149C68.599 144.855 70.1 145.323 71.97 145.323C74.8796 145.323 76.6075 144.054 76.6075 142.306C76.5811 140.875 75.743 139.983 73.3477 139.348C71.6606 138.909 70.687 138.738 70.687 138.123C70.687 137.44 71.5306 137.081 72.6121 137.081C73.5217 137.081 74.384 137.297 75.1637 137.815L76.1097 136.123C75.5371 135.649 73.7893 135.237 72.6385 135.237C69.8247 135.237 68.1001 136.636 68.1001 138.343C68.0737 139.475 68.8842 140.438 71.4689 141.095C73.1032 141.512 74.0118 141.71 74.0118 142.365C74.0129 143.079 73.1374 143.414 71.8896 143.414Z" fill="#E2E3E4"/>
<path d="M113.366 169.483C112.933 169.095 112.751 168.093 112.986 167.302L112.989 167.295L112.987 167.296L112.986 167.298C112.635 167.739 112.013 168.008 111.594 167.997C111.25 167.988 109.038 167.959 109.038 167.959C108.861 167.956 108.691 168.023 108.564 168.146C108.437 168.269 108.365 168.437 108.362 168.614C108.359 168.791 108.426 168.961 108.549 169.088C108.672 169.215 108.84 169.287 109.017 169.29C109.017 169.29 110.975 169.327 111.285 169.323C111.652 169.323 112.136 169.114 112.377 168.819L112.513 168.479C112.421 168.715 112.334 168.954 112.247 169.192C112.117 169.813 112.267 170.158 112.744 170.563C113.248 171.003 114.014 171.665 114.014 171.665C114.136 171.77 114.297 171.823 114.459 171.811C114.621 171.799 114.771 171.724 114.877 171.601C114.983 171.478 115.036 171.318 115.024 171.156C115.012 170.995 114.936 170.844 114.813 170.738C114.813 170.738 113.602 169.693 113.366 169.483ZM114.914 165.872C114.529 165.438 114.461 164.421 114.783 163.662L114.788 163.654L114.784 163.656L114.783 163.657C114.385 164.057 113.736 164.251 113.322 164.192C112.983 164.147 110.786 163.866 110.786 163.866C110.699 163.855 110.611 163.861 110.527 163.884C110.442 163.907 110.363 163.946 110.294 164C110.225 164.053 110.167 164.12 110.123 164.196C110.08 164.271 110.052 164.355 110.041 164.442C110.03 164.529 110.036 164.617 110.058 164.701C110.081 164.785 110.121 164.864 110.174 164.933C110.228 165.003 110.294 165.061 110.37 165.104C110.446 165.148 110.529 165.176 110.616 165.187C110.616 165.187 112.557 165.443 112.865 165.478C113.229 165.518 113.735 165.364 114.006 165.1L114.18 164.776C114.065 164.996 113.955 165.218 113.845 165.438C113.631 166.023 113.749 166.415 114.174 166.874L115.312 168.112C115.422 168.231 115.576 168.302 115.737 168.308C115.899 168.315 116.057 168.257 116.176 168.147C116.296 168.037 116.366 167.885 116.373 167.723C116.38 167.561 116.322 167.403 116.212 167.284C116.212 167.285 115.125 166.108 114.914 165.872ZM110.194 179.099C110.01 179.631 109.512 180.092 109.115 180.224C108.789 180.329 106.691 181.038 106.691 181.038C106.53 181.098 106.398 181.22 106.324 181.376C106.25 181.532 106.239 181.71 106.294 181.874C106.349 182.037 106.466 182.173 106.619 182.253C106.773 182.332 106.951 182.349 107.116 182.3C107.116 182.3 108.975 181.681 109.266 181.578C109.612 181.454 110.089 181.073 110.126 180.738L110.195 179.105V179.098L110.194 179.099ZM117.989 164.008C117.989 164.008 117.043 162.718 116.86 162.46C116.526 161.984 116.574 160.968 116.98 160.249L116.985 160.24L116.983 160.242L116.982 160.244C116.541 160.596 115.874 160.716 115.467 160.612C115.135 160.527 112.985 160.001 112.985 160.001C112.814 159.959 112.633 159.986 112.482 160.077C112.331 160.169 112.223 160.316 112.18 160.487C112.138 160.658 112.166 160.839 112.257 160.99C112.348 161.141 112.496 161.249 112.667 161.292C112.667 161.292 114.567 161.767 114.868 161.835C115.227 161.916 115.746 161.819 116.045 161.588L116.254 161.289C116.117 161.493 115.984 161.696 115.852 161.9C115.585 162.428 115.643 162.866 116.012 163.371L117.002 164.729C117.048 164.797 117.108 164.855 117.177 164.899C117.246 164.944 117.323 164.974 117.404 164.988C117.484 165.002 117.567 165 117.647 164.981C117.727 164.963 117.803 164.928 117.869 164.88C117.935 164.831 117.991 164.77 118.033 164.7C118.075 164.629 118.103 164.551 118.114 164.47C118.125 164.388 118.12 164.306 118.099 164.226C118.077 164.147 118.04 164.073 117.989 164.008ZM113.232 178.012C113.232 178.012 111.813 177.265 111.538 177.113C111.029 176.833 110.626 175.897 110.678 175.073L110.679 175.064L110.678 175.065V175.066L110.677 175.069C110.434 175.577 109.886 175.978 109.477 176.062C109.142 176.13 106.979 176.597 106.979 176.597C106.89 176.612 106.805 176.645 106.729 176.693C106.653 176.742 106.588 176.805 106.538 176.88C106.487 176.954 106.452 177.038 106.435 177.126C106.417 177.215 106.418 177.306 106.437 177.394C106.456 177.482 106.492 177.565 106.544 177.639C106.596 177.712 106.663 177.774 106.739 177.822C106.816 177.869 106.901 177.9 106.99 177.913C107.079 177.927 107.17 177.922 107.257 177.899V177.9C107.257 177.9 109.173 177.495 109.474 177.424C109.832 177.341 110.257 177.027 110.423 176.687L110.481 176.321C110.445 176.567 110.416 176.814 110.385 177.06C110.406 177.672 110.621 178.012 111.173 178.305L112.659 179.092C112.73 179.132 112.809 179.158 112.89 179.168C112.971 179.178 113.054 179.171 113.133 179.148C113.211 179.126 113.285 179.087 113.348 179.036C113.412 178.984 113.464 178.92 113.503 178.848C113.541 178.775 113.565 178.696 113.572 178.614C113.579 178.533 113.57 178.451 113.544 178.373C113.519 178.295 113.478 178.223 113.425 178.161C113.371 178.099 113.305 178.048 113.232 178.012ZM112.236 173.247C111.761 172.91 111.47 171.935 111.613 171.122L111.615 171.112L111.613 171.115L111.612 171.117C111.312 171.597 110.723 171.931 110.307 171.969C109.965 171.999 107.763 172.221 107.763 172.221C107.593 172.245 107.439 172.334 107.333 172.469C107.228 172.604 107.178 172.774 107.195 172.945C107.212 173.115 107.294 173.273 107.424 173.384C107.554 173.496 107.723 173.553 107.894 173.543C107.894 173.543 109.843 173.358 110.15 173.323C110.515 173.28 110.973 173.017 111.178 172.699L111.275 172.344C111.212 172.587 111.154 172.832 111.094 173.075C111.027 173.656 111.223 174.039 111.739 174.39L113.127 175.34C113.261 175.431 113.425 175.466 113.585 175.436C113.664 175.421 113.739 175.391 113.806 175.347C113.873 175.303 113.931 175.247 113.977 175.18C114.022 175.114 114.054 175.04 114.07 174.961C114.087 174.883 114.088 174.802 114.073 174.723C114.058 174.644 114.028 174.569 113.984 174.501C113.94 174.434 113.884 174.376 113.818 174.331C113.818 174.331 112.493 173.429 112.236 173.247ZM86.6314 169.483C87.0642 169.095 87.2459 168.093 87.0113 167.302L87.008 167.295L87.0102 167.296L87.0113 167.298C87.3626 167.739 87.9848 168.008 88.4033 167.997C88.7469 167.988 90.9594 167.959 90.9594 167.959C91.1359 167.956 91.3064 168.023 91.4332 168.146C91.56 168.269 91.6328 168.437 91.6356 168.614C91.6383 168.791 91.5709 168.961 91.448 169.088C91.3251 169.215 91.1569 169.287 90.9803 169.29C90.9803 169.29 89.0222 169.327 88.7128 169.323C88.3449 169.323 87.8615 169.114 87.6203 168.819L87.4848 168.479C87.5752 168.715 87.6633 168.954 87.7491 169.192C87.8813 169.813 87.7304 170.158 87.2536 170.563C86.7492 171.003 85.9838 171.665 85.9838 171.665H85.9827C85.8599 171.77 85.7 171.823 85.5383 171.811C85.3766 171.799 85.2263 171.724 85.1204 171.601C85.0145 171.478 84.9618 171.318 84.9737 171.156C84.9857 170.995 85.0614 170.844 85.1843 170.738C85.1843 170.738 86.3957 169.693 86.6314 169.483ZM85.083 165.872C85.4695 165.438 85.5367 164.421 85.214 163.662L85.2096 163.654L85.2129 163.656V163.657C85.6127 164.057 86.2613 164.251 86.6765 164.192C87.0157 164.147 89.2117 163.866 89.2117 163.866C89.3003 163.851 89.3911 163.854 89.4786 163.875C89.5661 163.895 89.6486 163.933 89.7209 163.987C89.7933 164.04 89.8541 164.108 89.8997 164.185C89.9452 164.263 89.9746 164.349 89.9861 164.438C89.9976 164.527 89.9908 164.618 89.9663 164.704C89.9418 164.791 89.9001 164.872 89.8436 164.942C89.787 165.012 89.7169 165.069 89.6375 165.111C89.558 165.154 89.4709 165.179 89.3812 165.187C89.3812 165.187 87.4408 165.443 87.1313 165.478C86.7679 165.518 86.2624 165.364 85.9915 165.1L85.8175 164.776C85.932 164.996 86.0422 165.218 86.1534 165.438C86.3659 166.023 86.247 166.415 85.823 166.874L84.6854 168.112C84.631 168.171 84.5655 168.219 84.4927 168.252C84.4198 168.286 84.3411 168.305 84.2608 168.309C84.1806 168.312 84.1005 168.299 84.0251 168.272C83.9497 168.244 83.8805 168.202 83.8214 168.148C83.7624 168.093 83.7146 168.028 83.6808 167.955C83.647 167.882 83.6279 167.803 83.6246 167.723C83.6213 167.643 83.6338 167.563 83.6614 167.487C83.6891 167.412 83.7313 167.343 83.7856 167.284C83.7856 167.285 84.8737 166.108 85.083 165.872ZM89.803 179.099C89.9869 179.631 90.4858 180.092 90.8823 180.224C91.2083 180.329 93.3062 181.038 93.3062 181.038C93.4678 181.098 93.5995 181.22 93.6735 181.376C93.7476 181.532 93.7581 181.71 93.703 181.874C93.6479 182.037 93.5314 182.173 93.3781 182.253C93.2248 182.332 93.0466 182.349 92.8811 182.3C92.8811 182.3 91.0222 181.681 90.7314 181.578C90.3856 181.454 89.9088 181.073 89.8713 180.738L89.8019 179.105V179.098L89.803 179.099ZM82.0082 164.008C82.0082 164.008 82.9542 162.718 83.1359 162.46C83.4707 161.984 83.4233 160.968 83.017 160.249L83.0125 160.24L83.0136 160.242L83.0159 160.244C83.4564 160.596 84.1226 160.716 84.5301 160.612C85.3568 160.407 86.1839 160.203 87.0113 160.001C87.096 159.98 87.1841 159.976 87.2704 159.989C87.3567 160.002 87.4396 160.032 87.5144 160.077C87.5891 160.122 87.6543 160.181 87.7061 160.252C87.7579 160.322 87.7954 160.402 87.8163 160.487C87.8373 160.571 87.8414 160.659 87.8283 160.746C87.8153 160.832 87.7853 160.915 87.7402 160.99C87.6951 161.064 87.6357 161.13 87.5655 161.181C87.4952 161.233 87.4154 161.271 87.3307 161.292C87.3307 161.292 85.4299 161.767 85.1281 161.835C84.7691 161.916 84.2515 161.819 83.9519 161.588L83.7438 161.289C83.8804 161.493 84.0114 161.696 84.1458 161.9C84.4112 162.428 84.3528 162.866 83.985 163.371L82.9938 164.729C82.9465 164.793 82.887 164.848 82.8185 164.89C82.75 164.932 82.674 164.959 82.5948 164.972C82.5156 164.984 82.4348 164.981 82.3569 164.962C82.279 164.943 82.2056 164.909 82.1409 164.861C82.0762 164.814 82.0214 164.755 81.9797 164.686C81.938 164.618 81.9102 164.542 81.8979 164.462C81.8856 164.383 81.889 164.302 81.9079 164.224C81.9268 164.147 81.9609 164.073 82.0082 164.008ZM86.7657 178.012C86.7657 178.012 88.1842 177.265 88.4595 177.113C88.9694 176.833 89.3713 175.897 89.3196 175.073L89.3185 175.064L89.3196 175.065V175.066L89.3218 175.069C89.563 175.577 90.1114 175.978 90.5211 176.062C90.8559 176.13 93.0188 176.597 93.0188 176.597C93.1076 176.612 93.1924 176.645 93.2682 176.693C93.344 176.742 93.4092 176.805 93.4598 176.88C93.5104 176.954 93.5454 177.038 93.5627 177.126C93.5799 177.215 93.5791 177.306 93.5603 177.394C93.5415 177.482 93.505 177.565 93.4531 177.639C93.4011 177.712 93.3348 177.774 93.2582 177.822C93.1815 177.869 93.0961 177.9 93.0071 177.913C92.918 177.927 92.8272 177.922 92.7401 177.899V177.9C92.7401 177.9 90.8239 177.495 90.5233 177.424C90.1654 177.341 89.7403 177.027 89.5751 176.687L89.5167 176.321C89.5508 176.567 89.5817 176.814 89.6114 177.06C89.5916 177.672 89.3779 178.012 88.824 178.305C88.2337 178.619 87.3384 179.092 87.3384 179.092C87.2673 179.132 87.1887 179.158 87.1074 179.168C87.026 179.178 86.9435 179.171 86.8648 179.148C86.7861 179.126 86.7128 179.087 86.6492 179.036C86.5856 178.984 86.533 178.92 86.4946 178.848C86.4562 178.775 86.4327 178.696 86.4256 178.614C86.4185 178.533 86.4279 178.451 86.4531 178.373C86.4784 178.295 86.5191 178.223 86.5728 178.161C86.6265 178.099 86.6921 178.048 86.7657 178.012ZM87.7624 173.247C88.2359 172.91 88.5289 171.935 88.3857 171.122L88.3835 171.112L88.3857 171.115L88.3868 171.117C88.6852 171.597 89.2744 171.931 89.6918 171.969C90.0332 171.999 92.2358 172.221 92.2358 172.221C92.4055 172.245 92.5593 172.334 92.6651 172.469C92.771 172.604 92.8206 172.774 92.8037 172.945C92.7868 173.115 92.7046 173.273 92.5744 173.384C92.4442 173.496 92.2759 173.553 92.1047 173.543C92.1047 173.543 90.1543 173.358 89.8482 173.323C89.4837 173.28 89.0255 173.017 88.8207 172.699L88.7227 172.344C88.7855 172.587 88.8438 172.832 88.9033 173.075C88.9705 173.656 88.7744 174.039 88.259 174.39L86.8703 175.34C86.8041 175.385 86.7296 175.417 86.6511 175.433C86.5726 175.45 86.4916 175.45 86.4127 175.436C86.3339 175.421 86.2587 175.39 86.1915 175.347C86.1244 175.303 86.0665 175.246 86.0212 175.18C85.976 175.114 85.9442 175.039 85.9277 174.961C85.9113 174.882 85.9104 174.801 85.9252 174.722C85.9401 174.643 85.9703 174.568 86.0141 174.501C86.058 174.434 86.1147 174.376 86.1809 174.331C86.1809 174.331 87.5047 173.429 87.7624 173.247Z" fill="#ED1B23"/>
</g>
<defs>
<clipPath id="clip0_463_17352">
<rect width="200" height="181.071" fill="white" transform="translate(0 9)"/>
</clipPath>
</defs>
</svg>
