<svg width="200" height="200" viewBox="0 0 200 200" fill="none" xmlns="http://www.w3.org/2000/svg">
<g clip-path="url(#clip0_463_17318)">
<path d="M161.539 106.641V104.885L167.25 97.3129L181 106.641H161.539ZM200 73.9162H180.708L187.633 64.7408L183.602 59.6569C173.828 47.2662 161.341 37.2545 147.091 30.3829C132.842 23.5113 117.204 19.9606 101.367 20.0009C85.5294 19.9606 69.8915 23.5113 55.6417 30.3829C41.3918 37.2545 28.9052 47.2662 19.131 59.6569L15.1006 64.7408L22.0329 73.9239H0V88.7329H12.5365V121.534H29.587V89.5038L54.4219 122.412H43.3902L60.9781 143.267H74.3667L101.367 179.037L128.359 143.267H141.755L160.103 121.534H200V100.58L182.274 88.5497H200V73.9162Z" fill="white"/>
<path d="M101.602 118.601H112.994V76.8526H101.602V118.601Z" fill="#C00C3F"/>
<path d="M147.531 99.3614L130.557 76.8503H117.852L121.299 81.4227V118.605H132.353V96.0867L149.327 118.605H158.585V76.8503H147.531V99.3614Z" fill="#C00C3F"/>
<path d="M83.1435 76.853V102.387L78.8137 108.12L74.4839 102.387V76.853H63.644V102.387L59.3219 108.12L54.9921 102.387V76.853H44.1445V103.906L55.2377 118.601H63.3983L69.0639 111.089L74.7372 118.601H82.8901L93.991 103.906V76.853H83.1435Z" fill="#C00C3F"/>
<path d="M101.367 155.9V174.144L133.25 131.907H119.477L101.367 155.9Z" fill="#231F20"/>
<path d="M101.367 174.146V155.901L83.2568 131.902H69.4844L101.367 174.146Z" fill="#C00C3F"/>
<path d="M99.4024 63.4819H90.0058V47.7645H85.4688V67.291H99.4024V63.4819Z" fill="#6D6E71"/>
<path d="M109.619 67.5801C112.674 67.5801 115.645 66.8091 117.265 65.6793V56.1985H109.396V59.8473H113.089V63.2672C112.029 63.607 110.923 63.7796 109.81 63.7786C105.734 63.7786 104.368 61.7176 104.368 57.5268C104.368 53.5268 105.657 51.1757 109.749 51.1757C112.014 51.1757 113.311 51.8856 114.378 53.2367L117.203 50.6566C115.491 48.2139 112.474 47.4658 109.649 47.4658C103.3 47.4658 99.9609 50.9162 99.9609 57.4886C99.9609 64.0381 102.97 67.5801 109.619 67.5801Z" fill="#6D6E71"/>
<path d="M49.7188 125.345L62.355 140.329H140.384L153.02 125.345H49.7188Z" fill="#6D6E71"/>
<path d="M77.9866 134.971C78.5877 135.305 79.2634 135.484 79.9519 135.491C80.9576 135.491 81.3338 135.117 81.3338 134.636C81.3338 134.185 80.9653 133.956 80.7887 133.865C80.2206 133.575 79.5527 133.376 78.9385 133.124C78.0327 132.666 77.5721 132.239 77.5721 131.109C77.5721 129.773 78.5317 128.972 80.305 128.972C81.1285 128.95 81.9435 129.142 82.6695 129.529L82.1782 130.643C81.6088 130.317 80.9621 130.149 80.305 130.155C79.3838 130.155 79.0153 130.491 79.0153 130.987C79.0153 131.231 79.0921 131.422 79.2379 131.552C79.3756 131.671 79.531 131.769 79.6986 131.842C80.1745 132.063 80.8808 132.307 81.4643 132.582C82.1705 132.933 82.754 133.368 82.754 134.552C82.754 135.88 81.7099 136.712 79.9749 136.712C79.0964 136.709 78.2311 136.5 77.4492 136.101L77.9866 134.971Z" fill="white"/>
<path d="M88.2148 129.081H92.821V130.272H89.6581V132.142H92.7135V133.303H89.6581V135.409H92.9438V136.585H88.2148V129.081Z" fill="white"/>
<path d="M99.8257 132.924C99.8257 134.359 100.202 135.542 101.469 135.542C102.958 135.542 103.403 134.542 103.403 132.725C103.403 131.305 103.042 130.107 101.76 130.107C100.317 130.107 99.8257 131.13 99.8257 132.924ZM104.9 132.87C104.9 135.428 103.787 136.71 101.499 136.71C99.1424 136.71 98.3594 135.191 98.3594 132.794C98.3594 130.229 99.4495 128.97 101.745 128.97C104.071 128.97 104.9 130.458 104.9 132.87Z" fill="white"/>
<path d="M110.41 129.081H111.846V133.707C111.846 134.86 112.207 135.555 113.151 135.555C114.264 135.555 114.663 135.005 114.663 133.509V129.081H116.099V133.608C116.099 135.776 115.039 136.715 113.166 136.715C111.308 136.715 110.41 135.791 110.41 133.524V129.081Z" fill="white"/>
<path d="M121.895 129.081H123.338V135.409H126.263V136.585H121.895V129.081Z" fill="white"/>
<path d="M101.367 33.8826V22.9285C85.9754 22.891 70.7778 26.3435 56.9297 33.0233C43.0816 39.7031 30.9475 49.4345 21.4497 61.4777L18.8242 64.783L22.8393 70.1035H36.6117L32.7809 65.0349C41.2773 55.2312 51.8059 47.3711 63.6446 41.9939C75.4832 36.6166 88.3516 33.8496 101.367 33.8826Z" fill="#C00C3F"/>
<path d="M183.914 64.7849L181.288 61.4796C171.788 49.4372 159.652 39.7064 145.803 33.0267C131.954 26.347 116.756 22.8941 101.363 22.9305V33.8845C127.903 33.8845 152.668 45.1821 169.949 65.0292L166.126 70.1055H179.899L183.914 64.7849Z" fill="#231F20"/>
<path d="M2.94531 85.7977H15.4895V118.606H26.6364V85.7977H39.1729V76.8512H2.94531V85.7977Z" fill="#C00C3F"/>
<path d="M197.05 85.6125V76.8493H165.874V92.8338L185.911 106.421V109.574H165.152V118.604H197.05V102.124L176.883 88.4446V85.6125H197.05Z" fill="#C00C3F"/>
</g>
<defs>
<clipPath id="clip0_463_17318">
<rect width="200" height="159.036" fill="white" transform="translate(0 20)"/>
</clipPath>
</defs>
</svg>
