<svg width="200" height="200" viewBox="0 0 200 200" fill="none" xmlns="http://www.w3.org/2000/svg">
<g clip-path="url(#clip0_463_17052)">
<path d="M96.41 25C59.2315 25 28.6186 52.7994 24.1208 88.7089C23.412 91.7821 22.9668 94.815 22.6592 97.8161H19.1172C19.1172 140.443 53.7171 174.999 96.41 174.999C139.103 174.999 173.713 140.443 173.713 97.8161H169.339C169.339 100.974 169.068 104.064 168.678 107.115C167.948 103.992 166.749 100.881 164.965 97.8161H169.339C169.339 57.5967 136.685 25 96.41 25Z" fill="#042445"/>
<path d="M96.4123 170.631C136.687 170.631 169.337 138.033 169.337 97.8203H164.967C164.967 135.618 134.269 166.261 96.4123 166.261C58.5556 166.261 27.8579 135.618 27.8579 97.8203H23.4883C23.4883 138.033 56.1376 170.631 96.4123 170.631Z" fill="#D01031"/>
<path d="M96.4138 29.3721C78.2321 29.3721 60.795 36.5835 47.9385 49.4201C35.0821 62.2566 27.8594 79.6666 27.8594 97.8202H32.2366C32.2366 80.8257 38.998 64.5273 51.0336 52.5104C63.0691 40.4935 79.3928 33.7424 96.4136 33.7423C104.842 33.7422 113.187 35.3996 120.973 38.6198C128.76 41.84 135.835 46.5599 141.794 52.5101C147.754 58.4603 152.481 65.5242 155.706 73.2985C158.932 81.0729 160.592 89.4053 160.592 97.8202H164.969C164.969 88.8314 163.195 79.9307 159.75 71.6262C156.305 63.3217 151.255 55.776 144.889 49.42C138.523 43.064 130.966 38.0221 122.649 34.5823C114.331 31.1425 105.417 29.372 96.4138 29.3721Z" fill="#62B1E3"/>
<path d="M140.169 97.8205C140.169 109.407 135.559 120.52 127.353 128.713C119.148 136.906 108.018 141.509 96.4133 141.509C84.8085 141.509 73.679 136.906 65.4731 128.713C57.2673 120.52 52.6573 109.407 52.6573 97.8205C52.6573 86.2337 57.2673 75.1215 65.4731 66.9284C73.6789 58.7353 84.8084 54.1325 96.4132 54.1325C108.018 54.1325 119.147 58.7353 127.353 66.9284C135.559 75.1215 140.169 86.2337 140.169 97.8205ZM51.1133 62.022L57.6825 67.7521L61.8339 63.0037L60.6031 61.9275L57.7335 65.1999L52.4025 60.5459L51.1133 62.022ZM65.0893 60.2841C62.8025 62.1893 60.9891 61.4403 59.2703 59.3825C57.5587 57.3319 57.1363 55.3903 59.4159 53.4925C61.7465 51.5509 63.5527 52.3654 65.2495 54.3941C66.9829 56.4738 67.4124 58.3499 65.0895 60.2841M60.4865 54.7795C59.0517 55.972 59.8091 56.9683 60.7851 58.1318C61.8411 59.4043 62.6569 60.1533 64.0187 59.0189C65.2567 57.9791 65.0893 57.2446 63.7567 55.6449C62.5547 54.2052 61.7901 53.6888 60.4865 54.7795Z" fill="white"/>
<path d="M69.001 49.0057L72.5696 55.0848L70.829 56.11L67.2604 50.0235L65.0318 51.3255L64.1942 49.8927L70.3994 46.2643L71.2368 47.6967L69.001 49.0057ZM77.2308 45.2244L79.7652 51.8053L77.8862 52.5324L75.3444 45.9516L72.941 46.875L72.3366 45.3262L79.0514 42.7448L79.6486 44.2936L77.2308 45.2244ZM83.4796 50.5545L81.7024 42.0249L87.9584 40.7305L88.2936 42.3594L83.9748 43.2538L84.3534 45.0716L88.0896 44.3008L88.4246 45.9007L84.6886 46.6787L85.0746 48.5476L89.3932 47.653L89.7282 49.2601L83.4796 50.5545ZM102.299 46.4315C102.226 48.133 100.624 49.1221 98.628 49.0348C97.3972 48.9839 96.2392 48.5402 95.7148 47.8712C95.1032 47.0859 94.8264 45.7771 94.9064 44.4609C94.9502 43.3774 95.1686 42.1921 95.6712 41.5377C96.5378 40.3961 97.4628 40.1343 98.934 40.1998C100.704 40.2725 102.27 41.2831 102.393 43.3265L100.405 43.2392C100.361 42.4539 99.8588 41.9231 98.8756 41.8794C98.162 41.8504 97.623 42.0249 97.4118 42.4175C97.0575 43.0696 96.8699 43.799 96.8656 44.5408C96.822 45.4861 96.9966 46.3879 97.3536 46.846C97.5794 47.1296 98.1036 47.3333 98.6864 47.3405C99.6404 47.3696 100.223 46.9842 100.252 46.3224L100.281 45.6824L98.526 45.6098L98.5914 44.1191L102.386 44.2718L102.299 46.4315ZM103.945 49.4855L105.897 49.8346L107.411 41.2539L105.459 40.9051L103.945 49.4855ZM113.507 51.9361L113.376 50.0237L110.376 49.0638L109.203 50.5618L107.215 49.9218L113.194 42.6867L114.818 43.2103L115.473 52.5617L113.507 51.9361ZM113.114 45.7188L111.446 47.7257L113.303 48.3147L113.114 45.7188ZM121.526 55.7901L120.688 49.3182L118.161 53.9721L116.42 53.0268L120.572 45.3697L121.919 46.097L122.764 52.5833L125.291 47.9222L127.046 48.8675L122.888 56.5246L121.526 55.7901ZM132.042 54.6339L127.651 60.1531L126.07 58.9023L130.462 53.3833L128.437 51.7762L129.471 50.4746L135.108 54.9466L134.074 56.241L132.042 54.6339ZM132.304 64.8069C131.496 63.8835 131.154 62.7854 131.234 61.2948L133.011 61.2584C132.902 62.3926 133.069 63.0181 133.637 63.6581C134.278 64.4069 134.904 64.5814 135.385 64.1743C135.662 63.9416 135.778 63.4035 135.341 62.7637L134.795 61.8982C134.089 60.8075 133.863 59.3168 135.021 58.3134C136.266 57.2445 137.934 57.4771 139.245 58.9823C139.988 59.868 140.375 60.9981 140.33 62.1528L138.604 62.2109C138.662 60.9749 138.269 60.4656 137.934 60.0802C137.395 59.4552 136.856 59.3751 136.339 59.8113C135.982 60.124 136.033 60.5241 136.383 61.0913C136.485 61.2656 136.805 61.7383 136.893 61.8621C137.803 63.1926 137.847 64.7562 136.732 65.7087C135.48 66.7994 133.674 66.3922 132.304 64.8069ZM186.162 96.3005L200 82.4844H151.531L154.073 73.0385H139.026L136.492 82.4844H41.9523L51.4199 73.0311H19.3895C16.9383 73.0349 14.5565 73.8446 12.6122 75.3351C10.6679 76.8256 9.26934 78.9138 8.63254 81.2773L0.315558 112.276C-0.0493551 113.611 -0.0985232 115.012 0.171937 116.368C0.442397 117.725 1.02508 119 1.87395 120.093C3.59275 122.34 6.20735 123.62 9.03314 123.62H175.376C177.827 123.619 180.209 122.812 182.154 121.322C184.098 119.833 185.497 117.745 186.133 115.381L191.1 96.875H185.586L186.162 96.3005Z" fill="white"/>
<path d="M44.2334 121.438L54.1016 84.6656H55.4854L45.617 121.438H44.2334ZM74.0277 117.381H66.4536C65.9005 117.386 65.3538 117.263 64.8565 117.022C64.3592 116.78 63.925 116.426 63.5881 115.988C63.2512 115.551 63.0209 115.04 62.9153 114.498C62.8096 113.956 62.8317 113.397 62.9796 112.865L68.4564 92.4609C68.7447 91.3888 69.3791 90.4415 70.2613 89.7658C71.1434 89.0901 72.2241 88.7237 73.336 88.7233H90.4945L81.7113 121.438H80.3273L88.7465 90.054H73.336C72.5182 90.0555 71.7237 90.3263 71.0758 90.8246C70.428 91.3228 69.9629 92.0207 69.7528 92.8098L64.276 113.214C64.1834 113.548 64.1698 113.898 64.2361 114.238C64.3024 114.577 64.4468 114.897 64.658 115.171C64.8691 115.445 65.1413 115.667 65.4529 115.818C65.7645 115.969 66.1071 116.046 66.4536 116.043H75.3605L74.0277 117.381ZM98.1561 121.438L105.84 92.81C106.051 92.0209 106.518 91.3238 107.167 90.8268C107.817 90.3297 108.612 90.0606 109.43 90.0612H124.841L116.414 121.438H117.806L126.582 88.7233H109.43C108.318 88.7245 107.237 89.0912 106.353 89.7666C105.47 90.442 104.834 91.3888 104.543 92.4609L96.7725 121.438H98.1561ZM149.508 117.381H138.642C138.091 117.384 137.547 117.259 137.052 117.015C136.558 116.772 136.127 116.416 135.794 115.978C135.455 115.543 135.222 115.035 135.113 114.495C135.005 113.955 135.023 113.397 135.168 112.865L145.277 75.2197H146.661L143.034 88.7233H158.78L157.44 90.0612H142.677L136.464 113.214C136.372 113.548 136.358 113.898 136.425 114.238C136.491 114.577 136.635 114.897 136.846 115.171C137.058 115.445 137.33 115.667 137.641 115.818C137.953 115.969 138.296 116.046 138.642 116.043H149.865L149.508 117.381ZM155.779 116.043H174.897C175.714 116.042 176.507 115.772 177.155 115.275C177.803 114.778 178.268 114.082 178.48 113.294L181.051 103.717H163.652L166.667 92.4609C166.957 91.3875 167.592 90.4391 168.475 89.7622C169.358 89.0853 170.44 88.7176 171.554 88.7159H190.657L189.317 90.0538H171.554C170.736 90.0557 169.942 90.3258 169.293 90.8225C168.645 91.3192 168.177 92.015 167.963 92.8028L165.392 102.379H182.799L179.776 113.636C179.488 114.709 178.854 115.657 177.972 116.334C177.09 117.011 176.009 117.379 174.897 117.381H155.422L155.779 116.043ZM19.8791 79.2774C18.7672 79.2778 17.6865 79.6442 16.8044 80.3199C15.9222 80.9956 15.2879 81.9429 14.9995 83.015L6.98829 112.865C6.84362 113.397 6.82423 113.954 6.93163 114.494C7.03902 115.034 7.27029 115.542 7.60728 115.978C7.94084 116.416 8.37162 116.77 8.86574 117.014C9.35986 117.257 9.90384 117.383 10.4549 117.381H30.2644L35.6102 97.4641H23.8703L22.5301 98.7947H33.8696L29.2376 116.05H10.4549C10.1095 116.052 9.76853 115.973 9.45886 115.82C9.14918 115.668 8.87929 115.445 8.67048 115.171C8.45698 114.898 8.31025 114.579 8.24199 114.239C8.17373 113.899 8.18581 113.549 8.27728 113.214L16.2885 83.3643C16.5002 82.5752 16.967 81.8781 17.6162 81.381C18.2655 80.884 19.0609 80.6149 19.8791 80.6155H40.7446L42.0774 79.2776L19.8791 79.2774Z" fill="white"/>
<path d="M86.7571 68.9873C83.6691 68.9873 82.0813 70.878 82.0813 73.0158C82.0813 75.1465 83.7493 77.0448 86.7573 77.0448C89.7067 77.0448 91.4399 75.1465 91.4399 73.0158C91.4399 70.878 89.8525 68.9873 86.7571 68.9873ZM92.6415 69.3002V70.187H95.5547V76.7171H97.8345V70.1872H100.755V69.3002H92.6415ZM101.775 69.3002V70.187H104.688V76.7171H106.967V70.1872H109.881V69.3002H101.775ZM74.5291 69.3076V75.7428C74.5291 76.4118 74.8783 76.7245 75.4903 76.7245H81.0619V75.8303H77.2381C76.8593 75.8303 76.7867 75.6192 76.7867 75.3213V69.3076H74.5291ZM112.305 69.3076C111.767 69.3076 111.25 69.4162 111.25 70.3835V75.6485C111.25 76.6302 111.738 76.7319 112.379 76.7319H118.292V75.8376H114.032C113.522 75.8376 113.508 75.612 113.508 75.3139V73.2195H118.22V72.3399L113.508 72.3395V70.7252C113.508 70.2525 113.682 70.1944 114.09 70.1944H118.292V69.3076H112.305ZM86.7571 69.8166C88.1625 69.8166 89.2333 71.2706 89.2333 73.0158C89.2333 74.7683 88.1627 76.1937 86.7573 76.1937C85.3515 76.1937 84.2809 74.7683 84.2809 73.0158C84.2809 71.2706 85.3513 69.8166 86.7571 69.8166ZM19.3972 75.219C17.426 75.2189 15.5098 75.868 13.9456 77.0656C12.3814 78.2633 11.2565 79.9427 10.7453 81.8435L2.42808 112.835C2.15664 113.848 2.12209 114.909 2.32712 115.938C2.53215 116.966 2.97125 117.933 3.61047 118.764C4.2497 119.596 5.07191 120.27 6.01354 120.733C6.95517 121.197 7.99098 121.438 9.04087 121.438H33.7374L41.0714 94.1112H27.212L23.869 97.456H35.6088L30.263 117.38H10.4539C9.90146 117.385 9.35559 117.261 8.85924 117.019C8.36289 116.777 7.92962 116.423 7.59354 115.985C7.25746 115.547 7.02776 115.038 6.92252 114.496C6.81728 113.955 6.83938 113.396 6.98707 112.865L14.9983 83.0143C15.2867 81.9422 15.9212 80.995 16.8034 80.3193C17.6857 79.6437 18.7664 79.2774 19.8782 79.2771H42.0762L46.1398 75.2194L19.3972 75.219ZM140.709 75.2194L130.608 112.843C130.338 113.855 130.304 114.916 130.51 115.943C130.716 116.97 131.155 117.936 131.794 118.767C132.433 119.597 133.255 120.27 134.196 120.733C135.137 121.196 136.172 121.437 137.221 121.438H148.415L149.5 117.38H138.634C138.083 117.382 137.539 117.257 137.045 117.013C136.551 116.77 136.12 116.415 135.786 115.977C135.449 115.541 135.218 115.034 135.11 114.494C135.003 113.954 135.023 113.396 135.167 112.865L145.268 75.2194H140.709ZM146.652 75.2194L143.025 88.7226H158.764L162.828 84.6653H148.677L151.211 75.2194H146.652ZM19.8776 80.6076C19.0596 80.607 18.2642 80.876 17.6149 81.373C16.9657 81.8699 16.4989 82.567 16.2871 83.3559L16.2875 83.3564L8.27627 113.207C8.18481 113.541 8.1727 113.891 8.24093 114.231C8.30916 114.57 8.45583 114.889 8.66927 115.162C8.87808 115.437 9.14797 115.66 9.45764 115.812C9.76732 115.965 10.1083 116.044 10.4537 116.042H29.2364L33.8684 98.7867H22.529L19.1786 102.132H28.4062L25.7624 111.985H13.1703L20.5042 84.6653H36.6794L40.7434 80.6076H19.8776ZM49.5412 84.6579L39.6728 121.431H44.2392L54.1076 84.6579H49.5412ZM55.4912 84.6579L45.6228 121.431H50.1822L60.0506 84.6579H55.4912ZM72.8541 84.6653C70.8841 84.6667 68.9695 85.3165 67.4067 86.5141C65.8439 87.7116 64.7201 89.3902 64.2092 91.2898L58.4268 112.835C58.1555 113.848 58.1208 114.908 58.3254 115.936C58.5301 116.963 58.9685 117.93 59.6069 118.762C60.2453 119.593 61.0666 120.267 62.0073 120.731C62.9479 121.195 63.9829 121.437 65.0322 121.438H69.9626L74.0265 117.38H66.4522C65.8992 117.386 65.3524 117.263 64.8552 117.021C64.3579 116.78 63.9237 116.426 63.5868 115.988C63.2499 115.55 63.0195 115.04 62.9139 114.498C62.8083 113.956 62.8303 113.397 62.9782 112.865L68.4548 92.4602C68.7431 91.388 69.3776 90.4408 70.2598 89.7651C71.142 89.0894 72.2227 88.723 73.3345 88.7226H90.4931L81.7099 121.438H86.2763L96.1447 84.6653H72.8541ZM108.941 84.6653C106.971 84.6667 105.056 85.3165 103.494 86.5141C101.931 87.7116 100.807 89.3902 100.296 91.2898L92.2047 121.438H96.7637L104.542 92.4606V92.46C104.831 91.3879 105.465 90.4407 106.347 89.765C107.229 89.0894 108.31 88.7229 109.421 88.7224H126.58L117.797 121.438H122.363L132.232 84.6651L108.941 84.6653ZM171.072 84.6653C169.102 84.6668 167.187 85.3166 165.624 86.5141C164.062 87.7117 162.938 89.3902 162.427 91.2898L158.196 107.047H175.602L174.277 111.992H156.87L155.785 116.05H174.896C175.715 116.05 176.511 115.779 177.16 115.281C177.809 114.782 178.275 114.084 178.486 113.293L181.057 103.724H163.651L166.673 92.4678C166.961 91.3948 167.595 90.4465 168.477 89.7696C169.359 89.0926 170.44 88.7246 171.553 88.7226H190.663L194.727 84.6653H171.072ZM109.421 90.0533C108.605 90.0544 107.811 90.3242 107.163 90.8212C106.515 91.3181 106.05 92.0144 105.838 92.8023L98.1547 121.43H102.714L110.048 94.1112H119.188L111.854 121.431H116.413L124.832 90.0535L109.421 90.0533ZM73.3349 90.0607C72.5175 90.0625 71.7232 90.3325 71.0744 90.8291C70.4257 91.3257 69.9583 92.0215 69.7444 92.8092C68.3824 97.9139 64.2674 113.214 64.2674 113.214C64.1766 113.548 64.1642 113.898 64.2311 114.237C64.2981 114.576 64.4425 114.896 64.6533 115.17C64.864 115.444 65.1353 115.667 65.4461 115.819C65.7569 115.972 66.0988 116.051 66.4452 116.05H75.3595L77.8865 113.526L75.7599 121.438H80.3263L88.7455 90.0609L73.3349 90.0607ZM142.676 90.0607L136.463 113.214C136.371 113.548 136.357 113.898 136.424 114.238C136.49 114.578 136.634 114.898 136.845 115.173C137.057 115.448 137.329 115.67 137.64 115.822C137.952 115.974 138.294 116.052 138.641 116.05H149.864L150.956 111.992H141.357L146.15 94.1186H153.374L157.438 90.0609L142.676 90.0607ZM171.553 90.0607C170.736 90.0617 169.942 90.3315 169.294 90.8284C168.647 91.3253 168.181 92.0215 167.97 92.8092L165.398 102.386H182.798L179.775 113.642C179.487 114.715 178.852 115.662 177.97 116.338C177.088 117.013 176.008 117.38 174.896 117.38H155.421L154.336 121.438H175.376C177.347 121.438 179.263 120.789 180.828 119.591C182.392 118.394 183.517 116.714 184.028 114.813L188.252 99.0559H170.853L172.179 94.1186H185.259L189.323 90.0609L171.553 90.0607ZM73.9607 94.1184H83.0939L78.2943 111.992H69.1616L73.9607 94.1184Z" fill="#D01031"/>
<path d="M47.5 134.673L54.193 129.088L58.286 133.982L57.0114 135.043L54.1856 131.662L52.7508 132.855L55.198 135.778L53.938 136.832L51.4982 133.909L50.027 135.138L52.853 138.512L51.593 139.566L47.5 134.673ZM55.096 143.115C54.2 142.279 53.7486 141.217 53.683 139.726L55.453 139.515C55.453 140.65 55.686 141.261 56.3122 141.835C57.0186 142.526 57.6596 142.635 58.1038 142.184C58.3514 141.923 58.4098 141.377 57.9218 140.781L57.2882 139.974C56.4724 138.963 56.1082 137.501 57.157 136.389C58.286 135.196 59.9756 135.269 61.425 136.636C62.2527 137.444 62.7509 138.529 62.8232 139.683L61.1044 139.915C61.0462 138.679 60.602 138.207 60.2304 137.858C59.626 137.283 59.087 137.261 58.6136 137.749C58.2932 138.09 58.3806 138.483 58.7812 139.014C58.9719 139.259 59.1686 139.499 59.3712 139.734C60.4052 140.97 60.6092 142.519 59.5968 143.573C58.4534 144.78 56.6182 144.555 55.096 143.115ZM67.0546 143.253L63.1146 149.1L61.4394 147.973L65.3794 142.126L63.2384 140.686L64.1704 139.312L70.1354 143.326L69.2032 144.7L67.0546 143.253ZM65.3868 151.317L67.4552 152.459L68.5476 150.467L66.4792 149.325L65.3868 151.317ZM75.401 147.442L74.6579 149.405L76.8355 148.91L74.556 154.953L76.3695 155.637L79.4865 147.383L78.0081 146.831L75.401 147.442ZM83.9947 148.62C85.8809 149.078 86.8059 150.67 86.4417 152.154C86.2103 152.913 85.815 153.613 85.2837 154.204L82.4435 157.367L80.2875 156.844L82.8585 154.088C82.4404 154.093 82.0267 154.003 81.6483 153.825C81.27 153.647 80.9369 153.386 80.6741 153.062C80.4112 152.737 80.2255 152.357 80.1309 151.95C80.0362 151.544 80.0351 151.121 80.1275 150.714C80.5061 149.172 81.9991 148.132 83.9947 148.62ZM82.9969 152.532C83.9219 152.757 84.3589 152.328 84.5117 151.688C84.6647 151.07 84.3589 150.452 83.5941 150.263C82.7785 150.067 82.2321 150.459 82.0647 151.158C81.8971 151.834 82.2395 152.35 82.9969 152.532ZM89.9595 158.814C87.7891 158.589 86.7841 157.237 86.9443 155.688C86.9927 155.285 87.1488 154.904 87.3962 154.582C87.6435 154.261 87.973 154.013 88.3499 153.863C88.0579 153.656 87.8271 153.375 87.6823 153.049C87.5374 152.722 87.4837 152.363 87.5269 152.008C87.6871 150.474 89.0127 149.601 90.8699 149.798C92.8727 150.001 93.8849 151.187 93.7393 152.634C93.7159 152.993 93.5932 153.339 93.3849 153.633C93.1766 153.927 92.8909 154.157 92.5593 154.299C92.886 154.528 93.1486 154.836 93.322 155.195C93.4954 155.554 93.5738 155.952 93.5499 156.349C93.3971 157.826 92.1735 159.047 89.9595 158.814ZM90.3309 154.96C89.6099 154.881 89.0273 155.368 88.9689 155.899C88.9107 156.459 89.2311 157.004 90.1197 157.091C91.0447 157.193 91.4597 156.72 91.5181 156.16C91.5763 155.622 91.1247 155.04 90.3309 154.96ZM90.6949 151.434C89.9813 151.361 89.5517 151.703 89.4933 152.248C89.4425 152.75 89.8647 153.194 90.5057 153.266C91.2195 153.339 91.6929 152.975 91.7583 152.459C91.8239 151.928 91.4379 151.514 90.6951 151.434M95.0939 158.974L95.0503 157.557L98.4879 153.862C98.8811 153.419 99.0923 152.975 99.0851 152.619C99.0703 152.132 98.7063 151.732 97.9925 151.754C97.1551 151.776 96.7909 152.408 96.7471 153.157L94.8171 153.215C94.7953 151.288 96.3321 150.125 97.9343 150.081C99.5875 150.038 101.044 150.925 101.088 152.575C101.11 153.303 100.855 154.037 100.112 154.844L97.8833 157.215L101.292 157.12L101.342 158.8L95.0939 158.974ZM111.517 157.033L107.672 157.964L105.61 149.5L109.237 148.62C111.124 148.162 112.522 148.881 112.893 150.401C112.98 151.016 112.854 151.642 112.537 152.176C113.097 152.517 113.687 153.063 113.855 153.754C114.248 155.353 113.338 156.589 111.517 157.033ZM109.813 150.19L107.912 150.656L108.342 152.415L110.308 151.936C110.891 151.797 111.065 151.245 110.971 150.852C110.94 150.732 110.885 150.619 110.809 150.52C110.734 150.422 110.639 150.339 110.532 150.278C110.424 150.216 110.304 150.176 110.181 150.161C110.058 150.146 109.932 150.156 109.813 150.19ZM110.701 153.506L108.72 153.986L109.194 155.913L111.226 155.419C111.83 155.273 112.005 154.735 111.888 154.255C111.772 153.768 111.342 153.353 110.701 153.506ZM122.492 150.089C123.25 151.885 122.106 153.39 120.184 154.197C118.312 154.99 116.397 154.772 115.639 152.975L113.345 147.551L115.202 146.773L117.518 152.248C117.839 152.99 118.669 153.026 119.535 152.655C120.417 152.285 120.97 151.667 120.657 150.925L118.341 145.449L120.198 144.664L122.492 150.089ZM128.319 150.147C127.263 150.772 126.119 150.903 124.663 150.554L124.954 148.794C126.054 149.114 126.702 149.063 127.43 148.627C128.29 148.14 128.581 147.551 128.268 147.005C128.086 146.685 127.576 146.482 126.869 146.787L125.915 147.165C124.714 147.66 123.199 147.602 122.427 146.286C121.604 144.868 122.143 143.275 123.862 142.264C124.87 141.696 126.053 141.522 127.183 141.777L126.928 143.486C125.719 143.202 125.143 143.493 124.706 143.747C123.985 144.169 123.803 144.678 124.146 145.268C124.386 145.675 124.786 145.704 125.413 145.464C125.699 145.349 125.984 145.228 126.265 145.1C127.743 144.453 129.287 144.7 130.023 145.965C130.868 147.391 130.132 149.092 128.319 150.147ZM137.539 143.1L135.849 142.192L133.439 144.22L134.08 146.009L132.485 147.354L129.528 138.447L130.831 137.349L139.119 141.777L137.539 143.1ZM132.055 140.126L132.871 142.599L134.364 141.341L132.055 140.126ZM144.254 135.952L137.743 135.407L141.763 138.854L140.474 140.352L133.854 134.687L134.844 133.531L141.377 134.069L137.342 130.622L138.639 129.11L145.266 134.774L144.254 135.952Z" fill="white"/>
</g>
<defs>
<clipPath id="clip0_463_17052">
<rect width="200" height="150" fill="white" transform="translate(0 25)"/>
</clipPath>
</defs>
</svg>
