<svg width="200" height="200" viewBox="0 0 200 200" fill="none" xmlns="http://www.w3.org/2000/svg">
<g clip-path="url(#clip0_463_17097)">
<mask id="mask0_463_17097" style="mask-type:luminance" maskUnits="userSpaceOnUse" x="0" y="31" width="200" height="139">
<path d="M0 31.6959H199.8V169.076H0V31.6959Z" fill="white"/>
</mask>
<g mask="url(#mask0_463_17097)">
<path d="M151.165 100.385C151.165 126.175 130.258 147.083 104.468 147.083C78.678 147.083 57.7695 126.175 57.7695 100.385C57.7695 74.5935 78.678 53.6856 104.468 53.6856C130.258 53.6856 151.165 74.5935 151.165 100.385Z" fill="white"/>
<path d="M126.368 81.6924C126.368 81.6924 128.914 80.8466 130.061 81.1253L130.407 80.2197C129.421 79.7401 126.948 80.317 126.948 80.317C126.948 80.317 125.771 78.1689 124.927 77.9803L124.512 79.0051C125.689 79.6814 126.368 81.6924 126.368 81.6924Z" fill="#C7A079"/>
<path d="M116.739 141.997C116.739 141.997 115.702 140.563 115.051 140.43L114.746 141.187C115.659 141.757 116.24 142.954 116.24 142.954C116.24 142.954 118.529 142.481 119.438 142.749L119.764 142.009C118.989 141.59 116.739 141.997 116.739 141.997Z" fill="#C7A079"/>
<path d="M121.388 130.623C121.388 130.623 119.39 128.665 118.555 128.708L118.441 129.754C119.741 130.152 121.093 131.992 121.093 131.992C121.093 131.992 123.464 130.331 124.64 130.35L124.812 129.312C123.741 129.066 121.388 130.623 121.388 130.623Z" fill="#C7A079"/>
<path d="M128.102 78.3584C128.102 78.3584 130.637 77.9584 131.803 78.1132L132.329 77.0621C131.299 76.6909 128.671 77.1055 128.671 77.1055C128.671 77.1055 127.549 75.0509 126.694 74.9512L126.277 75.969C127.514 76.5226 128.102 78.3584 128.102 78.3584Z" fill="#C7A079"/>
<path d="M130.147 75.0646C130.147 75.0646 132.148 74.9649 133.292 75.1895L133.888 74.1661C132.893 73.7311 130.829 73.7948 130.829 73.7948C130.829 73.7948 129.496 72.1309 128.719 71.8172L128.242 72.7303C129.433 73.3491 130.147 75.0646 130.147 75.0646Z" fill="#C7A079"/>
<path d="M131.969 72.071C131.969 72.071 133.883 71.8692 135.003 72.1719L135.685 71.1123C134.729 70.6222 132.735 70.848 132.735 70.848C132.735 70.848 131.672 69.0256 130.846 68.82L130.348 69.655C131.485 70.3507 131.969 72.071 131.969 72.071Z" fill="#C7A079"/>
<path d="M133.876 69.2569C133.876 69.2569 135.563 69.395 136.654 69.7676L137.271 68.9492C136.35 68.3896 134.506 68.2933 134.506 68.2933C134.506 68.2933 133.557 66.5262 132.749 66.2655L132.23 67.0295C133.318 67.7912 133.876 69.2569 133.876 69.2569Z" fill="#C7A079"/>
<path d="M115.5 144.212C115.5 144.212 114.449 142.8 113.847 142.665L113.566 143.419C114.411 143.991 115.038 145.174 115.038 145.174C115.038 145.174 117.078 144.712 117.924 144.983L118.223 144.24C117.509 143.823 115.5 144.212 115.5 144.212Z" fill="#C7A079"/>
<path d="M117.968 139.548C117.968 139.548 116.536 137.736 115.78 137.631L115.5 138.582C116.6 139.194 117.486 140.763 117.486 140.763C117.486 140.763 119.953 139.87 121.017 140.118L121.324 139.179C120.4 138.747 117.968 139.548 117.968 139.548Z" fill="#C7A079"/>
<path d="M119.29 137.007C119.29 137.007 117.509 134.92 116.678 134.896L116.484 135.935C117.736 136.461 118.903 138.358 118.903 138.358C118.903 138.358 121.412 136.853 122.582 136.984L122.815 135.956C121.775 135.606 119.29 137.007 119.29 137.007Z" fill="#C7A079"/>
<path d="M120.43 133.735C120.43 133.735 118.549 131.698 117.718 131.704L117.559 132.746C118.83 133.213 120.088 135.09 120.088 135.09C120.088 135.09 122.537 133.516 123.71 133.598L123.913 132.56C122.86 132.258 120.43 133.735 120.43 133.735Z" fill="#C7A079"/>
<path d="M83.8432 66.7314L84.7069 65.9938C83.9833 65.5806 83.2168 63.1872 83.2168 63.1872C83.2168 63.1872 81.5425 63.1368 80.7779 62.9025L79.6758 63.6931L82.3145 64.0018C82.3145 64.0018 82.9289 66.2701 83.8432 66.7314Z" fill="#C7A079"/>
<path d="M86.8243 64.6191L87.7308 63.932C86.8123 63.4693 86.1936 61.1796 86.1936 61.1796C86.1936 61.1796 84.4733 61.0101 83.8317 60.6353L82.9414 61.3202C83.5258 61.7756 85.3238 61.9616 85.3238 61.9616C85.3238 61.9616 85.8747 64.2191 86.8243 64.6191Z" fill="#C7A079"/>
<path d="M80.9892 69.127C81.2437 68.8715 81.5067 68.6247 81.7778 68.3869C80.941 67.3417 80.6491 65.3653 80.6491 65.3653C80.6491 65.3653 78.6947 65.2812 77.7568 65.2249C77.4691 65.483 77.0625 65.9865 77.0625 65.9865L79.6345 66.288C79.6345 66.288 80.1506 68.1767 80.9892 69.127Z" fill="#C7A079"/>
<path d="M78.6131 71.7783C78.8466 71.5418 79.1187 71.2391 79.3957 70.9999C78.5565 69.9497 78.1457 67.8137 78.1457 67.8137C78.1457 67.8137 76.2668 67.7322 75.3379 67.6708C75.0414 67.9316 74.7891 68.1454 74.6406 68.4373L77.1617 68.7148C77.1617 68.7148 77.7695 70.8329 78.6131 71.7783Z" fill="#C7A079"/>
<path d="M89.7106 62.499L90.6778 61.8623C89.5484 61.6303 88.9801 59.1592 88.9801 59.1592C88.9801 59.1592 87.4646 59.1412 86.9583 58.8071C86.5689 59.0173 86.1603 59.1628 85.7695 59.4161C86.3444 59.6926 88.0403 59.8235 88.0403 59.8235C88.0403 59.8235 88.8457 62.1146 89.7106 62.499Z" fill="#C7A079"/>
<path d="M76.7859 73.7656C75.9959 72.9041 75.2998 70.6997 75.2998 70.6997C75.2998 70.6997 73.5248 70.7874 72.5863 70.7644L71.7617 71.6392C72.6928 71.793 74.3885 71.7101 74.3885 71.7101C74.3885 71.7101 74.9669 73.6238 76.0452 74.7305L76.7859 73.7656Z" fill="#C7A079"/>
<path d="M92.4784 60.2324C92.7251 60.051 93.3727 59.7016 93.3727 59.7016C92.3377 59.3002 92.2674 57.5006 92.2674 57.5006C92.2674 57.5006 89.9943 57.4632 89.4646 57.2146C89.1409 57.4284 88.7943 57.5437 88.4844 57.8068C88.9179 58.1745 91.2198 58.2778 91.2198 58.2778C91.2198 58.2778 91.4594 60.0174 92.4784 60.2324Z" fill="#C7A079"/>
<path d="M70.4135 73.8514C70.1474 74.213 69.9468 74.4424 69.6914 74.8017L72.1062 74.9181C72.1062 74.9181 72.6181 77.1385 73.4325 77.9277L74.1114 76.9233C73.4213 76.1112 72.9797 73.8418 72.9797 73.8418C72.9797 73.8418 71.2251 73.9151 70.4135 73.8514Z" fill="#C7A079"/>
<path d="M70.3849 77.221C70.3849 77.221 68.849 77.4336 68.0482 77.2402L67.3633 78.0859C67.9964 78.3155 69.6832 78.3189 69.6832 78.3189C69.6832 78.3189 70.5591 81.2252 71.2486 81.582L71.8752 80.4923C70.9897 79.7631 70.3849 77.221 70.3849 77.221Z" fill="#C7A079"/>
<path d="M65.9682 80.8749L65.3398 81.8623L67.6016 81.8601C67.6016 81.8601 68.1468 84.2387 69.1303 84.9932L69.7231 83.9432C69.0701 83.2475 68.3914 80.8183 68.3914 80.8183L65.9682 80.8749Z" fill="#C7A079"/>
<path d="M63.9757 84.7165L63.5078 85.7691L65.7172 85.6512C65.7172 85.6512 66.5959 87.8282 67.4141 88.5898C67.6335 88.2282 67.7422 87.7345 67.9392 87.3801C66.9727 86.443 66.3564 84.6048 66.3564 84.6048L63.9757 84.7165Z" fill="#C7A079"/>
<path d="M93.9522 56.5831C94.0583 57.5178 95.0111 58.4824 95.0111 58.4824L95.8219 57.9382C95.0905 57.3232 94.795 56.0245 94.795 56.0245L93.3238 55.8598C92.5856 55.8191 91.0195 56.3643 91.0195 56.3643C91.7536 56.3392 93.9522 56.5831 93.9522 56.5831Z" fill="#C7A079"/>
<path d="M178.332 104.508L178.227 105.078C178.147 105.494 173.539 106.314 168.932 107.27C169.078 105.884 169.174 104.483 169.232 103.074C173.956 103.818 178.332 104.508 178.332 104.508ZM139.295 95.2998L137.602 109.213C137.464 110.066 137.165 111.131 136.439 111.34L131.835 111.825L133.528 97.9152C133.656 97.0479 133.967 95.9893 134.685 95.7815L139.295 95.2998ZM104.467 148.175C90.108 148.174 77.2375 141.834 68.4769 131.808C69.002 131.755 69.3936 131.711 69.5968 131.691C69.7091 131.681 69.772 131.598 69.7908 131.447C70.1962 128.123 74.8979 89.5859 74.9069 89.5102C74.9087 89.4285 74.812 89.3973 74.7398 89.4107C74.6701 89.4215 72.182 89.873 69.8563 90.3128C68.5352 90.5676 67.2311 91.0325 65.978 91.6619C65.9914 91.6079 66.0038 91.555 66.0159 91.5142C65.0463 90.5903 64.8693 88.5118 64.8693 88.5118L62.2064 88.895L61.8875 89.9212L64.0072 89.6137C64.0072 89.6137 64.1334 91.0517 64.9714 92.2135C61.378 94.329 58.3192 97.8215 56.7128 101.765C56.6997 101.304 56.6781 100.847 56.6781 100.383C56.6781 73.9871 78.0743 52.5963 104.467 52.5915C124.151 52.5915 141.049 64.4938 148.372 81.4922C140.931 82.2766 131.968 83.2245 131.968 83.2245C130.843 83.3424 129.741 83.5983 128.668 83.9478L128.796 83.5731C127.792 83.1622 125.353 83.9094 125.353 83.9094C125.353 83.9094 123.987 81.8021 123.14 81.6713L122.765 82.6996C123.972 83.2966 124.835 85.2838 124.835 85.2838C124.835 85.2838 125.849 84.8886 126.881 84.6531C125.678 85.2049 124.538 85.8852 123.481 86.6822C122.955 86.0934 122.243 85.4015 121.758 85.3596L121.43 86.3987C121.868 86.5825 122.282 86.9526 122.636 87.3504C119.146 90.302 116.66 94.5262 116.104 99.1082C116.104 99.1082 112.817 126.115 112.798 126.311C112.775 126.507 112.764 126.673 113.035 126.657C113.117 126.651 115.732 126.376 119.276 126.003L119.262 126.288C120.581 126.597 122.073 128.371 122.073 128.371C122.073 128.371 124.333 126.592 125.506 126.526L125.625 125.488C124.543 125.311 122.285 126.993 122.285 126.993C122.285 126.993 121.543 126.353 120.762 125.845C128.465 125.034 139.154 123.901 139.154 123.901C142.35 123.566 145.384 122.217 147.939 120.209C147.771 120.552 147.614 120.9 147.469 121.252C139.721 137.19 123.378 148.174 104.467 148.175ZM199.602 75.7783C191.132 76.6719 182.662 77.5646 174.192 78.4563C171.426 78.747 168.783 79.8005 166.462 81.3757C158.337 54.8455 133.659 35.551 104.464 35.551C75.7904 35.551 51.4815 54.1737 42.9288 79.9797C35.9151 80.6896 18.159 82.547 18.159 82.547C5.23693 83.9094 1.57678 93.9566 0.54981 99.8315C-0.337503 104.866 0.10286 108.419 0.155807 109.415C0.162201 109.584 0.227141 109.791 0.33823 109.826C0.491476 109.874 0.698069 109.795 0.964203 109.489C1.25012 109.162 6.0683 103.195 6.78019 102.407C7.49028 101.62 10.5688 97.9394 16.577 97.3098L36.935 95.1628C36.8937 95.5941 34.2627 118.595 34.2627 118.595C33.8066 121.625 31.8082 123.504 28.0789 124.172C28.0789 124.172 31.2759 96.3294 31.2789 96.2836C31.2921 96.2369 31.2789 96.1791 31.2028 96.1935C31.1216 96.2091 26.5936 96.9817 26.5936 96.9817C19.4573 98.5184 13.407 105.167 12.5252 112.435L10.9724 125.954C6.68109 126.392 3.87029 125.997 2.10846 125.862C1.51265 125.82 0.953407 125.745 0.475885 125.689C0.277683 125.665 0.125645 125.851 0.236134 126.016C0.961809 127.144 2.69666 130.21 4.93962 132.578C7.96839 135.79 12.3896 137.385 17.8757 137.385L31.5204 136.152C39.6731 135.292 44.553 133.612 47.5392 131.428C58.5402 151.562 79.9062 165.221 104.464 165.221C133.154 165.221 157.471 146.58 166.014 120.757C174.266 119.89 182.104 119.062 182.104 119.062C194.676 117.737 195.157 111.811 195.417 108.628C195.443 108.329 196.035 103.15 196.111 101.696C196.36 97.8419 193.535 94.3759 189.415 93.4653C187.744 93.094 180.953 91.913 176.599 91.1658C176.678 91.1054 176.767 91.0613 176.863 91.0361L189.106 89.7302C193.366 89.282 196.679 86.1548 198.212 81.1474L199.798 75.9646C199.798 75.9646 199.831 75.7496 199.602 75.7783Z" fill="#C7A079"/>
<path d="M116.383 85.1596C116.188 85.1788 90.2771 87.9061 90.2771 87.9061C82.3588 88.748 75.3906 95.7259 74.4031 103.8C74.4031 103.8 71.0765 131.15 71.0669 131.213C71.0603 131.275 71.1234 131.339 71.2111 131.327C71.2821 131.319 86.5606 129.737 88.3838 129.553C88.4966 129.541 88.564 129.418 88.5814 129.341C88.5928 129.261 91.8847 102.144 91.8847 102.144C92.0389 101.496 92.341 100.672 92.9166 100.489L97.6013 99.9968C97.6013 99.9968 94.1758 128.155 94.1216 128.567C94.0911 128.795 94.2063 128.935 94.4351 128.914C96.9086 128.652 111.269 127.138 111.341 127.129C111.415 127.124 111.585 127.043 111.593 126.913C111.968 123.887 116.627 85.6473 116.639 85.4336C116.67 85.2112 116.598 85.1344 116.383 85.1596Z" fill="#C7A079"/>
<path d="M52.0417 83.9199C50.1544 81.9724 47.5102 81.0643 44.4579 81.3896L18.2261 84.1624C9.07347 85.1213 4.07747 91.4501 2.57697 96.5788C1.6447 99.7866 1.46568 101.745 1.35679 103.051C1.35679 103.051 1.17557 106.045 1.21713 106.978C1.21713 107.109 1.21034 107.168 1.28606 107.205C1.32942 107.224 1.39295 107.21 1.48366 107.113C1.97138 106.57 3.19915 104.866 3.49365 104.492C4.49805 103.248 6.3458 100.893 7.56558 99.8407C9.08846 98.53 12.2645 96.2605 16.5262 95.8136L37.708 93.5838C38.0853 93.5358 38.3292 93.6102 38.356 93.6559C38.6817 93.9898 38.4955 94.6232 38.4955 94.6232L35.7972 118.728C35.2127 122.687 32.2073 125.058 26.5344 125.787L29.6137 98.1636C29.6231 98.0301 29.5494 97.9558 29.4063 97.9858C29.2599 98.0122 26.8239 98.5179 26.8239 98.5179C20.3496 99.9091 14.8695 105.928 14.0623 112.509L12.7144 124.298L12.325 127.276L11.5562 127.362C10.0021 127.524 8.03132 127.64 4.09545 127.362C3.41194 127.314 3.06828 127.235 2.98896 127.337C2.93201 127.438 2.96438 127.562 3.16079 127.892C3.24071 128.033 4.79296 130.967 8.15859 133.439C10.2521 134.969 13.5666 135.827 17.7564 135.827C20.0577 135.827 22.4949 135.606 24.7973 135.36L28.3166 134.989C44.6965 133.26 49.6865 131.085 51.1216 119.976L54.4519 91.8273C54.8345 88.7109 53.9796 85.9057 52.0417 83.9199Z" fill="#071D3D"/>
<path d="M44.5374 82.9204L18.3014 85.6896C4.91862 87.0976 3.27506 99.735 3.18855 100.246C3.09304 100.756 2.87626 102.799 2.86248 102.951C2.83411 103.096 2.89364 103.157 3.00893 103.008C3.12901 102.846 4.65648 100.839 4.65648 100.839C4.69085 100.784 9.01892 95.177 16.4417 94.3961L37.6323 92.1626C38.4393 92.0773 39.0561 92.2347 39.4513 92.6553C40.2419 93.489 39.9913 95.1362 39.7452 96.8795C39.6809 97.3022 37.2613 118.92 37.2613 118.92C36.2443 125.996 28.4197 126.824 25.8415 127.092L25.1 127.172C25.1 127.172 28.0761 99.8203 28.0815 99.7014C28.0879 99.5812 27.9734 99.5356 27.8579 99.5608C27.7498 99.5861 27.0211 99.741 27.0211 99.741C21.0713 101.027 16.0321 106.547 15.2998 112.584L13.314 128.411C11.8567 128.548 10.2497 128.678 8.87347 128.678C8.0397 128.678 5.4351 128.497 5.2369 128.478C5.05089 128.46 4.99974 128.562 5.11502 128.696C5.22971 128.834 6.05508 129.871 6.05508 129.871C8.76178 133.082 12.7686 134.745 17.4936 134.51C22.2143 134.283 25.6667 133.801 29.0461 133.505C38.8741 132.633 48.1452 131.644 49.6747 119.948L52.9971 91.7736C53.3226 89.111 52.5963 86.7144 50.9702 85.0443C49.4011 83.4261 47.0657 82.6489 44.5374 82.9204Z" fill="#1D467D"/>
<path d="M176.666 89.5498L189.053 88.2355C192.163 87.9065 195.009 85.3103 196.174 82.3956C196.621 81.2675 197.44 78.3542 197.628 77.6825C197.65 77.5902 197.58 77.5528 197.471 77.5576C197.362 77.5806 174.255 80.0673 174.255 80.0673C167.2 80.8122 160.74 87.2745 159.87 94.4697C159.87 94.4697 159.265 99.781 159.259 99.8352C159.259 99.8855 159.279 99.9145 159.315 99.9191C159.339 99.9241 180.06 103.439 180.06 103.439C180.06 103.439 179.907 104.309 179.709 105.644C179.499 106.971 170.548 108.041 166.93 109.077C161.46 110.64 155.963 112 150.866 118.078C150.09 119.013 149.496 120.325 149.178 120.825C149.113 120.933 149.154 121.066 149.312 121.054C149.483 121.041 182.583 117.512 182.583 117.512C189.378 116.798 193.118 114.217 193.689 109.848L193.755 109.315C194.005 107.489 194.454 104.082 194.58 101.763C194.769 98.6889 192.369 95.7984 188.998 95.0439C186.96 94.5982 177.255 92.9307 174.34 92.4358C174.706 90.8066 175.506 89.8334 176.666 89.5498Z" fill="#071D3D"/>
<path d="M176.524 88.1498L188.975 86.8259C192.959 86.4006 194.668 82.6967 195.34 80.5328C195.34 80.5328 195.623 79.5744 195.637 79.4829C195.656 79.3904 195.589 79.3616 195.461 79.3724C195.337 79.3834 174.337 81.601 174.337 81.601C167.949 82.2703 162.123 88.1256 161.325 94.6577C161.325 94.6577 160.845 98.7448 160.842 98.793C160.842 98.8397 160.864 98.8735 160.906 98.8831C160.951 98.8853 181.642 102.556 181.642 102.556C181.63 102.692 181.616 102.828 181.599 102.964L181.354 104.973C180.893 107.8 178.876 108.182 170.489 109.746C168.513 110.115 156.899 112.742 152.861 117.877C152.429 118.442 152.123 118.875 151.959 119.142C151.847 119.322 151.892 119.406 152.078 119.392C154.233 119.149 177.37 116.659 180.504 116.327C187.811 115.558 191.431 114.317 192.239 109.311C192.698 106.424 192.994 103.899 193.114 101.81C193.259 99.4128 191.327 97.1626 188.61 96.556C186.276 96.0393 173.191 93.8084 173.065 93.7928C172.952 93.776 172.693 93.6401 172.714 93.3806C173.125 89.6707 174.999 88.4849 176.524 88.1498Z" fill="#1D467D"/>
<path d="M175.36 83.3901L194.154 81.4043C194.315 81.0031 194.452 80.6196 194.551 80.293L174.432 82.417C168.399 83.0488 162.887 88.5861 162.146 94.7481L161.746 98.1949L162.772 98.3799L163.079 95.7163C163.882 89.2049 169.334 84.0244 175.36 83.3901Z" fill="white"/>
<path d="M173.864 95.5798C175.224 95.8044 187.203 97.8504 189.372 98.3321C190.207 98.5149 190.955 98.8799 191.563 99.3643C190.872 98.3982 189.773 97.615 188.438 97.3531C186.155 96.9145 174.285 94.8362 172.924 94.5982C172.899 94.5982 172.873 94.5874 172.859 94.5838C172.945 95.1137 173.391 95.4957 173.864 95.5798Z" fill="white"/>
<path d="M183.099 106.077L183.329 104.219C183.408 103.594 183.567 102.885 182.961 102.768L182.457 102.676C182.443 102.864 182.163 105.102 182.163 105.102C181.564 108.755 180.061 108.849 170.637 110.55C167.024 111.209 155.923 114.672 153.562 118.319C154.24 118.246 154.91 118.183 155.562 118.114C159.193 114.916 168.351 112.108 171.574 111.527C181.009 109.83 182.504 109.722 183.099 106.077Z" fill="white"/>
<path d="M68.6171 92.2964C63.0499 93.9387 57.8761 100.044 57.1396 106.09C57.1396 106.09 54.0659 131.339 54.0473 131.552C54.0383 131.767 54.1805 131.816 54.3146 131.81C54.4365 131.791 67.116 130.457 68.3096 130.331C68.3642 130.319 68.4015 130.283 68.4105 130.221C68.6868 127.996 73.1344 91.3809 73.1386 91.2932C73.1416 91.2261 73.0647 91.1405 72.9584 91.1719C72.8605 91.1923 70.8281 91.6428 68.6171 92.2964Z" fill="#071D3D"/>
<path d="M70.3163 93.4046C64.3745 94.6865 59.3423 100.205 58.6046 106.25C58.6046 106.25 55.7369 129.87 55.7207 130.009C55.6875 130.155 55.7327 130.233 55.9501 130.215C56.1473 130.186 66.0118 129.146 67.0072 129.045C67.0644 129.036 67.087 129.004 67.0949 128.95C67.3359 126.994 71.4218 93.3842 71.4272 93.3121C71.4432 93.24 71.3857 93.1728 71.2937 93.192C71.2012 93.2148 70.3163 93.4046 70.3163 93.4046Z" fill="#1D467D"/>
<path d="M70.344 95.4723L70.5002 94.2011C64.9292 95.4135 60.119 100.647 59.4263 106.348L56.6289 129.315L57.6998 129.203L60.3574 107.316C60.9907 101.566 65.2537 97.0749 70.344 95.4723Z" fill="white"/>
<path d="M90.3331 89.5217C83.2684 90.2678 76.8102 96.7349 75.9297 103.942C75.9297 103.942 72.8252 129.458 72.8186 129.534C72.8066 129.622 72.8426 129.685 72.9423 129.675C73.0402 129.664 85.5071 128.354 87.0352 128.181C87.1381 128.18 87.198 128.074 87.21 127.995C87.2166 127.925 90.3667 102.038 90.3667 102.038C90.7535 100.309 91.5633 99.289 92.7095 99.0055L99.3621 98.2992C99.3621 98.2992 95.9317 126.65 95.8746 126.892C95.824 127.124 95.9417 127.255 96.1539 127.231C98.2606 127.009 109.979 125.765 110.059 125.759C110.101 125.758 110.142 125.741 110.172 125.711C110.202 125.682 110.22 125.642 110.222 125.599C110.542 123.03 114.884 87.4962 114.884 87.268C114.898 87.0264 114.693 86.9507 114.543 86.9675C114.388 86.9905 90.3331 89.5217 90.3331 89.5217Z" fill="#071D3D"/>
<path d="M90.4108 91.0526C84.0344 91.7289 78.195 97.5821 77.4064 104.103C77.4064 104.103 74.5183 127.816 74.5067 127.933C74.4959 128.042 74.5139 128.09 74.6082 128.08C74.7033 128.069 84.3864 127.045 85.7259 126.905C85.834 126.893 85.8929 126.817 85.9109 126.721C85.9151 126.663 88.9185 101.913 88.9185 101.913C89.6124 98.7307 91.4865 97.844 92.5672 97.6003L100.606 96.7449C100.686 96.7449 100.794 96.7449 100.901 96.841C100.979 96.9203 101.006 97.0272 100.984 97.1497C100.984 97.1497 97.5626 125.117 97.5626 125.327C97.547 125.531 97.6384 125.652 97.8655 125.625C99.7568 125.428 108.628 124.487 108.714 124.485C108.865 124.475 108.922 124.332 108.933 124.251C109.201 122.037 113.22 88.9165 113.253 88.8132C113.255 88.7099 113.173 88.6558 113.085 88.663C112.983 88.6752 90.4108 91.0526 90.4108 91.0526Z" fill="#1D467D"/>
<path d="M91.4376 92.8424L112.195 90.6596L112.318 89.5759L90.4999 91.8716C84.4621 92.5096 78.9646 98.0336 78.2132 104.203L75.4258 127.171L76.4941 127.056L79.1598 105.178C79.9017 99.0127 85.4106 93.478 91.4376 92.8424Z" fill="white"/>
<path d="M102.42 97.2453C102.262 97.0699 102.034 96.9594 101.797 96.9221C101.811 97.0308 101.813 97.1409 101.803 97.2501L98.4492 124.74L99.5213 124.626L102.738 98.2317C102.785 97.8543 102.665 97.5013 102.42 97.2453Z" fill="white"/>
<path d="M14.9854 130.136L17.0469 113.661C17.7031 108.316 21.9596 103.395 27.0775 101.802C27.167 100.947 27.1952 100.545 27.1952 100.545C21.6195 101.746 16.8098 106.985 16.1065 112.684L14.0509 129.161C11.2773 129.442 8.35861 129.493 6.67969 129.341C7.02494 129.752 7.5632 130.262 7.61495 130.317C9.3702 130.627 12.2215 130.409 14.9854 130.136Z" fill="white"/>
<path d="M19.3252 87.4765L45.5647 84.7121C47.6233 84.4947 49.4752 85.0114 50.8575 86.167C50.711 85.9733 50.5523 85.7891 50.3823 85.6156C48.9689 84.1654 46.9236 83.4965 44.6343 83.7366L18.3857 86.5083C5.50381 87.8671 4.00391 100.34 4.00391 100.34C4.00391 100.34 4.54816 99.6226 5.58852 98.6519C6.82828 94.8975 10.2505 88.4339 19.3252 87.4765Z" fill="white"/>
<path d="M26.8681 128.883C29.5326 128.601 37.8933 127.725 39.0082 120.012C39.0082 120.012 41.4236 98.3882 41.4933 97.982C41.7792 96.0324 42.0399 94.1822 40.9844 93.0659C40.8207 92.8974 40.6336 92.7534 40.4288 92.6384C41.0252 93.77 40.7958 95.3427 40.561 97.0006C40.4871 97.4188 38.0705 119.04 38.0705 119.04C36.9604 126.757 28.6046 127.63 25.9263 127.907L25.1213 127.979L24.9922 129.069L26.8681 128.883Z" fill="white"/>
<path d="M136.668 112.927L130.088 113.622L132.001 97.8677C132.214 96.4621 132.816 94.6997 134.463 94.3105L141.051 93.6162L139.123 109.357C138.918 110.772 138.308 112.537 136.668 112.927ZM132.026 84.8316C124.97 85.574 118.507 92.041 117.632 99.2506C117.632 99.2506 114.545 124.654 114.538 124.766C114.524 124.876 114.566 124.998 114.72 124.977C114.872 124.963 139.114 122.407 139.114 122.407C146.156 121.66 152.619 115.192 153.5 107.986C153.5 107.986 156.582 82.6294 156.601 82.4827C156.612 82.3243 156.46 82.251 156.335 82.2703C156.192 82.2797 132.026 84.8316 132.026 84.8316Z" fill="#071D3D"/>
<path d="M140.61 109.447L140.586 109.573C140.088 113.019 138.283 114.135 136.847 114.457L128.86 115.299C128.776 115.31 128.675 115.306 128.567 115.197C128.489 115.124 128.461 115.016 128.477 114.889L130.554 97.7962C131.063 94.3158 132.887 93.2129 134.303 92.9065L134.412 92.8933L142.279 92.0595C142.4 92.0499 142.503 92.0859 142.58 92.1568C142.654 92.2349 142.686 92.3454 142.668 92.4741L140.61 109.447ZM154.773 83.9742C154.69 83.9838 132.109 86.3624 132.109 86.3624C125.735 87.0365 119.885 92.8957 119.107 99.4157C119.107 99.4157 116.224 123.034 116.216 123.158C116.2 123.288 116.336 123.387 116.448 123.375C116.557 123.368 139.029 120.999 139.029 120.999C145.409 120.322 151.255 114.47 152.055 107.942C152.055 107.942 154.917 84.2191 154.941 84.1122C154.953 84.0042 154.857 83.9622 154.773 83.9742Z" fill="#1D467D"/>
<path d="M143.489 92.5649L141.405 109.688C140.796 113.843 138.366 114.966 136.969 115.265L128.937 116.117C128.825 116.128 128.711 116.12 128.602 116.092C128.641 116.339 128.743 116.569 128.915 116.748C129.162 117.002 129.521 117.129 129.887 117.091L137.912 116.244C139.304 115.949 141.728 114.818 142.34 110.665L144.424 93.5358C144.482 93.1729 144.358 92.8137 144.1 92.5565C143.936 92.3859 143.719 92.2754 143.482 92.2311C143.489 92.3427 143.501 92.4568 143.489 92.5649Z" fill="white"/>
<path d="M133.13 88.157L153.88 85.9694L154.012 84.8869L132.194 87.1804C126.164 87.8122 120.658 93.3446 119.914 99.5163L117.121 122.479L118.191 122.365L120.85 100.484C121.595 94.3224 127.111 88.789 133.13 88.157Z" fill="white"/>
<path d="M171.784 103.475C170.962 103.347 170.103 103.211 169.233 103.074V103.075C169.21 103.6 169.181 104.125 169.146 104.649C169.114 105.144 169.077 105.639 169.033 106.133C169 106.511 168.974 106.892 168.934 107.271C169.819 107.085 170.703 106.908 171.557 106.736C171.657 105.653 171.735 104.566 171.784 103.475Z" fill="#071D3D"/>
<path d="M42.9287 79.9794C43.9858 76.7918 45.29 73.6915 46.8296 70.7069C46.843 70.6817 46.8562 70.6553 46.8694 70.6302C47.2463 69.9028 47.6364 69.1822 48.0394 68.4689C48.0484 68.4531 48.0576 68.4388 48.0652 68.4232C49.6703 65.598 51.4851 62.8974 53.4944 60.3439C53.5731 60.2442 53.65 60.1445 53.7287 60.0448C54.1831 59.4748 54.6465 58.912 55.1187 58.3566C55.214 58.245 55.3115 58.1345 55.4076 58.024C56.9176 56.2751 58.5193 54.6076 60.206 53.0286C60.2792 52.9602 60.3507 52.8903 60.424 52.8208C60.8956 52.3834 61.3779 51.9592 61.862 51.5365C62.0796 51.3455 62.2964 51.1568 62.5157 50.9694C62.9731 50.5803 63.436 50.1979 63.9044 49.8222C64.1599 49.6168 64.4178 49.4146 64.6782 49.2154C65.1407 48.8537 65.6039 48.4921 66.076 48.1449C66.3275 47.9598 66.5859 47.7808 66.8412 47.6006C67.6748 47.0058 68.5221 46.4306 69.3827 45.8755C69.7385 45.6448 70.091 45.413 70.4508 45.1906C70.8708 44.9311 71.2972 44.6837 71.7231 44.4326C72.5296 43.9569 73.3469 43.4999 74.1745 43.0619C74.6213 42.826 75.0711 42.5956 75.5237 42.371C75.9141 42.1762 76.3028 41.9768 76.6982 41.7908C77.3397 41.4833 77.9901 41.1948 78.6438 40.9101C79.0414 40.7371 79.4408 40.5676 79.8426 40.403C80.5055 40.129 81.1727 39.8659 81.8442 39.6138C82.1987 39.4817 82.5573 39.359 82.9145 39.233C83.4806 39.0334 84.05 38.8388 84.6236 38.6549C84.9931 38.5375 85.3619 38.421 85.7331 38.3091C86.3375 38.1265 86.9453 37.957 87.5561 37.7914C87.8896 37.7011 88.2206 37.6086 88.5557 37.5233C89.4675 37.2921 90.3842 37.0806 91.3051 36.8891C91.3953 36.8699 91.4852 36.8529 91.5761 36.8362C92.4805 36.6551 93.3885 36.4925 94.2996 36.3485C94.6192 36.2991 94.9399 36.2583 95.2608 36.2128C95.9383 36.1153 96.619 36.0276 97.3025 35.953C97.6552 35.9147 98.009 35.8775 98.3633 35.844C99.0602 35.7788 99.7593 35.7285 100.461 35.6853C100.778 35.6659 101.093 35.642 101.412 35.6288C102.423 35.5808 103.44 35.5506 104.464 35.5506C105.494 35.5506 106.517 35.5808 107.535 35.6288C107.857 35.6432 108.176 35.6671 108.497 35.6877C109.196 35.7284 109.894 35.7812 110.591 35.8462C111.621 35.9448 112.649 36.067 113.674 36.2128C114.016 36.2619 114.36 36.3075 114.7 36.3616C115.464 36.4839 116.226 36.6196 116.985 36.7688C117.203 36.8122 117.425 36.8482 117.643 36.8927C118.604 37.0913 119.56 37.3125 120.511 37.5558C120.774 37.6232 121.033 37.6975 121.294 37.7684C121.984 37.9548 122.67 38.1459 123.349 38.3522C123.691 38.4574 124.033 38.5656 124.373 38.6767C124.973 38.8708 125.57 39.0731 126.164 39.2835C126.511 39.4053 126.857 39.5305 127.202 39.6593C127.814 39.8896 128.421 40.1291 129.025 40.3778C129.323 40.5005 129.624 40.617 129.92 40.7433C130.791 41.1142 131.653 41.5039 132.507 41.9121C132.691 41.9998 132.87 42.0995 133.053 42.1884C133.73 42.5225 134.402 42.8623 135.065 43.218C135.394 43.3946 135.716 43.5796 136.041 43.7598C136.554 44.0474 137.065 44.3409 137.572 44.6404C137.916 44.8464 138.259 45.0551 138.6 45.2663C139.086 45.5678 139.567 45.8762 140.044 46.1914C140.372 46.4078 140.703 46.6214 141.027 46.8438C141.563 47.2114 142.088 47.5886 142.611 47.9694C142.859 48.1508 143.113 48.3239 143.358 48.5089C144.079 49.0512 144.789 49.6088 145.487 50.1812C145.8 50.4384 146.104 50.7039 146.414 50.9668C146.826 51.3177 147.237 51.6673 147.639 52.029C147.972 52.3245 148.3 52.6284 148.625 52.9313C148.993 53.2747 149.357 53.6219 149.718 53.9728C150.044 54.2897 150.368 54.6097 150.689 54.9329C151.044 55.2943 151.39 55.6643 151.737 56.0332C152.04 56.3564 152.348 56.6771 152.645 57.0076C153.169 57.5892 153.681 58.1804 154.183 58.7808C154.53 59.2008 154.872 59.6245 155.21 60.0519C155.512 60.4316 155.816 60.81 156.109 61.1982C156.408 61.5896 156.696 61.9874 156.986 62.3874C157.251 62.7516 157.512 63.1189 157.768 63.4891C158.055 63.9022 158.338 64.3187 158.615 64.7385C158.857 65.1068 159.095 65.4777 159.329 65.8511C159.601 66.2823 159.874 66.7113 160.135 67.1484C160.36 67.5257 160.574 67.9089 160.791 68.2911C161.257 69.1057 161.705 69.9308 162.133 70.7658C162.329 71.1421 162.529 71.5167 162.715 71.9011C162.947 72.3744 163.166 72.8563 163.387 73.3357C163.563 73.7201 163.741 74.1047 163.91 74.4939C164.121 74.9812 164.327 75.4709 164.527 75.963C164.686 76.3548 164.841 76.7481 164.992 77.1429C165.185 77.6414 165.372 78.142 165.553 78.6446C165.694 79.0424 165.825 79.4436 165.959 79.8448C166.129 80.354 166.304 80.8599 166.462 81.374C167.187 80.8856 167.945 80.4481 168.731 80.0647C168.099 78.0691 167.381 76.0965 166.559 74.1538C163.164 66.1261 158.309 58.9189 152.121 52.7331C145.929 46.5459 138.724 41.6803 130.7 38.2911C122.388 34.777 113.557 32.999 104.464 32.999C95.3707 32.999 86.5471 34.777 78.2352 38.2911C70.2128 41.6803 63.0041 46.5459 56.8144 52.7331C50.6278 58.9189 45.7695 66.1261 42.3731 74.1538C41.5295 76.1537 40.7832 78.1933 40.1367 80.2653C41.1785 80.1584 42.1263 80.0623 42.9287 79.9794Z" fill="#071D3D"/>
<path d="M166.013 120.757C164.96 123.941 163.659 127.037 162.123 130.019C162.104 130.055 162.086 130.091 162.068 130.128C161.694 130.851 161.307 131.566 160.906 132.275C160.896 132.292 160.886 132.31 160.876 132.327C159.274 135.149 157.463 137.848 155.457 140.4C155.375 140.504 155.293 140.61 155.208 140.715C154.757 141.283 154.297 141.844 153.826 142.397C153.729 142.51 153.63 142.623 153.532 142.736C152.036 144.469 150.45 146.121 148.78 147.688C148.69 147.773 148.602 147.861 148.51 147.944C148.043 148.377 147.566 148.799 147.087 149.218C146.865 149.412 146.644 149.606 146.419 149.796C145.964 150.183 145.504 150.563 145.039 150.937C144.78 151.146 144.518 151.351 144.255 151.553C143.795 151.912 143.336 152.271 142.866 152.617C142.607 152.808 142.341 152.988 142.08 153.175C141.259 153.761 140.424 154.328 139.577 154.877C139.212 155.111 138.852 155.35 138.481 155.578C138.064 155.833 137.643 156.084 137.22 156.329C136.818 156.567 136.414 156.799 136.006 157.027C135.595 157.257 135.181 157.483 134.764 157.704C134.315 157.941 133.862 158.172 133.406 158.398C133.018 158.594 132.632 158.79 132.24 158.977C131.579 159.29 130.913 159.591 130.241 159.879C129.859 160.046 129.475 160.208 129.09 160.366C128.428 160.637 127.762 160.905 127.088 161.155C126.734 161.286 126.376 161.409 126.02 161.534C125.453 161.737 124.883 161.93 124.309 162.114C123.941 162.233 123.572 162.348 123.201 162.459C122.593 162.641 121.983 162.814 121.37 162.978C121.04 163.068 120.71 163.161 120.377 163.245C119.46 163.479 118.537 163.692 117.611 163.885C117.518 163.904 117.426 163.918 117.334 163.937C116.436 164.117 115.535 164.278 114.631 164.42C114.31 164.471 113.989 164.513 113.668 164.557C112.989 164.655 112.309 164.742 111.627 164.817C111.274 164.855 110.919 164.892 110.565 164.926C109.867 164.99 109.168 165.042 108.469 165.084C108.152 165.103 107.834 165.127 107.516 165.142C106.504 165.188 105.488 165.221 104.463 165.221C103.468 165.221 102.478 165.188 101.493 165.145C101.233 165.132 100.974 165.12 100.716 165.105C99.844 165.055 98.9766 164.99 98.1153 164.907C97.9962 164.895 97.8761 164.888 97.7578 164.876C96.8017 164.776 95.848 164.655 94.8973 164.512C94.6498 164.475 94.4024 164.434 94.1548 164.395C93.3662 164.269 92.58 164.129 91.7964 163.975C91.614 163.937 91.4308 163.906 91.2494 163.868C90.3307 163.677 89.4163 163.466 88.5071 163.235C88.2765 163.178 88.0494 163.115 87.8204 163.055C87.0821 162.859 86.3495 162.65 85.622 162.429C85.405 162.364 85.1864 162.3 84.972 162.233C84.0929 161.957 83.22 161.662 82.354 161.347C82.151 161.273 81.9516 161.194 81.7499 161.119C81.0496 160.858 80.354 160.584 79.6635 160.297C79.4276 160.2 79.1904 160.103 78.9566 160.002C78.1224 159.646 77.2958 159.272 76.4775 158.881C76.3101 158.8 76.1471 158.716 75.9802 158.632C75.3043 158.302 74.6347 157.959 73.9716 157.604C73.7263 157.473 73.4807 157.343 73.238 157.207C72.4522 156.777 71.6754 156.331 70.9081 155.869C70.7956 155.801 70.6863 155.729 70.574 155.66C69.6526 155.09 68.7446 154.499 67.851 153.887C67.2251 153.458 66.6069 153.019 65.9966 152.569C65.8649 152.47 65.7311 152.38 65.6014 152.282C64.9021 151.757 64.219 151.215 63.5421 150.663C63.3042 150.469 63.0681 150.273 62.834 150.075C62.3119 149.637 61.7968 149.191 61.2889 148.736C61.1071 148.574 60.9221 148.416 60.7419 148.25C60.1088 147.67 59.4875 147.078 58.8783 146.474C58.6573 146.256 58.4412 146.033 58.2224 145.811C57.7727 145.354 57.3304 144.89 56.8955 144.418C56.6967 144.203 56.4947 143.992 56.2991 143.773C55.7302 143.145 55.1747 142.504 54.6332 141.851C54.4356 141.614 54.244 141.372 54.05 141.133C53.6578 140.648 53.2728 140.158 52.8949 139.662C52.6985 139.404 52.5015 139.15 52.3087 138.89C51.8065 138.211 51.317 137.523 50.8406 136.826C50.6757 136.582 50.5179 136.334 50.3571 136.091C50.0098 135.566 49.6703 135.037 49.3387 134.502C49.159 134.213 48.9794 133.923 48.8052 133.631C48.3686 132.905 47.9461 132.171 47.5379 131.428C46.9011 131.894 46.1712 132.336 45.3477 132.753C48.4124 138.348 52.248 143.472 56.8132 148.041C63.0028 154.229 70.2116 159.086 78.234 162.479C86.5459 165.993 95.3694 167.772 104.463 167.772C113.555 167.772 122.387 165.993 130.699 162.479C138.723 159.088 145.928 154.229 152.119 148.041C158.308 141.849 163.163 134.643 166.558 126.619C167.414 124.597 168.162 122.541 168.811 120.463C167.891 120.559 166.956 120.657 166.013 120.757Z" fill="#071D3D"/>
<path d="M66.0279 57.8564L65.6447 57.4383C65.39 57.1655 65.155 56.9949 64.9376 56.9314C64.716 56.8652 64.5286 56.9036 64.3772 57.0407C64.1538 57.2532 64.0485 57.4455 64.0643 57.6341C64.0847 57.8239 64.197 58.0343 64.4103 58.2696L67.3784 61.5038C67.553 61.6924 67.7332 61.8041 67.9098 61.8173C68.0883 61.8401 68.2739 61.7583 68.4637 61.5819C68.5876 61.4726 68.6613 61.3535 68.6873 61.2191C68.7104 61.0921 68.6983 60.9612 68.6523 60.8407C68.6074 60.7099 68.5421 60.587 68.4589 60.4766C68.373 60.3625 68.2781 60.2411 68.1664 60.127L67.6161 59.5262L69.1516 58.1182L69.8893 58.9172C70.4339 59.5094 70.6815 60.145 70.6377 60.8129C70.592 61.4858 70.189 62.1729 69.4357 62.8638C68.7472 63.4946 68.0883 63.7755 67.4553 63.7106C66.8213 63.6447 66.1878 63.271 65.5544 62.5863L63.0883 59.9022C62.4333 59.1947 62.1228 58.5184 62.1414 57.8708C62.1666 57.2245 62.5258 56.5721 63.2251 55.9304C63.8979 55.307 64.5598 54.9861 65.1978 54.9573C65.8399 54.9334 66.4593 55.2433 67.0557 55.8982L67.5632 56.4423L66.0279 57.8564Z" fill="#071D3D"/>
<path d="M74.5108 58.3691L69.7773 50.8581L71.538 49.7468L73.3576 52.6313L74.5829 51.8624L72.7604 48.9789L74.527 47.8642L79.2575 55.3825L77.4962 56.4866L75.5218 53.3629L74.3012 54.1296L76.2732 57.2579L74.5108 58.3691Z" fill="#071D3D"/>
<path d="M82.5873 45.85L82.5657 45.8596L83.4722 49.7808L84.5984 49.3315L82.5873 45.85ZM82.3037 53.79L80.8242 44.8204L83.1573 43.8965L88.2366 51.4292L86.2756 52.2054L85.3637 50.7131L83.8444 51.3175L84.2522 53.0138L82.3037 53.79Z" fill="#071D3D"/>
<path d="M92.3761 45.257L92.3579 45.2834L93.5018 50.1022L91.5645 50.4844L89.8477 41.7717L91.9482 41.3597L94.4856 45.9153L94.5242 45.9105L93.3677 41.0798L95.3014 40.6954L97.0205 49.4079L94.9294 49.8224L92.3761 45.257Z" fill="#071D3D"/>
<path d="M105.001 48.9727L104.904 48.1869H104.876C104.664 48.5581 104.431 48.8188 104.168 48.9689C103.906 49.1167 103.545 49.1913 103.09 49.1972C102.666 49.1984 102.299 49.1409 101.997 49.005C101.707 48.8775 101.455 48.6763 101.266 48.4212C101.075 48.1665 100.941 47.8734 100.853 47.5333C100.772 47.1897 100.73 46.8186 100.723 46.3944L100.68 42.7505C100.671 41.7871 100.885 41.076 101.335 40.606C101.785 40.1389 102.486 39.9009 103.441 39.889C104.359 39.8744 105.059 40.0776 105.552 40.4836C106.042 40.8922 106.291 41.5407 106.305 42.4238L106.312 43.0858L104.224 43.1121L104.217 42.6208C104.217 42.216 104.168 41.9215 104.08 41.7451C103.99 41.5793 103.816 41.494 103.556 41.4832C103.247 41.494 103.036 41.5673 102.925 41.7173C102.815 41.8676 102.757 42.1041 102.765 42.419L102.815 46.81C102.818 47.0708 102.882 47.2642 103.005 47.3976C103.138 47.5345 103.332 47.6006 103.591 47.5958C103.757 47.5909 103.89 47.5597 103.997 47.4961C104.096 47.4324 104.168 47.3447 104.217 47.2486C104.26 47.1379 104.291 47.025 104.301 46.9063C104.309 46.7801 104.315 46.6298 104.315 46.4484L104.308 45.7481L103.561 45.7589L103.538 44.1599L106.369 44.1287L106.424 48.9571L105.001 48.9727Z" fill="#071D3D"/>
<path d="M116.635 47.702L116.663 47.708L118.506 41.7311L120.44 42.112L117.277 50.5361L114.976 50.0796L115.555 43.8286L115.534 43.8216L113.65 49.8224L111.387 49.3743L111.636 40.3783L113.613 40.7653L113.023 47.0077L113.051 46.9837L115.076 41.05L117.05 41.4404L116.635 47.702Z" fill="#071D3D"/>
<path d="M127.728 47.6131C127.797 47.4559 127.854 47.3152 127.888 47.1865C127.923 47.0673 127.941 46.9435 127.94 46.8191C127.94 46.6976 127.91 46.5847 127.848 46.4767C127.781 46.3744 127.678 46.2964 127.523 46.2291C127.377 46.1632 127.249 46.1486 127.122 46.1728C127 46.2015 126.898 46.2509 126.809 46.3384C126.717 46.4301 126.637 46.5326 126.57 46.6435C126.494 46.7693 126.426 46.8998 126.367 47.0341L124.937 50.3883C124.881 50.5225 124.83 50.6591 124.787 50.7979C124.753 50.9337 124.732 51.0726 124.727 51.2125C124.727 51.3494 124.758 51.4709 124.822 51.5861C124.885 51.7014 124.99 51.7867 125.13 51.8493C125.278 51.9092 125.413 51.926 125.539 51.896C125.662 51.8651 125.772 51.7972 125.856 51.7014C125.947 51.6034 126.027 51.495 126.093 51.3784C126.162 51.2583 126.229 51.1224 126.296 50.9698L127.728 47.6131ZM128.281 51.6257C127.871 52.5821 127.374 53.2031 126.788 53.488C126.203 53.7811 125.442 53.7196 124.503 53.3198C123.565 52.9124 122.984 52.3995 122.784 51.77C122.583 51.144 122.684 50.3522 123.089 49.4021L124.507 46.0862C124.842 45.298 125.329 44.7983 125.962 44.57C126.596 44.3392 127.325 44.4041 128.162 44.7658C128.998 45.1178 129.549 45.6019 129.806 46.2147C130.07 46.8225 130.034 47.5206 129.702 48.3064L128.281 51.6257Z" fill="#071D3D"/>
<path d="M134.792 52.9179L134.76 52.9239L132.175 57.1457L130.527 56.0548L135.451 48.6649L137.232 49.8484L135.823 54.8701L135.851 54.8931L138.435 50.6522L140.082 51.7513L135.157 59.1387L133.386 57.9531L134.792 52.9179Z" fill="#071D3D"/>
<path d="M60.1638 62.8342L60.8803 64.9127L62.7161 63.7113L61.9287 65.7597L64.1099 66.0204L62.1852 67.0847L63.6905 68.6849L61.5344 68.2645L61.6553 70.4584L60.2737 68.7475L58.9564 70.5039L58.999 68.3067L56.8611 68.8148L58.3017 67.1557L56.3398 66.162L58.5119 65.821L57.6487 63.8038L59.5313 64.9367L60.1638 62.8342Z" fill="#071D3D"/>
<path d="M142.923 56.3396L143.636 58.4179L145.475 57.2179L144.687 59.2651L146.867 59.5256L144.944 60.5925L146.448 62.1903L144.291 61.7712L144.414 63.9636L143.03 62.2529L141.717 64.0117L141.757 61.8167L139.62 62.319L141.06 60.6609L139.102 59.6699L141.273 59.3238L140.406 57.3078L142.285 58.4419L142.923 56.3396Z" fill="#071D3D"/>
<path d="M74.9849 148.081L76.9126 147.015L74.7261 146.751L75.5166 144.702L73.6808 145.908L72.9685 143.832L72.3303 145.927L70.4496 144.796L71.3152 146.817L69.1445 147.161L71.1026 148.15L69.6622 149.809L71.7995 149.306L71.7597 151.503L73.073 149.743L74.4562 151.451L74.3349 149.259L76.4914 149.678L74.9849 148.081Z" fill="#071D3D"/>
<path d="M145.84 139.437L146.635 137.393L144.792 138.594L144.076 136.516L143.443 138.618L141.566 137.48L142.429 139.504L140.258 139.848L142.214 140.837L140.773 142.49L142.91 141.989L142.872 144.186L144.188 142.428L145.569 144.136L145.448 141.942L147.602 142.364L146.1 140.764L148.024 139.699L145.84 139.437Z" fill="#071D3D"/>
<path d="M81.4671 147.113L86.1814 149.128L85.4589 150.82L82.817 149.694L82.2367 151.052L84.7117 152.11L84.016 153.736L81.541 152.679L80.8665 154.263L83.6074 155.434L82.8849 157.128L78.0703 155.07L81.4671 147.113Z" fill="#071D3D"/>
<path d="M91.481 153.252L91.531 153.05C91.6546 152.558 91.5573 152.096 91.1346 151.989C90.6634 151.872 90.3607 152.184 90.2664 152.56C89.852 154.219 93.6303 154.302 92.862 157.373C92.4139 159.162 91.1669 159.698 89.2379 159.216C87.4269 158.762 86.5709 157.886 87.0063 156.144L87.0804 155.851L89.1971 156.38L89.1473 156.578C88.9677 157.297 89.1971 157.631 89.6205 157.737C90.0676 157.848 90.4147 157.56 90.5294 157.101C90.9445 155.442 87.3032 155.406 88.0486 152.43C88.4726 150.736 89.6111 150.032 91.4576 150.495C93.3635 150.973 93.9781 151.963 93.5276 153.764L91.481 153.252Z" fill="#071D3D"/>
<path d="M97.9477 153.803L96.2578 153.646L96.4346 151.739L102.059 152.258L101.884 154.166L100.193 154.01L99.5725 160.722L97.3265 160.515L97.9477 153.803Z" fill="#071D3D"/>
<path d="M103.492 158.49L105.53 158.457L105.57 160.858L103.532 160.891L103.492 158.49Z" fill="#071D3D"/>
<path d="M111.075 154.841C110.929 153.969 110.908 153.247 111.224 152.671C111.54 152.097 112.178 151.686 113.325 151.479C115.542 151.079 116.23 152.027 116.458 153.291C116.665 154.436 116.379 155.239 115.861 155.985L114.779 157.497C114.622 157.723 114.393 158.022 114.355 158.288L117.265 157.763L117.567 159.434L112.008 160.435C111.799 159.267 111.903 158.139 112.689 156.976L113.898 155.205C114.249 154.699 114.36 154.347 114.244 153.715C114.114 153 113.848 152.814 113.502 152.877C113.192 152.932 112.912 153.154 113.084 154.109L113.149 154.466L111.075 154.841Z" fill="#071D3D"/>
<path d="M122.501 155.09C122.906 156.246 123.197 156.49 123.643 156.334C124.091 156.179 124.164 155.805 123.76 154.649L122.822 151.973C122.418 150.817 122.127 150.572 121.681 150.728C121.234 150.884 121.159 151.257 121.564 152.413L122.501 155.09ZM121.216 149.401C123.114 148.735 124.272 149.294 125.419 152.565C126.565 155.839 126.008 156.997 124.108 157.663C122.21 158.327 121.051 157.768 119.905 154.497C118.759 151.224 119.317 150.066 121.216 149.401Z" fill="#071D3D"/>
<path d="M131.914 154.115L129.14 148.971L127.711 149.743L127.043 148.503C128.254 147.837 128.634 147.315 128.395 146.259L129.825 145.489L133.9 153.046L131.914 154.115Z" fill="#071D3D"/>
<path d="M138.897 149.867L135.457 145.143L134.145 146.1L133.316 144.963C134.426 144.14 134.733 143.571 134.355 142.558L135.668 141.6L140.722 148.539L138.897 149.867Z" fill="#071D3D"/>
<path d="M147.938 120.209C147.366 120.655 146.769 121.068 146.151 121.448C144.262 125.178 141.881 128.639 139.073 131.737C138.556 132.306 138.027 132.863 137.485 133.407C137.002 133.886 136.51 134.355 136.008 134.814C135.96 134.86 135.914 134.905 135.864 134.95C135.709 135.093 135.545 135.224 135.387 135.363C127.151 142.651 116.329 147.083 104.467 147.083H104.466C91.5665 147.083 79.8993 141.855 71.4434 133.407C70.8564 132.82 70.2906 132.213 69.7361 131.596C69.7025 131.649 69.6592 131.684 69.595 131.69C69.3918 131.711 69.0002 131.754 68.4766 131.807C68.4772 131.809 68.4796 131.812 68.4808 131.814C72.3017 136.185 76.9049 139.855 82.072 142.605C82.1357 142.638 82.2012 142.67 82.265 142.702C82.9125 143.044 83.5679 143.37 84.2304 143.681C84.3865 143.755 84.5457 143.822 84.7017 143.893C85.2781 144.157 85.8597 144.409 86.4462 144.649C86.6614 144.736 86.8788 144.819 87.0951 144.905C87.6341 145.115 88.1767 145.316 88.7229 145.508C88.9769 145.597 89.2324 145.682 89.4889 145.767C90.0086 145.938 90.531 146.1 91.0562 146.253C91.3391 146.335 91.622 146.418 91.9077 146.495C92.4158 146.633 92.9285 146.761 93.4426 146.882C93.7471 146.954 94.05 147.026 94.3557 147.092C94.8638 147.203 95.3769 147.299 95.8905 147.393C96.2052 147.449 96.5187 147.51 96.8352 147.561C97.3591 147.644 97.8866 147.712 98.4152 147.778C98.7269 147.819 99.0356 147.865 99.3481 147.898C99.9193 147.959 100.497 148.002 101.073 148.04C101.347 148.061 101.617 148.088 101.893 148.104C102.744 148.149 103.602 148.175 104.465 148.175C105.202 148.175 105.934 148.151 106.663 148.118C106.869 148.11 107.073 148.098 107.277 148.086C107.854 148.051 108.428 148.008 108.998 147.954C109.164 147.939 109.332 147.927 109.497 147.909C110.206 147.835 110.912 147.745 111.611 147.64C111.771 147.616 111.931 147.587 112.091 147.562C112.649 147.472 113.204 147.372 113.756 147.265C113.96 147.223 114.162 147.184 114.365 147.142C115.008 147.007 115.647 146.86 116.284 146.699C116.333 146.687 116.384 146.677 116.432 146.662C117.105 146.49 117.769 146.297 118.431 146.096C119.134 145.879 119.833 145.647 120.526 145.401C120.705 145.336 120.884 145.276 121.061 145.21C121.693 144.977 122.32 144.729 122.941 144.467C123.104 144.401 123.264 144.327 123.427 144.257C123.903 144.051 124.376 143.837 124.846 143.616C125.053 143.517 125.26 143.419 125.466 143.319C125.973 143.07 126.476 142.812 126.973 142.545C127.083 142.487 127.194 142.433 127.302 142.374C127.876 142.06 128.444 141.733 129.004 141.395C129.209 141.273 129.41 141.147 129.612 141.023C130.009 140.775 130.403 140.523 130.793 140.265C130.985 140.136 131.179 140.014 131.368 139.884C131.896 139.524 132.418 139.153 132.932 138.773C133.106 138.644 133.275 138.508 133.447 138.376C133.814 138.096 134.176 137.811 134.535 137.521C134.741 137.355 134.947 137.187 135.152 137.014C135.515 136.709 135.873 136.399 136.226 136.083C136.397 135.931 136.571 135.781 136.74 135.626C137.179 135.223 137.61 134.812 138.033 134.392C138.229 134.199 138.422 134.002 138.616 133.805C138.902 133.512 139.184 133.215 139.464 132.916C139.651 132.712 139.841 132.512 140.025 132.307C140.434 131.852 140.836 131.388 141.228 130.917C141.393 130.719 141.551 130.517 141.713 130.315C141.972 129.994 142.227 129.669 142.478 129.341C142.66 129.102 142.839 128.862 143.016 128.621C143.26 128.287 143.5 127.95 143.736 127.611C143.913 127.356 144.09 127.103 144.262 126.845C144.569 126.383 144.869 125.916 145.161 125.443C145.319 125.186 145.472 124.925 145.626 124.666C145.819 124.338 146.009 124.008 146.196 123.676C146.344 123.411 146.493 123.146 146.635 122.879C146.906 122.373 147.168 121.861 147.42 121.345C147.435 121.314 147.452 121.284 147.467 121.252C147.613 120.899 147.77 120.551 147.938 120.209Z" fill="#071D3D"/>
<path d="M58.9726 89.8863C60.9658 81.2086 65.361 73.4514 71.4467 67.3638C75.6743 63.1361 80.7065 59.7195 86.2929 57.3574C91.8799 54.993 98.0225 53.6859 104.47 53.6859C123.581 53.6859 140 65.1724 147.227 81.6124C147.613 81.5714 147.996 81.5319 148.374 81.4921C147.987 80.5948 147.57 79.7167 147.132 78.8492C147.009 78.61 146.889 78.3698 146.764 78.1319C146.578 77.7802 146.388 77.431 146.194 77.0843C146.062 76.8493 145.928 76.6158 145.791 76.3838C145.353 75.6309 144.896 74.8898 144.419 74.1612C144.367 74.0819 144.316 73.999 144.263 73.9199C144.049 73.5966 143.825 73.2819 143.602 72.9634C143.44 72.7304 143.275 72.4989 143.109 72.2691C142.884 71.9619 142.657 71.6571 142.426 71.3549C142.246 71.1206 142.063 70.8883 141.877 70.6582C141.557 70.2538 141.23 69.8548 140.897 69.4613C140.614 69.1299 140.331 68.797 140.041 68.4727C139.804 68.212 139.563 67.9561 139.321 67.6991C139.1 67.462 138.876 67.2273 138.65 66.995C138.407 66.7452 138.161 66.4981 137.912 66.2538C137.661 66.0085 137.407 65.7666 137.149 65.5281C136.907 65.2987 136.666 65.0691 136.419 64.8458C135.979 64.4513 135.532 64.0644 135.079 63.6851C134.841 63.4881 134.599 63.2959 134.359 63.1025C134.064 62.8665 133.768 62.6333 133.468 62.4032C133.222 62.2146 132.977 62.0296 132.727 61.8458C132.383 61.5931 132.035 61.3456 131.683 61.1033C131.478 60.9604 131.276 60.815 131.069 60.6745C130.541 60.3211 130.006 59.9782 129.465 59.646C129.237 59.5069 129.006 59.3734 128.776 59.2364C128.405 59.0159 128.031 58.8009 127.654 58.5912C127.416 58.4584 127.178 58.3275 126.938 58.1984C126.489 57.9598 126.035 57.7279 125.579 57.5027C125.419 57.4236 125.264 57.3419 125.103 57.2649C124.503 56.9778 123.897 56.7034 123.286 56.442C123.07 56.3507 122.852 56.2629 122.636 56.1728C122.192 55.991 121.746 55.8156 121.297 55.6468C121.071 55.5614 120.847 55.4761 120.619 55.3944C120.062 55.1944 119.502 55.0049 118.938 54.8262C118.836 54.7936 118.733 54.7576 118.632 54.7241C117.969 54.5208 117.301 54.3316 116.63 54.1568C116.422 54.1017 116.213 54.0526 116.003 54.0008C115.503 53.8759 115 53.7594 114.493 53.6512C114.275 53.6044 114.059 53.5586 113.84 53.5143C113.188 53.3844 112.532 53.2655 111.871 53.1634C111.822 53.1551 111.775 53.1455 111.726 53.1383C111.019 53.03 110.304 52.9437 109.587 52.8667C109.375 52.8428 109.163 52.8272 108.952 52.8054C108.414 52.7551 107.874 52.7141 107.33 52.6841C107.114 52.6695 106.897 52.6566 106.68 52.6456C105.946 52.6132 105.21 52.5916 104.469 52.5916C78.0761 52.5964 56.6797 73.9872 56.6797 100.383C56.6797 100.847 56.7015 101.304 56.7147 101.765C57.0197 101.015 57.3928 100.288 57.7972 99.5766C57.8553 96.2512 58.2553 93.0088 58.9726 89.8863Z" fill="#071D3D"/>
<path d="M109.658 69.6057L118.3 68.6606C118.522 68.6363 118.724 68.4333 118.752 68.2069L119.351 63.2838C119.378 63.0574 119.221 62.8936 119 62.9178L107.695 64.1539C107.52 64.1733 107.343 64.2652 107.206 64.4083L103.638 68.1404L100.895 65.0984C100.789 64.9817 100.631 64.9268 100.455 64.9457L89.9956 66.0896C89.8198 66.1088 89.6425 66.2009 89.5059 66.3445L86.1384 69.8756C86.0108 70.0097 85.9281 70.1779 85.9075 70.3455L84.2258 84.1579C84.1984 84.3843 84.3554 84.5483 84.5772 84.524L89.3962 83.9969C89.6176 83.9727 89.8198 83.7697 89.8473 83.5431L91.2078 72.3683C91.2533 71.9949 91.5864 71.6598 91.952 71.6199L97.0859 71.0584C97.4513 71.0185 97.7109 71.2888 97.6655 71.6622L96.3047 82.8371C96.2771 83.0634 96.4343 83.2273 96.6561 83.2031L101.475 82.676C101.696 82.6518 101.898 82.4486 101.926 82.2223L102.312 79.0494L105.054 82.0844C105.159 82.2009 105.318 82.2558 105.493 82.2367L116.798 81.0005C117.02 80.9763 117.222 80.7731 117.249 80.5467L117.849 75.6237C117.876 75.3973 117.719 75.2335 117.497 75.2576L108.855 76.2027C108.489 76.2426 108.23 75.9723 108.275 75.5989L108.914 70.3543C108.959 69.9807 109.293 69.6456 109.658 69.6057Z" fill="#071D3D"/>
</g>
</g>
<defs>
<clipPath id="clip0_463_17097">
<rect width="200" height="134.865" fill="white" transform="translate(0 33)"/>
</clipPath>
</defs>
</svg>
