<svg width="200" height="200" viewBox="0 0 200 200" fill="none" xmlns="http://www.w3.org/2000/svg">
<g clip-path="url(#clip0_463_17200)">
<path d="M103.246 174.308C72.3246 174.713 45.5155 156 34.088 129.152C34.5878 128.95 35.0657 128.687 35.5238 128.382C46.6453 154.729 72.8802 173.069 103.224 172.67C136.078 172.225 163.526 149.994 172 119.907C172.509 120.099 173.038 120.234 173.577 120.308C164.902 151.06 136.795 173.854 103.246 174.308ZM28.2093 101.224C27.682 60.408 60.4723 26.7419 101.305 26.1779C141.39 25.6788 174.557 57.2579 176.272 97.0144C175.737 96.8803 175.185 96.8072 174.623 96.7995C172.801 57.9816 140.497 27.3289 101.325 27.8165C61.3173 28.3689 29.3321 61.2106 29.8498 101.204C29.8723 102.898 29.9576 104.576 30.0949 106.239C29.5432 106.335 29.004 106.493 28.4878 106.71C28.3272 104.886 28.2343 103.056 28.2093 101.224ZM183.66 108.58C183.66 103.402 181.066 99.0148 177.464 97.4308C175.964 56.8255 142.167 24.4971 101.289 25.0065C59.8109 25.5794 26.5021 59.7773 27.0372 101.24C27.0648 103.281 27.1771 105.303 27.3657 107.302C24.308 109.211 22.1953 113.235 22.1953 117.906C22.1953 124.417 26.2904 129.695 31.3421 129.695C31.8958 129.695 32.4353 129.621 32.9627 129.499C44.5436 156.831 71.8075 175.894 103.262 175.48C137.441 175.018 166.061 151.73 174.783 120.351C179.708 120.166 183.66 114.973 183.66 108.58Z" fill="#BEC0C2"/>
<path d="M53.7266 86.1355C61.5287 59.4285 89.5163 44.0925 116.241 51.901C142.957 59.7018 158.284 87.6849 150.483 114.401C142.677 141.11 114.688 156.436 87.9669 148.637C61.256 140.83 45.9207 112.853 53.7266 86.1355Z" fill="white"/>
<path d="M129.091 66.18L130.577 61.0718L131.957 60.4707L126.853 57.7928C126.387 57.5413 126.018 57.6985 125.891 57.9442L125.739 58.2675C125.604 58.5299 125.757 58.9393 126.172 59.1555L130.138 61.2476L128.783 61.8456L127.676 65.7482C127.538 66.2005 127.721 66.588 128.006 66.6836L128.332 66.783C128.591 66.86 128.953 66.6913 129.091 66.18Z" fill="#BEC0C2"/>
<path d="M123.877 67.9744L125.701 62.9952L127.112 62.498L122.207 59.4531C121.756 59.1714 121.38 59.3004 121.235 59.5365L121.062 59.8361C120.913 60.0998 121.031 60.513 121.432 60.7593L125.247 63.1305L123.861 63.629L122.477 67.4374C122.316 67.8865 122.47 68.2874 122.742 68.3984L123.066 68.5203C123.322 68.6178 123.695 68.4722 123.877 67.9744Z" fill="#BEC0C2"/>
<path d="M118.541 69.3827L120.697 64.5536L122.148 64.1539L117.455 60.7658C117.028 60.4559 116.642 60.5496 116.483 60.7774L116.283 61.0744C116.122 61.3176 116.213 61.7384 116.594 62.0137L120.237 64.655L118.823 65.0534L117.184 68.752C116.992 69.187 117.122 69.5963 117.383 69.7298L117.698 69.8735C117.95 69.9902 118.332 69.8715 118.541 69.3827Z" fill="#BEC0C2"/>
<path d="M113.12 70.4132L115.602 65.7445L117.072 65.4507L112.622 61.7367C112.224 61.3877 111.83 61.4647 111.653 61.6847L111.435 61.9567C111.25 62.1858 111.318 62.6182 111.682 62.9159L115.14 65.8125L113.695 66.1122L111.809 69.685C111.589 70.0944 111.687 70.5184 111.945 70.6589L112.249 70.8398C112.489 70.9669 112.876 70.8854 113.12 70.4132Z" fill="#BEC0C2"/>
<path d="M107.644 71.041L110.443 66.5655L111.929 66.3846L107.732 62.3517C107.358 61.9789 106.967 62.0226 106.775 62.2272L106.54 62.4858C106.341 62.7078 106.382 63.1357 106.716 63.4616L109.972 66.6014L108.512 66.7952L106.393 70.2134C106.141 70.6221 106.212 71.0494 106.448 71.2104L106.747 71.3997C106.975 71.5524 107.367 71.4901 107.644 71.041Z" fill="#BEC0C2"/>
<path d="M102.14 71.2657L105.225 67.0076L106.732 66.9396L102.819 62.6148C102.47 62.219 102.062 62.2286 101.867 62.4179L101.61 62.6597C101.404 62.865 101.409 63.3 101.724 63.6433L104.758 67.0179L103.292 67.1013L100.937 70.3617C100.661 70.7396 100.704 71.1688 100.937 71.3516L101.213 71.5666C101.431 71.7289 101.829 71.7026 102.14 71.2657Z" fill="#BEC0C2"/>
<path d="M96.6262 71.1032L100 67.0786L101.504 67.1101L97.8978 62.5178C97.5731 62.0943 97.1702 62.0821 96.9605 62.2547L96.6929 62.4793C96.4671 62.6672 96.444 63.1016 96.7365 63.4679L99.528 67.0511L98.0556 67.0267L95.497 70.1094C95.1923 70.4648 95.2026 70.8979 95.4188 71.0987L95.6837 71.3309C95.8846 71.5138 96.2849 71.5112 96.6262 71.1032Z" fill="#BEC0C2"/>
<path d="M91.1392 70.5365L94.7801 66.7679L96.2788 66.9058L92.9901 62.0665C92.6995 61.6245 92.3037 61.5809 92.0836 61.7355L91.7956 61.9401C91.553 62.1076 91.4998 62.5451 91.7731 62.9307L94.3111 66.6999L92.8516 66.5748L90.0787 69.458C89.7502 69.7954 89.7342 70.2336 89.9395 70.4518L90.1839 70.6898C90.3803 70.89 90.7742 70.9214 91.1392 70.5365Z" fill="#BEC0C2"/>
<path d="M85.7004 69.5733L89.5896 66.0838L91.0761 66.3289L88.1287 61.2618C87.8657 60.798 87.4718 60.7248 87.2389 60.8679L86.9361 61.0431C86.691 61.2035 86.6146 61.6288 86.8527 62.0343L89.1315 65.9806L87.6764 65.7457L84.7156 68.43C84.3698 68.7354 84.323 69.1666 84.5129 69.3905L84.7413 69.6631C84.9196 69.8723 85.3168 69.9313 85.7004 69.5733Z" fill="#BEC0C2"/>
<path d="M80.3416 68.2209L84.4598 65.0182L85.92 65.371L83.3223 60.1095C83.1009 59.62 82.707 59.5238 82.4651 59.6463L82.1566 59.8061C81.9006 59.9447 81.7934 60.3585 82.0026 60.7851L84.0107 64.8886L82.5729 64.5428L79.437 67.0044C79.0661 67.2899 78.9956 67.7185 79.1662 67.9546L79.376 68.2395C79.539 68.4672 79.9361 68.5519 80.3416 68.2209Z" fill="#BEC0C2"/>
<path d="M75.0899 66.4887L79.4153 63.5888L80.8524 64.0527L78.6191 58.6058C78.4215 58.1137 78.0417 57.9847 77.7902 58.0906L77.4714 58.2241C77.2083 58.3421 77.0634 58.7501 77.252 59.1915L78.9714 63.4207L77.5728 62.9825L74.2687 65.2094C73.8793 65.4635 73.7689 65.8837 73.9325 66.141L74.1224 66.4316C74.2687 66.6658 74.6581 66.7819 75.0899 66.4887Z" fill="#BEC0C2"/>
<path d="M69.9622 64.3736L74.4795 61.7913L75.8768 62.3616L74.0201 56.7762C73.8597 56.2623 73.4921 56.1032 73.2265 56.193L72.9038 56.3065C72.6311 56.4079 72.4605 56.805 72.6157 57.2503L74.0458 61.6014L72.6703 61.0548L69.2353 63.0398C68.8299 63.2649 68.6983 63.6775 68.8311 63.9341L69.0012 64.2453C69.1353 64.4987 69.5125 64.636 69.9622 64.3736ZM72.1775 135.456L71.4115 140.337L70.1746 141.082L75.3398 142.863C75.8095 143.033 76.1411 142.842 76.2265 142.595L76.3368 142.285C76.4266 142.026 76.2393 141.677 75.8171 141.525L71.8016 140.124L73.0039 139.394L73.58 135.668C73.648 135.231 73.4267 134.896 73.1514 134.852L72.8262 134.799C72.5676 134.763 72.2436 134.969 72.1775 135.456Z" fill="#BEC0C2"/>
<path d="M76.8976 133.119L75.7819 137.94L74.5039 138.587L79.528 140.731C79.9874 140.934 80.3299 140.767 80.4364 140.528L80.5635 140.222C80.6764 139.969 80.5077 139.603 80.0996 139.427L76.1906 137.748L77.4493 137.107L78.2737 133.428C78.3802 133 78.1833 132.651 77.9023 132.581L77.5866 132.513C77.3364 132.455 77.0015 132.637 76.8976 133.119Z" fill="#BEC0C2"/>
<path d="M81.769 131.121L80.3217 135.846L79.0039 136.397L83.867 138.895C84.3109 139.129 84.6612 138.985 84.7863 138.757L84.9326 138.469C85.0609 138.215 84.923 137.84 84.5278 137.64L80.747 135.691L82.0417 135.14L83.133 131.527C83.2626 131.101 83.0907 130.741 82.8257 130.657L82.5101 130.566C82.2586 130.489 81.9083 130.648 81.769 131.121Z" fill="#BEC0C2"/>
<path d="M86.7708 129.473L85.0033 134.08L83.6406 134.546L88.3196 137.375C88.743 137.633 89.1042 137.522 89.2408 137.304L89.4153 137.014C89.5565 136.778 89.4429 136.396 89.0644 136.164L85.4338 133.957L86.758 133.495L88.1001 129.969C88.2599 129.554 88.1123 129.183 87.857 129.076L87.5445 128.966C87.3014 128.874 86.9415 129.007 86.7708 129.473Z" fill="#BEC0C2"/>
<path d="M91.8797 128.17L89.7914 132.647L88.4062 133.015L92.8677 136.161C93.2706 136.46 93.6421 136.366 93.796 136.15L93.9866 135.885C94.1483 135.661 94.0591 135.265 93.6953 135.013L90.2238 132.556L91.5839 132.188L93.1718 128.756C93.3559 128.366 93.2404 127.978 92.987 127.865L92.6849 127.719C92.45 127.614 92.0837 127.718 91.8797 128.17Z" fill="#BEC0C2"/>
<path d="M97.0661 127.233L94.6635 131.554L93.2578 131.82L97.4934 135.278C97.8758 135.599 98.2466 135.537 98.416 135.329L98.6245 135.077C98.8016 134.86 98.7387 134.468 98.398 134.184L95.11 131.488L96.4907 131.22L98.3095 127.919C98.5238 127.527 98.4314 127.135 98.1966 127.001L97.9014 126.847C97.673 126.718 97.3041 126.8 97.0661 127.233Z" fill="#BEC0C2"/>
<path d="M102.302 126.668L99.6097 130.809L98.1758 130.972L102.163 134.717C102.519 135.063 102.907 135.026 103.084 134.84L103.313 134.6C103.498 134.398 103.468 133.991 103.147 133.696L100.056 130.77L101.444 130.598L103.498 127.433C103.739 127.064 103.673 126.666 103.441 126.515L103.166 126.332C102.945 126.195 102.571 126.249 102.302 126.668Z" fill="#BEC0C2"/>
<path d="M107.567 126.463L104.589 130.406L103.148 130.478L106.864 134.487C107.198 134.86 107.58 134.847 107.771 134.672L108.014 134.446C108.217 134.26 108.211 133.856 107.912 133.535L105.038 130.403L106.444 130.327L108.705 127.312C108.972 126.966 108.935 126.562 108.72 126.39L108.452 126.195C108.249 126.036 107.869 126.064 107.567 126.463Z" fill="#BEC0C2"/>
<path d="M112.833 126.634L109.585 130.356L108.145 130.327L111.569 134.593C111.873 134.98 112.254 134.997 112.453 134.839L112.719 134.629C112.938 134.461 112.962 134.051 112.68 133.712L110.034 130.386L111.435 130.412L113.909 127.564C114.201 127.232 114.191 126.823 113.983 126.635L113.734 126.43C113.536 126.259 113.157 126.255 112.833 126.634Z" fill="#BEC0C2"/>
<path d="M118.076 127.17L114.578 130.652L113.148 130.522L116.254 135.021C116.533 135.432 116.911 135.473 117.128 135.325L117.406 135.144C117.632 134.981 117.678 134.586 117.427 134.224L115.018 130.718L116.419 130.842L119.085 128.169C119.395 127.862 119.415 127.462 119.223 127.265L118.987 127.03C118.806 126.844 118.425 126.817 118.076 127.17Z" fill="#BEC0C2"/>
<path d="M123.269 128.081L119.531 131.311L118.117 131.074L120.905 135.778C121.147 136.214 121.528 136.279 121.753 136.148L122.036 135.982C122.273 135.838 122.352 135.448 122.126 135.067L119.969 131.402L121.36 131.626L124.204 129.147C124.541 128.862 124.584 128.46 124.406 128.249L124.19 127.999C124.023 127.8 123.637 127.748 123.269 128.081Z" fill="#BEC0C2"/>
<path d="M128.381 129.345L124.423 132.307L123.027 131.968L125.483 136.862C125.699 137.306 126.072 137.404 126.303 137.289L126.599 137.142C126.843 137.015 126.956 136.63 126.754 136.236L124.86 132.432L126.22 132.744L129.237 130.471C129.596 130.213 129.673 129.817 129.505 129.592L129.306 129.332C129.154 129.123 128.774 129.043 128.381 129.345Z" fill="#BEC0C2"/>
<path d="M133.391 130.969L129.24 133.648L127.871 133.211L129.974 138.26C130.159 138.726 130.517 138.845 130.766 138.746L131.064 138.621C131.321 138.509 131.46 138.134 131.285 137.73L129.665 133.797L131.009 134.212L134.167 132.154C134.538 131.92 134.642 131.529 134.498 131.299L134.318 131.023C134.176 130.798 133.805 130.697 133.391 130.969Z" fill="#BEC0C2"/>
<path d="M138.283 132.943L133.953 135.313L132.617 134.789L134.358 139.972C134.512 140.447 134.859 140.596 135.106 140.515L135.424 140.408C135.685 140.322 135.846 139.951 135.705 139.537L134.365 135.502L135.67 136.01L138.976 134.173C139.361 133.966 139.493 133.587 139.359 133.345L139.203 133.055C139.073 132.827 138.712 132.695 138.283 132.943Z" fill="#BEC0C2"/>
<path d="M67.5856 66.5869C62.4172 67.5031 58.1309 71.8279 57.8268 76.4337C57.8152 76.6103 57.8097 76.7873 57.8101 76.9643C57.8101 79.0224 58.6185 80.8714 60.1198 82.2187C61.9931 83.8964 64.7365 84.5655 67.6434 84.0497C72.8093 83.14 77.0981 78.8158 77.4054 74.2042C77.553 71.9305 76.7421 69.8775 75.1131 68.418C73.2378 66.7377 70.4958 66.0711 67.5856 66.5869ZM17.6803 79.6659L15.3854 88.5727C15.3854 88.5727 17.1407 88.1018 18.3731 87.7695C16.8488 94.5636 9.00373 129.588 8.9524 129.823C8.54629 131.151 6.807 132.127 5.30125 132.603L4.02198 133.007L0 146.319L4.95801 144.26C21.1909 137.522 45.4658 131.017 45.7102 130.953L46.9921 130.611L52.6192 115.07L46.55 116.501C45.7263 116.693 45.2117 117.044 44.8775 117.443C44.1172 118.375 41.6619 120.926 39.3529 121.683L28.6651 124.626L28.6138 124.638C28.6651 124.409 40.7945 71.5167 40.7945 71.5167L17.6803 79.6659Z" fill="#A1A1A4"/>
<path d="M54.723 87.9182L52.5134 96.5632C52.5134 96.5632 53.8453 96.2162 55.0566 95.8967C53.631 101.345 50.5092 113.296 50.5092 113.296C50.1557 114.739 49.9844 116.139 49.9844 117.46C49.9844 120.371 50.8235 122.898 52.4461 124.695C53.973 126.387 56.9203 128.251 62.2934 127.512C66.461 126.944 70.3316 124.927 73.8031 121.514L76.1455 119.212L68.9407 114.887L67.5376 116.225C67.4356 116.324 67.331 116.408 67.2322 116.492C67.272 116.18 67.3349 115.813 67.4356 115.389C67.4285 115.41 74.8732 84.9188 74.8732 84.9188L75.9902 80.3406L54.723 87.9182Z" fill="#A1A1A4"/>
<path d="M100.163 82.3527C100.463 82.3187 100.786 82.3148 101.089 82.3315L94.5729 108.67C94.3233 109.634 92.8503 110.468 91.1521 110.588C91.0796 110.593 91.0058 110.574 90.9288 110.556C91.2695 109.204 97.6678 83.6506 97.7012 83.5146C97.9411 83.1463 99.1588 82.4656 100.163 82.3527ZM101.743 72.47C89.4622 73.9828 80.2057 81.3127 77.5958 91.5951L73.9389 106.391L73.953 106.329C72.657 111.054 73.16 114.784 75.4517 117.419C78.0988 120.458 82.7219 121.569 89.1959 120.724C101.537 119.111 110.674 112.392 113.047 103.186C113.049 103.175 117.182 86.8141 117.182 86.8141C118.343 82.048 117.758 78.3314 115.456 75.7407C112.809 72.7748 108.198 71.6713 101.743 72.47ZM152.359 61.9343C149.813 62.3455 146.849 63.3842 144.169 64.7103C144.401 63.7897 144.651 62.8023 144.651 62.8023L123.183 70.7853L121.127 79.3733L123.677 78.6034L115.107 113.705L133.234 109.269L140.571 78.9088C140.986 77.1137 141.881 75.989 143.432 75.3109L139.084 93.6096C139.091 93.5852 138.845 94.545 138.845 94.545C137.878 98.2507 136.557 103.329 139.343 106.463C140.881 108.196 143.268 108.856 146.437 108.423C152.042 107.653 156.973 104.731 161.099 99.7321L162.934 97.5116C162.934 97.5116 156.76 93.5968 156.177 93.2298C157.551 87.4955 160.941 73.3368 160.941 73.3368C161.285 71.9324 161.46 70.6416 161.46 69.4643C161.46 67.2143 160.823 65.3872 159.56 64.0129C157.906 62.2191 155.283 61.4646 152.359 61.9343ZM13.9397 155.961L12.8125 152.72L16.6343 150.985C37.0361 142.275 65.1725 132.484 93.83 124.116C123.227 115.534 149.343 109.62 165.484 107.891L168.353 107.582L168.191 115.783L166.172 116.175C152.248 118.861 102.995 130.201 53.8759 163.352L52.5061 164.275L51.1049 163.398C40.4498 156.731 25.5687 155.816 17.6473 155.863C16.4739 155.845 13.9397 155.961 13.9397 155.961Z" fill="#A1A1A4"/>
<path d="M179.244 57.1683C168.856 59.3484 163.024 66.7944 163.249 77.6073C163.381 84.0781 167.401 89.4153 171.289 94.5767C174.626 99.0028 177.776 103.186 177.881 107.39C178.073 115.202 174.628 116.302 173.485 116.561C171.473 117.012 169.984 115.794 169.565 115.283C173.061 113.652 176.573 110.547 176.573 106.093C176.573 105.802 176.558 105.507 176.528 105.205C176.237 102.332 174.847 100.759 173.733 99.9408C171.254 98.1284 168.316 98.5615 167.476 98.7366C161.36 100.011 157.472 106.051 158.624 112.489C160.488 122.913 170.231 126.128 178.497 124.697C184.479 123.661 189.478 120.653 192.569 116.222C195.627 111.832 196.661 106.342 195.556 100.349C194.414 94.1423 191.095 89.2491 187.885 84.5125C184.556 79.6006 181.406 74.9576 181.175 69.3844C181.1 67.6066 181.615 66.2773 182.157 65.7499C182.368 65.5452 182.504 65.5337 182.633 65.542C182.827 65.5555 183.282 65.5882 183.767 66.3241C184.847 67.9691 184.995 71.3738 184.101 73.9157L183.803 74.7632L185.342 79.1137L199.998 72.2605L199.793 70.45C199.313 66.0925 197.138 62.3175 193.678 59.8071C189.764 56.9752 184.639 56.0385 179.244 57.1683Z" fill="#A1A1A4"/>
<path d="M67.9013 68.3846C63.5983 69.1455 59.8939 72.8121 59.6482 76.5563C59.6382 76.6892 59.6337 76.8226 59.6347 76.956C59.6347 78.4919 60.2301 79.8648 61.3361 80.8567C62.7893 82.1597 64.9706 82.6684 67.3232 82.2508C71.6275 81.4925 75.3319 77.8278 75.5814 74.0811C75.6931 72.3835 75.0926 70.8547 73.8909 69.7788C72.4391 68.4738 70.2565 67.967 67.9013 68.3846ZM19.2046 81.0639L17.9336 85.9937C17.9336 85.9937 19.9969 85.44 20.813 85.218C20.3222 87.4141 10.7276 130.244 10.7109 130.314C9.98529 132.795 7.06873 133.96 5.84912 134.344L5.48793 134.459L2.86328 143.151L4.2574 142.573C20.6038 135.788 44.991 129.253 45.2348 129.189L45.5973 129.09L49.7488 117.623L47.5759 118.132C46.6417 118.352 46.2959 118.436 46.1869 118.721C45.621 119.383 42.8732 122.465 39.8931 123.427L29.0879 126.402C28.0101 126.662 27.2197 126.622 26.8892 126.288C26.5922 125.984 26.5601 125.301 26.7994 124.359C26.8052 124.341 38.27 74.3441 38.27 74.3441L19.2046 81.0639ZM56.2466 89.3093L55.0462 94.0107C55.0462 94.0107 56.9209 93.5205 57.6093 93.3396C57.0563 95.4497 52.283 113.717 52.283 113.717C51.961 115.03 51.8051 116.292 51.8051 117.471C51.8051 119.923 52.4838 122.014 53.801 123.473C55.0302 124.835 57.463 126.331 62.0419 125.704C65.8085 125.188 69.3358 123.34 72.5205 120.212L73.1807 119.565L69.1895 117.169L68.7988 117.546C67.9462 118.357 67.0948 118.824 66.2634 118.936C65.8771 118.991 65.7514 118.853 65.6956 118.794C65.3491 118.415 65.1329 117.19 65.6551 114.972L73.4085 83.1977L56.2466 89.3093ZM95.9447 82.9963C96.2565 81.7382 98.5251 80.7014 99.9532 80.5372C101.156 80.4018 102.806 80.5859 103.205 81.0414C103.245 81.0844 103.267 81.121 103.242 81.2288L96.3431 109.109C95.887 110.871 93.8051 112.23 91.278 112.41C90.5145 112.463 89.6818 112.154 89.241 111.658C89.0537 111.445 88.9645 111.226 88.9645 110.992C88.9645 110.933 88.9715 110.87 88.9844 110.806C88.9959 110.754 95.9447 82.9963 95.9447 82.9963ZM101.967 74.2813C90.4465 75.7023 81.7847 82.5068 79.3635 92.0462L75.7104 106.83C74.5877 110.912 74.963 114.074 76.8267 116.218C79.0164 118.732 83.2097 119.663 88.9587 118.914C100.543 117.398 109.096 111.201 111.276 102.73L115.412 86.3658C116.415 82.2328 115.972 79.0693 114.089 76.9585C111.868 74.4622 107.787 73.5627 101.967 74.2813ZM152.651 63.7365C149.059 64.3178 144.43 66.3047 141.322 68.4892L142.023 65.7298L124.731 72.1577L123.641 76.707C123.641 76.707 125.523 76.1412 126.208 75.9333L117.592 111.216L131.72 107.761L138.796 78.4771C139.393 75.8845 140.897 74.2139 143.39 73.3625C144.357 73.0353 145.101 73.1733 145.411 73.4594C145.481 73.5229 145.695 73.7205 145.559 74.246L140.859 94.0312C140.863 94.0254 140.609 95.0045 140.609 95.0045C139.749 98.3149 138.571 102.846 140.703 105.25C141.815 106.503 143.658 106.958 146.188 106.612C151.323 105.908 155.867 103.203 159.689 98.5696L160.205 97.946L156.115 95.3515L155.724 95.9052C154.802 97.2037 153.764 97.7856 153.341 97.7279C153.317 97.6541 153.306 97.5765 153.308 97.4989C153.308 97.3795 153.325 97.2281 153.378 97.06L153.387 97.0357L159.161 72.9122C159.474 71.6457 159.628 70.4954 159.628 69.4702C159.628 67.6879 159.159 66.2752 158.216 65.2512C156.986 63.9187 154.957 63.365 152.651 63.7365ZM165.676 109.707C149.638 111.424 123.639 117.316 94.3395 125.87C65.7514 134.216 37.6881 143.984 17.3505 152.664L16.5876 152.994L16.884 154.019L17.634 154.036C25.755 153.985 41.0248 154.938 52.0726 161.852L52.4684 162.101L52.8508 161.839C102.258 128.493 151.811 117.083 165.823 114.382L166.392 114.271L166.484 109.62L165.676 109.707Z" fill="white"/>
<path d="M179.62 58.9581C170.035 60.9675 164.869 67.5769 165.075 77.5706C165.195 83.4525 169.036 88.549 172.75 93.4769C176.268 98.1443 179.589 102.556 179.705 107.348C179.856 113.494 177.918 117.131 173.943 118.159C172.426 118.549 170.489 118.159 169.005 117.157C167.933 116.435 167.226 115.452 166.922 114.356C170.274 113.321 174.746 110.418 174.746 106.055C174.746 105.835 174.735 105.617 174.713 105.392C174.533 103.622 173.839 102.284 172.656 101.415C171.17 100.329 169.2 100.243 167.851 100.525C162.624 101.615 159.429 106.619 160.423 112.164C162.068 121.364 170.784 124.176 178.186 122.898C183.685 121.948 188.259 119.207 191.068 115.177C193.846 111.195 194.777 106.186 193.76 100.68C192.687 94.8518 189.478 90.1183 186.373 85.5356C182.892 80.4031 179.6 75.5561 179.349 69.4625C179.261 67.3716 179.85 65.4476 180.881 64.4429C181.424 63.9162 182.057 63.6749 182.761 63.7224C183.79 63.7955 184.641 64.3312 185.292 65.3212C186.691 67.4544 186.921 71.4084 185.823 74.5232L185.741 74.7605L186.393 76.6063L198.037 71.1601L197.98 70.6507C197.555 66.8122 195.646 63.4895 192.604 61.2883C189.115 58.7612 184.505 57.9329 179.62 58.9581Z" fill="white"/>
<path d="M74.8696 74.0374C74.6386 77.4768 71.2069 80.8438 67.2023 81.5463C63.1944 82.2584 60.1329 80.0418 60.3619 76.6031C60.589 73.1578 64.0233 69.7954 68.0299 69.0897C72.0352 68.3782 75.0961 70.5948 74.8696 74.0374ZM46.857 119.038L48.6302 118.62L45.0535 128.5C45.0535 128.5 20.5682 135.03 3.98438 141.911L6.0669 135.03C8.33162 134.314 10.724 132.838 11.4028 130.507L21.7724 84.2203L18.9348 84.9877L19.8009 81.6105L37.2854 75.4469L26.1107 124.183C25.4563 126.743 26.5796 127.738 29.2819 127.092L40.1167 124.107C43.6915 122.951 46.857 119.038 46.857 119.038ZM69.2918 118.062C68.3744 118.94 67.3935 119.507 66.3586 119.646C64.5494 119.902 64.3114 117.582 64.9613 114.809L72.4034 84.3159L56.848 89.8584L56.0442 93.0143L58.6136 92.3381L52.9768 113.898C51.4647 120.102 53.5106 126.152 61.9453 124.996C65.7908 124.468 69.1475 122.523 72.0217 119.702L69.2918 118.062ZM114.721 86.1919C116.985 76.8706 111.377 73.8405 102.055 74.9902C91.3071 76.3188 82.5164 82.5471 80.0586 92.2207L76.4074 107.002C73.8617 116.262 79.5562 119.419 88.8673 118.205C99.5435 116.81 108.355 111.215 110.586 102.553L114.721 86.1919ZM91.3315 113.126C89.7783 113.233 87.9806 112.158 88.2847 110.661L95.2541 82.8243C95.6595 81.178 98.2675 80.0097 99.8752 79.8282C101.278 79.6684 104.303 79.8558 103.938 81.3923L97.0402 109.282C96.4615 111.519 93.9626 112.938 91.3315 113.126ZM125.342 72.6978L124.629 75.6619L127.2 74.8881L118.568 110.244L131.13 107.171L138.103 78.3102C138.826 75.1922 140.725 73.5171 143.161 72.6837C145.054 72.0402 146.667 72.8024 146.255 74.4224L141.556 94.1967C140.486 98.4977 137.624 107.065 146.093 105.905C152.414 105.039 156.616 101.174 159.14 98.1141L156.309 96.3203C155.274 97.7773 153.923 98.6639 153.078 98.4028C152.577 98.2437 152.495 97.4994 152.7 96.847L158.466 72.7447C160.272 65.4296 156.249 63.8795 152.766 64.4447C148.446 65.1402 142.777 67.881 140.112 70.3715L141 66.8737L125.342 72.6978Z" fill="#0066B3"/>
<path d="M178.637 69.4873C178.49 65.9593 180.121 62.8227 182.813 63.0088C187.096 63.3071 188.131 70.1289 186.502 74.7597L186.804 75.6232L197.272 70.7319C196.393 62.8259 189.014 57.7191 179.765 59.656C169.804 61.743 165.61 68.772 165.789 77.5531C166.02 88.6284 180.17 97.0739 180.422 107.327C180.611 114.98 177.555 117.962 174.123 118.851C171.044 119.645 166.56 117.634 166.063 113.851C169.634 112.986 174.458 109.938 174.001 105.462C173.552 101.032 169.692 100.869 167.999 101.222C163.701 102.117 160.602 106.125 160.994 111.004C125.24 115.969 57.5574 136.28 17.6328 153.322C28.8416 153.253 42.5583 155.052 52.4531 161.246C92.1262 134.471 134.478 120.263 161.792 114.475C164.264 121.065 171.308 123.359 178.066 122.194C188.211 120.441 195.199 112.434 193.058 100.812C190.836 88.7297 179.134 81.3774 178.637 69.4873ZM67.7814 57.2636C65.2382 59.2293 63.6054 58.0995 62.4012 56.316L64.4549 54.7287C65.1805 55.6667 65.831 56.4257 66.9608 55.5532C67.6537 55.0168 67.6473 54.3047 67.1321 53.6387C65.7656 51.8699 61.546 54.9546 59.2871 52.0303C58.0989 50.4925 57.8878 48.7006 60.3905 46.7669C62.3916 45.2227 64.0776 45.3536 65.5295 47.5124L63.5284 49.0579C62.9606 48.3227 62.2613 47.669 61.4305 48.3105C60.7646 48.8244 60.6542 49.4974 61.1784 50.1775C62.6193 52.0412 66.6285 48.6845 69.0138 51.7724C70.9789 54.3175 69.3462 56.0561 67.7814 57.2636ZM72.5739 42.2041L72.5431 42.2182L73.866 47.5503L76.0826 46.4493L72.5739 42.2041ZM72.5514 53.4039L70.109 40.7587L73.1737 39.2382L81.7117 48.8546L79.2635 50.0703L77.4254 47.9134L74.2535 49.4878L74.8469 52.2645L72.5514 53.4039ZM83.6293 48.0494L80.9033 35.9399L84.9798 35.025L88.7278 42.8322L88.7605 42.8245L88.9216 34.1371L92.8627 33.2504L95.5881 45.36L93.1225 45.9143L91.0201 36.5718L90.9861 36.5795L90.7564 46.4461L88.3422 46.9889L84.0258 38.1462L83.9924 38.1526L86.0948 47.4944L83.6293 48.0494ZM101.981 45.5364C98.7651 45.5165 98.1761 43.6213 98.3256 41.4727L100.922 41.4907C100.915 42.6763 100.961 43.6727 102.387 43.6836C103.264 43.6881 103.696 43.1241 103.703 42.2805C103.715 40.0472 98.4912 39.8752 98.5143 36.1798C98.5258 34.2372 99.4644 32.6961 102.627 32.716C105.154 32.7314 106.402 33.8753 106.214 36.4692L103.688 36.4518C103.694 35.5248 103.544 34.5772 102.496 34.5721C101.652 34.5669 101.152 35.0269 101.147 35.8866C101.131 38.2418 106.359 38.0686 106.335 41.9706C106.315 45.1861 103.957 45.5492 101.981 45.5364ZM119.757 35.161L117.983 43.7817C117.607 45.5999 116.185 47.3084 113.087 46.6707C110.291 46.0945 109.243 44.3688 109.715 42.0797L111.489 33.4589L114.031 33.9825L112.292 42.4338C111.982 43.9331 112.501 44.6543 113.427 44.8448C114.539 45.0732 115.196 44.4367 115.474 43.0895L117.214 34.6375L119.757 35.161ZM120.151 48.2021L125.18 36.8554L128.386 38.2758L127.922 47.4701L127.953 47.4848L131.436 39.6276L133.651 40.6098L128.623 51.9565L125.495 50.5701L126.077 40.9004L126.045 40.8863L122.368 49.1843L120.151 48.2021ZM140.89 49.9151C141.581 48.9944 142.026 48.0629 140.913 47.2532C139.606 46.3031 138.322 48.0686 136.905 50.0139C134.619 53.1543 134.52 53.9338 135.717 54.8038C136.064 55.0566 136.499 55.2458 136.9 55.3684L138.518 53.1441L137.378 52.3145L138.501 50.7709L141.74 53.1287L138.038 58.2163C137.387 57.9115 135.794 57.0923 134.959 56.486C131.428 53.9159 132.087 52.1625 134.86 48.3561C136.701 45.8251 138.697 43.3448 142.13 45.8437C144.188 47.3411 144.627 49.4269 142.973 51.4337L140.89 49.9151ZM82.5342 158.003L83.7692 158.396C84.1734 158.525 84.8207 158.435 85.0927 157.579C85.2993 156.931 85.01 156.313 84.387 156.115L83.2495 155.754L82.5342 158.003ZM81.3056 161.868L82.3327 162.194C82.7241 162.319 83.6088 162.587 84.0008 161.352C84.2497 160.569 84.1079 159.998 83.1789 159.703L82.1024 159.36L81.3056 161.868ZM79.0267 162.637L81.8349 153.809L85.112 154.851C86.5176 155.298 87.5512 156.072 86.9526 157.955C86.6299 158.97 85.8953 159.543 84.8303 159.421L84.8226 159.445C86.073 160.045 86.1468 160.997 85.7619 162.208C85.0504 164.445 83.075 163.924 82.2923 163.675L79.0267 162.637ZM91.3351 158.218L91.3101 158.213L89.7222 161.993L91.5404 162.324L91.3351 158.218ZM86.3226 164.909L90.5056 156.254L93.0173 156.711L93.834 166.276L91.8266 165.91L91.6899 163.799L89.089 163.325L88.2043 165.251L86.3226 164.909ZM97.763 166.679C95.368 166.541 95.001 165.105 95.1954 163.51L97.1298 163.622C97.0791 164.506 97.0746 165.25 98.1377 165.313C98.7914 165.35 99.1359 164.945 99.1725 164.318C99.2681 162.653 95.3802 162.325 95.5393 159.571C95.6214 158.123 96.3804 157.011 98.7375 157.147C100.621 157.255 101.507 158.155 101.267 160.081L99.3842 159.973C99.424 159.281 99.3496 158.571 98.5682 158.526C97.9407 158.489 97.5487 158.814 97.5121 159.454C97.4108 161.209 101.314 161.28 101.146 164.188C101.008 166.583 99.2367 166.763 97.763 166.679ZM102.906 166.684L102.416 157.433L107.464 157.165L107.54 158.588L104.426 158.753L104.547 161.034L107.417 160.882L107.492 162.304L104.622 162.456L104.765 165.159L107.981 164.989L108.056 166.412L102.906 166.684ZM111.517 164.506L112.581 164.327C112.985 164.259 113.894 164.093 113.679 162.815C113.542 162.005 113.156 161.563 112.194 161.725L111.081 161.913L111.517 164.506ZM110.844 160.508L112.122 160.293C112.54 160.223 113.075 159.845 112.926 158.961C112.813 158.29 112.275 157.873 111.629 157.982L110.452 158.18L110.844 160.508ZM109.843 166.232L108.305 157.097L111.695 156.526C113.151 156.281 114.423 156.496 114.752 158.445C114.928 159.495 114.537 160.342 113.534 160.718L113.538 160.744C114.924 160.706 115.426 161.519 115.636 162.773C116.027 165.088 114.032 165.528 113.221 165.664L109.843 166.232ZM118.774 156.68L118.75 156.687L119.06 160.775L120.829 160.241L118.774 156.68ZM117.363 164.92L117.141 155.31L119.586 154.572L124.672 162.712L122.719 163.303L121.634 161.486L119.103 162.251L119.194 164.368L117.363 164.92ZM125.991 162.127L122.345 153.611L124.126 152.849L127.167 159.95L129.834 158.809L130.439 160.224L125.991 162.127ZM131.655 159.592L127.218 151.46L128.919 150.532L132.619 157.313L135.164 155.925L135.902 157.275L131.655 159.592ZM136.975 151.066C135.478 149.124 134.054 147.274 136.584 145.324C138.15 144.119 139.445 144.497 140.598 146.12L139.094 147.278C138.342 146.302 137.887 146.07 137.43 146.422C136.566 147.088 137.081 147.987 138.529 149.867C139.979 151.748 140.717 152.475 141.581 151.81C142.293 151.261 141.557 150.37 141.131 149.775L142.646 148.608C144.157 150.569 143.86 151.803 142.427 152.907C139.896 154.858 138.456 152.987 136.975 151.066ZM145.836 149.896L139.445 143.188L140.848 141.853L146.177 147.445L148.277 145.444L149.338 146.56L145.836 149.896ZM147.231 134.815L152.259 139.044C153.319 139.937 153.935 141.477 152.415 143.284C151.044 144.914 149.539 144.989 148.203 143.865L143.176 139.636L144.423 138.154L149.352 142.3C150.226 143.035 150.883 142.952 151.338 142.411C151.883 141.764 151.699 141.105 150.913 140.444L145.984 136.297L147.231 134.815Z" fill="#0066B3"/>
<path d="M155.43 136.675L156.015 135.77C156.237 135.425 156.729 134.642 155.639 133.938C154.949 133.493 154.362 133.48 153.833 134.3L153.22 135.248L155.43 136.675ZM152.024 134.475L152.727 133.387C152.957 133.03 153.04 132.382 152.285 131.895C151.714 131.526 151.042 131.641 150.688 132.192L150.04 133.194L152.024 134.475ZM155.576 139.075L147.793 134.048L149.658 131.16C150.459 129.921 151.476 129.126 153.136 130.199C154.03 130.777 154.392 131.636 153.994 132.631L154.015 132.645C154.921 131.596 155.86 131.775 156.928 132.464C158.9 133.738 157.88 135.508 157.434 136.198L155.576 139.075Z" fill="#0066B3"/>
</g>
<defs>
<clipPath id="clip0_463_17200">
<rect width="200" height="150.486" fill="white" transform="translate(0 25)"/>
</clipPath>
</defs>
</svg>
