<svg width="200" height="200" viewBox="0 0 200 200" fill="none" xmlns="http://www.w3.org/2000/svg">
<g clip-path="url(#clip0_463_17063)">
<path d="M188.981 106.695C190 105.258 190.741 103.59 191.204 101.876L192.222 98.031C192.593 96.6411 192.778 95.2049 192.778 93.8151C192.778 92.8885 192.685 91.9619 192.5 91.0817L194.12 90.9427L198.333 75.1908L190.741 66.1567L161.667 68.7048C160 66.6663 158.148 64.6741 156.157 62.821C155.37 54.2501 148.148 47.4861 139.352 47.4861C137.269 47.4861 135.324 47.8567 133.472 48.5516C121.944 43.7334 108.611 41 94.3519 41C69.4444 41 47.2222 49.3856 33.0556 62.404L5.13889 64.9058L18.6574 77.1366L0 146.815L8.24074 155.803L62.6852 146.028C72.3611 149.132 83.0556 150.846 94.3519 150.846C113.889 150.846 131.759 145.704 145.417 137.179L149.259 159L164.398 124.902L199.954 109.196L188.981 106.695Z" fill="#D5D5D6"/>
<path d="M195.601 75.8396L189.675 68.7513L160.555 71.2994C158.564 68.7049 156.249 66.2032 153.703 63.8867C153.471 56.1498 147.129 49.9417 139.305 49.9417C137.221 49.9417 135.23 50.405 133.425 51.1926C122.036 46.328 108.656 43.502 94.3508 43.502C69.6286 43.502 47.6842 51.8875 34.0268 64.8133L10.9712 66.8981L21.3879 76.3492L2.73047 146.121L9.16565 153.116L62.8694 143.48C72.4527 146.584 83.1471 148.345 94.3971 148.345C114.999 148.345 133.703 142.507 147.268 133.056L150.369 150.568L162.592 123.003L192.129 109.938L184.305 108.177C186.434 106.417 188.101 103.961 188.795 101.228L189.814 97.3826C190.138 96.178 190.277 94.9735 190.277 93.8153C190.277 92.5644 190.045 91.3598 189.675 90.2479C189.536 89.7846 189.305 89.3213 189.119 88.9044L192.175 88.6264L195.601 75.8396Z" fill="#CF0022"/>
<path d="M142.361 126.94C133.009 133.334 121.342 137.596 108.611 139.449C115.046 137.086 121.018 134.075 126.342 130.461C126.666 130.23 127.037 129.998 127.361 129.766L116.62 131.666C104.722 137.781 89.9534 141.395 73.8886 141.395C72.3608 141.395 70.833 141.349 69.3516 141.302C77.1293 143.294 85.5553 144.406 94.3053 144.406C114.907 144.406 133.426 138.43 146.389 128.886L145.602 124.531C144.629 125.319 143.518 126.153 142.361 126.94Z" fill="white"/>
<path d="M9.35156 144.406L11.3423 146.63L149.027 122.122L148.611 119.666L9.35156 144.406ZM158.055 118.462L151.157 133.982L153.055 135.882L159.953 120.361L175.046 113.69L173.148 111.791L158.055 118.462ZM187.083 74.959L185.509 80.7501L175.463 81.6304C175.046 81.6767 174.629 82.0473 174.537 82.4643L173.426 86.5412C173.333 86.9582 173.565 87.2825 173.935 87.2362L175.833 87.0509L176.481 84.6417C176.574 84.2248 176.898 84.0395 177.222 83.9931L187.407 83.1129L188.981 77.3218L187.083 74.959ZM124.444 101.552L126.342 101.367L127.129 98.3551L140.602 97.1969L142.963 88.3481C143.148 87.6531 143.24 87.0045 143.24 86.4022C143.24 85.8 143.148 85.1977 142.963 84.6881C142.777 84.1785 142.546 83.7152 142.176 83.2982C141.852 82.9276 140.648 81.4914 140.277 81.0744C141.203 82.279 141.527 84.0395 140.972 86.0316L138.611 94.8805L125.139 96.0387L123.842 100.857C123.796 101.274 124.027 101.598 124.444 101.552Z" fill="#970022"/>
<path d="M156.992 85.754L165.835 84.9664L167.177 79.8702C167.224 79.6386 167.316 79.4533 167.409 79.2216L165.372 76.8125L163.844 82.6036L155.233 83.3449C154.816 83.3912 154.4 83.7618 154.307 84.1788L148.705 105.073L140.511 105.814L141.251 103.081L138.89 106L120.927 107.575C118.196 107.807 116.251 106.417 115.742 104.147L112.316 108.363L107.363 108.78C106.113 108.872 105.094 108.548 104.492 107.853C103.937 108.594 103.057 109.15 102.224 109.196L94.3533 109.891C91.6218 110.123 89.6774 108.733 89.1681 106.463L85.7422 110.679L81.2514 111.096C79.3996 111.235 77.9181 110.679 76.9922 109.567C77.3626 110.03 78.5663 111.467 78.8903 111.837C79.2144 112.208 79.5848 112.532 80.0014 112.81C80.4181 113.042 80.9274 113.273 81.4366 113.366C81.9922 113.459 82.5477 113.505 83.1959 113.459L86.9922 113.134L90.4644 108.872C90.9737 109.474 91.7607 110.401 91.9922 110.679C92.3163 111.05 92.6866 111.374 93.1033 111.652C93.52 111.884 94.0292 112.115 94.5385 112.208C95.094 112.301 95.6496 112.347 96.2977 112.301L104.168 111.606C105.001 111.513 105.881 111.003 106.437 110.262C107.038 110.911 108.011 111.281 109.307 111.189L113.566 110.818L117.038 106.556C117.548 107.158 118.335 108.085 118.566 108.363C118.89 108.733 119.261 109.057 119.677 109.335C120.094 109.567 120.603 109.799 121.113 109.891C121.668 109.984 122.224 110.03 122.872 109.984L140.835 108.409L141.622 107.436L142.455 108.27L150.65 107.529L156.298 86.4489C156.39 86.032 156.714 85.8003 156.992 85.754ZM183.288 90.8039C182.964 90.4332 181.761 88.997 181.39 88.5801C182.316 89.7846 182.64 91.5451 182.085 93.5373L180.603 99.0968C180.14 100.904 178.381 102.525 176.761 102.664L158.659 104.239L159.446 108.733L162.085 109.335L161.576 106.509L176.946 105.166C179.631 104.934 182.224 102.571 182.964 99.7454L183.983 95.9001C184.168 95.2051 184.261 94.5565 184.261 93.9542C184.261 93.352 184.168 92.7497 183.983 92.2401C183.844 91.6841 183.613 91.2208 183.288 90.8039Z" fill="#970022"/>
<path d="M157.684 98.6329L160.184 98.4476L159.999 97.4746L156.943 94.4169L157.684 98.6329ZM166.48 90.5253C166.804 90.9423 168.101 92.4248 168.425 92.8417C168.749 93.2124 169.119 93.5367 169.536 93.8147C169.952 94.0463 170.462 94.2779 170.971 94.3706C171.526 94.4633 172.082 94.5096 172.73 94.4633L173.888 94.3706L174.397 92.5638C174.489 92.1468 174.258 91.8225 173.888 91.8688L170.832 92.1468C168.888 92.2395 167.406 91.6372 166.48 90.5253ZM111.295 102.71L113.193 102.525L123.147 65.3223L121.202 63.0059L110.739 102.015C110.647 102.432 110.878 102.756 111.295 102.71ZM129.675 88.8575C129.767 88.4405 130.184 88.0699 130.601 88.0235L132.452 87.8382L132.962 86.0314C133.054 85.6144 132.823 85.2901 132.452 85.3364L128.656 85.6607C128.239 85.7071 127.823 86.0777 127.73 86.4947L126.434 91.3129L129.073 91.0812L129.675 88.8575ZM40.6468 72.735L38.7024 70.3722L24.582 123.095L27.2209 122.863L40.6468 72.735ZM51.3413 112.485C50.7857 113.227 49.9061 113.782 49.0728 113.829L41.2024 114.524C39.4431 114.663 37.9617 114.153 37.0357 113.088L38.8413 115.265C39.1654 115.636 39.5357 115.96 39.9524 116.238C40.3691 116.47 40.8783 116.701 41.3876 116.794C41.9431 116.887 42.4987 116.933 43.1468 116.887L51.0172 116.192C51.8505 116.099 52.7302 115.589 53.2857 114.848C53.8876 115.497 54.8598 115.867 56.1561 115.775L61.1098 115.358L61.9894 114.292L62.7302 115.219L70.9246 114.477L76.7117 92.8417L79.3043 92.6101L79.8135 90.8033C79.9061 90.3863 79.6746 90.062 79.3043 90.1083L74.8135 90.5253L68.9802 112.068L60.7857 112.81L61.5265 110.076L59.1654 112.949L54.2117 113.365C52.9154 113.504 51.8968 113.134 51.3413 112.485ZM52.7765 94.8802L53.2857 93.0734C53.3783 92.6564 53.1468 92.3321 52.7765 92.3785L40.045 93.4904L41.9894 95.8068L52.7765 94.8802Z" fill="#970022"/>
<path d="M44.7215 108.547L46.6197 108.362L47.3141 105.86C47.4067 105.443 47.8234 105.073 48.24 105.026L50.0919 104.841L50.7863 102.293L46.2956 102.71C45.8789 102.756 45.4623 103.127 45.3697 103.544L44.2123 107.899C44.0734 108.269 44.3048 108.594 44.7215 108.547ZM97.8697 103.868L99.7678 103.683L103.101 91.1739C103.194 90.7569 103.61 90.3863 104.027 90.3399L105.879 90.1546L106.573 87.6065L102.083 88.0235C101.666 88.0698 101.249 88.4404 101.157 88.8574L97.3141 103.173C97.2215 103.59 97.453 103.914 97.8697 103.868ZM58.1474 107.343L60.0456 107.157L63.24 95.2971C63.4252 94.6022 63.5178 93.9536 63.5178 93.3513C63.5178 92.749 63.4252 92.1468 63.24 91.6371C63.0548 91.1275 62.8234 90.6642 62.453 90.2473C62.1289 89.8766 60.9252 88.4404 60.5548 88.0235C61.4808 89.228 61.8048 90.9885 61.2493 92.9807L57.5919 106.648C57.4993 107.065 57.7308 107.389 58.1474 107.343ZM84.7215 105.026L86.6197 104.841L89.8141 92.9807C89.9993 92.2858 90.0919 91.6371 90.0919 91.0349C90.0919 90.4326 89.9993 89.8303 89.8141 89.3207C89.6289 88.8111 89.3974 88.3478 89.0271 87.9308C88.703 87.5602 87.4993 86.124 87.1289 85.707C88.0548 86.9116 88.3789 88.6721 87.8234 90.6642L84.166 104.331C84.0734 104.748 84.3048 105.073 84.7215 105.026Z" fill="#970022"/>
<path d="M174.537 82.4649C174.629 82.048 175.046 81.6773 175.463 81.631L185.509 80.7507L187.083 74.9596L171.065 76.3495C169.398 76.4885 167.685 78.11 167.222 79.9168L165.74 85.4763C164.676 89.4606 166.944 92.4257 170.787 92.055L173.842 91.7771C174.259 91.7307 174.49 92.055 174.352 92.472L173.24 96.5489C173.148 96.9659 172.731 97.3365 172.315 97.3829L157.639 98.6801L156.898 94.4178L150 109.938L143.842 112.671L24.583 123.095L38.7034 70.373L23.7034 71.7166L27.8238 75.4692L9.35156 144.407L148.611 119.667L151.157 133.983L158.055 118.463L173.194 111.791L159.49 108.733L158.703 104.24L176.805 102.664C178.472 102.525 180.185 100.904 180.648 99.097L182.129 93.5376C183.194 89.5533 180.926 86.5882 177.083 86.9125L174.027 87.1905C173.611 87.2368 173.379 86.9125 173.518 86.4955L174.537 82.4649Z" fill="white"/>
<path d="M139.304 76.2565C145.876 76.2565 151.203 70.9257 151.203 64.3499C151.203 57.7741 145.876 52.4434 139.304 52.4434C132.733 52.4434 127.406 57.7741 127.406 64.3499C127.406 70.9257 132.733 76.2565 139.304 76.2565Z" fill="white"/>
<path d="M132.082 54.8521C121.156 50.1729 108.24 47.4395 94.3507 47.4395C89.3507 47.4395 84.4896 47.8101 79.8137 48.4587C98.61 49.2926 115.416 55.1301 127.406 64.0716C127.499 60.3189 129.304 56.9832 132.082 54.8521ZM163.841 82.6495L165.369 76.8584L150.832 78.1556C149.166 78.2946 147.453 79.9161 146.99 81.7229L142.082 100.069L124.443 101.598C124.027 101.644 123.795 101.32 123.934 100.903L125.23 96.0849L138.703 94.9267L141.064 86.0779C142.129 82.0936 139.86 79.1285 136.017 79.4528L124.304 80.472C122.638 80.611 120.925 82.2325 120.462 84.0394L115.925 100.996C115.786 101.459 115.74 101.922 115.693 102.386L111.388 102.756C110.971 102.803 110.74 102.478 110.879 102.061L121.341 63.0523L107.869 64.2569L111.99 68.0095L108.286 81.9082L97.823 82.8348C96.1563 82.9738 94.4433 84.5953 93.9804 86.4022L89.4433 103.359C89.3044 103.822 89.2581 104.285 89.2119 104.748L84.9063 105.119C84.4896 105.165 84.2582 104.841 84.397 104.424L88.0544 90.7571C89.1193 86.7728 86.8507 83.8077 83.0082 84.132L68.3322 85.4292L62.5452 107.065L58.3322 107.436C57.9156 107.482 57.6841 107.158 57.823 106.741L61.4804 93.0735C62.5452 89.0892 60.2767 86.1242 56.4341 86.4485L41.7581 87.7457L40.1841 93.5368L52.9156 92.4249C53.3322 92.3786 53.5637 92.7029 53.4248 93.1199L52.2211 97.6601L41.8507 98.5867C40.1841 98.7257 38.4248 100.255 37.9619 102.015L36.3878 107.991C35.323 111.976 37.5915 114.941 41.4341 114.617L49.3044 113.922C50.1378 113.829 51.0174 113.319 51.573 112.578C52.1748 113.227 53.147 113.597 54.4433 113.505L59.397 113.088L61.7581 110.215L61.0174 112.949L69.2119 112.207L74.9989 90.5718L79.4896 90.1548C79.9063 90.1085 80.1378 90.4328 79.9989 90.8497L76.3415 104.517C75.2767 108.501 77.5452 111.466 81.3878 111.142L85.8785 110.725L89.3044 106.509C89.8137 108.779 91.7582 110.169 94.4896 109.937L102.36 109.242C103.193 109.15 104.073 108.64 104.629 107.899C105.23 108.547 106.203 108.918 107.499 108.825L112.453 108.408L115.879 104.192C116.388 106.463 118.332 107.852 121.064 107.621L139.027 106.046L141.388 103.127L140.647 105.86L148.841 105.119L154.443 84.2247C154.536 83.8077 154.953 83.4371 155.369 83.3908L163.841 82.6495ZM127.73 86.5411C127.823 86.1242 128.24 85.7535 128.656 85.7072L132.453 85.3829C132.869 85.3366 133.101 85.6609 132.962 86.0779L131.666 90.8961L126.434 91.3594L127.73 86.5411ZM49.397 107.389C49.3044 107.806 48.8878 108.177 48.4711 108.223L44.6748 108.547C44.2581 108.594 44.0267 108.269 44.1656 107.852L45.323 103.498C45.4156 103.081 45.8322 102.71 46.2489 102.664L50.7396 102.247L49.397 107.389ZM102.545 102.756C102.453 103.173 102.036 103.544 101.619 103.59L97.823 103.915C97.4063 103.961 97.1748 103.637 97.3137 103.22L101.156 88.9039C101.249 88.487 101.666 88.1163 102.082 88.07L106.573 87.653L102.545 102.756Z" fill="white"/>
<path d="M42.9634 111.513C40.8338 111.698 39.5838 110.077 40.1857 107.853L41.5746 102.71C41.7134 102.154 42.0838 101.645 42.5005 101.274L39.2597 99.6063C38.5653 100.209 38.0097 101.043 37.7783 101.923L36.2042 107.899C35.1394 111.883 37.4079 114.849 41.2505 114.524L49.1208 113.829C49.9542 113.737 50.8338 113.227 51.3894 112.486C51.9912 113.134 52.9634 113.505 54.2597 113.412L59.1208 112.995L58.0097 110.262L42.9634 111.513ZM71.482 87.8851L68.1486 85.337L60.7875 112.81L68.982 112.069L65.6486 109.521L71.482 87.8851ZM107.778 64.2109L111.899 67.9173L108.149 81.8623L111.482 84.4104L116.297 66.4347L107.778 64.2109ZM135.139 92.8886L121.713 94.0468L125.186 96.039L138.658 94.8807L135.139 92.8886ZM148.473 79.2679C147.778 79.9165 147.223 80.7504 146.991 81.677L140.51 105.814L148.704 105.073L145.371 102.525L150.602 82.9279C150.741 82.3719 151.112 81.8623 151.528 81.4453L148.473 79.2679ZM153.056 80.7504C152.547 80.7967 152.038 81.0747 151.575 81.4453L154.676 83.6228C154.862 83.4838 155.047 83.3912 155.232 83.3448L163.843 82.6036L161.25 80.0091L153.056 80.7504ZM84.5838 107.899L82.9634 108.038C80.8338 108.223 79.5838 106.602 80.1857 104.378L83.8431 90.7111C84.4449 88.5337 83.1949 86.8658 81.0653 87.0511L71.482 87.8851L74.8153 90.4332L79.306 90.0162C79.7227 89.9699 79.9542 90.2942 79.8153 90.7111L76.1579 104.378C75.0931 108.362 77.3616 111.328 81.2042 111.003L85.6949 110.586L84.5838 107.899Z" fill="#D5D5D6"/>
<path d="M55.5093 99.6066L43.9352 100.626C43.4259 100.672 42.8704 100.95 42.4537 101.321L45.6944 102.989C45.8796 102.85 46.0648 102.757 46.25 102.711L50.7407 102.294L49.3981 107.39C49.3518 107.575 49.213 107.807 49.0278 107.946L51.4352 110.772C52.037 110.726 52.6389 110.17 52.7778 109.567L55.5093 99.6066ZM54.4907 89.3679L44.1667 90.2481L41.5741 87.6537L40 93.4448L52.7315 92.3329C53.1481 92.2866 53.3796 92.6109 53.2407 93.0279L52.037 97.5681L55.5093 99.5603L57.2685 92.9815C57.8704 90.8504 56.6204 89.1826 54.4907 89.3679ZM134.213 82.4185L126.481 83.1135C125.972 83.1598 125.463 83.4378 125 83.8084L128.102 85.9859C128.287 85.8469 128.472 85.7542 128.657 85.7079L132.454 85.3836C132.87 85.3373 133.102 85.6616 132.963 86.0785L131.667 90.8967L135.139 92.8889L136.991 86.0322C137.593 83.8547 136.343 82.2332 134.213 82.4185ZM182.917 78.1562L173.241 78.9902C172.731 79.0365 172.222 79.3145 171.759 79.6851L174.861 81.8626C175.046 81.7236 175.231 81.6309 175.417 81.5846L185.463 80.7043L182.917 78.1562Z" fill="#D5D5D6"/>
<path d="M168.702 77.5068L171.804 79.6843C171.387 80.1013 171.017 80.6109 170.878 81.1668L169.582 85.985C168.98 88.1625 170.23 89.8304 172.36 89.645L175.415 89.3671C177.545 89.1817 178.795 90.8033 178.193 93.0271L176.897 97.8453C176.758 98.4012 176.387 98.9108 175.971 99.3278L172.869 97.1503C173.054 97.0113 173.147 96.826 173.239 96.5944L174.35 92.5174C174.443 92.1005 174.212 91.7762 173.841 91.8225L170.786 92.1005C166.943 92.4248 164.675 89.506 165.739 85.5218L167.221 79.9159" fill="#D5D5D6"/>
<path d="M176.019 99.2817C175.602 99.6986 175.046 99.9303 174.537 99.9766L160.787 101.181L157.639 98.6331L158.611 104.239L176.713 102.664C177.546 102.571 178.38 102.154 179.074 101.505L176.019 99.2817ZM111.158 105.536L96.1113 106.833C93.9817 107.019 92.7317 105.397 93.3335 103.173L97.5002 87.5604C97.6391 87.0045 98.0095 86.4949 98.4261 86.0779L95.3243 83.9004C94.6298 84.549 94.0743 85.383 93.8428 86.3095L89.3057 103.266C88.2409 107.25 90.5095 110.215 94.352 109.891L102.222 109.196C103.056 109.103 103.935 108.594 104.491 107.853C105.093 108.501 106.065 108.872 107.361 108.779L112.315 108.362L111.158 105.536ZM137.732 103.22L122.685 104.517C120.556 104.702 119.306 103.081 119.908 100.857L124.074 85.244C124.213 84.688 124.584 84.1784 125 83.7615L121.898 81.584C121.204 82.2326 120.648 83.0665 120.417 83.9931L115.88 100.95C114.815 104.934 117.084 107.899 120.926 107.575L138.889 105.999L137.732 103.22Z" fill="#D5D5D6"/>
<path d="M148.611 119.666L141.99 118.184L15.6942 138.569L32.9164 74.1713L23.7034 71.7158L27.8238 75.4685L9.35156 144.406L148.611 119.666Z" fill="#D5D5D6"/>
<path d="M99.9073 85.4293C99.398 85.4756 98.8887 85.7536 98.4258 86.1242L101.528 88.3017C101.713 88.1627 101.898 88.07 102.083 88.0237L106.574 87.6067L102.546 102.664C102.5 102.849 102.361 103.081 102.176 103.22L104.583 106.046C105.185 105.999 105.787 105.443 105.926 104.841L111.435 84.3174L99.9073 85.4293Z" fill="#D5D5D6"/>
<path d="M157.733 110.494L156.02 100.765L151.344 111.281L144.122 114.478L21.668 128.238L26.205 132.361L143.242 116.331L150.372 117.906L152.085 127.635L156.761 117.119L167.038 112.579L157.733 110.494Z" fill="#FAC109"/>
<path d="M154.956 107.899L156.159 112.069L160.141 113.413L155.604 115.868L153.15 120.501L151.946 116.285L147.965 114.941L152.502 112.532L154.956 107.899Z" fill="#004537"/>
<path d="M129.816 57.1223C124.075 54.7595 117.872 52.9527 111.344 51.8408C117.409 54.2036 123.01 57.1687 127.964 60.6897C128.381 59.3924 129.029 58.1879 129.816 57.1223Z" fill="#FAC109"/>
<path d="M141.897 72.6426C135.878 72.6426 131.017 67.7781 131.017 61.7553C131.017 58.2343 132.684 55.0839 135.277 53.0918C130.693 54.7596 127.406 59.1609 127.406 64.3034C127.406 70.8821 132.73 76.21 139.304 76.21C144.443 76.21 148.841 72.9206 150.508 68.334C148.517 70.9748 145.416 72.6426 141.897 72.6426Z" fill="#D5D5D6"/>
<path d="M142.315 68.4264L141.621 66.8513L141.112 67.4535L141.714 68.8434L141.251 69.353L143.01 70.048L143.473 69.492L141.945 68.8434L142.315 68.4264ZM143.982 66.8049L143.658 65.1371L143.01 65.6467L143.334 67.0829L142.778 67.5462L144.352 68.5654L144.954 68.1021L143.565 67.1756L143.982 66.8049ZM145.973 65.6004L145.927 63.8862L145.278 64.2105V65.7394L144.63 66.0637L145.973 67.3609L146.667 66.9902L145.464 65.832L145.973 65.6004ZM148.149 64.7664L148.473 63.0986L147.732 63.2839L147.454 64.7664L146.76 64.9518L147.778 66.4806L148.519 66.2953L147.593 64.9054L148.149 64.7664ZM150.464 64.3958L151.065 62.8206L150.325 62.867L149.769 64.2568L149.028 64.3032L149.769 66.0173L150.51 65.971L149.908 64.4421L150.464 64.3958ZM140.973 70.3259L140.001 68.9361L139.63 69.631L140.464 70.8355L140.139 71.4842L141.945 71.8085L142.315 71.1135L140.695 70.8355L140.973 70.3259ZM140.047 72.4571L138.797 71.2988L138.565 72.0401L139.677 73.0593L139.445 73.7543L141.297 73.7079L141.528 72.9667L139.862 73.013L140.047 72.4571ZM139.538 74.7272L138.102 73.8469L138.01 74.5882L139.26 75.3758L139.214 76.1171L141.019 75.7001L141.112 74.9588L139.491 75.2831L139.538 74.7272ZM137.223 58.929L135.51 58.2341L135.047 58.8363L136.575 59.4849L136.204 59.9019L136.899 61.4308L137.408 60.8748L136.76 59.4849L137.223 58.929ZM134.167 59.7629L133.565 60.2262L134.954 61.1528L134.491 61.4771L134.862 63.1449L135.464 62.6816L135.139 61.1991L135.741 60.7822L134.167 59.7629ZM132.547 60.9675L131.852 61.2918L133.056 62.4963L132.547 62.728V64.4421L133.241 64.0715V62.589L133.889 62.2647L132.547 60.9675ZM130.741 61.8014L129.954 62.033L130.88 63.4229L130.371 63.5619L130.047 65.2297L130.788 65.0444L131.065 63.5619L131.76 63.3766L130.741 61.8014ZM128.889 62.311L128.102 62.3573L128.751 63.8862L128.195 63.9325L127.547 65.5077L128.334 65.4614L128.889 64.0715L129.584 64.0252L128.889 62.311ZM138.519 59.3923L138.889 58.6973L138.01 57.4928L138.38 56.8442L136.575 56.5199L136.158 57.1685L137.825 57.4928L137.547 58.0024L138.519 59.3923ZM138.427 56.0103L139.677 57.2148L139.908 56.4736L138.797 55.408L139.028 54.7594H137.176L136.945 55.5006H138.612L138.427 56.0103ZM138.982 53.8791L140.417 54.7594L140.51 54.0181L139.214 53.2305L139.306 52.4893L137.501 52.9062L137.408 53.6475L139.028 53.3232L138.982 53.8791Z" fill="#CF0022"/>
<path d="M46.1562 75.7932L48.1007 73.4304C49.4433 74.5423 50.8785 75.2836 52.5914 75.2836C53.934 75.2836 54.7674 74.7276 54.7674 73.8474V73.801C54.7674 72.9671 54.2581 72.5501 51.7118 71.9015C48.6563 71.114 46.7118 70.28 46.7118 67.2686V67.2223C46.7118 64.4889 48.8877 62.6821 51.9896 62.6821C54.1655 62.6821 56.0637 63.377 57.5914 64.5816L55.8785 67.0833C54.5359 66.1567 53.2396 65.6008 51.9433 65.6008C50.6933 65.6008 49.9988 66.2031 49.9988 66.898V66.9443C49.9988 67.9172 50.647 68.2416 53.2396 68.9365C56.2951 69.7241 58.0081 70.836 58.0081 73.4767V73.5231C58.0081 76.5344 55.7396 78.2023 52.4525 78.2023C50.2766 78.2023 47.9618 77.4147 46.1562 75.7932ZM59.0266 75.7932L60.9711 73.4304C62.3137 74.5423 63.7488 75.2836 65.4618 75.2836C66.8044 75.2836 67.6377 74.7276 67.6377 73.8474V73.801C67.6377 72.9671 67.1285 72.5501 64.5822 71.9015C61.5266 71.114 59.5822 70.28 59.5822 67.2686V67.2223C59.5822 64.4889 61.7581 62.6821 64.86 62.6821C67.0359 62.6821 68.934 63.377 70.4618 64.5816L68.7488 67.0833C67.4063 66.1567 66.11 65.6008 64.8137 65.6008C63.5174 65.6008 62.8692 66.2031 62.8692 66.898V66.9443C62.8692 67.9172 63.5174 68.2416 66.11 68.9365C69.1655 69.7241 70.8785 70.836 70.8785 73.4767V73.5231C70.8785 76.5344 68.61 78.2023 65.3229 78.2023C63.147 78.2023 60.8322 77.4147 59.0266 75.7932ZM72.2674 70.4653C72.2674 66.1567 75.6007 62.6357 80.184 62.6357C82.9155 62.6357 84.5359 63.377 86.11 64.7205L84.0266 67.2223C82.8692 66.2494 81.8507 65.6935 80.0914 65.6935C77.684 65.6935 75.7859 67.8246 75.7859 70.3727V70.419C75.7859 73.1988 77.684 75.1909 80.3692 75.1909C81.5729 75.1909 82.6377 74.8666 83.4711 74.2643V72.0869H80.0914V69.2145H86.6192V75.7469C85.0914 77.0441 82.9155 78.156 80.184 78.156C75.5081 78.2486 72.2674 74.9593 72.2674 70.4653Z" fill="white"/>
</g>
<defs>
<clipPath id="clip0_463_17063">
<rect width="200" height="118" fill="white" transform="translate(0 41)"/>
</clipPath>
</defs>
</svg>
