<svg width="106" height="24" viewBox="0 0 106 24" fill="none" xmlns="http://www.w3.org/2000/svg">
<rect x="73.8906" width="32" height="24" rx="4" fill="#002561"/>
<path d="M78.8672 4.85938H83.4961L86.8555 13.082H87.0312L90.3906 4.85938H95.0195V19H91.3867V10.6797H91.2695L88.0469 18.9023H85.8203L82.6172 10.6211H82.5V19H78.8672V4.85938Z" fill="white"/>
<path d="M55.6055 19V4.85938H59.3164V10.4258H64.5312V4.85938H68.2617V19H64.5312V13.4336H59.3164V19H55.6055Z" fill="#002561"/>
<path d="M50.0391 10.1133C49.9219 8.78516 49.0234 7.90625 47.5195 7.90625C45.5664 7.90625 44.4531 9.41016 44.4531 11.9297C44.4531 14.5859 45.5859 15.9531 47.5 15.9531C48.9258 15.9531 49.8438 15.1719 50.0391 13.9219L53.8086 13.9609C53.6133 16.3828 51.4844 19.1953 47.4219 19.1953C43.5352 19.1953 40.625 16.6172 40.625 11.9297C40.625 7.22266 43.6133 4.66406 47.4219 4.66406C50.9375 4.66406 53.4961 6.63672 53.8086 10.1133H50.0391Z" fill="#002561"/>
<path d="M27.6953 7.86719V4.85938H39.8828V7.86719H35.625V19H31.9531V7.86719H27.6953Z" fill="#002561"/>
<path d="M18.0664 19H14.043L18.75 4.85938H23.8086L28.4961 19H24.4922L23.6523 16.2266H18.9062L18.0664 19ZM19.7656 13.4141H22.793L21.3281 8.66797H21.2109L19.7656 13.4141Z" fill="#002561"/>
<path d="M9.41406 10.1133C9.29688 8.78516 8.39844 7.90625 6.89453 7.90625C4.94141 7.90625 3.82812 9.41016 3.82812 11.9297C3.82812 14.5859 4.96094 15.9531 6.875 15.9531C8.30078 15.9531 9.21875 15.1719 9.41406 13.9219L13.1836 13.9609C12.9883 16.3828 10.8594 19.1953 6.79688 19.1953C2.91016 19.1953 0 16.6172 0 11.9297C0 7.22266 2.98828 4.66406 6.79688 4.66406C10.3125 4.66406 12.8711 6.63672 13.1836 10.1133H9.41406Z" fill="#002561"/>
<g clip-path="url(#clip0_1255_12829)">
<path d="M98.8919 3.41699C99.3886 3.41622 99.8691 3.59363 100.246 3.91699C100.073 4.0649 99.9259 4.23998 99.8094 4.43533L99.8003 4.43116C99.7754 4.41909 99.7484 4.41208 99.7208 4.41055C99.6932 4.40901 99.6656 4.41298 99.6396 4.42222C99.6135 4.43145 99.5896 4.44578 99.5692 4.46436C99.5487 4.48293 99.5322 4.50539 99.5205 4.53042C99.5088 4.55546 99.5022 4.58257 99.5011 4.61017C99.5 4.63778 99.5044 4.66533 99.514 4.69122C99.5236 4.71711 99.5383 4.74083 99.5572 4.76099C99.5761 4.78115 99.5988 4.79736 99.624 4.80866L99.633 4.81283C99.5788 4.96779 99.5433 5.12864 99.5271 5.29199H99.5169C99.4617 5.29199 99.4087 5.31394 99.3696 5.35301C99.3305 5.39208 99.3086 5.44507 99.3086 5.50033C99.3086 5.55558 99.3305 5.60857 99.3696 5.64764C99.4087 5.68671 99.4617 5.70866 99.5169 5.70866H99.5273C99.5435 5.872 99.579 6.03284 99.633 6.18783L99.624 6.19199C99.5988 6.2033 99.5761 6.2195 99.5572 6.23966C99.5383 6.25983 99.5236 6.28354 99.514 6.30944C99.5044 6.33533 99.5 6.36288 99.5011 6.39048C99.5022 6.41809 99.5088 6.4452 99.5205 6.47023C99.5322 6.49526 99.5487 6.51772 99.5692 6.5363C99.5896 6.55488 99.6135 6.5692 99.6396 6.57844C99.6656 6.58768 99.6932 6.59164 99.7208 6.59011C99.7484 6.58857 99.7754 6.58156 99.8003 6.56949L99.8094 6.56533C99.9261 6.76116 100.074 6.93616 100.246 7.08366C99.8691 7.40703 99.3886 7.58444 98.8919 7.58366C98.3952 7.58444 97.9148 7.40703 97.5378 7.08366C97.7105 6.93574 97.858 6.76067 97.9744 6.56533L97.9836 6.56949C98.0084 6.58156 98.0355 6.58857 98.063 6.59011C98.0906 6.59164 98.1182 6.58768 98.1443 6.57844C98.1703 6.5692 98.1943 6.55488 98.2147 6.5363C98.2351 6.51772 98.2517 6.49526 98.2634 6.47023C98.2751 6.4452 98.2817 6.41809 98.2828 6.39048C98.2839 6.36288 98.2795 6.33533 98.2699 6.30944C98.2602 6.28354 98.2455 6.25983 98.2267 6.23966C98.2078 6.2195 98.1851 6.2033 98.1598 6.19199L98.1509 6.18783C98.205 6.03285 98.2404 5.872 98.2565 5.70866H98.2669C98.3222 5.70866 98.3752 5.68671 98.4142 5.64764C98.4533 5.60857 98.4753 5.55558 98.4753 5.50033C98.4753 5.44507 98.4533 5.39208 98.4142 5.35301C98.3752 5.31394 98.3222 5.29199 98.2669 5.29199H98.2565C98.2404 5.12865 98.2049 4.9678 98.1509 4.81283L98.1598 4.80866C98.1846 4.79709 98.2069 4.78074 98.2254 4.76056C98.2439 4.74038 98.2582 4.71675 98.2676 4.69103C98.2769 4.66531 98.2811 4.638 98.2799 4.61066C98.2787 4.58332 98.2721 4.55648 98.2606 4.53168C98.249 4.50688 98.2327 4.4846 98.2125 4.46612C98.1923 4.44763 98.1687 4.43331 98.1429 4.42395C98.1172 4.4146 98.0899 4.4104 98.0626 4.4116C98.0352 4.41281 98.0084 4.41938 97.9836 4.43095L97.9744 4.43533C97.8578 4.23949 97.7098 4.06449 97.5378 3.91699C97.9148 3.59363 98.3952 3.41622 98.8919 3.41699ZM97.2492 4.21887C97.3843 4.33126 97.5009 4.46421 97.5946 4.61283C97.5474 4.63782 97.5115 4.68003 97.4945 4.73071C97.4775 4.7814 97.4806 4.83668 97.5033 4.88512C97.5259 4.93356 97.5663 4.97146 97.616 4.99096C97.6658 5.01047 97.7212 5.01009 97.7707 4.98991C97.8019 5.08699 97.8244 5.18824 97.8373 5.29241C97.7845 5.29576 97.7349 5.31912 97.6986 5.35775C97.6624 5.39637 97.6422 5.44735 97.6422 5.50033C97.6422 5.5533 97.6624 5.60429 97.6986 5.64291C97.7349 5.68153 97.7845 5.7049 97.8373 5.70824C97.8244 5.81241 97.8019 5.91366 97.7707 6.01095C97.7213 5.99129 97.6663 5.99125 97.6168 6.01084C97.5674 6.03044 97.5274 6.06818 97.5049 6.11634C97.4824 6.16451 97.4791 6.21945 97.4958 6.26992C97.5125 6.32039 97.5479 6.36257 97.5946 6.38783C97.5009 6.53645 97.3843 6.6694 97.2492 6.78179C96.963 6.416 96.8079 5.96476 96.8086 5.50033C96.8086 5.01699 96.9732 4.5722 97.2492 4.21887ZM100.535 4.21887C100.821 4.58465 100.976 5.03589 100.975 5.50033C100.975 5.98366 100.811 6.42845 100.535 6.78179C100.4 6.66939 100.283 6.53645 100.189 6.38783C100.236 6.36283 100.272 6.32063 100.289 6.26994C100.306 6.21926 100.303 6.16398 100.281 6.11554C100.258 6.06709 100.218 6.0292 100.168 6.00969C100.118 5.99019 100.063 5.99056 100.013 6.01074C99.9816 5.91222 99.9592 5.81094 99.9465 5.70824C99.9994 5.7049 100.049 5.68153 100.085 5.64291C100.121 5.60429 100.142 5.5533 100.142 5.50033C100.142 5.44735 100.121 5.39637 100.085 5.35775C100.049 5.31912 99.9994 5.29576 99.9465 5.29241C99.9594 5.18824 99.9819 5.08699 100.013 4.9897C100.063 5.00937 100.118 5.0094 100.167 4.98981C100.216 4.97022 100.256 4.93248 100.279 4.88431C100.301 4.83615 100.305 4.78121 100.288 4.73074C100.271 4.68027 100.236 4.63808 100.189 4.61283C100.283 4.46421 100.4 4.33126 100.535 4.21887Z" fill="white"/>
</g>
<rect x="96.8906" y="9" width="4" height="10" fill="white"/>
<defs>
<clipPath id="clip0_1255_12829">
<rect width="5" height="5" fill="white" transform="translate(96.3906 3)"/>
</clipPath>
</defs>
</svg>
