<svg width="190" height="44" viewBox="0 0 190 44" fill="none" xmlns="http://www.w3.org/2000/svg">
<rect x="132.523" y="0.950195" width="57.3333" height="43" rx="4" fill="white"/>
<path d="M141.445 9.65625H149.739L155.758 24.3885H156.073L162.091 9.65625H170.385V34.9915H163.876V20.0843H163.666L157.892 34.8166H153.903L148.164 19.9793H147.954V34.9915H141.445V9.65625Z" fill="#002561"/>
<path d="M99.7656 34.9915V9.65625H106.414V19.6294H115.758V9.65625H122.441V34.9915H115.758V25.0184H106.414V34.9915H99.7656Z" fill="white"/>
<path d="M89.7926 19.0698C89.5827 16.6903 87.973 15.1156 85.2785 15.1156C81.7791 15.1156 79.7845 17.8101 79.7845 22.3242C79.7845 27.0833 81.8141 29.5329 85.2435 29.5329C87.798 29.5329 89.4427 28.1331 89.7926 25.8936L96.5464 25.9635C96.1965 30.3027 92.3822 35.3418 85.1035 35.3418C78.1398 35.3418 72.9258 30.7227 72.9258 22.3242C72.9258 13.8908 78.2798 9.30664 85.1035 9.30664C91.4023 9.30664 95.9865 12.841 96.5464 19.0698H89.7926Z" fill="white"/>
<path d="M49.7617 15.0452V9.65625H71.5977V15.0452H63.9691V34.9915H57.3903V15.0452H49.7617Z" fill="white"/>
<path d="M32.5094 34.9915H25.3008L33.7342 9.65625H42.7975L51.196 34.9915H44.0223L42.5176 30.0225H34.0142L32.5094 34.9915ZM35.5539 24.9834H40.9779L38.3534 16.48H38.1434L35.5539 24.9834Z" fill="white"/>
<path d="M17.0075 19.0698C16.7975 16.6903 15.1878 15.1156 12.4933 15.1156C8.99398 15.1156 6.99935 17.8101 6.99935 22.3242C6.99935 27.0833 9.02897 29.5329 12.4583 29.5329C15.0129 29.5329 16.6576 28.1331 17.0075 25.8936L23.7612 25.9635C23.4113 30.3027 19.597 35.3418 12.3184 35.3418C5.35465 35.3418 0.140625 30.7227 0.140625 22.3242C0.140625 13.8908 5.49463 9.30664 12.3184 9.30664C18.6172 9.30664 23.2013 12.841 23.7612 19.0698H17.0075Z" fill="white"/>
<g clip-path="url(#clip0_1254_12868)">
<path d="M177.319 7.07129C178.208 7.0699 179.069 7.38776 179.745 7.96713C179.435 8.23213 179.171 8.5458 178.962 8.89581L178.946 8.88834C178.901 8.86672 178.853 8.85416 178.804 8.85141C178.754 8.84866 178.705 8.85577 178.658 8.87232C178.611 8.88887 178.569 8.91453 178.532 8.94782C178.495 8.9811 178.466 9.02134 178.445 9.06619C178.424 9.11104 178.412 9.15961 178.41 9.20907C178.408 9.25853 178.416 9.30789 178.433 9.35428C178.45 9.40067 178.477 9.44317 178.511 9.47929C178.544 9.51541 178.585 9.54445 178.63 9.5647L178.646 9.57216C178.549 9.8498 178.486 10.138 178.457 10.4307H178.438C178.339 10.4307 178.244 10.47 178.174 10.54C178.104 10.61 178.065 10.7049 178.065 10.8039C178.065 10.9029 178.104 10.9979 178.174 11.0679C178.244 11.1379 178.339 11.1772 178.438 11.1772H178.457C178.486 11.4698 178.55 11.758 178.646 12.0357L178.63 12.0432C178.585 12.0634 178.544 12.0925 178.511 12.1286C178.477 12.1647 178.45 12.2072 178.433 12.2536C178.416 12.3 178.408 12.3493 178.41 12.3988C178.412 12.4483 178.424 12.4968 178.445 12.5417C178.466 12.5865 178.495 12.6268 178.532 12.66C178.569 12.6933 178.611 12.719 178.658 12.7355C178.705 12.7521 178.754 12.7592 178.804 12.7565C178.853 12.7537 178.901 12.7411 178.946 12.7195L178.962 12.7121C179.171 13.0629 179.436 13.3765 179.745 13.6407C179.069 14.2201 178.208 14.538 177.319 14.5366C176.429 14.538 175.568 14.2201 174.892 13.6407C175.202 13.3757 175.466 13.0621 175.675 12.7121L175.691 12.7195C175.736 12.7411 175.784 12.7537 175.833 12.7565C175.883 12.7592 175.932 12.7521 175.979 12.7355C176.026 12.719 176.069 12.6933 176.105 12.66C176.142 12.6268 176.172 12.5865 176.192 12.5417C176.213 12.4968 176.225 12.4483 176.227 12.3988C176.229 12.3493 176.221 12.3 176.204 12.2536C176.187 12.2072 176.16 12.1647 176.127 12.1286C176.093 12.0925 176.052 12.0634 176.007 12.0432L175.991 12.0357C176.088 11.758 176.151 11.4699 176.18 11.1772H176.199C176.298 11.1772 176.393 11.1379 176.463 11.0679C176.533 10.9979 176.572 10.9029 176.572 10.8039C176.572 10.7049 176.533 10.61 176.463 10.54C176.393 10.47 176.298 10.4307 176.199 10.4307H176.18C176.151 10.138 176.088 9.84982 175.991 9.57216L176.007 9.5647C176.051 9.54396 176.091 9.51468 176.124 9.47852C176.158 9.44236 176.183 9.40003 176.2 9.35395C176.217 9.30786 176.224 9.25893 176.222 9.20995C176.22 9.16096 176.208 9.11288 176.187 9.06844C176.167 9.02401 176.137 8.98409 176.101 8.95097C176.065 8.91786 176.023 8.89219 175.977 8.87543C175.931 8.85867 175.882 8.85115 175.833 8.8533C175.784 8.85545 175.736 8.86723 175.691 8.88797L175.675 8.89581C175.466 8.54494 175.201 8.2314 174.892 7.96713C175.568 7.38776 176.429 7.0699 177.319 7.07129ZM174.375 8.50799C174.617 8.70936 174.826 8.94755 174.994 9.21383C174.91 9.25861 174.845 9.33423 174.815 9.42504C174.784 9.51584 174.79 9.61489 174.831 9.70169C174.871 9.78848 174.943 9.85637 175.033 9.89132C175.122 9.92627 175.221 9.92559 175.31 9.88944C175.366 10.0634 175.406 10.2448 175.429 10.4314C175.334 10.4374 175.246 10.4793 175.181 10.5485C175.116 10.6177 175.079 10.709 175.079 10.8039C175.079 10.8988 175.116 10.9902 175.181 11.0594C175.246 11.1286 175.334 11.1704 175.429 11.1764C175.406 11.3631 175.366 11.5445 175.31 11.7188C175.221 11.6836 175.123 11.6835 175.034 11.7186C174.946 11.7537 174.874 11.8213 174.833 11.9076C174.793 11.9939 174.787 12.0924 174.817 12.1828C174.847 12.2732 174.91 12.3488 174.994 12.394C174.826 12.6603 174.617 12.8985 174.375 13.0999C173.863 12.4445 173.585 11.636 173.586 10.8039C173.586 9.93796 173.881 9.14104 174.375 8.50799ZM180.262 8.50799C180.775 9.16335 181.053 9.97182 181.051 10.8039C181.051 11.6699 180.756 12.4668 180.262 13.0999C180.02 12.8985 179.811 12.6603 179.643 12.394C179.728 12.3493 179.792 12.2736 179.822 12.1828C179.853 12.092 179.847 11.993 179.807 11.9062C179.766 11.8194 179.694 11.7515 179.605 11.7165C179.515 11.6816 179.416 11.6823 179.327 11.7184C179.271 11.5419 179.231 11.3604 179.208 11.1764C179.303 11.1704 179.392 11.1286 179.457 11.0594C179.522 10.9902 179.558 10.8988 179.558 10.8039C179.558 10.709 179.522 10.6177 179.457 10.5485C179.392 10.4793 179.303 10.4374 179.208 10.4314C179.231 10.2448 179.271 10.0634 179.327 9.88906C179.416 9.92429 179.515 9.92436 179.603 9.88926C179.692 9.85415 179.763 9.78653 179.804 9.70024C179.844 9.61395 179.85 9.51551 179.82 9.42508C179.79 9.33466 179.727 9.25908 179.643 9.21383C179.811 8.94755 180.02 8.70936 180.262 8.50799Z" fill="#002561"/>
</g>
<rect x="173.73" y="17.0752" width="7.16667" height="17.9167" fill="#002561"/>
<defs>
<clipPath id="clip0_1254_12868">
<rect width="8.95833" height="8.95833" fill="white" transform="translate(172.84 6.3252)"/>
</clipPath>
</defs>
</svg>
