<svg width="100" height="100" viewBox="0 0 100 100" fill="none" xmlns="http://www.w3.org/2000/svg">
<g clip-path="url(#clip0_867_12983)">
<circle cx="50" cy="50" r="50" fill="#7D7D7D"/>
<path fill-rule="evenodd" clip-rule="evenodd" d="M50.0026 20.834C66.1114 20.834 79.1693 33.8919 79.1693 50.0006C79.1693 66.1094 66.1114 79.1673 50.0026 79.1673C33.8939 79.1673 20.8359 66.1094 20.8359 50.0006C20.8359 33.8919 33.8939 20.834 50.0026 20.834ZM50.0026 26.6673C45.3204 26.6601 40.7454 28.0682 36.8776 30.7069C38.0734 32.0602 39.1439 33.5302 40.0743 35.0907L40.2026 35.0323C40.8768 34.719 41.6451 34.6749 42.3507 34.9091C43.0563 35.1433 43.6458 35.638 43.9988 36.2923C44.3518 36.9466 44.4416 37.7109 44.25 38.4292C44.0583 39.1475 43.5996 39.7655 42.9676 40.1569L42.5418 40.3756C43.2884 42.5106 43.7959 44.7565 44.0264 47.084H44.1693C44.9428 47.084 45.6847 47.3913 46.2317 47.9383C46.7786 48.4852 47.0859 49.2271 47.0859 50.0006C47.0859 50.7742 46.7786 51.5161 46.2317 52.063C45.6847 52.61 44.9428 52.9173 44.1693 52.9173H44.0234C43.797 55.2042 43.2996 57.4561 42.5418 59.6256L42.6701 59.684C43.023 59.8422 43.341 60.0691 43.6054 60.3513C43.8698 60.6336 44.0755 60.9657 44.2104 61.3282C44.3453 61.6907 44.4067 62.0764 44.3912 62.4628C44.3756 62.8493 44.2833 63.2288 44.1197 63.5793C43.956 63.9298 43.7243 64.2442 43.4381 64.5043C43.1518 64.7643 42.8166 64.9649 42.4521 65.0942C42.0876 65.2235 41.7009 65.2791 41.3148 65.2576C40.9286 65.2361 40.5505 65.138 40.2026 64.969L40.0743 64.9106C39.1452 66.4674 38.0741 67.935 36.8747 69.2944C40.7433 71.9337 45.3194 73.3418 50.0026 73.334C54.6848 73.3412 59.2598 71.9331 63.1276 69.2944C61.9318 67.9381 60.8614 66.4711 59.9309 64.9106L59.8026 64.969C59.1038 65.2823 58.3098 65.3082 57.5921 65.0411C56.8744 64.774 56.2905 64.2354 55.9666 63.5415C55.6426 62.8476 55.6045 62.0541 55.8606 61.3324C56.1166 60.6106 56.6463 60.0186 57.3351 59.684L57.4605 59.6256C56.7028 57.4561 56.2054 55.2042 55.9789 52.9173H55.8359C55.0624 52.9173 54.3205 52.61 53.7735 52.063C53.2266 51.5161 52.9193 50.7742 52.9193 50.0006C52.9193 49.2271 53.2266 48.4852 53.7735 47.9383C54.3205 47.3913 55.0624 47.084 55.8359 47.084H55.9818C56.2079 44.7973 56.7043 42.5455 57.4605 40.3756L57.3351 40.3173C56.6339 39.9901 56.0914 39.3977 55.8269 38.6705C55.5624 37.9433 55.5977 37.1408 55.9249 36.4396C56.2521 35.7384 56.8445 35.1959 57.5717 34.9314C58.2989 34.6669 59.1014 34.7022 59.8026 35.0294L59.9309 35.0907C60.8583 33.5334 61.9284 32.0659 63.1276 30.7069C59.2598 28.0682 54.6848 26.6601 50.0026 26.6673ZM67.5026 34.5657C66.6717 35.507 65.9177 36.5136 65.248 37.5756C65.9029 37.9292 66.3978 38.5198 66.6314 39.2264C66.8651 39.933 66.8198 40.7022 66.5048 41.3765C66.1899 42.0507 65.6291 42.5791 64.9372 42.8534C64.2454 43.1277 63.4749 43.1272 62.7834 42.8519C62.3459 44.214 62.0309 45.6315 61.8501 47.0898C62.5903 47.1367 63.2847 47.4638 63.7923 48.0045C64.2999 48.5452 64.5824 49.259 64.5824 50.0006C64.5824 50.7423 64.2999 51.4561 63.7923 51.9968C63.2847 52.5375 62.5903 52.8646 61.8501 52.9115C62.0309 54.3698 62.3459 55.7873 62.7834 57.1494C63.4734 56.8804 64.2398 56.8839 64.9273 57.1592C65.6147 57.4345 66.1717 57.961 66.4852 58.6319C66.7988 59.3028 66.8454 60.0678 66.6156 60.7718C66.3859 61.4757 65.8969 62.066 65.248 62.4227C65.9188 63.4873 66.6743 64.4936 67.5026 65.4356C71.2691 61.1771 73.3444 55.6859 73.3359 50.0006C73.3444 44.3154 71.2691 38.8242 67.5026 34.5657ZM32.5026 34.5657C28.7361 38.8242 26.6608 44.3154 26.6693 50.0006C26.6608 55.6859 28.7361 61.1771 32.5026 65.4356C33.3337 64.4934 34.0877 63.4859 34.7572 62.4227C34.1083 62.066 33.6193 61.4757 33.3896 60.7718C33.1598 60.0678 33.2064 59.3028 33.52 58.6319C33.8335 57.961 34.3905 57.4345 35.078 57.1592C35.7654 56.8839 36.5318 56.8804 37.2218 57.1494C37.6593 55.7873 37.9743 54.3698 38.1551 52.9115C37.415 52.8646 36.7205 52.5375 36.2129 51.9968C35.7053 51.4561 35.4228 50.7423 35.4228 50.0006C35.4228 49.259 35.7053 48.5452 36.2129 48.0045C36.7205 47.4638 37.415 47.1367 38.1551 47.0898C37.9743 45.6315 37.6593 44.214 37.2218 42.8519C36.5303 43.1272 35.7598 43.1277 35.068 42.8534C34.3762 42.5791 33.8153 42.0507 33.5004 41.3765C33.1854 40.7022 33.1401 39.933 33.3738 39.2264C33.6074 38.5198 34.1023 37.9292 34.7572 37.5756C34.0876 36.5135 33.3336 35.5069 32.5026 34.5657Z" fill="#E8E8E8"/>
</g>
<defs>
<clipPath id="clip0_867_12983">
<rect width="100" height="100" fill="white"/>
</clipPath>
</defs>
</svg>
