<svg width="100" height="100" viewBox="0 0 100 100" fill="none" xmlns="http://www.w3.org/2000/svg">
<rect width="100" height="100" rx="4" fill="#2B2B2B"/>
<path d="M59.2109 53.6875V65H56.2422V53.6875H59.2109Z" fill="#F2F3F6"/>
<path d="M41.7891 53.6875H45.4922L48.1797 60.2656H48.3203L51.0078 53.6875H54.7109V65H51.8047V58.3438H51.7109L49.1328 64.9219H47.3516L44.7891 58.2969H44.6953V65H41.7891V53.6875Z" fill="#F2F3F6"/>
<path d="M67.6484 46V34.6875H70.6172V39.1406H74.7891V34.6875H77.7734V46H74.7891V41.5469H70.6172V46H67.6484Z" fill="#F2F3F6"/>
<path d="M63.1953 38.8906C63.0938 37.8281 62.3828 37.125 61.1797 37.125C59.6094 37.125 58.7266 38.3203 58.7266 40.3438C58.7266 42.4688 59.6328 43.5547 61.1641 43.5625C62.3125 43.5547 63.0312 42.9453 63.1953 41.9375L66.2109 41.9688C66.0469 43.9062 64.3594 46.1562 61.1016 46.1562C58 46.1562 55.6719 44.0938 55.6641 40.3438C55.6719 36.5781 58.0625 34.5312 61.1016 34.5312C63.9219 34.5312 65.9609 36.1094 66.2109 38.8906H63.1953Z" fill="#F2F3F6"/>
<path d="M45.3203 37.0938V34.6875H55.0703V37.0938H51.6641V46H48.7266V37.0938H45.3203Z" fill="#F2F3F6"/>
<path d="M37.6172 46H34.3984L38.1641 34.6875H42.2109L45.9609 46H42.7578L42.0781 43.7812H38.2891L37.6172 46ZM38.9766 41.5312H41.3906L40.2266 37.7344H40.1328L38.9766 41.5312Z" fill="#F2F3F6"/>
<path d="M30.6953 38.8906C30.5938 37.8281 29.8828 37.125 28.6797 37.125C27.1094 37.125 26.2266 38.3203 26.2266 40.3438C26.2266 42.4688 27.1328 43.5547 28.6641 43.5625C29.8125 43.5547 30.5312 42.9453 30.6953 41.9375L33.7109 41.9688C33.5469 43.9062 31.8594 46.1562 28.6016 46.1562C25.5 46.1562 23.1719 44.0938 23.1641 40.3438C23.1719 36.5781 25.5625 34.5312 28.6016 34.5312C31.4219 34.5312 33.4609 36.1094 33.7109 38.8906H30.6953Z" fill="#F2F3F6"/>
</svg>
