<svg width="100" height="101" viewBox="0 0 100 101" fill="none" xmlns="http://www.w3.org/2000/svg">
<rect y="0.857422" width="100" height="100" rx="4" fill="#2B2B2B"/>
<path d="M13.2344 46.8574V35.5449H18.0469C20.5781 35.5449 22.2344 37.1309 22.2344 39.5137C22.2344 41.9355 20.5312 43.459 17.9531 43.4512H16.2031V46.8574H13.2344ZM16.2031 41.1387H17.3594C18.4766 41.1309 19.1328 40.5059 19.125 39.5137C19.1328 38.5293 18.4766 37.9277 17.3594 37.9199H16.2031V41.1387ZM26.375 35.5449V46.8574H23.4062V35.5449H26.375ZM27.5781 37.9512V35.5449H37.3281V37.9512H33.9219V46.8574H30.9844V37.9512H27.5781ZM45.4531 39.748C45.3516 38.6855 44.6406 37.9824 43.4375 37.9824C41.8672 37.9824 40.9844 39.1777 40.9844 41.2012C40.9844 43.3262 41.8906 44.4121 43.4219 44.4199C44.5703 44.4121 45.2891 43.8027 45.4531 42.7949L48.4688 42.8262C48.3047 44.7637 46.6172 47.0137 43.3594 47.0137C40.2578 47.0137 37.9297 44.9512 37.9219 41.2012C37.9297 37.4355 40.3203 35.3887 43.3594 35.3887C46.1797 35.3887 48.2188 36.9668 48.4688 39.748H45.4531ZM49.9062 46.8574V35.5449H52.875V39.998H57.0469V35.5449H60.0312V46.8574H57.0469V42.4043H52.875V46.8574H49.9062ZM64.5156 35.5449V46.8574H61.5469V35.5449H64.5156ZM75.7812 35.5449V46.8574H73.2969L69.0938 40.748H69.0156V46.8574H66.0469V35.5449H68.5781L72.7188 41.623H72.8125V35.5449H75.7812ZM84.6719 39.2637C84.4688 38.4512 83.7891 37.9824 82.7969 37.9824C81.2188 37.9824 80.2969 39.1621 80.2969 41.1855C80.2969 43.2168 81.1562 44.4121 82.7812 44.4199C84.1875 44.4121 84.9219 43.748 84.9375 42.7012H82.8438V40.5762H87.8125V42.123C87.8125 45.2012 85.7031 47.0137 82.75 47.0137C79.4688 47.0137 77.2422 44.8027 77.2344 41.2168C77.2422 37.498 79.6875 35.3887 82.7344 35.3887C85.3906 35.3887 87.4375 36.998 87.6875 39.2637H84.6719ZM28.4922 54.5449H32.1953L34.8828 61.123H35.0234L37.7109 54.5449H41.4141V65.8574H38.5078V59.2012H38.4141L35.8359 65.7793H34.0547L31.4922 59.1543H31.3984V65.8574H28.4922V54.5449ZM45.7422 65.8574H42.5234L46.2891 54.5449H50.3359L54.0859 65.8574H50.8828L50.2031 63.6387H46.4141L45.7422 65.8574ZM47.1016 61.3887H49.5156L48.3516 57.5918H48.2578L47.1016 61.3887ZM53.4453 56.9512V54.5449H63.1953V56.9512H59.7891V65.8574H56.8516V56.9512H53.4453ZM64.3984 65.8574V54.5449H72.4766V56.9512H67.3672V58.998H72.0547V61.4043H67.3672V63.4512H72.4609V65.8574H64.3984Z" fill="#F2F3F6"/>
</svg>
